<svg width="27" height="30" viewBox="0 0 27 30" fill="none" xmlns="http://www.w3.org/2000/svg">
<path d="M26.2128 0.931729V0.190002H4.00336C1.89254 0.190002 0.167175 1.52511 0.167175 3.17174C0.167175 3.17916 0.167175 3.18658 0.167175 3.20141V27.0183C0.167175 28.6575 1.89254 30 4.00336 30H5.38915H5.84803H25.9742V5.40434H24.7444V0.931729H26.2128ZM25.0565 6.14607V29.2434H6.3069V25.8538H5.38915V29.2434H4.00336C2.3973 29.2509 1.08492 28.2421 1.08492 27.0108V5.07798C1.79159 5.72329 2.82864 6.14607 4.00336 6.14607H5.38915V23.1019H6.3069V6.14607H24.7444H25.0565ZM5.38915 5.40434H4.00336C2.3973 5.40434 1.08492 4.40301 1.08492 3.17174C1.08492 3.11982 1.10328 3.07532 1.10328 3.0234H6.18759V2.28167H1.33271C1.78241 1.48802 2.81029 0.931729 4.00336 0.931729H23.8267V2.27426H19.0085V3.01598H23.8267V5.40434H5.38915Z" fill="#0F7386"/>
<path d="M16.549 3.46103H8.11486V4.20276H16.549V3.46103Z" fill="#0F7386"/>
<path d="M14.1353 25.4458H15.7138V15.4399H19.9595V14.1641H15.7138V10.7522H14.1353V14.1641H10.2359V15.4399H14.1353V25.4458Z" fill="#0F7386"/>
</svg>
