<?xml version="1.0" encoding="utf-8"?>
<!-- Generator: Adobe Illustrator 25.0.0, SVG Export Plug-In . SVG Version: 6.00 Build 0)  -->
<svg version="1.1" id="Layer_1" xmlns="http://www.w3.org/2000/svg" xmlns:xlink="http://www.w3.org/1999/xlink" x="0px" y="0px"
	 viewBox="0 0 87 87" style="enable-background:new 0 0 87 87;" xml:space="preserve">
<style type="text/css">
	.st0{clip-path:url(#SVGID_2_);}
	.st1{fill:#0F7386;}
	.st2{clip-path:url(#SVGID_2_);fill:#A9E5EA;}
	.st3{clip-path:url(#SVGID_2_);fill:#0D5D68;}
	.st4{clip-path:url(#SVGID_2_);fill:#11777F;}
	.st5{clip-path:url(#SVGID_2_);fill:#159BAD;}
	.st6{clip-path:url(#SVGID_2_);fill:url(#SVGID_3_);}
</style>
<g>
	<defs>
		<circle id="SVGID_1_" cx="43.5" cy="43.5" r="43.5"/>
	</defs>
	<clipPath id="SVGID_2_">
		<use xlink:href="#SVGID_1_"  style="overflow:visible;"/>
	</clipPath>
	<g class="st0">
		<circle class="st1" cx="43.5" cy="43.5" r="43.5"/>
	</g>
	<polygon class="st2" points="50.5,23.9 45.3,23.9 45.3,17.9 41.6,17.9 41.6,23.9 36.4,23.9 36.4,27.1 41.6,27.1 41.6,43.1 
		45.3,43.1 45.3,27.1 50.5,27.1 	"/>
	<path class="st3" d="M42.6,45.4c-0.1,0-0.2,0-0.2,0c-0.5,0-0.8-0.1-1.3-0.3c-0.3-0.1-0.5-0.2-0.7-0.4c-0.2-0.2-0.4-0.5-0.6-0.8
		c-0.3-0.6-0.5-1.3-0.6-2c-0.1-0.3-0.1-0.6-0.2-0.9c-0.1-0.5-0.6-0.9-0.9-1.2c-0.2-0.2-0.3-0.4-0.4-0.6c-0.1-0.3-0.2-0.6-0.2-0.9
		c0-0.2,0-0.3,0-0.5c0-0.1,0-0.2,0-0.2c0,0,0-0.1,0-0.1c0,0,0-0.1,0-0.1c0,0,0.1,0.1,0.1,0.1c0.1,0.1,0.3,0.3,0.4,0.4
		c0.1,0.1,0.5,0.5,0.7,0.2c0-0.1,0-0.2,0-0.2c0-0.2,0-0.3,0.1-0.5c0-0.5,0.1-1,0.3-1.6c0.2-0.5,0.5-0.9,0.9-1.1
		c0,0.3,0.1,0.6,0.1,0.8c0,0.3,0,0.5,0,0.8c0,0.1-0.1,0.3,0,0.4c0,0.1,0.1,0,0.2,0c0.1-0.1,0.1-0.1,0.2-0.2c0.1-0.1,0.1-0.1,0.2-0.2
		c0-0.1,0.1-0.2,0.1-0.2c0,0,0-0.1,0-0.1c0-0.2,0-0.3,0.1-0.5c0-0.2,0.1-0.4,0.1-0.5c0-0.2,0-0.3,0.1-0.5c0.1-0.4,0.3-0.8,0.6-1.1
		c0.2-0.3,0.5-0.5,0.7-0.8c0.1-0.1,0.1-0.1,0.2-0.2c0.1-0.1,0.1-0.1,0.2-0.2c0.1-0.2,0.2-0.4,0.2-0.5c0.1-0.3,0.1-0.5,0.1-0.8
		c0,0.1,0.2,0.3,0.2,0.3c0.1,0.1,0.2,0.2,0.3,0.3c0.1,0.1,0.2,0.2,0.3,0.3c0.1,0.1,0.1,0.2,0.2,0.3c0.6,0.9,0.8,1.9,0.8,3
		c0,0.4,0.3,1,0.6,1.2c0.1,0.1,0.3,0.1,0.5,0.1c0.5-0.2,0.4-1.1,0.4-1.5c0-0.1,0.1-0.3,0.1-0.4c0-0.1,0.2-0.3,0.2-0.4
		c0.1,0.6,0.6,1,1,1.5c0.3,0.4,0.5,0.7,0.6,1.1c0,0,0,0,0,0c0,0,0,0,0.1,0c0.3-0.2,0.5-0.5,0.7-0.8c0,0.1,0,0.4,0,0.5
		c0,0.2,0,0.4,0,0.6c0,0.4,0,0.8,0,1.2c0,0.5,0,1-0.1,1.5c-0.1,0.6-0.3,1.1-0.6,1.5c-0.1,0.2-0.3,0.3-0.4,0.5
		c-0.2,0.2-0.2,0.4-0.4,0.6c-0.3,0.3-0.7,0.5-1,0.8c-0.2,0.2-0.4,0.4-0.7,0.7c-0.5,0.5-1.1,1-1.8,1.3C43.5,45.2,43.1,45.4,42.6,45.4
		z"/>
	<path class="st4" d="M44.1,50.5c0.8-1.1,0-5.5,0-5.5c0,0.2-0.1,0.5-0.2,0.7c-0.1,0.3-0.2,0.5-0.4,0.8c-0.1,0.1-0.2,0.4-0.3,0.4
		c-0.1,0-0.4-0.1-0.5-0.2c-0.2-0.1-0.3-0.1-0.5-0.3c-0.2-0.1-0.3-0.3-0.4-0.5c-0.2-0.4-0.3-0.9-0.4-1.4c0-0.2-0.1-0.4-0.1-0.6
		c-0.1-0.3-0.4-0.6-0.6-0.8c-0.3-0.3-0.6-0.8-0.7-1.2c-0.1-0.3-0.1-0.5-0.2-0.8c-0.1-0.2-0.2-0.4-0.3-0.6c-0.3-0.8-0.4-1.6-0.2-2.4
		c0.2,0.3,0.4,0.7,0.5,1c0.1,0.2,0.2,0.3,0.4,0.4c0.3,0.1,0.6,0,0.8-0.2c0.5-0.4,0.8-0.9,0.9-1.6c0.1-0.3,0.1-0.6,0.1-0.9
		c0.1-0.7,0.5-1.3,0.9-1.8c0,0.7,0.3,1.5,0.7,2.1c0.3,0.4,0.6,0.8,0.9,1.3c0.2,0.4,0.2,0.7,0.4,1.1c0.1,0.2,0.2,0.3,0.3,0.4
		c0.6,0.4,0.9-0.4,1-0.8c0-0.2,0.1-0.4,0.1-0.6c0.2,0.1,0.4,0.3,0.5,0.5c0.1,0.1,0.2,0.3,0.3,0.4c0.2,0.2,0.2,0.2,0.4,0.1
		c0.1,0,0.2,0,0.2-0.1c0.1-0.1,0.3-0.2,0.3-0.3c0,0.5,0,1-0.1,1.5c-0.1,0.4-0.1,0.8-0.2,1.2c0,0.2-0.1,0.3-0.1,0.5
		c0,0.2,0,0.4,0,0.6c-0.1,0.3-0.2,0.6-0.3,0.8c-0.1,0.3-0.2,0.6-0.3,0.9c-0.1,0.3-0.1,0.5-0.1,0.7c0,0.6-0.1,1.3-0.3,1.9
		C46.2,48.9,45.2,50,44.1,50.5z"/>
	<path class="st5" d="M59.6,67.4c-1.3-1.1-2.9-1.7-4.4-1.8c-0.5-1-1.2-1.8-2.1-2.6c-4.3-4-11.1-3.8-15.2,0.5c-1.3,1.4-2.1,3-2.6,4.8
		c-5.1-2.7-11.6-1.8-15.7,2.6C14.7,76,15,84.3,20.3,89.3c3,2.8,7.1,4,10.9,3.4c0.2,4.4,2.1,8.8,5.6,12.1c7.2,6.7,18.5,6.4,25.3-0.9
		c1.1-1.2,2-2.5,2.8-3.9c6,1.4,12.6-0.3,17.2-5.2c6.7-7.2,6.4-18.5-0.9-25.3C75.1,63.9,66.3,63.3,59.6,67.4z"/>
	<radialGradient id="SVGID_3_" cx="43.2644" cy="56.0108" r="18.3337" gradientUnits="userSpaceOnUse">
		<stop  offset="2.396167e-07" style="stop-color:#6EC2C4"/>
		<stop  offset="1" style="stop-color:#6EC2C4"/>
	</radialGradient>
	<path class="st6" d="M44.6,72.4c-0.3,0.2-0.7,0.3-1,0.3c-0.5,0-1.1,0-1.6-0.2c-0.5-0.2-0.9-0.6-1.3-1c-0.9-0.7-1.9-1.5-2.8-2.2
		c-1.9-1.5-3.8-3-5.5-4.6c-3.7-3.3-7.2-6.7-8.5-11.7c-1.8-7.3,2.2-12.6,9.5-13.6c3.2-0.4,6.1,0.4,8.6,2.5c0.3,0.3,0.8,0.5,1.1,0.8
		c0.1,0.1,0.2,0.1,0.3,0.1c0.1,0,0.1,0,0.2-0.1c0.3-0.1,0.4-0.3,0.7-0.5c0.2-0.2,0.4-0.3,0.6-0.4c4-3.5,10.2-3.4,14.6,0
		c3.8,3,4.8,8.6,2.5,13.4c-2.6,5.4-7.2,9.1-11.6,12.8c-1.1,0.9-2.3,1.8-3.4,2.7C46.2,71.3,45.4,72,44.6,72.4z"/>
	<path class="st3" d="M66.1,53.7l-0.7-1.3c0.4-0.6,0.7-1.4,0.6-2.4c-0.1-1-0.4-1.9-1.2-2.5l0.4-1.7L64.1,47
		c-1.2-0.6-3.1-0.7-5.4-0.4L58,45.1l-0.2,1.7c-2.1,0.5-4.5,2-7.1,4.5l-0.5-1.1l-0.6,1.7l0,0c-2.7-0.8-5.1-1.4-6.7-1.2
		c-0.3,0-0.6,0.1-1,0.2l-1-1.4l-0.1,1.7c-2.7,0.9-5.5,2.7-6.1,3.1c-0.3-0.1-0.7-0.2-1-0.3l-0.9-1.3v1.1c-1.1-0.2-2.1-0.4-3.3-0.4
		c-0.2,0-0.4,0-0.6,0l-0.5-1.5L28,53.4c-2.1,0.3-3.7,1.4-4.7,2.7c-0.4-0.3-1.4-0.9-1.4-0.9l0.7,1.9c-0.1,0.1-0.1,0.2-0.1,0.3
		c-0.4,0.9-0.6,1.8-0.5,2.5l-0.8,1.3l1.3-0.2c0.5,0.6,1.3,0.9,2.3,0.9c0.3,0,0.5,0,0.8-0.1l0.5,1.5l0.6-1.7c1.3-0.3,2.3-0.9,2.6-1
		c0.4-0.2,1.1-0.7,1.8-1.3l1,1.3l0.1-2.2c1.1-0.9,2.3-1.9,3-2.5c0.7,0.2,1.3,0.5,1.9,0.7c1.3,0.5,2.6,1.1,4,1.3
		c3.3,0.6,6.1-1.4,7.1-2.2c0.1-0.1,0.2-0.2,0.3-0.2c0.2-0.1,0.4-0.3,1-0.9c0.3-0.3,0.6-0.6,1-1.1c1.5,0.4,3,0.8,4.6,1.1l1.1,1.6
		l0.1-1.5c0.9,0.1,1.9,0.2,2.7,0.1c2-0.1,4.3-0.5,5.8-1.7L66.1,53.7z M28.5,59.3c-1.5,0.8-4.1,1.7-5,0.7c-0.3-0.3-0.2-1.2,0.2-2
		c0.7-1.5,2.6-3.2,5.5-3.2c0.1,0,0.2,0,0.4,0c1.4,0.1,2.6,0.3,3.9,0.6C32.2,56.6,29.5,58.8,28.5,59.3z M48.4,53.6
		c-0.3,0.3-0.7,0.7-0.7,0.7c-0.1,0.1-0.2,0.1-0.4,0.3c-1,0.7-3.3,2.4-6,1.9c-1.3-0.2-2.5-0.7-3.7-1.2c-0.3-0.1-0.7-0.3-1-0.4
		c0.4-0.2,0.9-0.5,1.4-0.8l0.7,1l0.3-1.5c1.4-0.7,3-1.4,4.3-1.5c0.7-0.1,1.6,0.1,2.7,0.3l0.5,2l0.9-1.7c0.5,0.1,1.1,0.3,1.6,0.4
		C48.7,53.3,48.5,53.5,48.4,53.6z M58.8,53.5c-2.1,0.2-4.7-0.4-7.2-1.1c2.7-2.6,5.1-4,7.1-4.3c2.5-0.4,4.3-0.2,5.2,0.5
		c0.5,0.4,0.7,0.9,0.7,1.5C64.7,51.5,64.1,53.1,58.8,53.5z"/>
	<circle class="st5" cx="78.1" cy="65.5" r="11.9"/>
	<circle class="st5" cx="12.5" cy="70.3" r="8.3"/>
	<circle class="st5" cx="3" cy="61.4" r="5.4"/>
	<circle class="st5" cx="79.8" cy="54.2" r="5.4"/>
	<circle class="st5" cx="9.5" cy="61.4" r="3"/>
</g>
</svg>
