<?xml version="1.0" encoding="utf-8"?>
<!-- Generator: Adobe Illustrator 25.0.0, SVG Export Plug-In . SVG Version: 6.00 Build 0)  -->
<svg version="1.1" id="Layer_1" xmlns="http://www.w3.org/2000/svg" xmlns:xlink="http://www.w3.org/1999/xlink" x="0px" y="0px"
	 viewBox="0 0 87 87" style="enable-background:new 0 0 87 87;" xml:space="preserve">
<style type="text/css">
	.st0{clip-path:url(#SVGID_2_);}
	.st1{fill:#0F7386;}
	.st2{clip-path:url(#SVGID_2_);fill:#A9E5EA;}
	.st3{clip-path:url(#SVGID_2_);fill:#B9FAFC;}
	.st4{clip-path:url(#SVGID_2_);fill:#159BAD;}
	.st5{clip-path:url(#SVGID_2_);fill:#0D5D68;}
	.st6{clip-path:url(#SVGID_2_);fill:url(#SVGID_3_);}
	.st7{clip-path:url(#SVGID_2_);fill:url(#SVGID_4_);}
	.st8{fill:#A9E5EA;}
	.st9{fill:#0D5D68;}
	.st10{clip-path:url(#SVGID_2_);fill:#15949E;}
</style>
<g>
	<defs>
		<circle id="SVGID_1_" cx="43.5" cy="43.5" r="43.5"/>
	</defs>
	<clipPath id="SVGID_2_">
		<use xlink:href="#SVGID_1_"  style="overflow:visible;"/>
	</clipPath>
	<g class="st0">
		<circle class="st1" cx="43.5" cy="43.5" r="43.5"/>
	</g>
	<path class="st2" d="M41.8,38.6c-0.1,0-0.2,0-0.3,0c-0.5,0-0.9-0.1-1.4-0.3c-0.3-0.1-0.6-0.2-0.8-0.4c-0.3-0.2-0.5-0.5-0.6-0.8
		c-0.4-0.7-0.5-1.5-0.7-2.3c-0.1-0.3-0.1-0.7-0.2-1c-0.1-0.5-0.6-1-1-1.4c-0.2-0.2-0.3-0.4-0.5-0.6c-0.2-0.3-0.2-0.7-0.2-1
		c0-0.2,0-0.4,0-0.5c0-0.1,0-0.2,0-0.3c0,0,0-0.1,0-0.1c0,0,0-0.1,0-0.1c0,0.1,0.1,0.1,0.1,0.2c0.1,0.2,0.3,0.3,0.4,0.5
		c0.1,0.2,0.5,0.5,0.7,0.2c0-0.1,0-0.2,0-0.3c0-0.2,0.1-0.4,0.1-0.6c0.1-0.6,0.1-1.2,0.3-1.7c0.2-0.5,0.5-1,1-1.3
		c0,0.3,0.1,0.6,0.1,0.9c0,0.3,0,0.6,0,0.8c0,0.2-0.1,0.3,0,0.5c0,0.1,0.1,0,0.2,0c0.1-0.1,0.1-0.2,0.2-0.2c0.1-0.1,0.1-0.1,0.2-0.2
		c0-0.1,0.1-0.2,0.1-0.3c0,0,0-0.1,0-0.1c0.1-0.2,0.1-0.3,0.1-0.5c0-0.2,0.1-0.4,0.1-0.6c0-0.2,0-0.3,0.1-0.5
		c0.1-0.5,0.4-0.9,0.6-1.3c0.2-0.3,0.5-0.6,0.8-0.9c0.1-0.1,0.1-0.2,0.2-0.2c0.1-0.1,0.2-0.1,0.2-0.2c0.1-0.2,0.2-0.4,0.3-0.6
		c0.1-0.3,0.1-0.6,0.1-0.9c0,0.1,0.2,0.3,0.3,0.3c0.1,0.1,0.2,0.2,0.3,0.3c0.1,0.1,0.2,0.2,0.3,0.3c0.1,0.1,0.2,0.2,0.2,0.4
		c0.6,1,0.9,2.1,0.9,3.3c0,0.5,0.3,1.1,0.7,1.3c0.2,0.1,0.4,0.2,0.6,0.1c0.6-0.2,0.4-1.2,0.5-1.7c0-0.2,0.1-0.3,0.1-0.5
		c0-0.1,0.2-0.3,0.2-0.4c0.1,0.7,0.7,1.1,1.1,1.7c0.3,0.4,0.5,0.8,0.7,1.3c0,0,0,0,0,0c0,0,0,0,0.1,0c0.3-0.2,0.6-0.6,0.7-0.9
		c-0.1,0.1,0,0.4,0,0.5c0,0.2,0,0.4,0,0.6c0,0.5,0,0.9,0,1.4c0,0.6,0,1.1-0.1,1.7c-0.1,0.6-0.4,1.2-0.7,1.7
		c-0.1,0.2-0.3,0.4-0.5,0.6c-0.2,0.2-0.3,0.5-0.5,0.7c-0.3,0.3-0.8,0.6-1.1,0.9c-0.3,0.2-0.5,0.5-0.7,0.8c-0.6,0.6-1.2,1.1-2,1.5
		C42.8,38.4,42.3,38.6,41.8,38.6z"/>
	<path class="st3" d="M43.5,44.3c0.9-1.2,0-6.1,0-6.1c0,0.2-0.1,0.6-0.2,0.8c-0.1,0.3-0.3,0.6-0.4,0.9c-0.1,0.1-0.2,0.4-0.3,0.4
		c-0.1,0-0.4-0.1-0.6-0.2c-0.2-0.1-0.4-0.2-0.5-0.3c-0.2-0.2-0.3-0.4-0.4-0.6c-0.2-0.5-0.4-1-0.5-1.5c0-0.2-0.1-0.5-0.1-0.7
		c-0.1-0.3-0.4-0.7-0.6-0.9c-0.3-0.4-0.7-0.9-0.8-1.4c-0.1-0.3-0.1-0.6-0.2-0.8c-0.1-0.3-0.2-0.4-0.3-0.6c-0.3-0.8-0.4-1.8-0.3-2.7
		c0.2,0.4,0.4,0.7,0.6,1.1c0.1,0.2,0.2,0.4,0.4,0.5c0.3,0.1,0.6,0,0.9-0.2c0.5-0.4,0.9-1.1,1-1.7c0.1-0.3,0.1-0.6,0.1-1
		c0.1-0.7,0.6-1.4,1-2c0,0.8,0.3,1.7,0.8,2.4c0.3,0.5,0.7,0.9,0.9,1.4c0.2,0.4,0.2,0.8,0.4,1.2c0.1,0.2,0.2,0.4,0.3,0.5
		c0.6,0.5,1-0.4,1.1-0.9c0.1-0.2,0.1-0.5,0.2-0.7c0.2,0.1,0.4,0.3,0.5,0.5c0.1,0.2,0.2,0.3,0.3,0.5c0.2,0.2,0.2,0.2,0.5,0.1
		c0.1,0,0.2,0,0.2-0.1c0.2-0.1,0.3-0.2,0.3-0.4c0,0.6,0,1.1-0.1,1.7c-0.1,0.4-0.1,0.9-0.2,1.3c-0.1,0.2-0.1,0.4-0.1,0.6
		c0,0.2,0,0.4,0,0.6c-0.1,0.3-0.2,0.6-0.3,0.9c-0.1,0.3-0.2,0.7-0.3,1c-0.1,0.3-0.1,0.5-0.1,0.8c0,0.7-0.1,1.4-0.3,2.1
		C45.9,42.5,44.8,43.7,43.5,44.3z"/>
	<path class="st4" d="M59.6,67.4c-1.3-1.1-2.9-1.7-4.4-1.9c-0.5-1-1.2-1.8-2.1-2.6c-4.3-4-11.1-3.8-15.2,0.5c-1.3,1.4-2.1,3-2.6,4.8
		c-5.1-2.7-11.6-1.8-15.7,2.6C14.7,76,15,84.3,20.3,89.3c3,2.8,7.1,4,10.9,3.4c0.2,4.4,2.1,8.8,5.6,12.1c7.2,6.7,18.5,6.4,25.3-0.9
		c1.1-1.2,2-2.5,2.8-3.9c6,1.4,12.6-0.3,17.2-5.2c6.7-7.2,6.4-18.5-0.9-25.3C75.1,63.9,66.3,63.3,59.6,67.4z"/>
	<path class="st5" d="M44.8,69.4c-0.4,0.2-0.8,0.3-1.1,0.3c-0.6,0-1.3,0-1.8-0.3c-0.5-0.3-1-0.7-1.4-1.1c-1-0.8-2.1-1.6-3.2-2.5
		c-2.1-1.6-4.2-3.3-6.2-5.1c-4.1-3.6-8-7.5-9.4-13.1c-2-8.1,2.4-14.1,10.6-15.1c3.6-0.5,6.8,0.5,9.6,2.8c0.4,0.3,0.9,0.5,1.2,0.9
		c0.1,0.1,0.2,0.2,0.3,0.1c0.1,0,0.1,0,0.2-0.1c0.3-0.2,0.5-0.3,0.8-0.5c0.2-0.2,0.5-0.3,0.7-0.5c4.4-3.8,11.4-3.8,16.2,0
		c4.2,3.3,5.4,9.5,2.7,14.9c-2.9,6-8,10.1-13,14.2c-1.3,1-2.5,2-3.8,3C46.5,68.2,45.7,69,44.8,69.4z"/>
	<circle class="st4" cx="78.1" cy="65.5" r="11.9"/>
	<circle class="st4" cx="12.5" cy="70.3" r="8.3"/>
	<circle class="st4" cx="3" cy="61.4" r="5.4"/>
	<circle class="st4" cx="79.8" cy="54.2" r="5.4"/>
	<circle class="st4" cx="9.5" cy="61.4" r="3"/>
	
		<radialGradient id="SVGID_3_" cx="199.1719" cy="-115.4013" r="4.8742" gradientTransform="matrix(0.8882 8.781876e-02 0.204 0.8041 -116.9741 141.7706)" gradientUnits="userSpaceOnUse">
		<stop  offset="2.396167e-07" style="stop-color:#6EC2C4"/>
		<stop  offset="1" style="stop-color:#6EC2C4"/>
	</radialGradient>
	<path class="st6" d="M39.9,64.8l-3.1,4.4c-0.2,0.3-0.4,0.4-0.8,0.5l-1.9,0.6c-0.3,0.1-0.7-0.2-0.8-0.5l-0.1-2
		c0-0.4,0.1-0.7,0.2-0.9l3.1-4.4L39.9,64.8z"/>
	
		<radialGradient id="SVGID_4_" cx="58.3486" cy="58.7764" r="5.3242" gradientTransform="matrix(0.9977 -6.851284e-02 6.851284e-02 0.9977 -4.0439 -19.5361)" gradientUnits="userSpaceOnUse">
		<stop  offset="2.396167e-07" style="stop-color:#6EC2C4"/>
		<stop  offset="1" style="stop-color:#6EC2C4"/>
	</radialGradient>
	<path class="st7" d="M57.6,40.7l-4.4-3.1l5.7-6.4l0.7-1.6c0.2-0.2,0.7-0.2,1.2,0.2l1.6,1.1c0.5,0.3,0.8,0.8,0.6,1.1l-1.3,1"/>
	<path class="st4" d="M70.1,21.2c-0.1-1.1-1.1-2-2.2-1.9c-1.1,0.1-2,1.1-1.9,2.2c0,0.1,0,0.2,0,0.2l-2.8,2.9l-0.6,0.8l-3,4.3
		l3.4,2.4l3-4.3l0.6-0.8l1.7-3.7C69.4,23.2,70.2,22.3,70.1,21.2z"/>
	<g class="st0">
		<path class="st8" d="M30,46.5c-0.1-0.3-0.3-0.5-0.6-0.7l-0.1,0c-0.2-0.2-1-1.1-3.1-1.4c-1.4-0.2-2.1,0.5-2.5,1.1
			c-0.4,0.2-2.9,1.3-2.9,3.5c0,2,0.5,2.9,0.7,3.2c0,0.6,0.2,1.1,0.6,1.6c0.6,0.8,1.6,1.2,2.6,1.2c0.2,0,0.4,0,0.6-0.1
			c0.5,0.2,1,0.2,1.5,0.2c0.2,0,0.4,0,0.5,0c3-0.3,3.4-3.1,3.5-3.6c0.3-0.5,0.6-1.1,0.6-1.8C31.8,47.3,30.4,46.6,30,46.5z"/>
		<path class="st9" d="M30.1,46.4c-0.1-0.3-0.4-0.5-0.6-0.7l-0.1,0c-0.2-0.2-1-1.2-3.2-1.4c-1.4-0.2-2.2,0.5-2.6,1.1
			c-0.5,0.2-3,1.3-3,3.7c0,2.1,0.5,3,0.7,3.3c0,0.6,0.3,1.2,0.6,1.7c0.7,0.8,1.7,1.3,2.7,1.3c0.2,0,0.5,0,0.7-0.1
			c0.5,0.2,1,0.2,1.6,0.2c0.2,0,0.4,0,0.6,0c3.1-0.3,3.5-3.2,3.6-3.7c0.4-0.6,0.6-1.2,0.6-1.9C32,47.2,30.6,46.5,30.1,46.4z
			 M26.2,53.8c-0.8,0-1.4-0.2-1.7-0.7c-0.2-0.3-0.3-0.7-0.3-1c0.4,0.4,0.9,0.7,1.7,0.7c0.1,0,0.2,0,0.3,0c0.5,0,1-0.2,1.5-0.4
			c0.5-0.2,0.9-0.4,1.3-0.8C28.8,52.4,28.1,53.8,26.2,53.8z M22.5,50.3c0-0.8,0.1-1.5,0.5-2.2c0.1,0.7,0.4,1.5,0.9,2.1
			c0,0.2,0,0.4-0.1,0.5c0,0.2-0.4,1.3,0.1,2.3C22.9,52.4,22.4,51.4,22.5,50.3z M27,46.5c-0.4-0.1-0.8-0.1-1.2,0.1
			c-0.7,0.3-1.1,0.7-1.3,1.2c0,0.1,0,0.1,0,0.2c0,0,0,0,0,0c0,0,0,0.1-0.1,0.2c-0.2,0.4-0.3,0.8-0.4,1.2c-0.4-0.6-0.8-1.8-0.2-3
			c0.4-0.7,1.3-1.1,2.1-0.9C26.3,45.7,26.8,46.1,27,46.5z M27.8,51.3c-0.3,0.5-0.8,0.8-1.7,0.8c-0.8,0.1-1.4-0.1-1.7-0.5
			c-0.5-0.6-0.2-1.8,0.1-2.6c0.1,0.2,0.2,0.4,0.3,0.5c0,0.1,0,0.1,0,0.2c0,0.7,0.6,1.3,1.3,1.3c0.7,0,1.3-0.6,1.3-1.3
			c0-0.1,0-0.1,0-0.2c0.1-0.2,0.2-0.4,0.2-0.6C28,49.7,28.2,50.7,27.8,51.3z M25,48c0.1-0.4,0.4-0.7,1-0.9c0.5-0.2,0.9-0.2,1.1,0.1
			c0.3,0.4,0.2,1.2,0.1,1.7c-0.5-0.6-1.3-0.6-1.8-0.2c-0.1,0.1-0.1,0.1-0.2,0.2C25,48.7,24.9,48.3,25,48z M27,49.8
			c0,0.4-0.4,0.8-0.8,0.8s-0.8-0.4-0.8-0.8s0.4-0.8,0.8-0.8S27,49.3,27,49.8z M28.4,51.3c0.4-1.3-0.4-3-0.6-3.3c0-0.2,0-0.4-0.1-0.7
			c0-0.5-0.2-0.9-0.4-1.3c0.5-0.1,1.3-0.3,1.9,0.1c0.5,0.3,0.7,0.9,0.7,1.8C29.9,49.8,29.1,50.8,28.4,51.3z M26.2,44.8
			c0.7,0.1,1.4,0.3,2,0.6c-0.4,0-0.9,0.1-1.3,0.2c-0.3-0.2-0.6-0.4-0.9-0.5c-0.5-0.1-1-0.1-1.5,0.1C24.9,44.8,25.5,44.6,26.2,44.8z
			 M23.3,46.1c0,0.1,0,0.2,0,0.2C23.1,46.5,23,46.8,23,47c-0.2,0.2-0.9,1.2-1,2.9c-0.2,0.4-0.4,0.9-0.5,1.3
			c-0.2-0.7-0.3-1.5-0.3-2.2C21.1,47.5,22.5,46.5,23.3,46.1z M22.4,53.6c-0.6-0.8-0.6-1.7-0.4-2.4c0.2,0.8,0.6,1.6,1.2,2.1
			c0,0,0,0.1,0,0.1c0.2,0.5,0.6,1,1.1,1.3C23.6,54.6,22.9,54.2,22.4,53.6z M27.5,54.8c-1.8,0.1-2.7-0.5-3.2-1
			c0.2,0.1,0.4,0.2,0.6,0.2c0.4,0.2,0.9,0.2,1.3,0.2c0.8,0,1.5-0.2,2.1-0.7c0.8-0.2,1.5-0.6,2.1-1.1C30.1,53.8,28.9,54.8,27.5,54.8z
			 M31.2,49.8c-0.2,1.7-1.3,2.6-2.2,3c0.4-0.6,0.6-1.3,0.6-2c0.5-0.8,0.8-1.8,0.8-2.8c0-0.3,0-0.6-0.1-0.9
			C30.8,47.3,31.4,48.1,31.2,49.8z"/>
	</g>
	<g class="st0">
		<path class="st8" d="M50,45.7c-0.1-0.3-0.2-0.6-0.4-0.8l0,0c-0.1-0.3-0.7-1.3-2.7-2.1c-1.3-0.5-2.2-0.1-2.7,0.4
			c-0.5,0.1-3.1,0.5-3.7,2.7c-0.5,1.9-0.2,2.9-0.1,3.2c-0.1,0.6,0,1.2,0.2,1.7c0.4,0.9,1.3,1.6,2.2,1.8c0.2,0.1,0.4,0.1,0.6,0.1
			c0.4,0.3,0.9,0.5,1.4,0.6c0.2,0,0.3,0.1,0.5,0.1c3,0.5,4.1-2.2,4.2-2.6c0.5-0.4,0.8-1,1-1.6C51.6,46.9,50.4,45.9,50,45.7z"/>
		<path class="st9" d="M50.2,45.6c-0.1-0.3-0.2-0.6-0.4-0.8l0,0c-0.1-0.3-0.7-1.4-2.8-2.2c-1.4-0.5-2.2-0.1-2.8,0.4
			c-0.5,0.1-3.3,0.5-3.8,2.8c-0.5,2-0.2,3-0.1,3.4c-0.1,0.6,0,1.2,0.2,1.8c0.4,1,1.3,1.7,2.3,1.9c0.2,0.1,0.4,0.1,0.7,0.1
			c0.4,0.3,0.9,0.5,1.5,0.6c0.2,0,0.4,0.1,0.6,0.1c3.1,0.5,4.2-2.2,4.4-2.7c0.5-0.4,0.9-1,1.1-1.6C51.8,46.9,50.6,45.9,50.2,45.6z
			 M44.6,51.8c-0.8-0.2-1.3-0.6-1.5-1.1c-0.1-0.3-0.2-0.7-0.1-1.1c0.2,0.5,0.7,0.9,1.5,1.1c0.1,0,0.2,0.1,0.3,0.1
			c0.5,0.1,1,0.1,1.5-0.1c0.5,0,1-0.2,1.5-0.4C47.4,51.1,46.4,52.3,44.6,51.8z M41.8,47.6c0.2-0.7,0.5-1.4,1-2
			c-0.1,0.8,0,1.5,0.3,2.2c-0.1,0.2-0.1,0.3-0.2,0.5c-0.1,0.1-0.7,1.2-0.5,2.2C41.7,49.7,41.5,48.6,41.8,47.6z M47.1,45
			c-0.4-0.2-0.8-0.3-1.2-0.2c-0.7,0.1-1.3,0.4-1.6,0.8c0,0.1-0.1,0.1-0.1,0.2c0,0,0,0,0,0c0,0-0.1,0.1-0.1,0.2
			c-0.3,0.3-0.5,0.7-0.7,1c-0.2-0.7-0.4-2,0.6-2.9c0.6-0.6,1.5-0.7,2.2-0.3C46.7,44.1,47,44.5,47.1,45z M46.8,49.9
			c-0.4,0.4-1,0.5-1.8,0.4c-0.8-0.1-1.3-0.4-1.5-0.9c-0.3-0.7,0.3-1.8,0.8-2.5c0,0.2,0.1,0.4,0.1,0.6c0,0,0,0.1-0.1,0.1
			c-0.2,0.7,0.2,1.4,1,1.6c0.7,0.2,1.4-0.2,1.6-1c0-0.1,0-0.1,0-0.2c0.1-0.2,0.3-0.3,0.4-0.5C47.3,48.3,47.3,49.3,46.8,49.9z
			 M44.9,45.9c0.2-0.3,0.6-0.5,1.2-0.6c0.6-0.1,0.9,0.1,1,0.3c0.2,0.4,0,1.2-0.4,1.7c-0.3-0.7-1.1-0.9-1.8-0.6
			c-0.1,0-0.2,0.1-0.3,0.2C44.6,46.6,44.7,46.2,44.9,45.9z M46.3,48.2c-0.1,0.4-0.5,0.7-1,0.6s-0.7-0.5-0.6-1c0.1-0.4,0.5-0.7,1-0.6
			C46.2,47.3,46.4,47.7,46.3,48.2z M47.3,50c0.7-1.1,0.3-3,0.2-3.4c0.1-0.2,0.1-0.4,0.1-0.7c0.1-0.5,0.1-0.9-0.1-1.4
			c0.5,0,1.3,0.1,1.8,0.6c0.4,0.4,0.4,1.1,0.2,1.9C49.1,48.9,48.1,49.7,47.3,50z M46.8,43.1c0.7,0.2,1.3,0.6,1.8,1.1
			C48.2,44,47.7,44,47.3,44c-0.2-0.3-0.5-0.5-0.8-0.7c-0.5-0.3-1-0.4-1.5-0.3C45.5,42.8,46.2,42.8,46.8,43.1z M43.7,43.6
			c0,0.1-0.1,0.1-0.1,0.2c-0.2,0.2-0.3,0.4-0.5,0.7c-0.3,0.2-1.2,0.9-1.7,2.5c-0.3,0.3-0.6,0.7-0.8,1.2c0-0.8,0.1-1.5,0.3-2.2
			C41.2,44.5,42.8,43.9,43.7,43.6z M40.9,50.7c-0.4-0.9-0.1-1.8,0.2-2.5c-0.1,0.8,0.2,1.7,0.7,2.3c0,0,0,0.1,0,0.1
			c0.1,0.6,0.4,1.1,0.8,1.6C41.9,52,41.3,51.4,40.9,50.7z M45.6,53.2c-1.7-0.3-2.5-1.1-2.9-1.7c0.2,0.1,0.3,0.3,0.5,0.4
			c0.4,0.3,0.8,0.5,1.2,0.6c0.7,0.2,1.5,0.2,2.2-0.1c0.8,0,1.6-0.2,2.3-0.6C48.3,52.8,46.9,53.5,45.6,53.2z M50.4,49.2
			c-0.6,1.6-1.9,2.2-2.9,2.4c0.5-0.5,0.9-1.1,1.1-1.8c0.7-0.7,1.2-1.6,1.4-2.5c0.1-0.3,0.1-0.6,0.1-0.9C50.6,46.7,51,47.6,50.4,49.2
			z"/>
	</g>
	<g class="st0">
		<path class="st8" d="M38.9,55.7c0.2-0.1,0.4-0.3,0.5-0.5l0,0c0.2-0.1,0.9-0.8,1-2.6c0.1-1.1-0.5-1.7-1-2c-0.2-0.3-1.2-2.3-3-2.2
			c-1.6,0.1-2.3,0.6-2.5,0.7c-0.5,0.1-0.9,0.3-1.3,0.6c-0.6,0.6-0.9,1.4-0.9,2.2c0,0.2,0,0.4,0.1,0.5c-0.1,0.4-0.1,0.8-0.1,1.2
			c0,0.1,0,0.3,0,0.4c0.4,2.4,2.7,2.6,3.1,2.6c0.5,0.3,1,0.4,1.5,0.4C38.4,57.2,38.9,56.1,38.9,55.7z"/>
		<path class="st9" d="M39.1,55.9c0.2-0.1,0.4-0.3,0.5-0.5l0-0.1c0.2-0.2,0.9-0.9,1-2.8c0.1-1.2-0.5-1.8-1-2.1
			c-0.2-0.4-1.2-2.5-3.2-2.3c-1.7,0.1-2.5,0.6-2.7,0.8c-0.5,0.1-1,0.3-1.4,0.6c-0.6,0.6-1,1.5-0.9,2.3c0,0.2,0,0.4,0.1,0.6
			c-0.1,0.4-0.2,0.9-0.1,1.3c0,0.2,0,0.3,0,0.5c0.4,2.6,2.9,2.8,3.3,2.8c0.5,0.3,1,0.4,1.6,0.4C38.5,57.5,39,56.3,39.1,55.9z
			 M32.7,53c0-0.7,0.1-1.2,0.5-1.5c0.2-0.2,0.5-0.3,0.9-0.3c-0.3,0.3-0.5,0.8-0.5,1.5c0,0.1,0,0.2,0,0.3c0,0.4,0.2,0.9,0.4,1.2
			c0.2,0.4,0.4,0.8,0.7,1.1C34,55.1,32.8,54.6,32.7,53z M35.4,49.7c0.6,0,1.3,0,1.9,0.3c-0.6,0.1-1.2,0.4-1.7,0.8
			c-0.1,0-0.3,0-0.4,0c-0.1,0-1.1-0.2-1.9,0.2C33.7,50.2,34.6,49.7,35.4,49.7z M38.8,53.3c0.1-0.3,0-0.7-0.1-1
			c-0.3-0.6-0.6-0.9-1.1-1c-0.1,0-0.1,0-0.2,0c0,0,0,0,0,0c0,0-0.1,0-0.2-0.1c-0.3-0.1-0.7-0.2-1-0.3c0.5-0.3,1.5-0.8,2.5-0.3
			c0.6,0.3,1,1,0.8,1.7C39.5,52.7,39.2,53.1,38.8,53.3z M34.8,54.2c-0.4-0.2-0.7-0.7-0.8-1.4c-0.1-0.7,0-1.2,0.3-1.4
			c0.5-0.4,1.5-0.2,2.1,0c-0.1,0.1-0.3,0.2-0.4,0.2c0,0-0.1,0-0.1,0c-0.6,0-1.1,0.6-1,1.2c0,0.6,0.6,1.1,1.2,1c0.1,0,0.1,0,0.2,0
			c0.2,0.1,0.3,0.1,0.5,0.2C36.3,54.3,35.4,54.5,34.8,54.2z M37.5,51.7c0.3,0.1,0.6,0.3,0.8,0.8c0.2,0.4,0.2,0.7,0,0.9
			c-0.3,0.3-1,0.3-1.4,0.2c0.4-0.4,0.5-1.1,0-1.5c-0.1-0.1-0.1-0.1-0.2-0.2C36.9,51.7,37.2,51.7,37.5,51.7z M36.1,53.4
			c-0.4,0-0.7-0.3-0.7-0.6c0-0.4,0.3-0.7,0.6-0.7c0.4,0,0.7,0.3,0.7,0.6C36.8,53.1,36.5,53.4,36.1,53.4z M34.9,54.7
			c1.1,0.3,2.5-0.5,2.7-0.7c0.2,0,0.4,0,0.5-0.1c0.4,0,0.8-0.2,1.1-0.4c0.1,0.4,0.3,1.1,0,1.6c-0.2,0.4-0.7,0.6-1.5,0.7
			C36.2,55.9,35.4,55.3,34.9,54.7z M40.3,52.5c0,0.6-0.1,1.2-0.4,1.7c0-0.4-0.1-0.7-0.3-1.1c0.2-0.2,0.3-0.5,0.3-0.8
			c0.1-0.4,0-0.9-0.2-1.3C40.2,51.5,40.3,52,40.3,52.5z M39,50.2c-0.1,0-0.1,0-0.2,0c-0.2-0.1-0.4-0.2-0.6-0.2
			c-0.2-0.2-1-0.7-2.5-0.7c-0.4-0.2-0.7-0.3-1.1-0.4c0.6-0.2,1.2-0.3,1.9-0.4C37.8,48.4,38.6,49.5,39,50.2z M32.7,49.8
			c0.6-0.6,1.4-0.6,2-0.4c-0.7,0.2-1.3,0.6-1.7,1.1c0,0,0,0-0.1,0c-0.4,0.2-0.8,0.6-1.1,1C31.9,50.9,32.2,50.2,32.7,49.8z
			 M31.9,54.1c-0.2-1.5,0.2-2.3,0.7-2.7c-0.1,0.2-0.1,0.3-0.1,0.5c-0.1,0.4-0.2,0.7-0.1,1.1c0,0.6,0.3,1.3,0.7,1.7
			c0.2,0.6,0.6,1.2,1.1,1.7C32.9,56.2,32,55.3,31.9,54.1z M36.3,57c-1.4,0-2.2-1-2.6-1.7c0.5,0.3,1.1,0.4,1.7,0.4
			c0.7,0.4,1.6,0.6,2.4,0.5c0.2,0,0.5-0.1,0.7-0.1C38.3,56.5,37.8,57,36.3,57z"/>
	</g>
	<g class="st0">
		<path class="st8" d="M53.6,53.8c0-0.1,0-0.3-0.1-0.4l0,0c0-0.1-0.1-0.7-1-1.3c-0.5-0.4-1-0.3-1.3-0.2c-0.2,0-1.5-0.2-2.1,0.8
			c-0.5,0.8-0.5,1.3-0.5,1.5c-0.1,0.3-0.2,0.5-0.1,0.8c0.1,0.5,0.4,0.9,0.8,1.2c0.1,0.1,0.2,0.1,0.3,0.1c0.2,0.2,0.4,0.3,0.6,0.5
			c0.1,0,0.1,0.1,0.2,0.1c1.3,0.6,2.2-0.5,2.3-0.6c0.3-0.1,0.5-0.3,0.7-0.6C54.2,54.6,53.7,54,53.6,53.8z"/>
		<path class="st9" d="M53.7,53.8c0-0.2,0-0.3-0.1-0.4l0,0c0-0.1-0.1-0.7-1-1.4c-0.6-0.4-1-0.3-1.4-0.2c-0.2,0-1.6-0.2-2.2,0.8
			c-0.5,0.9-0.5,1.4-0.5,1.6c-0.1,0.3-0.2,0.6-0.1,0.9c0.1,0.5,0.4,1,0.8,1.2c0.1,0.1,0.2,0.1,0.3,0.1c0.2,0.2,0.4,0.4,0.6,0.5
			c0.1,0,0.2,0.1,0.2,0.1c1.4,0.7,2.3-0.5,2.4-0.7c0.3-0.1,0.5-0.4,0.7-0.6C54.3,54.6,53.8,54,53.7,53.8z M50.2,55.9
			c-0.3-0.2-0.5-0.4-0.6-0.7c0-0.2,0-0.4,0.1-0.5c0,0.3,0.2,0.5,0.6,0.7c0,0,0.1,0.1,0.1,0.1c0.2,0.1,0.5,0.2,0.7,0.2
			c0.3,0.1,0.5,0.1,0.8,0C51.6,56,51,56.4,50.2,55.9z M49.5,53.6c0.2-0.3,0.4-0.6,0.7-0.8c-0.1,0.3-0.2,0.7-0.1,1.1
			C50,53.9,50,54,49.9,54c-0.1,0.1-0.5,0.5-0.5,1C49.2,54.5,49.2,54,49.5,53.6z M52.4,53.1c-0.1-0.1-0.3-0.2-0.5-0.3
			c-0.4-0.1-0.7,0-0.9,0.2c0,0,0,0-0.1,0.1c0,0,0,0,0,0c0,0,0,0-0.1,0.1c-0.2,0.1-0.3,0.3-0.5,0.4c0-0.4,0.1-1,0.7-1.3
			c0.4-0.2,0.8-0.1,1.1,0.2C52.3,52.6,52.4,52.8,52.4,53.1z M51.5,55.3c-0.2,0.1-0.5,0.1-0.9-0.1c-0.4-0.2-0.6-0.4-0.6-0.6
			c0-0.4,0.4-0.8,0.7-1.1c0,0.1,0,0.2,0,0.3c0,0,0,0,0,0.1c-0.2,0.3-0.1,0.7,0.2,0.9c0.3,0.2,0.7,0.1,0.9-0.2c0,0,0-0.1,0-0.1
			c0.1-0.1,0.2-0.1,0.2-0.2C52,54.7,51.8,55.1,51.5,55.3z M51.1,53.2c0.1-0.1,0.4-0.2,0.6-0.1s0.4,0.1,0.4,0.3
			c0,0.2-0.2,0.6-0.4,0.7c-0.1-0.3-0.4-0.6-0.7-0.5c0,0-0.1,0-0.1,0C51,53.5,51,53.3,51.1,53.2z M51.5,54.5
			c-0.1,0.2-0.3,0.2-0.5,0.1s-0.2-0.3-0.1-0.5s0.3-0.2,0.5-0.1C51.6,54,51.6,54.3,51.5,54.5z M51.8,55.5c0.5-0.4,0.6-1.3,0.6-1.5
			c0.1-0.1,0.1-0.2,0.1-0.3c0.1-0.2,0.2-0.4,0.1-0.7c0.2,0.1,0.6,0.2,0.8,0.5c0.1,0.2,0.1,0.6-0.2,0.9
			C52.7,55.2,52.2,55.4,51.8,55.5z M52.4,52.1c0.3,0.2,0.5,0.5,0.7,0.8c-0.2-0.1-0.4-0.2-0.6-0.2c-0.1-0.2-0.2-0.3-0.3-0.4
			c-0.2-0.2-0.4-0.3-0.7-0.3C51.9,51.8,52.2,51.9,52.4,52.1z M50.9,52C50.9,52,50.9,52,50.9,52c-0.2,0.1-0.3,0.2-0.4,0.3
			c-0.1,0-0.7,0.3-1.2,1c-0.2,0.1-0.4,0.3-0.5,0.4c0.1-0.4,0.2-0.7,0.4-1C49.6,52,50.5,52,50.9,52z M48.6,54.9
			c-0.1-0.5,0.2-0.9,0.4-1.1c-0.1,0.4-0.1,0.8,0,1.2c0,0,0,0,0,0c0,0.3,0,0.6,0.1,0.8C48.9,55.6,48.7,55.3,48.6,54.9z M50.5,56.7
			c-0.8-0.4-1-0.9-1.1-1.2c0.1,0.1,0.1,0.2,0.2,0.2c0.1,0.2,0.3,0.3,0.5,0.4c0.3,0.2,0.7,0.3,1.1,0.2c0.4,0.1,0.8,0.1,1.2,0
			C51.8,56.9,51.1,57,50.5,56.7z M53.3,55.5c-0.5,0.7-1.2,0.8-1.7,0.7c0.3-0.2,0.6-0.4,0.8-0.7c0.4-0.2,0.8-0.6,1-1
			c0.1-0.1,0.1-0.3,0.2-0.4C53.7,54.4,53.8,54.8,53.3,55.5z"/>
	</g>
	<g class="st0">
		<path class="st8" d="M51.9,47.8c-0.1,0.2-0.2,0.4-0.2,0.6l0,0c-0.1,0.2-0.3,1.1,0.4,2.5c0.5,0.9,1.1,1.1,1.6,1.1
			c0.3,0.2,1.9,1.3,3.4,0.4c1.2-0.8,1.6-1.5,1.7-1.7c0.4-0.2,0.6-0.6,0.8-1c0.2-0.7,0.1-1.5-0.3-2.1c-0.1-0.1-0.2-0.3-0.3-0.4
			c-0.1-0.4-0.2-0.7-0.5-1c-0.1-0.1-0.1-0.2-0.2-0.3c-1.3-1.8-3.3-0.9-3.6-0.8c-0.5,0-0.9,0.1-1.4,0.3
			C51.6,46.4,51.8,47.5,51.9,47.8z"/>
		<path class="st9" d="M51.7,47.8c-0.1,0.2-0.2,0.4-0.2,0.7l0,0.1c-0.1,0.2-0.3,1.1,0.4,2.6c0.5,1,1.2,1.2,1.7,1.2
			c0.3,0.2,2,1.4,3.5,0.5c1.3-0.8,1.7-1.5,1.8-1.8c0.4-0.3,0.7-0.6,0.8-1.1c0.3-0.7,0.1-1.6-0.3-2.2c-0.1-0.1-0.2-0.3-0.3-0.4
			c-0.1-0.4-0.3-0.7-0.5-1.1c-0.1-0.1-0.1-0.2-0.2-0.3C57,44,55,44.9,54.6,45c-0.5,0-1,0.1-1.4,0.3C51.5,46.3,51.6,47.4,51.7,47.8z
			 M57.9,47.3c0.3,0.5,0.4,1,0.3,1.4c-0.1,0.3-0.3,0.5-0.5,0.6c0.1-0.4,0-0.9-0.3-1.4c0-0.1-0.1-0.1-0.1-0.2
			c-0.2-0.3-0.5-0.6-0.9-0.8c-0.3-0.2-0.7-0.4-1-0.5C56,46.2,57.2,46.1,57.9,47.3z M57.2,51c-0.5,0.3-1,0.5-1.6,0.6
			c0.4-0.4,0.8-0.8,1-1.4c0.1-0.1,0.2-0.1,0.4-0.2c0.1,0,1-0.3,1.4-0.9C58.4,49.9,57.9,50.6,57.2,51z M53,49.7
			c0.1,0.3,0.3,0.5,0.5,0.7c0.4,0.3,0.9,0.5,1.3,0.3c0,0,0.1,0,0.1,0c0,0,0,0,0,0c0,0,0.1,0,0.2,0c0.3,0,0.6-0.1,0.9-0.2
			c-0.3,0.5-0.8,1.3-1.8,1.3c-0.6,0-1.2-0.4-1.4-1C52.8,50.4,52.8,50,53,49.7z M55.8,47.2c0.4,0,0.8,0.2,1.2,0.7
			c0.4,0.5,0.5,0.9,0.4,1.3c-0.2,0.5-1.1,0.8-1.7,0.9c0.1-0.1,0.2-0.2,0.2-0.4c0,0,0.1,0,0.1,0c0.5-0.3,0.6-0.9,0.3-1.4
			s-0.9-0.6-1.4-0.3c0,0-0.1,0.1-0.1,0.1c-0.2,0-0.3,0-0.5,0.1C54.6,47.8,55.2,47.3,55.8,47.2z M54.7,50.3c-0.3,0.1-0.6,0-0.9-0.3
			c-0.3-0.3-0.5-0.5-0.4-0.7c0.1-0.3,0.6-0.6,1.1-0.7c-0.2,0.5,0.1,1.1,0.6,1.2c0.1,0,0.1,0,0.2,0C55.2,50.1,55,50.3,54.7,50.3z
			 M55.1,48.4c0.3-0.2,0.6-0.1,0.8,0.2s0.1,0.6-0.2,0.8s-0.6,0.1-0.8-0.2C54.7,48.9,54.8,48.6,55.1,48.4z M55.5,46.9
			c-1,0.2-1.7,1.4-1.9,1.7c-0.1,0.1-0.3,0.2-0.4,0.3c-0.3,0.2-0.5,0.5-0.7,0.8c-0.3-0.2-0.7-0.7-0.7-1.2c0-0.4,0.3-0.8,0.9-1.2
			C54,46.5,54.9,46.6,55.5,46.9z M52.2,50.9c-0.2-0.5-0.4-1-0.4-1.5c0.2,0.3,0.4,0.5,0.7,0.7c0,0.3,0,0.5,0.1,0.8
			c0.1,0.4,0.3,0.7,0.7,0.9C52.8,51.7,52.4,51.3,52.2,50.9z M54.2,52.2c0.1,0,0.1,0,0.1-0.1c0.2,0,0.4,0,0.6-0.1
			c0.2,0,1.1,0.1,2.2-0.5c0.4,0,0.7-0.1,1-0.2c-0.4,0.4-0.8,0.8-1.3,1.1C55.9,53,54.8,52.5,54.2,52.2z M59.3,49.8
			c-0.2,0.7-0.9,1.1-1.4,1.2c0.5-0.4,0.7-1,0.8-1.6c0,0,0,0,0.1,0c0.2-0.4,0.4-0.8,0.4-1.2C59.5,48.6,59.5,49.2,59.3,49.8z
			 M58.1,46.1c0.8,1.1,0.8,1.9,0.7,2.4c0-0.2-0.1-0.3-0.1-0.5c-0.1-0.3-0.2-0.6-0.4-0.9C58,46.6,57.5,46.2,57,46
			c-0.5-0.4-1-0.7-1.6-0.9C56.4,44.8,57.5,45.2,58.1,46.1z M53.4,45.7c1.1-0.6,2.2-0.2,2.8,0.2c-0.5,0-1.1,0.2-1.5,0.4
			c-0.7,0-1.5,0.2-2.1,0.6c-0.2,0.1-0.4,0.3-0.5,0.4C52.1,46.9,52.3,46.3,53.4,45.7z"/>
	</g>
	<g class="st0">
		<path class="st8" d="M60.2,50.7c-0.2,0-0.3,0-0.5,0.1l0,0c-0.1,0-0.8,0.2-1.4,1.1c-0.4,0.6-0.3,1.1-0.1,1.4c0,0.3-0.1,1.7,1,2.3
			c0.9,0.5,1.5,0.5,1.7,0.4c0.3,0.1,0.6,0.2,0.9,0.1c0.5-0.1,1-0.5,1.2-1c0.1-0.1,0.1-0.2,0.1-0.3c0.2-0.2,0.4-0.4,0.5-0.7
			c0-0.1,0.1-0.2,0.1-0.3c0.6-1.5-0.6-2.4-0.8-2.5c-0.2-0.3-0.4-0.6-0.7-0.7C61,50,60.3,50.5,60.2,50.7z"/>
		<path class="st9" d="M60.1,50.5c-0.2,0-0.3,0-0.5,0.1l0,0c-0.2,0-0.8,0.2-1.5,1.2c-0.4,0.7-0.3,1.2-0.1,1.5c0,0.3-0.1,1.8,1,2.4
			c1,0.5,1.6,0.5,1.8,0.5c0.3,0.1,0.7,0.2,1,0.1c0.6-0.1,1.1-0.5,1.3-1c0.1-0.1,0.1-0.2,0.1-0.3c0.2-0.2,0.4-0.4,0.5-0.7
			c0-0.1,0.1-0.2,0.1-0.3c0.7-1.6-0.7-2.6-0.9-2.7c-0.2-0.3-0.4-0.6-0.8-0.8C61,49.8,60.3,50.3,60.1,50.5z M62.8,54.3
			C62.6,54.7,62.3,55,62,55c-0.2,0-0.4,0-0.6-0.1c0.3-0.1,0.6-0.3,0.8-0.7c0-0.1,0.1-0.1,0.1-0.2c0.1-0.3,0.2-0.6,0.2-0.8
			c0-0.3,0-0.6-0.1-0.9C62.8,52.7,63.3,53.4,62.8,54.3z M60.1,55.3c-0.4-0.2-0.7-0.5-1-0.8c0.4,0.1,0.8,0.2,1.2,0.1
			c0.1,0.1,0.2,0.1,0.2,0.2c0.1,0.1,0.6,0.5,1.1,0.6C61.3,55.6,60.6,55.6,60.1,55.3z M59.4,52.1c-0.2,0.2-0.2,0.4-0.3,0.6
			c0,0.4,0,0.7,0.3,0.9c0,0,0.1,0,0.1,0.1c0,0,0,0,0,0c0,0,0,0.1,0.1,0.1c0.1,0.2,0.3,0.4,0.5,0.5c-0.4,0-1.1-0.1-1.5-0.7
			c-0.3-0.4-0.2-0.9,0.1-1.2C58.9,52.2,59.1,52.1,59.4,52.1z M62,52.9c0.2,0.3,0.2,0.6,0,1c-0.2,0.4-0.4,0.7-0.7,0.7
			c-0.4,0.1-0.9-0.4-1.2-0.7c0.1,0,0.2,0,0.3,0c0,0,0,0,0.1,0.1c0.4,0.2,0.8,0,1-0.3c0.2-0.4,0-0.8-0.3-1c0,0-0.1,0-0.1,0
			c-0.1-0.1-0.1-0.2-0.2-0.3C61.2,52.4,61.8,52.5,62,52.9z M59.6,53.4c-0.2-0.1-0.2-0.4-0.2-0.7c0-0.3,0.1-0.5,0.3-0.5
			c0.3-0.1,0.6,0.2,0.9,0.4c-0.4,0.1-0.6,0.5-0.5,0.9c0,0.1,0,0.1,0.1,0.2C60,53.6,59.8,53.6,59.6,53.4z M61,52.9
			c0.2,0.1,0.3,0.4,0.2,0.6c-0.1,0.2-0.4,0.3-0.6,0.2c-0.2-0.1-0.3-0.4-0.2-0.6C60.5,52.9,60.8,52.8,61,52.9z M62.1,52.6
			c-0.5-0.5-1.6-0.6-1.8-0.6c-0.1-0.1-0.2-0.1-0.4-0.1c-0.2-0.1-0.5-0.2-0.8-0.1c0.1-0.3,0.2-0.7,0.5-0.9c0.3-0.1,0.6-0.1,1.1,0.1
			C61.8,51.5,62.1,52.1,62.1,52.6z M58.3,52.1c0.2-0.3,0.5-0.6,0.8-0.9c-0.1,0.2-0.2,0.5-0.2,0.7c-0.2,0.1-0.3,0.2-0.5,0.3
			c-0.2,0.2-0.3,0.5-0.3,0.8C58,52.7,58.1,52.3,58.3,52.1z M58.3,53.8C58.3,53.8,58.3,53.8,58.3,53.8c0.2,0.2,0.3,0.3,0.4,0.4
			c0.1,0.2,0.4,0.8,1.2,1.2c0.1,0.2,0.3,0.4,0.5,0.6c-0.4-0.1-0.8-0.2-1.2-0.4C58.4,55.2,58.3,54.3,58.3,53.8z M61.7,56.1
			c-0.5,0.1-1-0.2-1.3-0.4c0.4,0.1,0.9,0.1,1.3-0.1c0,0,0,0,0,0c0.3,0,0.7-0.1,0.9-0.2C62.5,55.8,62.1,56.1,61.7,56.1z M63.6,54
			c-0.4,0.9-0.9,1.2-1.3,1.3c0.1-0.1,0.2-0.2,0.3-0.2c0.2-0.2,0.3-0.4,0.4-0.6c0.2-0.4,0.3-0.8,0.2-1.2c0.1-0.4,0.1-0.9,0-1.3
			C63.8,52.4,63.9,53.3,63.6,54z M62.1,50.8c0.8,0.5,0.9,1.3,0.9,1.8c-0.2-0.3-0.5-0.6-0.8-0.8c-0.3-0.5-0.7-0.9-1.2-1.1
			c-0.1-0.1-0.3-0.1-0.5-0.2C60.8,50.4,61.3,50.3,62.1,50.8z"/>
	</g>
	<path class="st10" d="M59.3,30.1l-4.3-3c-0.2-0.2-0.3-0.5-0.1-0.7l0.5-0.7c0.2-0.2,0.5-0.3,0.7-0.1l4.3,3l3.4,2.4l4.3,3
		c0.2,0.2,0.3,0.5,0.1,0.7l-0.5,0.7c-0.2,0.2-0.5,0.3-0.7,0.1l-4.3-3"/>
</g>
</svg>
