<?xml version="1.0" encoding="utf-8"?>
<!-- Generator: Adobe Illustrator 24.1.1, SVG Export Plug-In . SVG Version: 6.00 Build 0)  -->
<svg version="1.1" id="Layer_1" xmlns="http://www.w3.org/2000/svg" xmlns:xlink="http://www.w3.org/1999/xlink" x="0px" y="0px"
	 viewBox="0 0 87 87" style="enable-background:new 0 0 87 87;" xml:space="preserve">
<style type="text/css">
	.st0{clip-path:url(#SVGID_2_);}
	.st1{fill:#0F7386;}
	.st2{clip-path:url(#SVGID_4_);fill:#159BAD;}
	.st3{clip-path:url(#SVGID_6_);fill:url(#SVGID_7_);}
	.st4{clip-path:url(#SVGID_9_);fill:none;stroke:#0C555B;stroke-width:0.5;stroke-miterlimit:10;}
	.st5{clip-path:url(#SVGID_11_);fill:#A9E5EA;}
	.st6{clip-path:url(#SVGID_13_);fill:#0D5D68;}
	.st7{clip-path:url(#SVGID_15_);fill:#159BAD;}
	.st8{clip-path:url(#SVGID_17_);fill:#159BAD;}
	.st9{clip-path:url(#SVGID_19_);fill:#159BAD;}
	.st10{clip-path:url(#SVGID_21_);fill:#159BAD;}
</style>
<g>
	<g>
		<g>
			<defs>
				<circle id="SVGID_1_" cx="43.5" cy="43.5" r="43.5"/>
			</defs>
			<clipPath id="SVGID_2_">
				<use xlink:href="#SVGID_1_"  style="overflow:visible;"/>
			</clipPath>
			<g class="st0">
				<circle class="st1" cx="43.5" cy="43.5" r="43.5"/>
			</g>
		</g>
	</g>
	<g>
		<g>
			<defs>
				<circle id="SVGID_3_" cx="43.5" cy="43.5" r="43.5"/>
			</defs>
			<clipPath id="SVGID_4_">
				<use xlink:href="#SVGID_3_"  style="overflow:visible;"/>
			</clipPath>
			<path class="st2" d="M90.1,100.1H-8.6c-6.6,0-12-5.4-12-12V71.6c0-6.6,5.4-12,12-12h98.8c6.6,0,12,5.4,12,12v16.5
				C102.1,94.7,96.7,100.1,90.1,100.1z"/>
		</g>
	</g>
	<g>
		<g>
			<defs>
				<circle id="SVGID_5_" cx="43.5" cy="43.5" r="43.5"/>
			</defs>
			<clipPath id="SVGID_6_">
				<use xlink:href="#SVGID_5_"  style="overflow:visible;"/>
			</clipPath>
			
				<radialGradient id="SVGID_7_" cx="43.495" cy="771.335" r="24.5972" gradientTransform="matrix(1 0 0 1 0 -704)" gradientUnits="userSpaceOnUse">
				<stop  offset="2.396167e-07" style="stop-color:#6EC2C4"/>
				<stop  offset="1" style="stop-color:#6EC2C4"/>
			</radialGradient>
			<path class="st3" d="M53.7,34.6H33.3c-0.8,0-1.5,0.7-1.5,1.5v62.7c0,0.8,0.7,1.4,1.5,1.4h20.4c0.8,0,1.5-0.7,1.5-1.4V36
				C55.2,35.2,54.5,34.6,53.7,34.6z"/>
		</g>
	</g>
	<g>
		<g>
			<defs>
				<circle id="SVGID_8_" cx="43.5" cy="43.5" r="43.5"/>
			</defs>
			<clipPath id="SVGID_9_">
				<use xlink:href="#SVGID_8_"  style="overflow:visible;"/>
			</clipPath>
			<line class="st4" x1="43.5" y1="34.6" x2="43.5" y2="31"/>
		</g>
	</g>
	<g>
		<g>
			<defs>
				<circle id="SVGID_10_" cx="43.5" cy="43.5" r="43.5"/>
			</defs>
			<clipPath id="SVGID_11_">
				<use xlink:href="#SVGID_10_"  style="overflow:visible;"/>
			</clipPath>
			<path class="st5" d="M44.3,32.8c1.3-1.6,0-8.1,0-8.1s0,1.6-1.9,3.4s-0.7,4.7-0.7,4.7s-6.9-5.7-0.5-15.4c0,0,0,4.8,1.3,4
				s0-8.3,0-8.3s8,7.4,5.8,15.1C47.5,30.4,46,32,44.3,32.8L44.3,32.8z"/>
		</g>
	</g>
	<g>
		<g>
			<defs>
				<circle id="SVGID_12_" cx="43.5" cy="43.5" r="43.5"/>
			</defs>
			<clipPath id="SVGID_13_">
				<use xlink:href="#SVGID_12_"  style="overflow:visible;"/>
			</clipPath>
			<polygon class="st6" points="52.9,61.5 46,61.5 46,53.5 41,53.5 41,61.5 34.1,61.5 34.1,65.7 41,65.7 41,87.1 46,87.1 46,65.7 
				52.9,65.7 			"/>
		</g>
	</g>
	<g>
		<g>
			<defs>
				<circle id="SVGID_14_" cx="43.5" cy="43.5" r="43.5"/>
			</defs>
			<clipPath id="SVGID_15_">
				<use xlink:href="#SVGID_14_"  style="overflow:visible;"/>
			</clipPath>
			<circle class="st7" cx="43.5" cy="54.8" r="1.2"/>
		</g>
	</g>
	<g>
		<g>
			<defs>
				<circle id="SVGID_16_" cx="43.5" cy="43.5" r="43.5"/>
			</defs>
			<clipPath id="SVGID_17_">
				<use xlink:href="#SVGID_16_"  style="overflow:visible;"/>
			</clipPath>
			<circle class="st8" cx="43.5" cy="63.8" r="1.2"/>
		</g>
	</g>
	<g>
		<g>
			<defs>
				<circle id="SVGID_18_" cx="43.5" cy="43.5" r="43.5"/>
			</defs>
			<clipPath id="SVGID_19_">
				<use xlink:href="#SVGID_18_"  style="overflow:visible;"/>
			</clipPath>
			<circle class="st9" cx="35.5" cy="63.6" r="1.2"/>
		</g>
	</g>
	<g>
		<g>
			<defs>
				<circle id="SVGID_20_" cx="43.5" cy="43.5" r="43.5"/>
			</defs>
			<clipPath id="SVGID_21_">
				<use xlink:href="#SVGID_20_"  style="overflow:visible;"/>
			</clipPath>
			<circle class="st10" cx="43.5" cy="75.8" r="1.2"/>
			<circle class="st10" cx="51.5" cy="63.8" r="1.2"/>
		</g>
	</g>
</g>
</svg>
