<svg width="87" height="87" viewBox="0 0 87 87" fill="none" xmlns="http://www.w3.org/2000/svg">
<g clip-path="url(#clip0)">
<g filter="url(#filter0_d)">
<circle cx="43.5" cy="43.5" r="43.5" fill="#0F7386"/>
</g>
<path d="M45.2 16C45.2 16 27.0987 16.6275 23.3551 39.0999C19.6114 61.5723 21.1323 68.2725 21.1323 68.2725H69.2358C69.2358 68.2725 70.7672 61.5723 67.013 39.0999C63.2694 16.6275 45.1681 16 45.1681 16" fill="#159BAD"/>
<path d="M50.6241 54.5642H39.5527V60.956H50.6241V54.5642Z" fill="#A9E5EA"/>
<path d="M42.6476 59.4556C44.4237 59.3918 46.1573 58.8175 47.5292 57.956C48.6353 57.2435 49.5393 56.4033 50.2093 55.4248C50.3369 55.2334 50.4858 55.0101 50.6241 54.7761V54.5527H39.5527V59.3386C40.5844 59.445 41.6266 59.4982 42.6476 59.4556Z" fill="#6C6C6C" fill-opacity="0.27"/>
<path d="M58.7919 37.1535C58.7919 26.9011 52.6553 21.0091 45.0511 20.9666C45.0298 20.9666 45.0085 20.9666 44.9873 20.9666H44.9766H44.966C44.9447 20.9666 44.9235 20.9666 44.9022 20.9666C37.3086 21.0197 31.1614 26.9011 31.1614 37.1535C31.1614 50.4476 40.7332 58.2008 44.966 58.2327H44.9766H44.9873C49.2201 58.2008 58.7919 50.4476 58.7919 37.1535Z" fill="#A9E5EA"/>
<path d="M57.4306 40.9505L56.6436 46.9913C59.7384 48.3527 60.2277 41.2483 60.2277 41.2483C59.5045 39.4722 57.4306 40.9505 57.4306 40.9505Z" fill="#A9E5EA"/>
<path d="M30.0764 41.2483C30.0764 41.2483 30.5656 48.3526 33.6605 46.9913L32.8735 40.9505C32.8735 40.9505 30.789 39.4722 30.0764 41.2483Z" fill="#A9E5EA"/>
<path d="M39.5103 60.4661L26.1949 64.5819C26.1949 64.5819 21.5366 65.4115 20.3455 70.2612L24.6953 79.0566H44.8598H45.0938H65.7476L69.5975 70.2612C68.4064 65.4115 63.7481 64.5819 63.7481 64.5819L50.4327 60.4661H39.5103Z" fill="#A9E5EA"/>
<path d="M19.1541 79.046H44.8596H45.0936H70.7885L69.1825 71.7821L69.6079 70.2612C68.4168 65.4115 63.7585 64.582 63.7585 64.582L58.1324 62.8378C49.5817 64.4756 40.8075 64.4969 32.2567 62.9016L31.8845 62.8271L26.2159 64.582C26.2159 64.582 21.5576 65.4115 20.3665 70.2612L20.8238 71.6864L19.1541 79.046Z" fill="#0D5D68"/>
<path d="M38.5851 24.5507C38.5851 24.5613 45.296 38.1532 58.4306 40.3654C58.4306 40.3654 59.2708 40.142 59.8451 40.6632C59.7387 40.5675 60.0471 38.9615 60.0578 38.802C60.1854 37.1854 60.2918 35.5582 60.2173 33.931C60.0259 29.996 58.6965 25.0931 56.0376 22.0939C55.1124 21.041 53.9425 20.2647 52.6875 19.6691C50.2839 18.5311 47.6889 17.9462 45.0195 18.0419C42.9775 18.1163 40.3931 18.6375 39.2445 20.5199C38.9042 21.0623 38.7446 21.6898 38.6596 22.3173C38.5745 22.8384 38.3511 24.0721 38.5851 24.5507Z" fill="#0D5D68"/>
<path d="M39.5529 26.2631C39.5529 26.2631 33.0122 29.7408 31.3531 40.3761C31.3531 40.3761 29.9386 40.3761 30.1087 41.5992C30.1087 41.5992 27.2904 22.5514 39.2445 20.52L39.5529 26.2631Z" fill="#0D5D68"/>
<path d="M29.5981 36.6005C29.5981 36.6005 36.862 28.2411 45.0938 28.2411C53.3255 28.2411 60.1853 37.0046 60.1853 37.0046L61.4296 26.6033L52.6874 17.8611H42.0733L33.3311 22.2322L28.3325 32.8462L29.5981 36.6005Z" fill="#159BAD"/>
<path d="M20.8026 71.6865C20.8026 71.6865 24.0251 79.0568 45.2 79.0568C66.3749 79.0568 69.1507 71.6865 69.1507 71.6865L73.3942 88.352L16.5378 89.3837L20.8026 71.6865Z" fill="#00A8B5"/>
<path d="M60.6424 36.2708C58.8663 32.7505 55.2609 29.9959 51.6343 28.6559C45.1255 26.2629 37.7339 28.0497 32.5971 32.5484C31.3634 33.6226 30.1616 34.8775 29.2895 36.2708C28.7365 37.1429 30.1191 37.9405 30.6721 37.0791C36.1918 28.3262 49.6029 26.4757 56.8988 33.931C57.8028 34.8563 58.6855 35.9092 59.2704 37.0791C59.7278 37.9937 61.0997 37.1854 60.6424 36.2708Z" fill="#0F7386"/>
</g>
<defs>
<filter id="filter0_d" x="-2" y="-2" width="95" height="95" filterUnits="userSpaceOnUse" color-interpolation-filters="sRGB">
<feFlood flood-opacity="0" result="BackgroundImageFix"/>
<feColorMatrix in="SourceAlpha" type="matrix" values="0 0 0 0 0 0 0 0 0 0 0 0 0 0 0 0 0 0 127 0"/>
<feOffset dx="2" dy="2"/>
<feGaussianBlur stdDeviation="2"/>
<feColorMatrix type="matrix" values="0 0 0 0 0 0 0 0 0 0 0 0 0 0 0 0 0 0 0.25 0"/>
<feBlend mode="normal" in2="BackgroundImageFix" result="effect1_dropShadow"/>
<feBlend mode="normal" in="SourceGraphic" in2="effect1_dropShadow" result="shape"/>
</filter>
<clipPath id="clip0">
<rect width="87" height="87" rx="42" fill="white"/>
</clipPath>
</defs>
</svg>
