<?xml version="1.0" encoding="utf-8"?>
<!-- Generator: Adobe Illustrator 24.3.0, SVG Export Plug-In . SVG Version: 6.00 Build 0)  -->
<svg version="1.1" id="Layer_1" xmlns="http://www.w3.org/2000/svg" xmlns:xlink="http://www.w3.org/1999/xlink" x="0px" y="0px"
	 viewBox="0 0 87 87" style="enable-background:new 0 0 87 87;" xml:space="preserve">
<style type="text/css">
	.st0{fill:#0F7386;}
	.st1{clip-path:url(#SVGID_2_);}
	.st2{clip-path:url(#SVGID_4_);}
	.st3{clip-path:url(#SVGID_6_);}
	.st4{fill:#0C555B;}
	.st5{fill:#A9E5EA;}
	.st6{fill:#6C6C6C;fill-opacity:0.27;}
	.st7{fill:#0D5D68;}
	.st8{fill:#6EC2C4;}
	.st9{fill:#159BAD;}
</style>
<g>
	<circle class="st0" cx="43.5" cy="43.5" r="43.5"/>
</g>
<g>
	<defs>
		<path id="SVGID_1_" d="M42,0h3c23.2,0,42,18.8,42,42v3c0,23.2-18.8,42-42,42h-3C18.8,87,0,68.2,0,45v-3C0,18.8,18.8,0,42,0z"/>
	</defs>
	<clipPath id="SVGID_2_">
		<use xlink:href="#SVGID_1_"  style="overflow:visible;"/>
	</clipPath>
	<g class="st1">
		<g>
			<defs>
				<rect id="SVGID_3_" x="3" y="7" width="81" height="117"/>
			</defs>
			<clipPath id="SVGID_4_">
				<use xlink:href="#SVGID_3_"  style="overflow:visible;"/>
			</clipPath>
			<g class="st2">
				<g>
					<defs>
						<rect id="SVGID_5_" x="2.02" y="5.07" width="82.95" height="82.19"/>
					</defs>
					<clipPath id="SVGID_6_">
						<use xlink:href="#SVGID_5_"  style="overflow:visible;"/>
					</clipPath>
					<g class="st3">
						<path class="st4" d="M57.49,46.32c0.06,1.5,0.11,3,0.16,4.5c0.06,1.41,0.1,2.84,0.39,4.22c0.27,1.38,0.76,2.69,1.14,4.05
							c0.86,3.11,1.11,6.38,0.73,9.58c-0.25,2.14-1.49,2.39-3.51,2.47c-2.77,0.1-5.66-0.38-8.35-1c-3.02-0.19-6.05-0.37-9.06-0.56
							c-2.47-0.16-5.07-0.56-7.52-0.4c-2.35,0.16-4.74,0.21-7.11,0.27c-0.13,0-0.27,0-0.36-0.09c-0.08-0.07-0.1-0.18-0.11-0.29
							c-0.16-0.94-0.16-1.92,0-2.86c0.1-0.57,0.25-1.13,0.41-1.69c1.14-4.15,2.67-8.12,3.57-12.38c0.26-1.25,0.48-2.52,0.8-3.76
							c0.25-0.98,0.75-1.81,0.98-2.81"/>
						<path class="st5" d="M50.51,58.09H36.53v17.66h13.98V58.09z"/>
						<path class="st6" d="M40.44,63.66c2.25-0.07,4.43-0.72,6.16-1.71c1.4-0.81,2.53-1.76,3.39-2.87c0.17-0.21,0.35-0.47,0.52-0.73
							v-0.26H36.53v5.43C37.83,63.65,39.15,63.69,40.44,63.66z"/>
						<path class="st5" d="M43.52,17.34c-8.94,0.25-15.76,3.87-15.73,16.37c0.02,7.41,0.7,9.59,2.89,18.04
							c1.51,5.85,9.56,8.93,12.62,9.13c0.07,0,0.14-0.01,0.2-0.02c0.07,0.01,0.14,0.01,0.2,0.02c3.07-0.2,11.11-3.29,12.62-9.13
							c2.18-8.45,2.87-10.64,2.89-18.04C59.27,21.21,52.45,17.59,43.52,17.34z"/>
						<path class="st7" d="M38.76,59.62c1.8,0.77,3.48,1.2,4.56,1.27c0.07,0,0.14-0.01,0.2-0.02c0.07,0.01,0.14,0.01,0.2,0.02
							c1-0.07,2.52-0.44,4.18-1.11l1.6-2.19c0,0-4.94,5.48-11.93,0L38.76,59.62z"/>
						<path class="st5" d="M57.53,38.84l-0.98,7.37c3.83,1.67,4.43-7.01,4.43-7.01C60.1,37.03,57.53,38.84,57.53,38.84z"/>
						<path class="st5" d="M25.59,39.2c0,0,0.6,8.68,4.43,7.01l-0.98-7.37C29.05,38.84,26.47,37.03,25.59,39.2z"/>
						<path class="st8" d="M51.06,69.99c0.78-0.3,1.55-0.66,2.3-1.03c1.23-0.62,2.73-1.46,4.09-1.71c1.53-0.27,3.99,0.88,5.52,1.27
							c2.13,0.55,4.36,1.39,6.55,1.68c0,0,6.44,0.98,8.08,6.69l2.82,10.36H43.7h-0.32H6.68L9.5,76.89c1.65-5.71,8.08-6.69,8.08-6.69
							c2.69-0.7,5.39-1.39,8.08-2.09c2.06-0.53,4.11-1.05,6.16-1.59c1.19-0.3,4.05-1.87,4.83-0.55c0.49,0.82,0.61,1.65,1.3,2.4
							c0.64,0.7,1.42,1.25,2.28,1.63c1.86,0.83,3.97,0.95,6.01,0.89c0.78-0.02,1.56-0.07,2.33-0.2
							C49.43,70.55,50.25,70.3,51.06,69.99z"/>
						<path class="st4" d="M29.26,39.93l0.78,9.36C25.9,38.28,28.3,23.87,28.3,23.87c0.43-3.74,4.64-4.91,4.64-4.91
							c0.82-4.61,9.25-5.82,9.25-5.82c23.17-0.81,17.04,24.39,17.04,24.39c0,3.81-2.5,12.75-2.5,12.75l0.94-12.13
							c0-2.31-2.24-4.77-2.08-6.45c0.95-10.03-6.58-8.81-6.58-8.81c-4.56,0.89-10.15-0.01-10.15-0.01s-8.85-2.92-7.94,9.32
							C30.93,32.2,31.69,33.5,29.26,39.93z"/>
						<path class="st7" d="M42.19,50.54c-1.06-0.29-2.7,0.06-3.64,0.56c-1.11,0.61-1.9,1.71-2.27,2.89
							c-0.61,1.96,0.02,3.85,1.68,5.05c0.28,0.2,0.77,0.63,1.13,0.71c-0.94-1.08-1.63-2.48-1.64-3.93
							c-0.01-2.15,1.56-3.85,3.74-4.01c0.58-0.04,1.8,0.07,2.2,0.56C43.55,51.5,43.05,50.78,42.19,50.54z"/>
						<path class="st7" d="M44.73,50.54c1.06-0.29,2.7,0.06,3.64,0.56c1.11,0.61,1.9,1.71,2.27,2.89c0.61,1.96-0.02,3.85-1.68,5.05
							c-0.28,0.2-0.77,0.63-1.13,0.71c0.94-1.08,1.62-2.48,1.64-3.93c0.01-2.15-1.56-3.85-3.74-4.01c-0.58-0.04-1.9,0.07-2.31,0.56
							C43.26,51.5,43.88,50.78,44.73,50.54z"/>
						<path class="st7" d="M47.92,59.76c0,0,9.58-1.25,9.08-13.75c0,0-1,5.5-7.5,6C49.5,54,52.5,56,47.92,59.76z"/>
						<path class="st7" d="M39.15,59.76c0,0-4.67-1.73-7.06-5.13c0,0,2.35,1.14,4.45,1.04C36.55,55.68,37.13,58.46,39.15,59.76z"/>
						<path class="st7" d="M44.48,58.22c0.19-0.62,0.25-2.08-0.95-1.96c-1.2-0.12-1.15,1.34-0.95,1.96
							c0.25,0.83-1.24,1.71-1.24,1.65l0.01,0.04l2.18,0.45l2.18-0.45l0.01-0.04C45.7,59.92,44.22,59.05,44.48,58.22z"/>
						<path class="st9" d="M50.51,65.35l-0.19,0.3c0,0-19.83,19.64-36.04,21.6h47.86"/>
						<path class="st9" d="M50.32,65.66c0,0-19.83,19.64-36.04,21.6h47.87c-0.01-0.62-0.01-1.22-0.01-1.84
							c-0.01-1.49-0.01-2.98,0-4.47c0.01-1.85,0.03-3.7,0.09-5.55c0.05-1.69,0.1-3.4,0.24-5.08c0.02-0.22,0.03-0.46,0.06-0.68
							c0.02-0.27,0.11-0.58,0.03-0.85c-0.13-0.4-0.22-0.69-0.56-0.78c-0.4-0.1-1.1-0.4-1.5-0.5c-0.9-0.22-1.6-0.26-2.5-0.5
							c-1.72-0.45-3.77-0.64-5.49-1.11c-0.66-0.18-1.33-0.36-1.99-0.54L50.32,65.66z"/>
						<path class="st7" d="M39.1,59.75c0,0-10.1-1.75-9.6-14.25c0,0,1.52,6,8.02,6.5C37.52,54,34.52,56,39.1,59.75z"/>
					</g>
				</g>
			</g>
		</g>
	</g>
</g>
</svg>
