<svg width="266" height="290" viewBox="0 0 266 290" fill="none" xmlns="http://www.w3.org/2000/svg">
<g clip-path="url(#clip0)">
<path d="M263.821 130.651V290.548L263.453 290.755L245.249 290.79V290.453L244.992 130.694L263.821 130.651Z" fill="#3AA0B2"/>
<path d="M263.819 105.151V130.652L244.99 130.695L244.947 105.151C244.947 102.522 246.002 100.144 247.708 98.4146C249.414 96.6937 251.772 95.6301 254.379 95.6301C259.592 95.6301 263.819 99.8932 263.819 105.151Z" fill="#3AA0B2"/>
<path d="M184.543 183.582V130.851H184.86L244.992 130.695L245.249 290.454V290.791L227.646 290.826V238.622C227.646 232.716 222.827 227.934 216.885 227.934H216.405C211.14 227.934 206.879 232.171 206.879 237.403V290.86L184.543 290.904V290.437V183.582ZM227.646 180.659C227.646 177.78 226.48 175.16 224.593 173.266C222.716 171.363 220.118 170.187 217.262 170.187C214.407 170.187 211.809 171.363 209.931 173.266C208.045 175.16 206.879 177.78 206.879 180.659C206.879 183.539 208.045 186.159 209.931 188.053C211.809 189.955 214.407 191.131 217.262 191.131C222.973 191.131 227.646 186.418 227.646 180.659Z" fill="#3AA0B2"/>
<path d="M227.646 238.622V290.826L206.879 290.86V237.403C206.879 232.171 211.14 227.934 216.405 227.934H216.885C222.827 227.934 227.646 232.716 227.646 238.622Z" fill="#187385"/>
<path d="M224.593 173.265C226.48 175.159 227.646 177.779 227.646 180.658C227.646 186.417 222.973 191.13 217.262 191.13C214.407 191.13 211.809 189.954 209.931 188.052C208.045 186.158 206.879 183.538 206.879 180.658C206.879 177.779 208.045 175.159 209.931 173.265C211.809 171.363 214.407 170.187 217.262 170.187C220.118 170.187 222.716 171.363 224.593 173.265Z" fill="#187385"/>
<path d="M106.47 223.808C105.956 225.9 105.69 228.097 105.69 230.354L105.484 290.452H160.36L160.317 230.354C160.317 228.097 160.051 225.9 159.537 223.808C158.336 218.844 155.807 214.417 152.343 210.915C147.421 205.942 140.622 202.864 133.102 202.864H132.905C120.112 202.864 109.377 211.788 106.47 223.808ZM184.539 290.435V290.902L133.059 290.997H132.939L81.4678 290.902V290.435V183.581H96.2498H128.343H137.664H169.749H184.539V290.435Z" fill="#3AA0B2"/>
<path d="M184.539 130.851V183.582H169.749V182.579V147.03C169.749 138.089 162.572 130.851 153.706 130.851C149.282 130.851 145.269 132.658 142.362 135.59C139.456 138.513 137.664 142.56 137.664 147.03V182.579V183.582H128.343V182.19V147.03C128.343 142.56 126.543 138.513 123.645 135.59C120.738 132.658 116.725 130.851 112.292 130.851C103.435 130.851 96.2498 138.089 96.2498 147.03V182.579V183.582H81.4678V130.851V102.609H94.0462H133.574H141.153H171.952H184.539V130.851Z" fill="#3AA0B2"/>
<path d="M132.999 57.5566C136.438 57.522 139.233 54.6857 139.233 51.2095C139.233 49.4627 138.53 47.8803 137.381 46.7216C136.266 45.5974 134.706 44.8797 132.999 44.8624C131.293 44.8797 129.733 45.5974 128.618 46.7216C127.469 47.8803 126.766 49.4627 126.766 51.2095C126.766 54.6857 129.561 57.522 132.999 57.5566ZM171.952 100.707V102.609H141.154H133.574H94.0464V100.707V44.8624H109.146L116.7 39.7864V29.6345H132.939H133.059H149.299V39.7864L156.853 44.8624H171.952V100.707ZM153.706 89.2835V75.8975C153.706 72.4299 150.92 69.6109 147.473 69.6109H146.212C142.774 69.6109 139.979 72.4299 139.979 75.8975V89.2835H153.706ZM139.747 89.2835V75.8975C139.747 72.4299 136.961 69.6109 133.514 69.6109H133.059H132.939H132.485C129.047 69.6109 126.251 72.4299 126.251 75.8975V89.2835H132.939H133.059H139.747ZM126.02 89.2835V75.8975C126.02 72.4299 123.233 69.6109 119.786 69.6109H118.526C115.088 69.6109 112.292 72.4299 112.292 75.8975V89.2835H126.02Z" fill="#3AA0B2"/>
<path d="M169.747 182.578V183.581H137.662V182.578V147.029C137.662 142.558 139.454 138.511 142.361 135.588C145.267 132.657 149.28 130.85 153.705 130.85C162.57 130.85 169.747 138.088 169.747 147.029V182.578Z" fill="#187385"/>
<path d="M160.32 230.355L160.363 290.453H105.487L105.693 230.355C105.693 228.098 105.959 225.901 106.473 223.809H132.436H133.577H159.54C160.054 225.901 160.32 228.098 160.32 230.355Z" fill="#A9E5EA"/>
<path d="M159.542 223.809H133.579H132.439H106.476C109.382 211.79 120.117 202.866 132.91 202.866H133.107C140.627 202.866 147.426 205.944 152.348 210.916C155.812 214.418 158.341 218.846 159.542 223.809Z" fill="#A9E5EA"/>
<path d="M153.709 75.8972V89.2832H139.981V75.8972C139.981 72.4296 142.777 69.6106 146.215 69.6106H147.475C150.922 69.6106 153.709 72.4296 153.709 75.8972Z" fill="#187385"/>
<path d="M139.748 75.8972V89.2832H133.06H132.94H126.252V75.8972C126.252 72.4296 129.047 69.6106 132.485 69.6106H132.94H133.06H133.514C136.961 69.6106 139.748 72.4296 139.748 75.8972Z" fill="#187385"/>
<path d="M137.382 46.7204C138.531 47.8791 139.234 49.4616 139.234 51.2083C139.234 54.6845 136.438 57.5208 133 57.5554C129.562 57.5208 126.767 54.6845 126.767 51.2083C126.767 49.4616 127.47 47.8791 128.619 46.7204C129.733 45.5962 131.294 44.8785 133 44.8612C134.706 44.8785 136.267 45.5962 137.382 46.7204Z" fill="#187385"/>
<path d="M128.343 182.189V183.581H96.249V182.578V147.029C96.249 138.088 103.434 130.85 112.292 130.85C116.724 130.85 120.737 132.657 123.644 135.588C126.542 138.511 128.343 142.558 128.343 147.029V182.189Z" fill="#187385"/>
<path d="M126.019 75.8972V89.2832H112.292V75.8972C112.292 72.4296 115.087 69.6106 118.525 69.6106H119.786C123.233 69.6106 126.019 72.4296 126.019 75.8972Z" fill="#187385"/>
<path d="M81.4683 183.582V290.437V290.904L59.1237 290.86V237.403C59.1237 232.171 54.8623 227.934 49.6063 227.934H49.1176C43.1756 227.934 38.3654 232.716 38.3654 238.622V290.826L21.0625 290.791V289.122V130.695L81.1511 130.851H81.4683V183.582ZM59.1237 180.659C59.1237 177.78 57.9577 175.16 56.0799 173.266C54.1935 171.363 51.6041 170.187 48.7489 170.187C45.8936 170.187 43.2956 171.363 41.4179 173.266C39.5315 175.16 38.3654 177.78 38.3654 180.659C38.3654 186.418 43.0384 191.131 48.7489 191.131C51.6041 191.131 54.1935 189.955 56.0799 188.053C57.9577 186.159 59.1237 183.539 59.1237 180.659Z" fill="#3AA0B2"/>
<path d="M59.1275 237.403V290.86L38.3691 290.826V238.622C38.3691 232.716 43.1793 227.934 49.1213 227.934H49.61C54.8661 227.934 59.1275 232.171 59.1275 237.403Z" fill="#187385"/>
<path d="M56.0836 173.265C57.9614 175.159 59.1275 177.779 59.1275 180.658C59.1275 183.538 57.9614 186.158 56.0836 188.052C54.1973 189.954 51.6078 191.13 48.7526 191.13C43.0421 191.13 38.3691 186.417 38.3691 180.658C38.3691 177.779 39.5352 175.159 41.4216 173.265C43.2994 171.363 45.8974 170.187 48.7526 170.187C51.6078 170.187 54.1973 171.363 56.0836 173.265Z" fill="#187385"/>
<path d="M21.0632 289.121V290.79L2.55131 290.755L2.18262 288.818V130.651L21.0632 130.694V289.121Z" fill="#3AA0B2"/>
<path d="M21.0632 105.151V130.695L2.18262 130.652V105.151C2.18262 99.8932 6.40974 95.6301 11.6229 95.6301C14.2295 95.6301 16.5874 96.6937 18.3023 98.4146C20.0086 100.144 21.0632 102.522 21.0632 105.151Z" fill="#3AA0B2"/>
<path d="M2.18262 288.819V130.652V105.151C2.18262 99.8932 6.40974 95.6301 11.6229 95.6301C14.2295 95.6301 16.5874 96.6937 18.3023 98.4146C20.0086 100.144 21.0632 102.522 21.0632 105.151V130.695V289.122" stroke="#3AA0B2" stroke-width="2.6226" stroke-miterlimit="10" stroke-linecap="round" stroke-linejoin="round"/>
<path d="M2.18262 130.651L21.0632 130.694L81.1518 130.85" stroke="#3AA0B2" stroke-width="2.6226" stroke-miterlimit="10" stroke-linecap="round" stroke-linejoin="round"/>
<path d="M48.7526 191.13C43.0421 191.13 38.3691 186.417 38.3691 180.658C38.3691 177.779 39.5352 175.159 41.4216 173.265C43.2994 171.363 45.8974 170.187 48.7526 170.187C51.6078 170.187 54.1973 171.363 56.0836 173.265C57.9614 175.159 59.1275 177.779 59.1275 180.658C59.1275 183.538 57.9614 186.158 56.0836 188.052C54.1973 189.954 51.6078 191.13 48.7526 191.13Z" stroke="#187385" stroke-width="2.6226" stroke-miterlimit="10" stroke-linecap="round" stroke-linejoin="round"/>
<path d="M133.06 57.5554C133.043 57.5554 133.017 57.5554 133 57.5554C129.562 57.5208 126.767 54.6845 126.767 51.2083C126.767 49.4616 127.47 47.8791 128.619 46.7204C129.733 45.5962 131.294 44.8785 133 44.8612C133.017 44.8612 133.043 44.8612 133.06 44.8612" stroke="#187385" stroke-width="2.6226" stroke-miterlimit="10" stroke-linecap="round" stroke-linejoin="round"/>
<path d="M96.249 182.578V147.029C96.249 138.088 103.434 130.85 112.292 130.85C116.724 130.85 120.737 132.657 123.644 135.588C126.542 138.511 128.343 142.558 128.343 147.029V182.189" stroke="#187385" stroke-width="1.0312" stroke-miterlimit="10" stroke-linecap="round" stroke-linejoin="round"/>
<path d="M126.019 89.2832H112.292V75.8972C112.292 72.4296 115.087 69.6106 118.525 69.6106H119.786C123.233 69.6106 126.019 72.4296 126.019 75.8972V89.2832V89.2832Z" stroke="#187385" stroke-width="0.3867" stroke-miterlimit="10" stroke-linecap="round" stroke-linejoin="round"/>
<path d="M132.94 89.2832H126.252V75.8972C126.252 72.4296 129.047 69.6106 132.485 69.6106H132.94" stroke="#187385" stroke-width="0.3867" stroke-miterlimit="10" stroke-linecap="round" stroke-linejoin="round"/>
<path d="M133.574 102.609H94.0462H81.4678V130.851V183.582V290.437" stroke="#3AA0B2" stroke-width="2.6226" stroke-miterlimit="10" stroke-linecap="round" stroke-linejoin="round"/>
<path d="M94.0464 100.707V44.8624H109.146L116.7 39.7864V29.6345H132.939" stroke="#3AA0B2" stroke-width="2.6226" stroke-miterlimit="10" stroke-linecap="round" stroke-linejoin="round"/>
<path d="M2.55176 290.757L21.0636 290.792L38.3665 290.826L59.1249 290.861L81.4695 290.904L132.941 291" stroke="#3AA0B2" stroke-width="2.6226" stroke-miterlimit="10" stroke-linecap="round" stroke-linejoin="round"/>
<path d="M263.819 290.549V130.652V105.151C263.819 99.8932 259.592 95.6301 254.379 95.6301C251.772 95.6301 249.414 96.6937 247.708 98.4146C246.002 100.144 244.947 102.522 244.947 105.151L244.99 130.695L245.247 290.453" stroke="#3AA0B2" stroke-width="2.6226" stroke-miterlimit="10" stroke-linecap="round" stroke-linejoin="round"/>
<path d="M263.819 130.651L244.99 130.694L184.858 130.85" stroke="#3AA0B2" stroke-width="2.6226" stroke-miterlimit="10" stroke-linecap="round" stroke-linejoin="round"/>
<path d="M217.262 191.13C222.973 191.13 227.646 186.417 227.646 180.658C227.646 177.779 226.48 175.159 224.593 173.265C222.716 171.363 220.118 170.187 217.262 170.187C214.407 170.187 211.809 171.363 209.931 173.265C208.045 175.159 206.879 177.779 206.879 180.658C206.879 183.538 208.045 186.158 209.931 188.052C211.809 189.954 214.407 191.13 217.262 191.13Z" stroke="#187385" stroke-width="2.6226" stroke-miterlimit="10" stroke-linecap="round" stroke-linejoin="round"/>
<path d="M132.94 57.5554C132.958 57.5554 132.983 57.5554 133 57.5554C136.439 57.5208 139.234 54.6845 139.234 51.2083C139.234 49.4616 138.531 47.8791 137.382 46.7204C136.267 45.5962 134.707 44.8785 133 44.8612C132.983 44.8612 132.958 44.8612 132.94 44.8612" stroke="#187385" stroke-width="2.6226" stroke-miterlimit="10" stroke-linecap="round" stroke-linejoin="round"/>
<path d="M169.747 182.578V147.029C169.747 138.088 162.57 130.85 153.705 130.85C149.28 130.85 145.267 132.657 142.361 135.588C139.454 138.511 137.662 142.558 137.662 147.029V182.578" stroke="#187385" stroke-width="1.0312" stroke-miterlimit="10" stroke-linecap="round" stroke-linejoin="round"/>
<path d="M139.981 89.2832H153.709V75.8972C153.709 72.4296 150.922 69.6106 147.475 69.6106H146.215C142.777 69.6106 139.981 72.4296 139.981 75.8972V89.2832V89.2832Z" stroke="#187385" stroke-width="0.3867" stroke-miterlimit="10" stroke-linecap="round" stroke-linejoin="round"/>
<path d="M132.94 89.2832H133.06H139.748V75.8972C139.748 72.4296 136.962 69.6106 133.515 69.6106H133.06H132.94" stroke="#187385" stroke-width="0.3867" stroke-miterlimit="10" stroke-linecap="round" stroke-linejoin="round"/>
<path d="M160.626 223.809H159.537H133.574H132.433H106.471H105.373" stroke="#3AA0B2" stroke-width="2.6226" stroke-miterlimit="10" stroke-linecap="round" stroke-linejoin="round"/>
<path d="M133.576 102.609H141.156H171.955H184.542V130.851V183.582V290.437" stroke="#3AA0B2" stroke-width="2.6226" stroke-miterlimit="10" stroke-linecap="round" stroke-linejoin="round"/>
<path d="M171.953 100.707V44.8624H156.854L149.3 39.7864V29.6345H133.06H132.94" stroke="#3AA0B2" stroke-width="2.6226" stroke-miterlimit="10" stroke-linecap="round" stroke-linejoin="round"/>
<path d="M263.45 290.757L245.246 290.792L227.643 290.826L206.876 290.861L184.54 290.904L133.06 291H132.94" stroke="#3AA0B2" stroke-width="2.6226" stroke-miterlimit="10" stroke-linecap="round" stroke-linejoin="round"/>
<path d="M80.6992 183.581H81.4709H96.253H128.347H137.667H169.752H184.542H186.746" stroke="#3AA0B2" stroke-width="2.6226" stroke-miterlimit="10" stroke-linecap="round" stroke-linejoin="round"/>
<path d="M38.3691 290.826V290.886H59.1275V290.86V237.403C59.1275 232.171 54.8661 227.934 49.61 227.934H49.1213C43.1793 227.934 38.3691 232.716 38.3691 238.622V290.826Z" stroke="#187385" stroke-width="2.6226" stroke-miterlimit="10" stroke-linecap="round" stroke-linejoin="round"/>
<path d="M206.879 290.86V290.886H227.646V290.826V238.622C227.646 232.716 222.827 227.934 216.885 227.934H216.405C211.14 227.934 206.879 232.171 206.879 237.403V290.86V290.86Z" stroke="#187385" stroke-width="2.6226" stroke-miterlimit="10" stroke-linecap="round" stroke-linejoin="round"/>
<path d="M159.54 223.809C160.054 225.902 160.32 228.098 160.32 230.355L160.363 290.454H105.487L105.693 230.355C105.693 228.098 105.959 225.902 106.473 223.809C109.38 211.79 120.115 202.866 132.908 202.866H133.105C140.625 202.866 147.424 205.944 152.346 210.916C155.81 214.418 158.339 218.846 159.54 223.809Z" stroke="#A9E5EA" stroke-width="2.6226" stroke-miterlimit="10" stroke-linecap="round" stroke-linejoin="round"/>
<path d="M79.3159 108.327L187.352 108.685C187.36 108.685 187.36 108.685 187.369 108.685C189.967 108.685 192.076 106.593 192.085 104.004C192.093 101.407 189.993 99.2973 187.386 99.2887L79.3502 98.9299C79.3416 98.9299 79.3416 98.9299 79.3331 98.9299C76.7351 98.9299 74.6258 101.023 74.6172 103.611C74.6086 106.2 76.7179 108.31 79.3159 108.327Z" fill="#187385"/>
<path d="M75.9369 124.488L27.0635 124.129C27.0549 124.129 27.0463 124.129 27.0378 124.129C24.9199 124.129 23.1965 125.829 23.1793 127.948C23.1622 130.075 24.877 131.8 27.012 131.817L75.8854 132.176C75.894 132.176 75.9026 132.176 75.9112 132.176C78.029 132.176 79.7524 130.476 79.7696 128.358C79.7782 126.239 78.0633 124.505 75.9369 124.488Z" fill="#187385"/>
<path d="M238.849 124.917L189.976 124.558C189.968 124.558 189.959 124.558 189.95 124.558C187.833 124.558 186.109 126.258 186.092 128.377C186.075 130.504 187.79 132.23 189.925 132.247L238.798 132.605C238.807 132.605 238.815 132.605 238.824 132.605C240.942 132.605 242.665 130.906 242.682 128.787C242.691 126.668 240.976 124.934 238.849 124.917Z" fill="#187385"/>
<path d="M121.988 13.3348H130.725V26.3108C130.725 27.6349 131.806 28.7113 133.135 28.7113C134.464 28.7113 135.544 27.6349 135.544 26.3108V13.3348H144.281C145.61 13.3348 146.69 12.2585 146.69 10.9344C146.69 9.61029 145.61 8.54248 144.281 8.54248H135.544V2.40044C135.544 1.07635 134.464 0 133.135 0C131.806 0 130.725 1.07635 130.725 2.40044V8.54248H121.988C120.659 8.54248 119.579 9.61883 119.579 10.9429C119.579 12.267 120.659 13.3348 121.988 13.3348Z" fill="#187385"/>
<path d="M254.029 86.2795C252.7 86.2795 251.62 87.3559 251.62 88.68V92.9512C251.62 94.2753 252.7 95.3517 254.029 95.3517C255.359 95.3517 256.439 94.2753 256.439 92.9512V88.68C256.439 87.3559 255.359 86.2795 254.029 86.2795Z" fill="#187385"/>
<path d="M11.5939 86.2795C10.2649 86.2795 9.18457 87.3559 9.18457 88.68V92.9512C9.18457 94.2753 10.2649 95.3517 11.5939 95.3517C12.923 95.3517 14.0033 94.2753 14.0033 92.9512V88.68C14.0033 87.3559 12.923 86.2795 11.5939 86.2795Z" fill="#187385"/>
<path opacity="0.2" d="M79.7608 127.548H74.1875V289.855H79.7608V127.548Z" fill="#187385"/>
<path opacity="0.2" d="M23.1705 127.548H17.5972V289.855H23.1705V127.548Z" fill="#187385"/>
<path opacity="0.2" d="M248.384 126.985H242.811V289.292H248.384V126.985Z" fill="#187385"/>
<path opacity="0.2" d="M191.789 126.985H186.216V289.292H191.789V126.985Z" fill="#187385"/>
<path d="M112.77 128.828H111.913C102.918 128.828 95.6216 136.097 95.6216 145.058V179.228H129.061V145.058C129.061 136.089 121.773 128.828 112.77 128.828Z" fill="#187385"/>
<path d="M153.925 128.828H153.068C144.074 128.828 136.777 136.097 136.777 145.058V179.228H170.217V145.058C170.217 136.089 162.928 128.828 153.925 128.828Z" fill="#187385"/>
</g>
<defs>
<clipPath id="clip0">
<rect width="266" height="290" fill="white"/>
</clipPath>
</defs>
</svg>
