<svg width="146" height="158" viewBox="0 0 146 158" fill="none" xmlns="http://www.w3.org/2000/svg">
<g clip-path="url(#clip0)">
<path d="M144.011 70.8871V156.581L143.811 156.693L133.93 156.711V156.53L133.79 70.9103L144.011 70.8871Z" fill="#3AA0B2"/>
<path d="M144.01 57.2207V70.8875L133.789 70.9107L133.766 57.2207C133.766 55.8119 134.339 54.5374 135.265 53.6106C136.191 52.6883 137.471 52.1183 138.886 52.1183C141.715 52.1183 144.01 54.403 144.01 57.2207Z" fill="#3AA0B2"/>
<path d="M100.978 99.2549V70.9944H101.15L133.79 70.911L133.93 156.531V156.712L124.375 156.73V128.753C124.375 125.587 121.759 123.025 118.534 123.025H118.273C115.415 123.025 113.102 125.295 113.102 128.099V156.749L100.978 156.772V156.522V99.2549ZM124.375 97.6885C124.375 96.1452 123.742 94.741 122.718 93.7261C121.699 92.7065 120.288 92.0762 118.739 92.0762C117.189 92.0762 115.778 92.7065 114.759 93.7261C113.735 94.741 113.102 96.1452 113.102 97.6885C113.102 99.2317 113.735 100.636 114.759 101.651C115.778 102.67 117.189 103.301 118.739 103.301C121.838 103.301 124.375 100.775 124.375 97.6885Z" fill="#3AA0B2"/>
<path d="M124.375 156.73V156.762H113.102V156.748L124.375 156.73Z" fill="#187385"/>
<path d="M124.375 128.753V156.731L113.102 156.749V128.099C113.102 125.295 115.415 123.025 118.273 123.025H118.534C121.759 123.025 124.375 125.587 124.375 128.753Z" fill="#187385"/>
<path d="M122.718 93.7255C123.742 94.7405 124.375 96.1447 124.375 97.6879C124.375 100.774 121.838 103.3 118.738 103.3C117.188 103.3 115.778 102.67 114.759 101.65C113.735 100.635 113.102 99.2312 113.102 97.6879C113.102 96.1447 113.735 94.7405 114.759 93.7255C115.778 92.706 117.188 92.0757 118.738 92.0757C120.288 92.0757 121.698 92.706 122.718 93.7255Z" fill="#187385"/>
<path d="M58.599 120.813C58.3198 121.935 58.1755 123.112 58.1755 124.321L58.0638 156.53H87.8507L87.8275 124.321C87.8275 123.112 87.6832 121.935 87.4039 120.813C86.7523 118.153 85.3794 115.78 83.4991 113.903C80.8275 111.239 77.1367 109.589 73.055 109.589H72.948C66.0039 109.589 60.1768 114.371 58.599 120.813ZM100.976 156.521V156.771L73.0317 156.822H72.9666L45.0273 156.771V156.521V99.254H53.0512H70.4719H75.531H92.9471H100.976V156.521Z" fill="#3AA0B2"/>
<path d="M100.976 70.9945V99.255H92.9471V98.7174V79.6655C92.9471 74.8735 89.0515 70.9945 84.2391 70.9945C81.8375 70.9945 79.6593 71.9631 78.0816 73.5342C76.5038 75.1006 75.531 77.2695 75.531 79.6655V98.7174V99.255H70.4719V98.5089V79.6655C70.4719 77.2695 69.4945 75.1006 67.9214 73.5342C66.3436 71.9631 64.1655 70.9945 61.7592 70.9945C56.9514 70.9945 53.0512 74.8735 53.0512 79.6655V98.7174V99.255H45.0273V70.9945V55.8586H51.8551H73.311H77.4253H94.1432H100.976V70.9945Z" fill="#3AA0B2"/>
<path d="M72.9996 31.7134C74.8659 31.6949 76.3832 30.1748 76.3832 28.3118C76.3832 27.3757 76.0015 26.5276 75.3779 25.9066C74.7728 25.3041 73.9257 24.9194 72.9996 24.9102C72.0734 24.9194 71.2263 25.3041 70.6213 25.9066C69.9976 26.5276 69.6159 27.3757 69.6159 28.3118C69.6159 30.1748 71.1332 31.6949 72.9996 31.7134ZM94.1436 54.839V55.8586H77.4257H73.3114H51.8555V54.839V24.9102H60.0515L64.1519 22.1898V16.749H72.967H73.0321H81.8472V22.1898L85.9476 24.9102H94.1436V54.839ZM84.2395 48.717V41.543C84.2395 39.6846 82.7269 38.1738 80.8559 38.1738H80.1717C78.3054 38.1738 76.7881 39.6846 76.7881 41.543V48.717H84.2395ZM76.6624 48.717V41.543C76.6624 39.6846 75.1498 38.1738 73.2788 38.1738H73.0321H72.967H72.7203C70.854 38.1738 69.3367 39.6846 69.3367 41.543V48.717H72.967H73.0321H76.6624ZM69.211 48.717V41.543C69.211 39.6846 67.6984 38.1738 65.8274 38.1738H65.1432C63.2769 38.1738 61.7596 39.6846 61.7596 41.543V48.717H69.211Z" fill="#3AA0B2"/>
<path d="M92.9463 98.7166V99.2542H75.5303V98.7166V79.6647C75.5303 77.2687 76.503 75.0998 78.0808 73.5334C79.6586 71.9624 81.8367 70.9938 84.2383 70.9938C89.0508 70.9938 92.9463 74.8727 92.9463 79.6647V98.7166Z" fill="#187385"/>
<path d="M87.8291 124.322L87.8524 156.531H58.0654L58.1771 124.322C58.1771 123.112 58.3214 121.935 58.6007 120.814H72.6936H73.3126H87.4056C87.6848 121.935 87.8291 123.112 87.8291 124.322Z" fill="#187385"/>
<path d="M87.4065 120.814H73.3135H72.6945H58.6016C60.1793 114.372 66.0064 109.59 72.9505 109.59H73.0575C77.1393 109.59 80.8301 111.239 83.5016 113.904C85.3819 115.781 86.7549 118.154 87.4065 120.814Z" fill="#187385"/>
<path d="M84.2409 41.5428V48.7168H76.7896V41.5428C76.7896 39.6844 78.3068 38.1736 80.1732 38.1736H80.8573C82.7283 38.1736 84.2409 39.6844 84.2409 41.5428Z" fill="#187385"/>
<path d="M76.6626 41.5428V48.7168H73.0324H72.9672H69.3369V41.5428C69.3369 39.6844 70.8542 38.1736 72.7205 38.1736H72.9672H73.0324H73.279C75.15 38.1736 76.6626 39.6844 76.6626 41.5428Z" fill="#187385"/>
<path d="M75.3781 25.9059C76.0018 26.5269 76.3834 27.375 76.3834 28.3112C76.3834 30.1742 74.8662 31.6943 72.9998 31.7128C71.1335 31.6943 69.6162 30.1742 69.6162 28.3112C69.6162 27.375 69.9979 26.5269 70.6215 25.9059C71.2266 25.3035 72.0736 24.9188 72.9998 24.9095C73.926 24.9188 74.7731 25.3035 75.3781 25.9059Z" fill="#187385"/>
<path d="M70.4715 98.5081V99.2542H53.0508V98.7166V79.6647C53.0508 74.8727 56.951 70.9938 61.7588 70.9938C64.165 70.9938 66.3432 71.9624 67.921 73.5334C69.4941 75.0998 70.4715 77.2687 70.4715 79.6647V98.5081Z" fill="#187385"/>
<path d="M69.2107 41.5428V48.7168H61.7593V41.5428C61.7593 39.6844 63.2765 38.1736 65.1429 38.1736H65.8271C67.698 38.1736 69.2107 39.6844 69.2107 41.5428Z" fill="#187385"/>
<path d="M45.0282 99.2549V156.522V156.772L32.8993 156.749V128.099C32.8993 125.295 30.5862 123.025 27.7331 123.025H27.4678C24.2425 123.025 21.6315 125.587 21.6315 128.753V156.73L12.2393 156.712V155.818V70.911L44.856 70.9944H45.0282V99.2549ZM32.8993 97.6885C32.8993 96.1452 32.2663 94.741 31.2471 93.7261C30.2231 92.7065 28.8176 92.0762 27.2677 92.0762C25.7179 92.0762 24.3076 92.7065 23.2884 93.7261C22.2644 94.741 21.6315 96.1452 21.6315 97.6885C21.6315 100.775 24.168 103.301 27.2677 103.301C28.8176 103.301 30.2231 102.67 31.2471 101.651C32.2663 100.636 32.8993 99.2317 32.8993 97.6885Z" fill="#3AA0B2"/>
<path d="M32.9007 128.099V156.749L21.6328 156.731V128.753C21.6328 125.587 24.2438 123.025 27.4692 123.025H27.7345C30.5875 123.025 32.9007 125.295 32.9007 128.099Z" fill="#187385"/>
<path d="M31.2484 93.7255C32.2677 94.7405 32.9007 96.1447 32.9007 97.6879C32.9007 99.2312 32.2677 100.635 31.2484 101.65C30.2245 102.67 28.8189 103.3 27.2691 103.3C24.1694 103.3 21.6328 100.774 21.6328 97.6879C21.6328 96.1447 22.2658 94.7405 23.2897 93.7255C24.309 92.706 25.7192 92.0757 27.2691 92.0757C28.8189 92.0757 30.2245 92.706 31.2484 93.7255Z" fill="#187385"/>
<path d="M12.2393 155.817V156.711L2.19085 156.693L1.99072 155.655V70.8871L12.2393 70.9103V155.817Z" fill="#3AA0B2"/>
<path d="M12.2393 57.2207V70.9107L1.99072 70.8875V57.2207C1.99072 54.403 4.28525 52.1183 7.11501 52.1183C8.52989 52.1183 9.8098 52.6883 10.7406 53.6106C11.6668 54.5374 12.2393 55.8119 12.2393 57.2207Z" fill="#3AA0B2"/>
<path d="M1.99072 155.655V70.8875V57.2207C1.99072 54.403 4.28525 52.1183 7.11501 52.1183C8.52989 52.1183 9.8098 52.6883 10.7406 53.6106C11.6668 54.5374 12.2393 55.8119 12.2393 57.2207V70.9107V155.817" stroke="#3AA0B2" stroke-width="2.6226" stroke-miterlimit="10" stroke-linecap="round" stroke-linejoin="round"/>
<path d="M1.99072 70.8871L12.2393 70.9104L44.856 70.9941" stroke="#3AA0B2" stroke-width="2.6226" stroke-miterlimit="10" stroke-linecap="round" stroke-linejoin="round"/>
<path d="M27.2691 103.3C24.1694 103.3 21.6328 100.774 21.6328 97.6879C21.6328 96.1447 22.2658 94.7405 23.2897 93.7255C24.309 92.706 25.7192 92.0757 27.2691 92.0757C28.8189 92.0757 30.2245 92.706 31.2484 93.7255C32.2677 94.7405 32.9007 96.1447 32.9007 97.6879C32.9007 99.2312 32.2677 100.635 31.2484 101.65C30.2245 102.67 28.8189 103.3 27.2691 103.3Z" stroke="#187385" stroke-width="2.6226" stroke-miterlimit="10" stroke-linecap="round" stroke-linejoin="round"/>
<path d="M73.0324 31.7128C73.0231 31.7128 73.0091 31.7128 72.9998 31.7128C71.1335 31.6943 69.6162 30.1742 69.6162 28.3112C69.6162 27.375 69.9979 26.5269 70.6215 25.9059C71.2266 25.3035 72.0736 24.9188 72.9998 24.9095C73.0091 24.9095 73.0231 24.9095 73.0324 24.9095" stroke="#187385" stroke-width="2.6226" stroke-miterlimit="10" stroke-linecap="round" stroke-linejoin="round"/>
<path d="M53.0508 98.7166V79.6647C53.0508 74.8727 56.951 70.9938 61.7588 70.9938C64.165 70.9938 66.3432 71.9624 67.921 73.5334C69.4941 75.0998 70.4715 77.2687 70.4715 79.6647V98.5081" stroke="#187385" stroke-width="1.0312" stroke-miterlimit="10" stroke-linecap="round" stroke-linejoin="round"/>
<path d="M69.2107 48.7168H61.7593V41.5428C61.7593 39.6844 63.2765 38.1736 65.1429 38.1736H65.8271C67.698 38.1736 69.2107 39.6844 69.2107 41.5428V48.7168V48.7168Z" stroke="#187385" stroke-width="0.3867" stroke-miterlimit="10" stroke-linecap="round" stroke-linejoin="round"/>
<path d="M72.9672 48.7168H69.3369V41.5428C69.3369 39.6844 70.8542 38.1736 72.7205 38.1736H72.9672" stroke="#187385" stroke-width="0.3867" stroke-miterlimit="10" stroke-linecap="round" stroke-linejoin="round"/>
<path d="M73.311 55.8586H51.8551H45.0273V70.9945V99.255V156.522" stroke="#3AA0B2" stroke-width="2.6226" stroke-miterlimit="10" stroke-linecap="round" stroke-linejoin="round"/>
<path d="M51.8555 54.839V24.9102H60.0515L64.1519 22.1898V16.749H72.967" stroke="#3AA0B2" stroke-width="2.6226" stroke-miterlimit="10" stroke-linecap="round" stroke-linejoin="round"/>
<path d="M2.19092 156.694L12.2394 156.712L21.6316 156.731L32.8994 156.749L45.0283 156.773L72.9675 156.824" stroke="#3AA0B2" stroke-width="2.6226" stroke-miterlimit="10" stroke-linecap="round" stroke-linejoin="round"/>
<path d="M144.01 156.582V70.8875V57.2207C144.01 54.403 141.715 52.1183 138.886 52.1183C137.471 52.1183 136.191 52.6883 135.265 53.6106C134.339 54.5374 133.766 55.8119 133.766 57.2207L133.789 70.9107L133.929 156.531" stroke="#3AA0B2" stroke-width="2.6226" stroke-miterlimit="10" stroke-linecap="round" stroke-linejoin="round"/>
<path d="M144.01 70.8871L133.789 70.9104L101.149 70.9941" stroke="#3AA0B2" stroke-width="2.6226" stroke-miterlimit="10" stroke-linecap="round" stroke-linejoin="round"/>
<path d="M118.738 103.3C121.838 103.3 124.375 100.774 124.375 97.6879C124.375 96.1447 123.742 94.7405 122.718 93.7255C121.698 92.706 120.288 92.0757 118.738 92.0757C117.188 92.0757 115.778 92.706 114.759 93.7255C113.735 94.7405 113.102 96.1447 113.102 97.6879C113.102 99.2312 113.735 100.635 114.759 101.65C115.778 102.67 117.188 103.3 118.738 103.3Z" stroke="#187385" stroke-width="2.6226" stroke-miterlimit="10" stroke-linecap="round" stroke-linejoin="round"/>
<path d="M72.9678 31.7128C72.9771 31.7128 72.991 31.7128 73.0004 31.7128C74.8667 31.6943 76.384 30.1742 76.384 28.3112C76.384 27.375 76.0023 26.5269 75.3787 25.9059C74.7736 25.3035 73.9265 24.9188 73.0004 24.9095C72.991 24.9095 72.9771 24.9095 72.9678 24.9095" stroke="#187385" stroke-width="2.6226" stroke-miterlimit="10" stroke-linecap="round" stroke-linejoin="round"/>
<path d="M92.9463 98.7166V79.6647C92.9463 74.8727 89.0508 70.9938 84.2383 70.9938C81.8367 70.9938 79.6586 71.9624 78.0808 73.5334C76.503 75.0998 75.5303 77.2687 75.5303 79.6647V98.7166" stroke="#187385" stroke-width="1.0312" stroke-miterlimit="10" stroke-linecap="round" stroke-linejoin="round"/>
<path d="M76.7896 48.7168H84.2409V41.5428C84.2409 39.6844 82.7283 38.1736 80.8573 38.1736H80.1732C78.3068 38.1736 76.7896 39.6844 76.7896 41.5428V48.7168V48.7168Z" stroke="#187385" stroke-width="0.3867" stroke-miterlimit="10" stroke-linecap="round" stroke-linejoin="round"/>
<path d="M72.9678 48.7168H73.0329H76.6632V41.5428C76.6632 39.6844 75.1506 38.1736 73.2796 38.1736H73.0329H72.9678" stroke="#187385" stroke-width="0.3867" stroke-miterlimit="10" stroke-linecap="round" stroke-linejoin="round"/>
<path d="M87.9952 120.814H87.4041H73.3111H72.6921H58.5992H58.0034" stroke="#3AA0B2" stroke-width="2.6226" stroke-miterlimit="10" stroke-linecap="round" stroke-linejoin="round"/>
<path d="M73.3125 55.8586H77.4268H94.1447H100.977V70.9945V99.255V156.522" stroke="#3AA0B2" stroke-width="2.6226" stroke-miterlimit="10" stroke-linecap="round" stroke-linejoin="round"/>
<path d="M94.1444 54.839V24.9102H85.9484L81.848 22.1898V16.749H73.0329H72.9678" stroke="#3AA0B2" stroke-width="2.6226" stroke-miterlimit="10" stroke-linecap="round" stroke-linejoin="round"/>
<path d="M143.81 156.694L133.929 156.712L124.374 156.731L113.101 156.749L100.977 156.773L73.0329 156.824H72.9678" stroke="#3AA0B2" stroke-width="2.6226" stroke-miterlimit="10" stroke-linecap="round" stroke-linejoin="round"/>
<path d="M44.6104 99.254H45.0292H53.0531H70.4738H75.5329H92.949H100.978H102.174" stroke="#3AA0B2" stroke-width="2.6226" stroke-miterlimit="10" stroke-linecap="round" stroke-linejoin="round"/>
<path d="M21.6328 156.731V156.763H32.9007V156.749V128.099C32.9007 125.295 30.5875 123.025 27.7345 123.025H27.4692C24.2438 123.025 21.6328 125.587 21.6328 128.753V156.731Z" stroke="#187385" stroke-width="2.6226" stroke-miterlimit="10" stroke-linecap="round" stroke-linejoin="round"/>
<path d="M113.102 156.749V156.763H124.375V156.731V128.753C124.375 125.587 121.759 123.025 118.534 123.025H118.273C115.415 123.025 113.102 125.295 113.102 128.099V156.749V156.749Z" stroke="#187385" stroke-width="2.6226" stroke-miterlimit="10" stroke-linecap="round" stroke-linejoin="round"/>
<path d="M87.4056 120.814C87.6848 121.936 87.8291 123.113 87.8291 124.322L87.8524 156.531H58.0654L58.1771 124.322C58.1771 123.113 58.3214 121.936 58.6007 120.814C60.1784 114.372 66.0055 109.59 72.9496 109.59H73.0566C77.1384 109.59 80.8292 111.239 83.5007 113.904C85.381 115.781 86.754 118.154 87.4056 120.814Z" stroke="#187385" stroke-width="2.6226" stroke-miterlimit="10" stroke-linecap="round" stroke-linejoin="round"/>
<path d="M43.8596 59.4404L102.503 59.635C102.507 59.635 102.507 59.635 102.512 59.635C103.922 59.635 105.067 58.4996 105.072 57.0954C105.076 55.6865 103.936 54.5418 102.521 54.5372L43.8782 54.3425C43.8736 54.3425 43.8736 54.3425 43.8689 54.3425C42.4587 54.3425 41.3138 55.478 41.3091 56.8822C41.3044 58.2864 42.4494 59.4311 43.8596 59.4404Z" fill="#187385"/>
<path d="M42.0256 68.2081L15.4966 68.0134C15.492 68.0134 15.4873 68.0134 15.4826 68.0134C14.3331 68.0134 13.3976 68.9357 13.3883 70.085C13.3789 71.239 14.3098 72.1751 15.4687 72.1844L41.9977 72.379C42.0023 72.379 42.007 72.379 42.0117 72.379C43.1612 72.379 44.0967 71.4568 44.106 70.3074C44.1107 69.1581 43.1799 68.2173 42.0256 68.2081Z" fill="#187385"/>
<path d="M130.456 68.4409L103.927 68.2462C103.923 68.2462 103.918 68.2462 103.913 68.2462C102.764 68.2462 101.828 69.1685 101.819 70.3178C101.81 71.4717 102.74 72.4079 103.899 72.4172L130.428 72.6118C130.433 72.6118 130.438 72.6118 130.442 72.6118C131.592 72.6118 132.527 71.6896 132.537 70.5402C132.541 69.3909 131.611 68.4501 130.456 68.4409Z" fill="#187385"/>
<path d="M67.0222 7.90627H71.7648V14.9459C71.7648 15.6642 72.3513 16.2482 73.0727 16.2482C73.7941 16.2482 74.3805 15.6642 74.3805 14.9459V7.90627H79.1231C79.8445 7.90627 80.431 7.32233 80.431 6.60401C80.431 5.88568 79.8445 5.30638 79.1231 5.30638H74.3805V1.97426C74.3805 1.25593 73.7941 0.671997 73.0727 0.671997C72.3513 0.671997 71.7648 1.25593 71.7648 1.97426V5.30638H67.0222C66.3008 5.30638 65.7144 5.89031 65.7144 6.60864C65.7144 7.32697 66.3008 7.90627 67.0222 7.90627Z" fill="#187385"/>
<path d="M138.696 47.4795C137.975 47.4795 137.388 48.0634 137.388 48.7818V51.0989C137.388 51.8173 137.975 52.4012 138.696 52.4012C139.417 52.4012 140.004 51.8173 140.004 51.0989V48.7818C140.004 48.0634 139.417 47.4795 138.696 47.4795Z" fill="#187385"/>
<path d="M7.09934 47.4795C6.37793 47.4795 5.7915 48.0634 5.7915 48.7818V51.0989C5.7915 51.8173 6.37793 52.4012 7.09934 52.4012C7.82074 52.4012 8.40717 51.8173 8.40717 51.0989V48.7818C8.40717 48.0634 7.82074 47.4795 7.09934 47.4795Z" fill="#187385"/>
<path opacity="0.2" d="M44.1014 69.8679H41.0762V157.921H44.1014V69.8679Z" fill="#187385"/>
<path opacity="0.2" d="M13.3836 69.8679H10.3584V157.921H13.3836V69.8679Z" fill="#187385"/>
<path opacity="0.2" d="M135.632 69.5625H132.606V157.616H135.632V69.5625Z" fill="#187385"/>
<path opacity="0.2" d="M104.911 69.5625H101.886V157.616H104.911V69.5625Z" fill="#187385"/>
<path d="M62.0194 70.5624H61.5539C56.6717 70.5624 52.7109 74.5062 52.7109 79.3677V97.9052H70.8624V79.3677C70.8624 74.5016 66.9063 70.5624 62.0194 70.5624Z" fill="#187385"/>
<path d="M84.3582 70.5624H83.8928C79.0105 70.5624 75.0498 74.5062 75.0498 79.3677V97.9052H93.2012V79.3677C93.2012 74.5016 89.2451 70.5624 84.3582 70.5624Z" fill="#187385"/>
</g>
<defs>
<clipPath id="clip0">
<rect width="144.388" height="157.328" fill="white" transform="translate(0.806152 0.671997)"/>
</clipPath>
</defs>
</svg>
