<?xml version="1.0" encoding="utf-8"?>
<!-- Generator: Adobe Illustrator 24.3.0, SVG Export Plug-In . SVG Version: 6.00 Build 0)  -->
<svg version="1.1" id="Layer_1" xmlns="http://www.w3.org/2000/svg" xmlns:xlink="http://www.w3.org/1999/xlink" x="0px" y="0px"
	 viewBox="0 0 34 33" style="enable-background:new 0 0 34 33;" xml:space="preserve">
<style type="text/css">
	.st0{fill:#10849A;}
	.st1{opacity:0.3;fill:#A6E4EA;}
</style>
<g>
	<path class="st0" d="M9.23,32.16h23.09c0.03,0,0.06-0.02,0.07-0.04c1.23-2.84,1.88-7.27-2.07-12.18
		C25.45,13.89,29.14,6.72,31.6,3.2c0.48-0.69,0.25-1.67-0.53-2.06C30.87,1.04,30.64,1,30.41,1L5.8,1C5.78,1,5.77,1,5.76,1.01
		C5.38,1.25-0.55,5.2,6.82,9C6.88,9.03,6.87,9.13,6.8,9.14c-1.39,0.22-3.89,3.82-4.36,4.62c-1.38,2.31-1.98,5.01-1.71,7.69
		c0.44,4,3.16,8.16,6.69,10.11c0.1,0.05,1.13,0.39,1.79,0.6C9.21,32.16,9.22,32.16,9.23,32.16z M5.03,19.16
		c-0.43-1.09-0.54-2.28-0.32-3.43c0.15-0.64,0.49-1.22,1-1.65c1.11-1.05,2.66-1.52,4.17-1.26c1.62,0.33,2.82,1.69,2.96,3.33
		c0,0,0,0,0,0c0.01,0.51,0.18,1,0.47,1.41c0.42,0.49,0.36,1.22-0.13,1.63c-0.01,0.01-0.02,0.01-0.03,0.02
		c-0.25,0.27-0.53,0.5-0.8,0.74c-0.12,0.09-0.23,0.21-0.31,0.34c-0.1,0.17-0.14,0.37-0.1,0.56c0,0.02,0.01,0.03,0.02,0.04
		c0.14,0.13,0.33,0.19,0.51,0.16c0.32-0.04,0.63-0.1,0.93-0.18c0.04-0.01,0.06-0.06,0.05-0.1c-0.07-0.23-0.13-0.46-0.16-0.7
		c-0.02-0.24,0.16-0.46,0.4-0.48c0.08-0.01,0.17,0.01,0.25,0.05c0.63,0.26,1.09,0.81,1.24,1.47c0.07,0.25-0.07,0.51-0.31,0.58
		c-0.01,0-0.03,0.01-0.04,0.01c-0.41,0.17-0.82,0.32-1.24,0.47c0,0,0,0-0.01,0c-0.1,0.05-0.19,0.09-0.29,0.13
		c-0.05,0.02-0.06,0.08-0.03,0.12c0.23,0.28,0.59,0.43,0.95,0.38c1-0.03,1.95-0.48,2.61-1.24c0.9-0.97,1.29-1.05,2.48-0.46
		c0.45,0.22,0.9,0.47,1.35,0.71c0.35,0.23,0.81,0.19,1.12-0.09c0,0,0.01-0.01,0.01-0.01c0.23-0.13,0.48-0.22,0.73-0.28
		c0.03-0.01,0.07,0.01,0.09,0.04c0.27,0.61,0.13,1.32-0.35,1.79c-0.3,0.32-0.76,0.43-1.16,0.28c-0.5-0.13-1.01-0.28-1.53-0.41
		c-0.12-0.03-0.24-0.04-0.36-0.03c-0.59,0.04-0.83,0.36-0.6,0.92c0.36,0.74,0.37,1.6,0.04,2.36c-0.28,0.62-0.77,1.12-1.38,1.42
		c-2.09,1.16-4.63,1.14-6.7-0.06c-1.24-0.67-1.78-1.83-2.01-3.15c-0.11-0.66-0.2-1.33-0.31-1.99c-0.03-0.5-0.37-0.93-0.85-1.08
		C6.26,21.2,5.38,20.3,5.03,19.16z"/>
	<path class="st1" d="M9.23,32.16h19.61c0.03,0,0.05-0.01,0.06-0.03c0.04-0.06,0.08-0.13,0.13-0.2c0.23-0.36,0.43-0.73,0.62-1.11
		c0.06-0.12,0.21-0.45,0.21-0.45c0,0.01,0.12-0.33,0.17-0.45c0.14-0.4,0.24-0.81,0.32-1.23c0-0.02,0.01-0.03,0.01-0.04
		c0.01-0.08,0.02-0.16,0.02-0.25c0.01-0.19,0.02-0.37,0.03-0.56c0.01-0.33-0.01-0.67-0.04-1c0-0.03,0-0.05-0.01-0.06
		c0-0.02-0.01-0.04-0.02-0.08c-0.03-0.14-0.05-0.29-0.09-0.43c-0.07-0.32-0.17-0.64-0.27-0.96c-0.05-0.13-0.1-0.26-0.15-0.4
		c-0.01-0.03-0.02-0.05-0.02-0.06c-0.01-0.01-0.01-0.03-0.02-0.05c-0.5-1.08-1.12-2.09-1.75-3.1c-1.38-2.21-2.62-4.5-2.72-7.17
		c-0.11-2.86,1.03-5.48,2.33-7.96c0.3-0.58,0.61-1.15,0.9-1.73c0.14-0.29,0.29-0.58,0.42-0.88c0.06-0.12,0.11-0.24,0.16-0.37
		c0.03-0.06,0.05-0.13,0.08-0.19c0.23-0.61,0.43-1.22,0.57-1.86c0.04-0.17,0.07-0.35,0.1-0.52c0-0.02,0-0.03,0.01-0.04H5.8
		C5.78,1,5.77,1,5.76,1.01C5.38,1.25-0.55,5.2,6.82,9C6.88,9.03,6.87,9.13,6.8,9.14c-1.39,0.22-3.89,3.82-4.36,4.62
		c-1.38,2.31-1.98,5.01-1.71,7.69c0.44,4,3.16,8.16,6.69,10.11c0.1,0.05,1.13,0.39,1.79,0.6C9.21,32.16,9.22,32.16,9.23,32.16z
		 M5.03,19.16c-0.43-1.09-0.54-2.28-0.32-3.43c0.15-0.64,0.49-1.22,1-1.65c1.11-1.05,2.66-1.52,4.17-1.26
		c1.62,0.33,2.82,1.69,2.96,3.33c0,0,0,0,0,0c0.01,0.51,0.18,1,0.47,1.41c0.42,0.49,0.36,1.21-0.13,1.63
		c-0.01,0.01-0.02,0.01-0.03,0.02c-0.25,0.27-0.53,0.5-0.8,0.74c-0.12,0.09-0.23,0.21-0.31,0.34c-0.1,0.17-0.14,0.37-0.1,0.56
		c0,0.02,0.01,0.03,0.02,0.04c0.14,0.13,0.33,0.19,0.51,0.16c0.32-0.04,0.63-0.1,0.93-0.18c0.04-0.01,0.06-0.06,0.05-0.1
		c-0.07-0.23-0.13-0.46-0.16-0.7c-0.02-0.24,0.16-0.46,0.4-0.48c0.08-0.01,0.17,0.01,0.25,0.05c0.63,0.26,1.09,0.81,1.24,1.47
		c0.07,0.25-0.07,0.51-0.31,0.58c-0.01,0-0.03,0.01-0.04,0.01c-0.41,0.17-0.82,0.32-1.24,0.47c0,0,0,0-0.01,0
		c-0.1,0.05-0.19,0.09-0.29,0.13c-0.05,0.02-0.06,0.08-0.03,0.12c0.23,0.28,0.59,0.43,0.95,0.38c1-0.03,1.95-0.48,2.61-1.24
		c0.9-0.97,1.29-1.05,2.48-0.46c0.45,0.22,0.9,0.47,1.35,0.71c0.35,0.23,0.81,0.19,1.12-0.09c0,0,0.01-0.01,0.01-0.01
		c0.23-0.13,0.48-0.22,0.73-0.28c0.03-0.01,0.07,0.01,0.09,0.04c0.27,0.61,0.13,1.32-0.35,1.79c-0.3,0.32-0.76,0.43-1.16,0.28
		c-0.5-0.13-1.01-0.28-1.53-0.41c-0.12-0.03-0.24-0.04-0.36-0.03c-0.59,0.04-0.83,0.36-0.6,0.92c0.36,0.74,0.37,1.6,0.04,2.36
		c-0.28,0.62-0.77,1.12-1.38,1.42c-2.09,1.16-4.63,1.14-6.7-0.06c-1.24-0.67-1.78-1.83-2.01-3.15c-0.11-0.66-0.2-1.33-0.31-1.99
		c-0.03-0.5-0.37-0.93-0.85-1.08C6.26,21.2,5.38,20.3,5.03,19.16z"/>
</g>
</svg>
