<svg width="375" height="240" viewBox="0 0 375 240" fill="none" xmlns="http://www.w3.org/2000/svg">
<rect width="375" height="240" fill="#0F7386"/>
<g filter="url(#filter0_f)">
<path d="M118.832 0H-69V145.758H118.832V0Z" fill="#0F7386"/>
<path d="M133 144.438C121.55 103.494 111.148 35.054 25.1165 35.054C-20.1276 35.054 -58.1508 65.963 -68.9949 107.813H-69V145.76L133 184.166V144.438Z" fill="url(#paint0_radial)"/>
<path d="M93.2287 49.3938H-43.4756L-35.9239 40.8345H84.6694L93.2287 49.3938Z" fill="#1ABAC6"/>
<path d="M-35.048 101.89H84.212L93.2344 49.4044H-43.4851L-35.048 101.89Z" fill="#159BAD"/>
<path d="M88.7461 109.201H-39.8467L-35.048 101.889H84.212L88.7461 109.201Z" fill="#1AB6BA"/>
<path d="M86.1864 121.567H-37.0224L-39.8467 109.201H88.7461L86.1864 121.567Z" fill="#159BAD"/>
<path d="M-26.9772 145.76L-31.2314 121.568H80.3089L76.355 145.76" fill="#15949E"/>
<path d="M83.2452 112.952H-34.0963L-34.4016 109.201H83.4488L83.2452 112.952Z" fill="#A2DBDD"/>
<path d="M-29.2671 101.88H77.3932L83.4488 109.203H-34.4016L-29.2671 101.88Z" fill="#A9E5EA"/>
<path d="M6.13535 101.88H3.94719L2.92944 105.794H5.1176L6.13535 101.88Z" fill="#0C555B"/>
<path d="M9.64655 101.88H7.45838L6.69507 105.794H8.88323L9.64655 101.88Z" fill="#0C555B"/>
<path d="M16.4095 101.88H14.2214L14.0178 105.794H16.206L16.4095 101.88Z" fill="#0C555B"/>
<path d="M19.9208 101.88H17.7327V105.799H19.9208V101.88Z" fill="#0C555B"/>
<path d="M23.4318 101.88H21.2437V105.799H23.4318V101.88Z" fill="#0C555B"/>
<path d="M30.2966 101.88H28.1084L28.7699 105.794H30.9581L30.2966 101.88Z" fill="#0C555B"/>
<path d="M33.9045 101.88H31.7214L32.383 105.794H34.5661L33.9045 101.88Z" fill="#0C555B"/>
<path d="M40.7743 101.88H38.5862L39.7566 105.794H41.9448L40.7743 101.88Z" fill="#0C555B"/>
<path d="M44.2297 101.88H42.0466L43.4155 105.794H45.6037L44.2297 101.88Z" fill="#0C555B"/>
<path d="M47.5883 101.88H45.4001L47.0285 105.794H49.2167L47.5883 101.88Z" fill="#0C555B"/>
<path d="M54.5039 101.88H52.3208L54.3003 105.794H56.4885L54.5039 101.88Z" fill="#0C555B"/>
<path d="M58.1169 101.88H55.9287L58.066 105.794H60.2542L58.1169 101.88Z" fill="#0C555B"/>
<path d="M65.0324 101.88H62.8494L65.3378 105.794H67.5259L65.0324 101.88Z" fill="#0C555B"/>
<path d="M68.391 101.88H66.2029L68.9508 105.794H71.139L68.391 101.88Z" fill="#0C555B"/>
<path d="M71.8005 101.88H69.6123L72.6656 105.794H74.8537L71.8005 101.88Z" fill="#0C555B"/>
<path d="M30.9633 65.2141H18.791L19.4627 65.0004H30.2L30.9633 65.2141Z" fill="#1ABAC6"/>
<path d="M30.9633 65.2088H26.8058L26.877 60.2473H22.8722L22.9383 65.2088H18.7859L19.539 68.1654H22.979L23.1215 78.3836H26.6124L26.76 68.1654H30.1593L30.9633 65.2088Z" fill="#18A7B2"/>
<path d="M26.8871 60.2379H22.8669L23.0908 60.0547H26.6326L26.8871 60.2379Z" fill="#1ABAC6"/>
<path d="M84.8533 50.9252L95.616 52.7521C96.0384 52.8233 96.3284 53.2254 96.2572 53.6477L94.9901 61.6727C94.9901 61.6727 94.298 65.6063 91.5196 65.1432C88.7411 64.6801 88.2831 63.2909 88.7411 61.9068C89.2042 60.5175 91.0565 59.5914 93.3668 60.9806L94.1657 56.1819C94.237 55.7596 93.9622 55.3575 93.5449 55.271L86.0542 53.6935C85.754 53.6325 85.464 53.836 85.4182 54.1362L84.5734 60.0545C84.5734 60.0545 83.6473 63.754 80.4108 62.8329C77.1744 61.9068 78.0598 59.169 78.7926 58.4362C79.7187 57.5101 82.029 57.047 83.1893 58.6652L84.0289 51.541C84.0747 51.139 84.4513 50.854 84.8533 50.9252Z" fill="#F8A957"/>
<path d="M60.2392 16.6378L69.2819 18.1746C69.6381 18.2357 69.8773 18.5715 69.8213 18.9277L68.7577 25.6703C68.7577 25.6703 68.1725 28.978 65.8419 28.5862C63.5113 28.1943 63.1194 27.029 63.5112 25.8637C63.898 24.6984 65.4552 23.9198 67.3991 25.0851L68.0708 21.0548C68.1318 20.6986 67.8977 20.3628 67.5466 20.2864L61.2518 18.9633C60.9974 18.9125 60.7531 19.0804 60.7175 19.3348L60.0051 24.3065C60.0051 24.3065 59.2265 27.4158 56.504 26.6372C53.7816 25.8586 54.5296 23.5585 55.1453 22.9427C55.9239 22.1642 57.8678 21.7774 58.8398 23.1361L59.542 17.1517C59.5878 16.821 59.9033 16.5818 60.2392 16.6378Z" fill="#FFD397"/>
<path d="M78.8383 33.5876L85.7641 36.9157C86.0389 37.048 86.1508 37.3737 86.0236 37.6485L83.6065 42.8339C83.6065 42.8339 82.3699 45.3579 80.5837 44.5081C78.7976 43.6532 78.7518 42.6253 79.337 41.7754C79.9222 40.9256 81.3521 40.661 82.6498 42.0502L84.1255 38.9613C84.2527 38.6916 84.1459 38.366 83.8812 38.2235L79.1233 35.6995C78.935 35.5977 78.6958 35.6791 78.6093 35.8776L76.8842 39.7145C76.8842 39.7145 75.5357 42.04 73.5256 40.7831C71.5156 39.5262 72.6504 37.8469 73.2865 37.4958C74.0905 37.048 75.7494 37.1854 76.2176 38.5085L78.1717 33.8522C78.2734 33.5825 78.5838 33.4655 78.8383 33.5876Z" fill="#F8A957"/>
<path d="M4.49686 20.4688C4.26787 20.0261 3.62669 20.0566 3.45367 20.5248L1.50976 25.8272C1.50976 25.8272 0.878762 27.4048 -0.164432 26.7534C-1.20254 26.102 -3.43141 26.5142 -3.32964 28.9161C-3.22786 31.318 0.7719 31.1501 1.64208 29.0281C2.51225 26.9061 3.94728 22.8401 3.94728 22.8401C3.94728 22.8401 5.2042 25.1097 7.14302 24.3464C7.46361 24.2192 7.51959 23.7917 7.2397 23.5984C6.53746 23.1149 5.34159 22.1226 4.49686 20.4688Z" fill="#FFD397"/>
<path d="M84.2835 71.3008C84.0697 70.8429 83.4184 70.853 83.2301 71.3212L81.0928 76.6237C81.0928 76.6237 80.4008 78.2012 79.3677 77.504C78.3347 76.8069 76.0702 77.158 76.0957 79.5904C76.1211 82.0228 80.1718 81.9821 81.1234 79.8652C82.075 77.7483 83.6576 73.6773 83.6576 73.6773C83.6576 73.6773 84.8534 76.013 86.8431 75.3057C87.1688 75.1887 87.2451 74.7561 86.9652 74.5526C86.2579 74.0488 85.0824 73.0056 84.2835 71.3008Z" fill="#FFD397"/>
<path d="M102.511 29.3445C102.404 28.8305 101.743 28.6829 101.438 29.1104L97.9874 33.9447C97.9874 33.9447 96.9035 35.3696 96.0333 34.418C95.1631 33.4664 92.7867 33.2628 92.2167 35.7258C91.6468 38.1887 95.7534 39.1352 97.2291 37.227C98.7049 35.3187 101.295 31.5937 101.295 31.5937C101.295 31.5937 101.936 34.2449 104.119 34.016C104.476 33.9803 104.659 33.558 104.425 33.2832C103.839 32.6013 102.908 31.2629 102.511 29.3445Z" fill="#F8A957"/>
<path d="M45.2578 21.1201C44.9271 20.7893 44.3622 21.0031 44.3419 21.4712L44.1536 26.7737C44.1536 26.7737 44.0467 28.3665 42.9323 28.0917C41.8128 27.8118 39.9452 28.8346 40.7339 30.9465C41.5227 33.0583 45.0492 31.7403 45.207 29.5929C45.3647 27.4454 45.4563 23.3948 45.4563 23.3948C45.4563 23.3948 47.2425 25.0537 48.7538 23.807C49.0032 23.6034 48.9319 23.2014 48.6215 23.1098C47.8531 22.891 46.4995 22.3516 45.2578 21.1201Z" fill="#F8A957"/>
<path d="M85.0568 20.6872C84.7566 20.56 84.4462 20.8449 84.5581 21.1553L85.8252 24.6462C85.8252 24.6462 86.1763 25.7098 85.3774 25.8217C84.5785 25.9337 83.632 27.0837 84.7006 28.2491C85.7642 29.4144 87.7081 27.6384 87.2501 26.2034C86.7921 24.7684 85.7947 22.1171 85.7947 22.1171C85.7947 22.1171 87.3875 22.7278 88.0388 21.5217C88.1457 21.3233 87.993 21.0841 87.7691 21.1045C87.2043 21.1604 86.1865 21.1655 85.0568 20.6872Z" fill="#FFD397"/>
</g>
<defs>
<filter id="filter0_f" x="-76" y="-7" width="216" height="198.166" filterUnits="userSpaceOnUse" color-interpolation-filters="sRGB">
<feFlood flood-opacity="0" result="BackgroundImageFix"/>
<feBlend mode="normal" in="SourceGraphic" in2="BackgroundImageFix" result="shape"/>
<feGaussianBlur stdDeviation="3.5" result="effect1_foregroundBlur"/>
</filter>
<radialGradient id="paint0_radial" cx="0" cy="0" r="1" gradientUnits="userSpaceOnUse" gradientTransform="translate(24.8748 90.4078) scale(77.0596)">
<stop offset="2.39617e-07" stop-color="#6EC2C4"/>
<stop offset="1" stop-color="#6EC2C4"/>
</radialGradient>
</defs>
</svg>
