<svg width="375" height="290" viewBox="0 0 375 290" fill="none" xmlns="http://www.w3.org/2000/svg">
<g filter="url(#filter0_f)">
<path d="M402 -17H-35V275H402V-17Z" fill="#0F7386"/>
<path d="M133 212L75.2554 -24H9.74457L-48 212" fill="url(#paint0_radial)"/>
<path d="M50.5 96C51.8807 96 53 94.6569 53 93C53 91.3431 51.8807 90 50.5 90C49.1193 90 48 91.3431 48 93C48 94.6569 49.1193 96 50.5 96Z" fill="#F8A957"/>
<path d="M55.5 119C57.433 119 59 117.657 59 116C59 114.343 57.433 113 55.5 113C53.567 113 52 114.343 52 116C52 117.657 53.567 119 55.5 119Z" fill="#F8A957"/>
<path d="M68.4457 201C68.4457 201 61.331 172.682 56.6077 165.32C51.8844 157.958 47.238 152.487 44.2726 147.961C43.7162 147.117 43.1125 146.029 43.0651 145.006C43.0118 143.799 43.0651 142.574 43.0651 141.366C43.0651 139.291 43 137.228 43 135.152C43 132.91 43 130.668 43 128.426C43 125.114 43 121.808 43 118.495C43 114.713 43 110.931 43 107.143C43 103.486 43 99.8228 43 96.1655C43 93.2219 43 90.2843 43 87.3406C43 85.7172 43 84.0878 43 82.4643C43 77.2312 47.3978 78.0459 47.3978 78.0459C47.3978 78.0459 51.2274 103.98 53.666 110.36C56.0336 116.545 57.6376 123.033 58.6912 129.562C59.2061 132.768 60.1058 135.961 61.923 138.679C63.7874 141.473 65.6637 149.121 67.8538 151.642C74.1338 158.868 94.3471 194.126 101 201" fill="#A4DDDD"/>
<path d="M68.5425 201C68.5425 201 63.426 180.87 59 170.353L74.8275 162C83.4493 175.096 96.0252 195.918 101 201" fill="#0C555B"/>
<path d="M68.5425 201C68.5425 201 63.426 180.87 59 170.353L74.8275 162C83.4493 175.096 96.0252 195.918 101 201" stroke="#0C555B" stroke-width="2" stroke-miterlimit="10"/>
<path d="M45 154C46.6569 154 48 152.657 48 151C48 149.343 46.6569 148 45 148C43.3431 148 42 149.343 42 151C42 152.657 43.3431 154 45 154Z" fill="#F8A957"/>
<path d="M42 165C43.6569 165 45 163.881 45 162.5C45 161.119 43.6569 160 42 160C40.3431 160 39 161.119 39 162.5C39 163.881 40.3431 165 42 165Z" fill="#F8A957"/>
<path d="M46.5 137C48.433 137 50 135.657 50 134C50 132.343 48.433 131 46.5 131C44.567 131 43 132.343 43 134C43 135.657 44.567 137 46.5 137Z" fill="#F8A957"/>
<path d="M51 133C52.6569 133 54 131.881 54 130.5C54 129.119 52.6569 128 51 128C49.3431 128 48 129.119 48 130.5C48 131.881 49.3431 133 51 133Z" fill="#F3A34F"/>
<path d="M55.5 130C57.433 130 59 128.657 59 127C59 125.343 57.433 124 55.5 124C53.567 124 52 125.343 52 127C52 128.657 53.567 130 55.5 130Z" fill="#F8A957"/>
<path d="M58.5 124C60.433 124 62 122.657 62 121C62 119.343 60.433 118 58.5 118C56.567 118 55 119.343 55 121C55 122.657 56.567 124 58.5 124Z" fill="#FFD397"/>
<path d="M44 87C45.6569 87 47 85.433 47 83.5C47 81.567 45.6569 80 44 80C42.3431 80 41 81.567 41 83.5C41 85.433 42.3431 87 44 87Z" fill="#F8A957"/>
<path d="M48 91C49.6569 91 51 89.6569 51 88C51 86.3431 49.6569 85 48 85C46.3431 85 45 86.3431 45 88C45 89.6569 46.3431 91 48 91Z" fill="#FFD397"/>
<path d="M17.1096 201C17.1096 201 24.3529 172.682 29.1577 165.32C33.9625 157.958 38.689 152.487 41.7055 147.961C42.2715 147.117 42.8856 146.029 42.9338 145.006C42.988 143.799 42.9338 142.574 42.9338 141.366C42.9338 139.291 43 137.228 43 135.152C43 132.91 43 130.668 43 128.426C43 125.114 43 121.808 43 118.495C43 114.713 43 110.931 43 107.143C43 103.486 43 99.8228 43 96.1655C43 93.2219 43 90.2843 43 87.3406C43 85.7172 43 84.0878 43 82.4643C43 77.2312 38.5264 78.0459 38.5264 78.0459C38.5264 78.0459 34.6308 103.98 32.1501 110.36C29.7417 116.545 28.11 123.033 27.0383 129.562C26.5144 132.768 25.5992 135.961 23.7508 138.679C21.8542 141.473 19.9455 149.121 17.7177 151.642C11.3294 158.868 -9.23237 194.126 -16 201" fill="#A9E5EA"/>
<path d="M16.4575 201C16.4575 201 21.574 180.87 26 170.353L10.1725 162C1.55066 175.096 -11.0252 195.918 -16 201" fill="#0C555B"/>
<path d="M16.4575 201C16.4575 201 21.574 180.87 26 170.353L10.1725 162C1.55066 175.096 -11.0252 195.918 -16 201" stroke="#0C555B" stroke-width="2" stroke-miterlimit="10"/>
<path d="M32 111C33.1046 111 34 109.657 34 108C34 106.343 33.1046 105 32 105C30.8954 105 30 106.343 30 108C30 109.657 30.8954 111 32 111Z" fill="#F8A957"/>
<path d="M36 116C37.6569 116 39 114.657 39 113C39 111.343 37.6569 110 36 110C34.3431 110 33 111.343 33 113C33 114.657 34.3431 116 36 116Z" fill="#FFD397"/>
<path d="M38 121C40.2091 121 42 119.657 42 118C42 116.343 40.2091 115 38 115C35.7909 115 34 116.343 34 118C34 119.657 35.7909 121 38 121Z" fill="#F8A957"/>
<path d="M37 127C38.6569 127 40 125.657 40 124C40 122.343 38.6569 121 37 121C35.3431 121 34 122.343 34 124C34 125.657 35.3431 127 37 127Z" fill="#F3A34F"/>
<path d="M39.5 132C41.433 132 43 130.881 43 129.5C43 128.119 41.433 127 39.5 127C37.567 127 36 128.119 36 129.5C36 130.881 37.567 132 39.5 132Z" fill="#F8A957"/>
<path d="M40.5 138C41.8807 138 43 136.657 43 135C43 133.343 41.8807 132 40.5 132C39.1193 132 38 133.343 38 135C38 136.657 39.1193 138 40.5 138Z" fill="#FFD397"/>
<path d="M38.5 144C40.433 144 42 142.657 42 141C42 139.343 40.433 138 38.5 138C36.567 138 35 139.343 35 141C35 142.657 36.567 144 38.5 144Z" fill="#F8A957"/>
<path d="M41 150C42.6569 150 44 148.433 44 146.5C44 144.567 42.6569 143 41 143C39.3431 143 38 144.567 38 146.5C38 148.433 39.3431 150 41 150Z" fill="#F3A34F"/>
<path d="M42 160C43.6569 160 45 158.433 45 156.5C45 154.567 43.6569 153 42 153C40.3431 153 39 154.567 39 156.5C39 158.433 40.3431 160 42 160Z" fill="#F5C987"/>
<path d="M46 169.023H42.366V165H39.6404V169.023H36V171.712H39.6404V182H42.366V171.712H46V169.023Z" fill="#F5C987"/>
</g>
<defs>
<filter id="filter0_f" x="-63" y="-39" width="480" height="329" filterUnits="userSpaceOnUse" color-interpolation-filters="sRGB">
<feFlood flood-opacity="0" result="BackgroundImageFix"/>
<feBlend mode="normal" in="SourceGraphic" in2="BackgroundImageFix" result="shape"/>
<feGaussianBlur stdDeviation="7.5" result="effect1_foregroundBlur"/>
</filter>
<radialGradient id="paint0_radial" cx="0" cy="0" r="1" gradientUnits="userSpaceOnUse" gradientTransform="translate(42.5013 94.0004) scale(88.4148 120.921)">
<stop offset="2.39617e-07" stop-color="#6EC2C4"/>
<stop offset="1" stop-color="#6EC2C4"/>
</radialGradient>
</defs>
</svg>
