<?xml version="1.0" encoding="utf-8"?>
<!-- Generator: Adobe Illustrator 24.3.0, SVG Export Plug-In . SVG Version: 6.00 Build 0)  -->
<svg version="1.1" id="Layer_1" xmlns="http://www.w3.org/2000/svg" xmlns:xlink="http://www.w3.org/1999/xlink" x="0px" y="0px"
	 viewBox="0 0 30 40" style="enable-background:new 0 0 30 40;" xml:space="preserve">
<style type="text/css">
	.st0{fill:#10849A;}
	.st1{opacity:0.3;fill:#A6E4EA;}
</style>
<g>
	<path class="st0" d="M27.87,8.04c-0.74,1.35-2.15,2.54-2.15,2.54c0.71-2.18,1.48-4.56,1.61-6.04c0.13-1.48-1.35-2.89-1.7-0.29
		c-0.35,2.6-1.48,4.95-1.48,4.95c0.64-3.47,0.51-5.59,0.51-5.59c0.13-2.7-2.5-3.98-2.12-0.45c0.38,3.53-0.71,6.17-0.71,6.17
		s0.13-1.48-0.39-4.56c-0.51-3.08-2.44-2.7-1.8,0.26c0.64,2.95,0,6.17,0,6.17c-0.51-1.28-0.77-3.63-2.31-4.01
		c-1.54-0.39-0.19,2.99,0,5.2c0.19,2.22,1.32,3.82,1.32,3.82s0.15,0.27,0.47,0.6c-1.07,2.39-4.07,9.13-5.75,13.65
		c0,0-0.72,1.24-2.1-0.11c-1-0.98-3.04-5.4-4.08-7.75c-2.32,1.76-4.45,3.74-6.4,5.9c4.05,9.67,13.29,14.23,16.55,8.31
		c3.25-5.93,5.18-15.67,5.77-19.04c0.17-0.05,0.34-0.11,0.52-0.18c3.47-1.35,2.92-4.59,3.5-5.52c0.58-0.93,1.16-1.96,1.86-3.53
		C29.71,6.94,28.61,6.69,27.87,8.04z"/>
	<path class="st1" d="M27.87,8.04c-0.39,0.72-0.98,1.39-1.44,1.86c-0.05,0.13-0.72,0.68-0.72,0.68c0.01-0.04,0.02-0.07,0.03-0.11
		c-0.05-0.01-0.09-0.02-0.14-0.05c-0.2-0.12-0.31-0.42-0.16-0.62c0.15-0.2,0.2-0.46,0.26-0.72c0.07-0.28,0.14-0.56,0.21-0.83
		c0.2-0.72,0.43-1.44,0.6-2.17c0.16-0.7,0.28-1.42,0.21-2.14c-0.03-0.32-0.11-0.61-0.27-0.89c-0.05-0.08-0.09-0.16-0.14-0.24
		c-0.3,0.07-0.58,0.48-0.71,1.44c-0.25,1.86-0.9,3.6-1.25,4.43C24.37,8.8,24.32,8.91,24.24,9c-0.06,0.13-0.09,0.2-0.09,0.2
		c0.01-0.05,0.02-0.09,0.03-0.14c-0.07,0.05-0.16,0.08-0.25,0.08c-0.23,0-0.47-0.21-0.46-0.46c0.04-0.56,0.15-1.11,0.24-1.66
		c0.11-0.69,0.19-1.21,0.26-1.87c0.07-0.67,0.1-1.34,0.06-2.01c-0.02-0.31-0.04-0.46-0.12-0.8c-0.04-0.14-0.08-0.28-0.13-0.41
		c0,0,0,0,0,0c0,0,0,0,0-0.01c-0.01-0.03-0.02-0.05-0.04-0.08c-0.03-0.05-0.05-0.1-0.08-0.15c-0.03-0.05-0.06-0.09-0.09-0.14
		c-0.01-0.01-0.07-0.09-0.09-0.1c-0.03-0.03-0.07-0.06-0.1-0.09c-0.01-0.01-0.08-0.06-0.1-0.07c-0.05-0.03-0.09-0.05-0.14-0.08
		C23.1,1.19,23.02,1.16,23,1.15c-0.03-0.01-0.05-0.01-0.08-0.02c-0.31,0.25-0.5,0.89-0.37,2.02c0.29,2.66-0.26,4.81-0.55,5.71
		c0,0.01,0,0.02,0,0.03c0,0.13-0.04,0.23-0.11,0.3c-0.03,0.08-0.05,0.13-0.05,0.13s0-0.03,0.01-0.09c-0.26,0.21-0.76,0.09-0.76-0.34
		c0-2.1-0.15-4.29-1.23-6.13c-0.31,0.3-0.46,1.07-0.2,2.25c0.47,2.17,0.25,4.48,0.1,5.55c0.01,0.03,0.01,0.05,0.02,0.08
		c0.04,0.17-0.01,0.3-0.1,0.4c-0.02,0.09-0.02,0.13-0.02,0.13c-0.01-0.03-0.02-0.05-0.03-0.08c-0.23,0.18-0.64,0.16-0.73-0.21
		c-0.19-0.76-0.47-1.42-0.86-2.09c-0.21-0.37-0.42-0.69-0.68-0.97c-0.06-0.07-0.13-0.14-0.2-0.2c-0.03-0.03-0.07-0.06-0.1-0.09
		C17.05,7.53,17.01,7.5,17,7.49c-0.06-0.04-0.13-0.09-0.19-0.12c-0.02-0.01-0.04-0.02-0.06-0.03c-0.46,0.72,0.44,3.25,0.6,5.04
		c0.19,2.22,1.32,3.82,1.32,3.82s0.15,0.27,0.47,0.6c-1.07,2.39-4.07,9.13-5.75,13.65c0,0-0.04,0.07-0.13,0.16
		c-0.13,0.26-0.39,0.46-0.77,0.46c-1.82,0.05-3.03-1.52-3.89-2.93c-0.94-1.54-1.54-3.24-2.23-4.9c-2,1.59-3.85,3.35-5.57,5.24
		c2.34,5.59,6.42,9.47,10.07,10.6c2.22,0.01,4.81-0.85,5.4-3.09c0.06-0.23,0.18-0.39,0.33-0.49c0.72-1.79,1.52-4,2.28-6.25
		c0.78-3.42,1.38-6.89,2.67-10.14c0.07-0.57,0.28-1.12,0.5-1.66c0.13-0.31,0.35-0.55,0.65-0.64c0.07-0.04,0.15-0.08,0.22-0.12
		c0.04-0.03,0.09-0.06,0.13-0.08c0.08-0.06,0.15-0.12,0.24-0.18c0.96-0.68,1.62-1.42,2.09-2.52c0.32-0.74,0.56-1.47,0.91-2.16
		c0.04-0.13,0.1-0.24,0.18-0.33c0.1-0.18,0.22-0.35,0.34-0.53c0.03-0.05,0.07-0.09,0.11-0.14c0.56-0.97,1.1-1.94,1.54-2.97
		c0.02-0.07,0.04-0.13,0.07-0.18c0.05-0.12,0.1-0.23,0.14-0.35c0.01-0.02,0.02-0.04,0.03-0.06C28.45,7.27,28.14,7.55,27.87,8.04z"/>
</g>
</svg>
