<?xml version="1.0" encoding="utf-8"?>
<!-- Generator: Adobe Illustrator 24.3.0, SVG Export Plug-In . SVG Version: 6.00 Build 0)  -->
<svg version="1.1" id="Layer_1" xmlns="http://www.w3.org/2000/svg" xmlns:xlink="http://www.w3.org/1999/xlink" x="0px" y="0px"
	 viewBox="0 0 32 37" style="enable-background:new 0 0 32 37;" xml:space="preserve">
<style type="text/css">
	.st0{fill:#10849A;}
	.st1{opacity:0.3;fill:#A6E4EA;}
</style>
<g>
	<path class="st0" d="M3.42,14.08c0,0-2.9,6.55-3.02,7.54C0.3,22.48,2.94,23.47,4,23.71v4.78c0,1.58,1.28,2.87,2.87,2.87h4.73v4.76
		c0,0.41,0.33,0.75,0.75,0.75h13.39c0.41,0,0.75-0.33,0.75-0.75v-9.94c5.74-6.21,5.1-12.12,5.1-12.12c0-7.35-5.96-13.31-13.31-13.31
		C18.27,0.75,5.97-0.53,3.42,14.08z"/>
	<path class="st1" d="M30.23,8.72c-0.07-0.27-0.15-0.55-0.24-0.85c-0.02-0.07-0.04-0.14-0.05-0.21c-2.26-4.12-6.64-6.91-11.68-6.91
		c0,0-12.29-1.28-14.84,13.33c0,0-2.9,6.55-3.02,7.54C0.3,22.48,2.94,23.47,4,23.71v4.78c0,1.58,1.28,2.87,2.87,2.87h4.73v4.76
		c0,0.41,0.33,0.75,0.75,0.75h11.3c0.14-3.19,0.03-6.38,0.02-9.57c-0.11-0.31-0.08-0.67,0.17-1.03c1.9-2.81,3.68-5.74,5-8.88
		c0.65-1.54,1.22-3.15,1.39-4.82c0.08-0.77,0.1-1.55,0.11-2.33C30.29,9.74,30.26,9.23,30.23,8.72z"/>
</g>
</svg>
