<svg width="61" height="58" viewBox="0 0 61 58" fill="none" xmlns="http://www.w3.org/2000/svg">
<path d="M56.9975 13.8802H0.00387573L3.15227 10.0356H53.429L56.9975 13.8802Z" fill="#1ABAC6"/>
<path d="M3.51755 37.4593H53.2385L57 13.8848H0L3.51755 37.4593Z" fill="#159BAD"/>
<path d="M55.1288 40.743H1.51691L3.51754 37.4585H53.2385L55.1288 40.743Z" fill="#1AB6BA"/>
<path d="M54.0616 46.2974H2.69437L1.51691 40.7432H55.1288L54.0616 46.2974Z" fill="#159BAD"/>
<path d="M6.88215 57.164L5.10852 46.2979H51.611L49.9626 57.164" fill="#15949E"/>
<path d="M52.8353 42.4277H3.91425L3.78696 40.7432H52.9202L52.8353 42.4277Z" fill="#A2DBDD"/>
<path d="M5.92761 37.4546H50.3955L52.9202 40.7437H3.78696L5.92761 37.4546Z" fill="#A9E5EA"/>
<path d="M7.7096 37.4546H6.79733L5.60925 39.2123H6.52152L7.7096 37.4546Z" fill="#0C555B"/>
<path d="M10.5929 37.4546H9.68066L8.64322 39.2123H9.55337L10.5929 37.4546Z" fill="#0C555B"/>
<path d="M12.0357 37.4546H11.1234L10.2535 39.2123H11.1658L12.0357 37.4546Z" fill="#0C555B"/>
<path d="M14.8975 37.4546H13.9852L13.2872 39.2123H14.1974L14.8975 37.4546Z" fill="#0C555B"/>
<path d="M16.3189 37.4546H15.4066L14.7702 39.2123H15.6824L16.3189 37.4546Z" fill="#0C555B"/>
<path d="M17.7828 37.4546H16.8705L16.2977 39.2123H17.21L17.7828 37.4546Z" fill="#0C555B"/>
<path d="M20.6875 37.4546H19.7752L19.3509 39.2123H20.2632L20.6875 37.4546Z" fill="#0C555B"/>
<path d="M22.1511 37.4546H21.2389L20.9206 39.2123H21.8329L22.1511 37.4546Z" fill="#0C555B"/>
<path d="M24.9708 37.4546H24.0586L23.9737 39.2123H24.886L24.9708 37.4546Z" fill="#0C555B"/>
<path d="M26.4345 37.4546H25.5222V39.2146H26.4345V37.4546Z" fill="#0C555B"/>
<path d="M27.8984 37.4546H26.9861V39.2146H27.8984V37.4546Z" fill="#0C555B"/>
<path d="M30.7605 37.4546H29.8482L30.124 39.2123H31.0363L30.7605 37.4546Z" fill="#0C555B"/>
<path d="M32.2647 37.4546H31.3545L31.6303 39.2123H32.5405L32.2647 37.4546Z" fill="#0C555B"/>
<path d="M35.1289 37.4546H34.2166L34.7046 39.2123H35.6168L35.1289 37.4546Z" fill="#0C555B"/>
<path d="M36.5694 37.4546H35.6592L36.2299 39.2123H37.1422L36.5694 37.4546Z" fill="#0C555B"/>
<path d="M37.9696 37.4546H37.0573L37.7362 39.2123H38.6485L37.9696 37.4546Z" fill="#0C555B"/>
<path d="M40.8528 37.4546H39.9427L40.7679 39.2123H41.6802L40.8528 37.4546Z" fill="#0C555B"/>
<path d="M42.3591 37.4546H41.4468L42.3379 39.2123H43.2502L42.3591 37.4546Z" fill="#0C555B"/>
<path d="M45.2423 37.4546H44.3321L45.3696 39.2123H46.2819L45.2423 37.4546Z" fill="#0C555B"/>
<path d="M46.6424 37.4546H45.7301L46.8758 39.2123H47.7881L46.6424 37.4546Z" fill="#0C555B"/>
<path d="M48.0639 37.4546H47.1516L48.4246 39.2123H49.3368L48.0639 37.4546Z" fill="#0C555B"/>
<path d="M53.1017 10.7699L59.3489 11.8502C59.594 11.8923 59.7624 12.13 59.721 12.3798L58.9856 17.1252C58.9856 17.1252 58.5839 19.4512 56.9711 19.1774C55.3584 18.9036 55.0925 18.0821 55.3584 17.2636C55.6272 16.4421 56.7023 15.8944 58.0433 16.7159L58.5071 13.8783C58.5484 13.6286 58.3889 13.3908 58.1467 13.3397L53.7988 12.4069C53.6245 12.3707 53.4562 12.4911 53.4296 12.6687L52.9392 16.1683C52.9392 16.1683 52.4017 18.3559 50.5231 17.8112C48.6445 17.2636 49.1585 15.6447 49.5838 15.2114C50.1214 14.6637 51.4624 14.3899 52.1358 15.3468L52.6232 11.134C52.6498 10.8963 52.8684 10.7278 53.1017 10.7699Z" fill="#F8A957"/>
<path d="M49.994 1.25027L54.2624 3.45485C54.4317 3.54249 54.5007 3.75823 54.4223 3.94026L52.9326 7.37522C52.9326 7.37522 52.1705 9.04719 51.0697 8.48425C49.9689 7.91794 49.9407 7.23701 50.3013 6.67407C50.662 6.11113 51.5433 5.93584 52.343 6.8561L53.2525 4.80996C53.3309 4.6313 53.2651 4.41556 53.102 4.32117L50.1696 2.6492C50.0536 2.58178 49.9062 2.63572 49.8529 2.76718L48.7897 5.30885C48.7897 5.30885 47.9586 6.84936 46.7198 6.01674C45.481 5.18413 46.1804 4.07173 46.5724 3.83913C47.0679 3.54249 48.0903 3.63351 48.3789 4.50995L49.5832 1.42556C49.6459 1.2469 49.8372 1.16937 49.994 1.25027Z" fill="#F8A957"/>
<path d="M52.2958 21.1432C52.0499 20.8898 51.6439 21.0472 51.64 21.4004L51.5934 25.4019C51.5934 25.4019 51.5443 26.6054 50.7263 26.3834C49.9082 26.1613 48.5736 26.9176 49.1831 28.5204C49.7927 30.1233 52.3233 29.159 52.4036 27.5387C52.4839 25.9184 52.4831 22.8598 52.4831 22.8598C52.4831 22.8598 53.8031 24.1278 54.8784 23.1996C55.0541 23.0468 54.9965 22.7431 54.7712 22.6732C54.2047 22.5037 53.2128 22.0858 52.2958 21.1432Z" fill="#FFD397"/>
<path d="M41.1772 2.27226C41.1134 1.98337 40.7185 1.90041 40.5363 2.14068L38.4768 4.85802C38.4768 4.85802 37.8298 5.65892 37.3104 5.12404C36.7909 4.58915 35.3724 4.47473 35.0322 5.85915C34.692 7.24356 37.1433 7.77559 38.0242 6.70295C38.9051 5.63032 40.4512 3.53654 40.4512 3.53654C40.4512 3.53654 40.834 5.02678 42.1371 4.89807C42.3497 4.87804 42.4591 4.64064 42.3193 4.48618C41.97 4.10289 41.4141 3.35062 41.1772 2.27226Z" fill="#F5C987"/>
<path d="M58.4567 0.0205422C58.2923 -0.0636198 58.1223 0.124904 58.1836 0.330259L58.8776 2.63966C58.8776 2.63966 59.0699 3.34326 58.6323 3.41732C58.1947 3.49138 57.6763 4.2522 58.2616 5.02313C58.8442 5.79405 59.9088 4.61915 59.658 3.6698C59.4071 2.72046 58.8609 0.966523 58.8609 0.966523C58.8609 0.966523 59.7332 1.3705 60.09 0.572644C60.1485 0.441352 60.0649 0.283127 59.9423 0.296593C59.6329 0.333624 59.0755 0.336991 58.4567 0.0205422Z" fill="#F5C987"/>
<path d="M31.4696 23.3177H26.0023L26.304 23.2217H31.1268L31.4696 23.3177Z" fill="#1ABAC6"/>
<path d="M31.4696 23.315H29.6022L29.6342 21.0864H27.8354L27.8651 23.315H26L26.3383 24.643H27.8834L27.9474 29.2326H29.5154L29.5817 24.643H31.1085L31.4696 23.315Z" fill="#18A7B2"/>
<path d="M29.6388 21.0823H27.8331L27.9337 21H29.5245L29.6388 21.0823Z" fill="#1ABAC6"/>
</svg>
