<svg width="375" height="291" viewBox="0 0 375 291" fill="none" xmlns="http://www.w3.org/2000/svg">
<g clip-path="url(#clip0)">
<path d="M375 0H0V291H375V0Z" fill="#0F7386"/>
<path d="M374.835 211.685C351.976 129.942 276.938 69.9802 187.9 69.9802C97.5718 69.9802 21.6601 131.689 0.0101595 215.241H0V291H374.835V211.685Z" fill="url(#paint0_radial)"/>
<path d="M323.885 98.6095H50.9597L66.0364 81.5212H306.796L323.885 98.6095Z" fill="#1ABAC6"/>
<path d="M67.7842 203.415H305.882L323.895 98.6299H50.9397L67.7842 203.415Z" fill="#159BAD"/>
<path d="M314.934 218.014H58.2036L67.784 203.415H305.882L314.934 218.014Z" fill="#1AB6BA"/>
<path d="M309.824 242.702H63.8421L58.2036 218.014H314.934L309.824 242.702Z" fill="#159BAD"/>
<path d="M83.8972 291L75.4038 242.702H298.09L290.196 291" fill="#15949E"/>
<path d="M303.952 225.502H69.684L69.0745 218.014H304.358L303.952 225.502Z" fill="#A2DBDD"/>
<path d="M79.3254 203.395H292.269L304.358 218.014H69.0745L79.3254 203.395Z" fill="#A9E5EA"/>
<path d="M87.8592 203.395H83.4906L77.8013 211.207H82.1699L87.8592 203.395Z" fill="#0C555B"/>
<path d="M101.666 203.395H97.2973L92.3293 211.207H96.6878L101.666 203.395Z" fill="#0C555B"/>
<path d="M108.575 203.395H104.206L100.041 211.207H104.409L108.575 203.395Z" fill="#0C555B"/>
<path d="M122.279 203.395H117.911L114.568 211.207H118.927L122.279 203.395Z" fill="#0C555B"/>
<path d="M129.087 203.395H124.718L121.67 211.207H126.039L129.087 203.395Z" fill="#0C555B"/>
<path d="M136.097 203.395H131.728L128.985 211.207H133.353L136.097 203.395Z" fill="#0C555B"/>
<path d="M150.005 203.395H145.636L143.604 211.207H147.973L150.005 203.395Z" fill="#0C555B"/>
<path d="M157.015 203.395H152.646L151.123 211.207H155.491L157.015 203.395Z" fill="#0C555B"/>
<path d="M170.517 203.395H166.148L165.742 211.207H170.111L170.517 203.395Z" fill="#0C555B"/>
<path d="M177.527 203.395H173.158V211.218H177.527V203.395Z" fill="#0C555B"/>
<path d="M184.537 203.395H180.168V211.218H184.537V203.395Z" fill="#0C555B"/>
<path d="M198.242 203.395H193.874L195.194 211.207H199.563L198.242 203.395Z" fill="#0C555B"/>
<path d="M205.445 203.395H201.087L202.408 211.207H206.766L205.445 203.395Z" fill="#0C555B"/>
<path d="M219.161 203.395H214.792L217.129 211.207H221.497L219.161 203.395Z" fill="#0C555B"/>
<path d="M226.059 203.395H221.701L224.434 211.207H228.802L226.059 203.395Z" fill="#0C555B"/>
<path d="M232.764 203.395H228.396L231.647 211.207H236.015L232.764 203.395Z" fill="#0C555B"/>
<path d="M246.571 203.395H242.213L246.165 211.207H250.533L246.571 203.395Z" fill="#0C555B"/>
<path d="M253.784 203.395H249.416L253.683 211.207H258.051L253.784 203.395Z" fill="#0C555B"/>
<path d="M267.591 203.395H263.232L268.2 211.207H272.569L267.591 203.395Z" fill="#0C555B"/>
<path d="M274.296 203.395H269.928L275.414 211.207H279.782L274.296 203.395Z" fill="#0C555B"/>
<path d="M281.103 203.395H276.735L282.83 211.207H287.199L281.103 203.395Z" fill="#0C555B"/>
<path d="M199.573 130.196H175.272L176.613 129.769H198.049L199.573 130.196Z" fill="#1ABAC6"/>
<path d="M199.573 130.185H191.273L191.415 120.28H183.419L183.551 130.185H175.261L176.765 136.088H183.633L183.917 156.488H190.887L191.181 136.088H197.968L199.573 130.185Z" fill="#18A7B2"/>
<path d="M191.435 120.26H183.409L183.856 119.894H190.927L191.435 120.26Z" fill="#1ABAC6"/>
<path d="M307.162 101.668L328.65 105.315C329.493 105.457 330.072 106.26 329.93 107.103L327.4 123.124C327.4 123.124 326.018 130.978 320.471 130.053C314.924 129.129 314.01 126.355 314.924 123.592C315.849 120.818 319.547 118.969 324.159 121.743L325.754 112.162C325.896 111.319 325.348 110.517 324.515 110.344L309.56 107.194C308.96 107.072 308.381 107.479 308.29 108.078L306.603 119.894C306.603 119.894 304.754 127.28 298.293 125.441C291.831 123.592 293.599 118.126 295.062 116.663C296.911 114.814 301.524 113.889 303.84 117.12L305.516 102.897C305.608 102.094 306.36 101.525 307.162 101.668Z" fill="#F8A957"/>
<path d="M258.021 33.2129L276.074 36.2811C276.785 36.403 277.263 37.0735 277.151 37.7847L275.028 51.246C275.028 51.246 273.859 57.8497 269.206 57.0674C264.553 56.2851 263.771 53.9586 264.553 51.6321C265.325 49.3056 268.434 47.7512 272.315 50.0777L273.656 42.0314C273.778 41.3202 273.311 40.6497 272.61 40.4973L260.043 37.8558C259.535 37.7542 259.047 38.0895 258.976 38.5975L257.553 48.5233C257.553 48.5233 255.999 54.7307 250.564 53.1763C245.128 51.6219 246.622 47.0298 247.851 45.8005C249.406 44.2461 253.286 43.474 255.227 46.1866L256.629 34.239C256.72 33.5787 257.35 33.1012 258.021 33.2129Z" fill="#FFD397"/>
<path d="M295.154 67.0541L308.981 73.6984C309.529 73.9626 309.753 74.6128 309.499 75.1614L304.673 85.5139C304.673 85.5139 302.204 90.553 298.638 88.8564C295.072 87.1496 294.981 85.0974 296.149 83.4008C297.318 81.7041 300.173 81.1758 302.763 83.9494L305.709 77.7825C305.963 77.2441 305.75 76.5939 305.222 76.3094L295.723 71.2703C295.347 71.0671 294.869 71.2297 294.697 71.6259L291.253 79.2862C291.253 79.2862 288.56 83.929 284.547 81.4197C280.534 78.9103 282.8 75.5576 284.07 74.8566C285.675 73.9626 288.987 74.2369 289.922 76.8784L293.823 67.5824C294.026 67.044 294.646 66.8103 295.154 67.0541Z" fill="#F8A957"/>
<path d="M38.5857 87.0583L57.0252 78.6056C57.7466 78.2703 58.6101 78.5853 58.9555 79.3066L65.4068 92.961C65.4068 92.961 68.4547 99.7272 63.7 101.922C58.9454 104.116 56.7916 102.47 56.0499 99.8491C55.3083 97.228 57.1878 93.8753 62.1863 93.5909L58.3968 85.382C58.0615 84.6607 57.2183 84.3254 56.4868 84.6302L43.3404 90.0452C42.8121 90.2586 42.5784 90.8783 42.8324 91.3964L47.7191 101.373C47.7191 101.373 50.1676 108.028 44.2243 109.998C38.281 111.969 36.7773 106.829 37.1329 104.939C37.5901 102.552 40.6583 99.4224 44.1328 100.692L37.966 88.8667C37.6206 88.1962 37.9051 87.3733 38.5857 87.0583Z" fill="#FFD397"/>
<path d="M92.9088 50.8702L106.98 56.1023C107.539 56.3055 107.823 56.9252 107.62 57.4739L103.851 67.9889C103.851 67.9889 101.9 73.1195 98.273 71.7886C94.6461 70.4577 94.3718 68.4563 95.3573 66.6987C96.3427 64.9411 99.0756 64.169 101.849 66.6377L104.155 60.3592C104.359 59.8105 104.094 59.1908 103.546 58.9673L93.8333 54.9137C93.4473 54.7511 93.0003 54.9543 92.858 55.3505L90.1962 63.1225C90.1962 63.1225 87.9916 67.8873 83.8567 65.8046C79.7218 63.722 81.6216 60.2474 82.8001 59.455C84.2834 58.439 87.5344 58.4085 88.6825 60.8976L91.6389 51.4899C91.8014 50.9616 92.3805 50.6772 92.9088 50.8702Z" fill="#F8A957"/>
<path d="M50.7975 125.045L65.0817 131.963C65.6405 132.238 65.8843 132.908 65.6202 133.477L60.5912 144.175C60.5912 144.175 58.0209 149.387 54.333 147.609C50.6451 145.831 50.5638 143.708 51.7728 141.96C52.9818 140.213 55.9382 139.664 58.6101 142.549L61.6681 136.169C61.9425 135.611 61.7189 134.94 61.1703 134.645L51.3563 129.403C50.96 129.19 50.4724 129.362 50.2895 129.769L46.7032 137.693C46.7032 137.693 43.9093 142.488 39.7643 139.877C35.6192 137.267 37.966 133.802 39.2868 133.081C40.9529 132.166 44.3767 132.461 45.3317 135.184L49.3955 125.573C49.619 125.024 50.259 124.791 50.7975 125.045Z" fill="#F8A957"/>
<path d="M146.734 40.863C146.277 39.9791 144.997 40.04 144.651 40.9747L140.77 51.5609C140.77 51.5609 139.51 54.7104 137.428 53.41C135.355 52.1095 130.905 52.9325 131.109 57.7277C131.312 62.523 139.297 62.1878 141.034 57.9512C142.772 53.7147 145.637 45.5973 145.637 45.5973C145.637 45.5973 148.146 50.1284 152.017 48.6045C152.657 48.3505 152.769 47.4971 152.21 47.1111C150.808 46.1459 148.42 44.1648 146.734 40.863Z" fill="#FFD397"/>
<path d="M41.6641 37.9572C40.5466 37.8658 39.8354 39.1764 40.5364 40.0806L48.41 50.3518C48.41 50.3518 50.6858 53.5114 48.2069 54.7814C45.7279 56.0411 43.8789 60.9482 48.6031 63.6608C53.3272 66.3733 57.7365 58.2661 54.7089 53.9686C51.6814 49.6711 45.5755 41.9093 45.5755 41.9093C45.5755 41.9093 51.4173 42.1836 52.2503 37.4188C52.3926 36.6365 51.6306 35.9964 50.9296 36.3215C49.1618 37.1445 45.8397 38.2925 41.6641 37.9572Z" fill="#FFD397"/>
<path d="M82.292 105.284C82.0279 104.604 81.0932 104.543 80.7681 105.203L77.1209 112.63C77.1209 112.63 75.9525 114.834 74.5403 113.717C73.1282 112.609 69.8162 112.863 69.5927 116.378C69.3691 119.894 75.221 120.259 76.8262 117.313C78.4213 114.357 81.1339 108.657 81.1339 108.657C81.1339 108.657 82.6171 112.162 85.5634 111.349C86.0511 111.217 86.2034 110.598 85.8174 110.273C84.8522 109.46 83.2673 107.834 82.292 105.284Z" fill="#F8A957"/>
<path d="M306.025 142.346C305.598 141.432 304.297 141.452 303.922 142.387L299.655 152.973C299.655 152.973 298.273 156.123 296.21 154.731C294.148 153.339 289.627 154.04 289.678 158.896C289.729 163.752 297.816 163.671 299.716 159.445C301.615 155.218 304.775 147.091 304.775 147.091C304.775 147.091 307.162 151.754 311.135 150.342C311.785 150.108 311.937 149.245 311.379 148.838C309.966 147.832 307.62 145.75 306.025 142.346Z" fill="#FFD397"/>
<path d="M342.416 58.5812C342.203 57.5551 340.882 57.2604 340.272 58.1138L333.384 67.7653C333.384 67.7653 331.22 70.61 329.483 68.7102C327.746 66.8104 323.001 66.404 321.863 71.3212C320.725 76.2384 328.924 78.128 331.87 74.3182C334.817 70.5084 339.988 63.0717 339.988 63.0717C339.988 63.0717 341.268 68.3648 345.626 67.9076C346.337 67.8365 346.703 66.9932 346.236 66.4446C345.067 65.0832 343.208 62.4113 342.416 58.5812Z" fill="#F8A957"/>
<path d="M228.111 42.1636C227.451 41.5032 226.323 41.9299 226.283 42.8646L225.907 53.4508C225.907 53.4508 225.693 56.6307 223.468 56.0821C221.233 55.5233 217.505 57.5654 219.08 61.7816C220.654 65.9978 227.695 63.3665 228.01 59.0791C228.325 54.7918 228.508 46.7049 228.508 46.7049C228.508 46.7049 232.074 50.0169 235.091 47.5278C235.589 47.1214 235.446 46.3188 234.827 46.1359C233.293 45.6991 230.59 44.6222 228.111 42.1636Z" fill="#F8A957"/>
<path d="M307.569 41.2999C306.969 41.0459 306.35 41.6149 306.573 42.2346L309.103 49.204C309.103 49.204 309.804 51.3273 308.209 51.5508C306.614 51.7744 304.724 54.0704 306.858 56.3969C308.981 58.7235 312.862 55.1778 311.947 52.3128C311.033 49.4478 309.042 44.1547 309.042 44.1547C309.042 44.1547 312.222 45.3739 313.522 42.9661C313.736 42.5698 313.431 42.0923 312.984 42.133C311.856 42.2447 309.824 42.2549 307.569 41.2999Z" fill="#FFD397"/>
</g>
<defs>
<radialGradient id="paint0_radial" cx="0" cy="0" r="1" gradientUnits="userSpaceOnUse" gradientTransform="translate(187.418 180.492) scale(153.847)">
<stop offset="2.39617e-07" stop-color="#6EC2C4"/>
<stop offset="1" stop-color="#6EC2C4"/>
</radialGradient>
<clipPath id="clip0">
<rect width="375" height="291" fill="white"/>
</clipPath>
</defs>
</svg>
