<?xml version="1.0" encoding="utf-8"?>
<!-- Generator: Adobe Illustrator 24.3.0, SVG Export Plug-In . SVG Version: 6.00 Build 0)  -->
<svg version="1.1" id="Layer_1" xmlns="http://www.w3.org/2000/svg" xmlns:xlink="http://www.w3.org/1999/xlink" x="0px" y="0px"
	 viewBox="0 0 34 30" style="enable-background:new 0 0 34 30;" xml:space="preserve">
<style type="text/css">
	.st0{fill:#10849A;}
	.st1{opacity:0.3;fill:#A6E4EA;enable-background:new    ;}
</style>
<g>
	<path class="st0" d="M32.83,12.36l-5.12-4V3.41c0-0.27-0.2-0.48-0.48-0.48H24.8c-0.27,0-0.48,0.2-0.48,0.48v2.32l-5.36-4.17
		c-0.96-0.75-2.32-0.75-3.28,0L1.81,12.36c-0.44,0.34-0.72,0.89-0.72,1.47v0.72c0,0.61,0.51,1.13,1.13,1.13h2.73v12.3
		c0,0.99,0.82,1.81,1.81,1.81h7.14v-9.22c0-0.61,0.51-1.13,1.13-1.13h4.54c0.61,0,1.13,0.51,1.13,1.13v9.22h7.14
		c0.99,0,1.81-0.82,1.81-1.81v-12.3h2.73c0.61,0,1.13-0.51,1.13-1.13v-0.72C33.55,13.25,33.27,12.74,32.83,12.36z"/>
	<path class="st1" d="M32.95,13.2c-0.04-0.29-0.09-0.57-0.14-0.86l-5.1-3.98V8.32c-0.14-0.05-0.27-0.14-0.38-0.25
		C27,7.93,26.76,7.62,26.76,7.15V2.93H24.8c-0.27,0-0.48,0.21-0.48,0.48v2.32l-5.36-4.17c-0.96-0.75-2.32-0.75-3.28,0L1.81,12.36
		c-0.44,0.34-0.72,0.89-0.72,1.47v0.72c0,0.61,0.51,1.13,1.13,1.13h2.73v12.3c0,0.99,0.82,1.81,1.81,1.81h5.67
		c0.07-0.7,0.15-8.32,0.15-8.5c0-0.4,0.15-0.76,0.39-1.04c0.35-0.57,1-0.73,1.68-0.77c0.05-0.01,0.1-0.02,0.15-0.02
		c0.07-0.02,0.15-0.02,0.23-0.02h4.54c0.61,0,1.13,0.51,1.13,1.13v9.22h5.87c0.73-0.18,1.06-0.39,1.22-0.63
		c0.04-0.06,0.07-0.12,0.1-0.19c0.38-4.27,0.06-8.58,0.06-12.86c0-0.41,0.15-0.77,0.4-1.05c0.13-0.24,0.35-0.43,0.62-0.47
		c0.06-0.01,0.11-0.01,0.17-0.02c0.13-0.04,0.27-0.06,0.42-0.07c0.06,0,0.12,0,0.17,0c0.89-0.08,1.78-0.07,2.67-0.06
		c0.1-0.05,0.19-0.11,0.27-0.17C33.01,13.98,33,13.61,32.95,13.2z"/>
</g>
</svg>
