<svg width="15" height="15" viewBox="0 0 15 15" fill="none" xmlns="http://www.w3.org/2000/svg">
<path d="M13.5938 0H4.21875C3.44209 0 2.8125 0.62959 2.8125 1.40625V2.8125H1.40625C0.62959 2.8125 0 3.44209 0 4.21875V13.5938C0 14.3704 0.62959 15 1.40625 15H10.7812C11.5579 15 12.1875 14.3704 12.1875 13.5938V12.1875H13.5938C14.3704 12.1875 15 11.5579 15 10.7812V1.40625C15 0.62959 14.3704 0 13.5938 0ZM10.6055 13.5938H1.58203C1.53541 13.5938 1.4907 13.5752 1.45774 13.5423C1.42477 13.5093 1.40625 13.4646 1.40625 13.418V4.39453C1.40625 4.34791 1.42477 4.3032 1.45774 4.27024C1.4907 4.23727 1.53541 4.21875 1.58203 4.21875H2.8125V10.7812C2.8125 11.5579 3.44209 12.1875 4.21875 12.1875H10.7812V13.418C10.7812 13.4646 10.7627 13.5093 10.7298 13.5423C10.6968 13.5752 10.6521 13.5938 10.6055 13.5938ZM13.418 10.7812H4.39453C4.34791 10.7812 4.3032 10.7627 4.27024 10.7298C4.23727 10.6968 4.21875 10.6521 4.21875 10.6055V1.58203C4.21875 1.53541 4.23727 1.4907 4.27024 1.45774C4.3032 1.42477 4.34791 1.40625 4.39453 1.40625H13.418C13.4646 1.40625 13.5093 1.42477 13.5423 1.45774C13.5752 1.4907 13.5938 1.53541 13.5938 1.58203V10.6055C13.5938 10.6521 13.5752 10.6968 13.5423 10.7298C13.5093 10.7627 13.4646 10.7812 13.418 10.7812Z" fill="#7C7C7C"/>
</svg>
