<?xml version="1.0" encoding="utf-8"?>
<!-- Generator: Adobe Illustrator 24.3.0, SVG Export Plug-In . SVG Version: 6.00 Build 0)  -->
<svg version="1.1" id="Layer_1" xmlns="http://www.w3.org/2000/svg" xmlns:xlink="http://www.w3.org/1999/xlink" x="0px" y="0px"
	 viewBox="0 0 33 40" style="enable-background:new 0 0 33 40;" xml:space="preserve">
<style type="text/css">
	.st0{fill:#10849A;}
	.st1{opacity:0.3;fill:#A6E4EA;}
</style>
<g>
	<path class="st0" d="M31.94,17.84c-1.03-3.22-3.07-5.66-6.07-7.25c-2.86-1.26-3.69-0.69-4.71-0.43c-0.56,0.14-1.33,0.58-1.33,0.58
		c-0.31,0.16-0.68,0.04-0.84-0.27c-0.15-0.3-0.04-0.66,0.24-0.83c0,0,1.42-0.75,2.01-0.93c0.59-0.19,1.4-1.14,1.4-2.09
		c0-1.25-1.01-2.26-2.26-2.26c-0.31,0-0.6,0.06-0.86,0.17l0,0c-0.15,0.06-2.27,0.96-4.29,3.13c-0.99,1.3-1.79,2.77-1.79,2.79
		c-0.12,0.22-0.34,0.34-0.57,0.34c-0.1,0-0.21-0.02-0.3-0.08c-0.32-0.17-0.43-0.56-0.27-0.88c0.04-0.08,0.92-1.71,2.03-3.13
		c-0.74-1.82-1.01-3.29-1.01-3.29c-0.29-1.4-1.52-2.47-3.01-2.5C8.57,0.89,7.14,2.27,7.1,4c0,0-0.02,1.13-0.02,1.15L5.72,5.14
		c0,0-0.01,0-0.01,0C5,5.14,4.42,5.72,4.42,6.43c0,0.72,0.57,1.3,1.29,1.3l1.59,0.01c0.1,0.44,0.38,1.63,0.59,2.47
		c-1.89-1-3.36-1.51-4.55-1.68c-1.19-0.17-2.33,0.59-2.61,1.78c-0.29,1.25,0.39,2.42,1.74,2.8c0.85,0.24,2.47,1.22,2.69,1.38
		C4.52,14.73,3.8,15.1,3,15.66c-0.59,0.41-0.73,1.21-0.33,1.8c0.25,0.36,0.66,0.56,1.07,0.56c0.25,0,0.51-0.08,0.74-0.23
		c0.17-0.12,0.97-0.71,1.11-0.81c1.33-0.93,2.88-1.07,2.97-1.07c2.35-0.05,3.8,0.92,3.8,0.92c0.31,0.15,0.44,0.53,0.29,0.84
		c-0.14,0.3-0.49,0.43-0.8,0.31c0,0-1.38-0.73-2.78-0.6c-1.86,0.16-3.23,1.58-3.71,2.38c-0.72,1.33-1.28,3.28-0.9,6
		c0.48,3.41,2.88,8.19,11.65,11.55c4.76,1.82,9.74,2.48,9.87,2.48c1.09,0,2.11-0.6,2.62-1.59C28.84,37.72,34.67,26.42,31.94,17.84z
		 M10.24,4.71C9.56,4.72,8.99,4.27,8.99,3.7s0.54-1.04,1.22-1.05c0.68-0.01,1.24,0.44,1.25,1.01C11.47,4.23,10.92,4.7,10.24,4.71z"
		/>
	<path class="st1" d="M26.2,36.77c1.81-4.88,3.41-10.04,3.58-15.2c0.03-1.02,0.02-1.99-0.08-2.95c-0.13-0.87-0.32-1.72-0.58-2.56
		c-0.21-0.7-0.48-1.37-0.77-2.03c-0.09-0.16-0.17-0.32-0.27-0.48c-0.61-1.04-1.45-2.17-2.45-3.01c-0.08-0.02-0.15-0.05-0.23-0.07
		c-0.25-0.07-0.48-0.18-0.67-0.33c-1.97-0.66-2.7-0.21-3.58,0.01c-0.56,0.14-1.33,0.58-1.33,0.58c-0.31,0.16-0.68,0.04-0.84-0.27
		c-0.05-0.09-0.06-0.18-0.07-0.28c-0.02-0.04-0.03-0.08-0.04-0.12c-0.04-0.13-0.03-0.28,0.04-0.41c0.04-0.1,0.12-0.19,0.23-0.26
		c0.87-0.73,2.06-1.44,2.41-2.58c0.05-0.16,0.08-0.33,0.1-0.51c0.01-0.45-0.02-0.9-0.28-1.26c-0.34-0.48-0.88-0.56-1.43-0.62
		c-0.02,0-0.04-0.01-0.06-0.01c-0.13,0.03-0.25,0.07-0.37,0.12l0,0c-0.15,0.06-2.27,0.96-4.29,3.13c-0.99,1.3-1.79,2.77-1.79,2.79
		c-0.12,0.22-0.34,0.34-0.57,0.34c-0.08,0-0.16-0.02-0.24-0.05c-0.36,0.01-0.71-0.22-0.69-0.68c0.05-1.02,0.6-1.77,1.13-2.59
		c0.21-0.33,0.43-0.66,0.44-1.05c-0.05-0.09-0.08-0.19-0.09-0.31c-0.01-0.16-0.04-0.32-0.07-0.49c-0.08-0.24-0.18-0.47-0.27-0.69
		c-0.56-1.42-1.04-3.6-2.75-4.01c0,0-0.01,0-0.01,0C8.57,0.89,7.14,2.27,7.1,4c0,0-0.02,1.13-0.02,1.15L5.72,5.14H5.71
		C5,5.14,4.42,5.72,4.42,6.43c0,0.72,0.57,1.3,1.29,1.3l1.59,0.01c0.1,0.44,0.38,1.63,0.59,2.47c-1.89-1-3.36-1.51-4.55-1.68
		c-1.19-0.17-2.33,0.59-2.61,1.78c-0.29,1.25,0.39,2.42,1.74,2.8c0.85,0.24,2.47,1.22,2.69,1.38C4.52,14.73,3.8,15.1,3,15.66
		c-0.59,0.41-0.73,1.21-0.33,1.8c0.25,0.36,0.66,0.56,1.07,0.56c0.25,0,0.51-0.08,0.74-0.23c0.17-0.12,0.97-0.71,1.11-0.81
		c1.33-0.93,2.88-1.07,2.97-1.07c2.35-0.05,3.8,0.92,3.8,0.92c0.31,0.15,0.44,0.53,0.29,0.84c-0.14,0.3-0.49,0.43-0.8,0.31
		c0,0-1.38-0.73-2.78-0.6c-1.86,0.16-3.23,1.58-3.71,2.38c-0.72,1.33-1.28,3.28-0.9,6c0.48,3.41,2.88,8.19,11.65,11.55
		c3.6,1.38,7.34,2.09,8.99,2.36C25.47,38.7,25.84,37.74,26.2,36.77z M10.24,4.71C9.56,4.72,8.99,4.27,8.99,3.7
		c-0.01-0.57,0.54-1.04,1.22-1.05c0.68-0.01,1.24,0.44,1.25,1.01C11.47,4.23,10.92,4.7,10.24,4.71z"/>
</g>
</svg>
