<?xml version="1.0" encoding="utf-8"?>
<!-- Generator: Adobe Illustrator 24.3.0, SVG Export Plug-In . SVG Version: 6.00 Build 0)  -->
<svg version="1.1" id="Layer_1" xmlns="http://www.w3.org/2000/svg" xmlns:xlink="http://www.w3.org/1999/xlink" x="0px" y="0px"
	 viewBox="0 0 40 34" style="enable-background:new 0 0 40 34;" xml:space="preserve">
<style type="text/css">
	.st0{fill:#10849A;}
	.st1{opacity:0.3;}
	.st2{fill:#A6E4EA;}
</style>
<g>
	<g id="LLv0Pb.tif_3_">
		<g>
			<path class="st0" d="M35.66,33.52c-0.02,0-0.07,0-0.07-0.01c-0.41-0.86-1.18-1.31-1.94-1.77c-0.22-0.13-0.43-0.26-0.62-0.42
				c-0.31-0.26-0.31-0.52-0.04-0.81c0.41-0.43-0.06-2.11-0.07-2.16c-0.02-0.09-0.08-0.22-0.14-0.24c-0.21-0.04-1.54-0.31-1.98-0.47
				c-0.09-0.03-0.55-0.81-0.95-0.64c-0.26,0.11-1.04,0.5-0.91,0.67c0.22,0.29,0.44,0.58,0.66,0.86c0.06,0.08,1.57,1.6,1.58,2.04
				c0.01,0.32-0.15,0.55-0.51,0.58c-0.41,0.03-0.79-0.18-0.9-0.52c-0.6,0-1.22,0.05-1.82-0.02c-0.3-0.04-0.61-0.27-0.86-0.47
				c-0.38-0.3-0.72-0.66-1.09-0.98c-0.18-0.15-0.27-0.33-0.13-0.52c0.19-0.26,0.42-0.48,0.63-0.72c0.12-0.12,0.32-0.21,0.36-0.35
				c0.12-0.43,0.39-2.76,0.46-2.91c0.18-0.39,0.1-0.74-0.19-1c-0.73-0.65-1.48-1.28-2.24-1.89c-0.3-0.24-0.66-0.41-0.98-0.63
				c-0.66-0.46-1.41-0.64-2.18-0.78c-0.2-0.03-1.88-0.99-1.97-1.01c-0.93-0.12-1.86-0.28-2.8-0.35c-0.73-0.06-1.31-0.35-1.78-0.89
				c-0.14-0.17-0.24-1.16-0.09-1.49c0.17-0.36-3.57-3.21-3.89-3.61c-0.23-0.29-1.07-0.58-1.11-0.63c-0.23-0.34-1.71-0.21-2.04-0.8
				c-0.05-0.1-0.04,0.7-0.01,1.19c0.01,0.21,2.42,1.79,3.27,1.86c0.14,0.01,0.3-0.01,0.4,0.06c0.08,0.05,0.11,0.22,0.13,0.34
				c0.03,0.14,0.02,0.28,0.04,0.42c0.01,0.04,0.09,0.1,0.08,0.12c-0.33,0.66-0.6,1.38-0.67,1.39c-0.38,0.03-0.66,0.14-0.61,0.61
				c0.01,0.07-1.5,1.45-1.6,1.31c-0.29-0.42-0.56-0.86-0.89-1.25c-0.28-0.34-0.59-0.67-0.93-0.93c-0.28-0.21-0.63-0.4-0.97-0.45
				c-1.13-0.16-2.27-0.25-3.26-0.35c-0.21-0.34-0.32-0.63-0.52-0.82c-0.72-0.69-1.81-3.85-1.89-3.97c-0.23-0.34,0.6-1.02,0.74-1.22
				C1.61,9.5,1.57,9.26,1.26,8.9c0.09-0.07,0.16-0.16,0.26-0.19c0.63-0.19,1.1-0.62,1.58-1.04C3.16,7.62,2.67,5.2,2.07,5.29
				C1.82,5.33,1.52,5.45,1.46,5.02C1.45,4.97,1.36,4.9,1.3,4.88C0.83,4.76,0.35,4.65-0.11,4.54c0.25-0.22,0.49-0.52,0.8-0.65
				c0.21-0.09,1.8-0.13,1.86-0.25C2.61,3.52,2.41,2.62,2.51,2.6c0.15-0.03,0.82-1.5,1.13-1.95c0.22-0.32,0.55-0.39,0.82-0.13
				C4.82,0.86,5.25,1,5.72,1.05c1.8,0.2,3.5,0.8,5.21,1.36c1,0.33,1.82,0.22,2.53-0.57c0.14-0.16,0.31-0.29,0.47-0.44
				c0.47-0.42,1.01-0.54,1.61-0.35c0.7,0.22,1.41,0.46,2.12,0.65c0.19,0.05,1.72,0.53,1.95,0.68c0.18,0.11,0.41,0.14,0.59,0.24
				c0.24,0.13,1.82,1.17,1.99,1.09c0.39-0.18,0.72-0.16,1.05,0.12c0.48,0.41,0.98,0.39,1.53,0.1c0.44-0.23,0.91-0.43,1.38-0.58
				c0.77-0.25,0.89-0.44,0.78-1.22c-0.03-0.22,0.08-0.46,0.13-0.69c0.19,0.13,0.43,0.23,0.57,0.4c0.18,0.22,0.42,1.04,0.42,1.19
				c-0.04,0.01,0.4,0.99,0.48,1.31c0.38,1.56,1.26,2.84,2.26,4.05c0.83,1,1.66,1.99,2.49,2.98c0.22,0.26,2.23,2.12,2.9,2.78
				c0.15,0.15,0.97,0.41,0.99,0.62c0.05,0.55,0.48,0.67,0.94,0.75c0.5,0.08,1.01,0.19,1.49,0.34c0.18,0.06,0.31,0.28,0.39,0.36
				c-0.24,0.3-0.43,0.5-0.59,0.73c-0.17,0.23-0.39,0.3-0.63,0.16c-0.23-0.14-1.37-1.09-1.87-1.09c-0.54,0-0.75,0.36-0.5,0.83
				c0.07,0.14,0.16,0.28,0.27,0.48c-0.32,0.11-1.12,0.52-1.12,0.62c-0.05,1.51-0.09,3.02-0.13,4.64c0.49-0.35,2.53,1.09,2.58,1.32
				c0.06,0.32-0.23,0.5-0.51,0.62c-0.33,0.14-0.69,0.25-1.01,0.41c-0.17,0.09-0.38,0.7-0.46,0.78c-0.47,0.49,0.74,2.51,0.58,3.29
				c-0.09,0.43-0.37,0.69-0.72,0.93c-0.56,0.38-1.11,0.77-1.66,1.17c-0.27,0.19-0.27,0.38,0.01,0.56c0.19,0.12,0.41,0.22,0.62,0.24
				c0.35,0.03,0.51,0.2,0.57,0.54C35.49,32.81,35.66,33.52,35.66,33.52z"/>
		</g>
	</g>
	<g id="LLv0Pb.tif_2_" class="st1">
		<g>
			<path class="st2" d="M35.02,23c-0.24,0-0.42-0.16-0.5-0.38c-0.12-0.33-0.16-0.67-0.17-1.02c-0.03-1.57,0.1-2.41,0.18-3.01
				c0.14-1.15,0.13-1.89,0.75-2.38c0.71-0.84,1.84-0.71,2.75-0.19c0.31,0.1,0.61,0.26,0.89,0.45c0.16-0.21,0.26-0.45,0.32-0.72
				c-0.37-0.1-0.74-0.17-1.12-0.23c-0.45-0.08-0.89-0.19-0.94-0.75c-0.02-0.22-0.84-0.48-0.99-0.62c-0.68-0.67-2.69-2.52-2.9-2.78
				c-0.83-1-1.66-1.99-2.49-2.98c-1-1.21-1.88-2.49-2.26-4.05c-0.08-0.32-0.51-1.31-0.48-1.31c0-0.15-0.24-0.97-0.42-1.19
				c-0.14-0.17-0.38-0.27-0.57-0.4c-0.05,0.23-0.16,0.47-0.13,0.69c0.11,0.79-0.02,0.98-0.8,1.23c-0.49,0.16-0.96,0.37-1.42,0.6
				c-0.53,0.27-1.01,0.28-1.48-0.12c-0.33-0.28-0.66-0.3-1.05-0.12c-0.17,0.08-1.75-0.96-1.99-1.09c-0.19-0.1-0.41-0.13-0.59-0.24
				c-0.23-0.15-1.76-0.62-1.95-0.68c-0.71-0.19-1.41-0.42-2.12-0.65c-0.61-0.19-1.14-0.06-1.61,0.35c-0.16,0.14-0.33,0.28-0.47,0.44
				c-0.24,0.26-0.49,0.45-0.75,0.57c-0.29,0.3-0.64,0.46-1.03,0.5c-0.06,0.02-0.13,0.03-0.21,0.02c-0.03,0-0.06-0.01-0.1-0.01
				c-0.21-0.01-0.42-0.04-0.65-0.09c-0.48-0.11-0.95-0.25-1.41-0.4c-0.7-0.14-1.39-0.27-2.08-0.45C7,1.93,6.76,1.86,6.53,1.79
				C5.55,1.59,4.6,1.31,3.83,0.68C3.77,0.67,3.7,0.66,3.64,0.66c0,0-0.01,0-0.01,0C3.32,1.12,2.66,2.57,2.51,2.6
				c-0.1,0.02,0.1,0.92,0.04,1.04C2.49,3.76,0.91,3.8,0.69,3.89c-0.31,0.13-0.55,0.43-0.8,0.65C0.35,4.65,0.83,4.76,1.3,4.88
				C1.36,4.9,1.45,4.97,1.46,5.02c0.06,0.43,0.36,0.31,0.61,0.27c0.6-0.09,1.09,2.32,1.02,2.38C2.61,8.09,2.15,8.53,1.51,8.71
				C1.42,8.74,1.34,8.84,1.26,8.9c0.32,0.36,0.35,0.6,0.09,0.96c-0.14,0.2-0.97,0.88-0.74,1.22c0.08,0.12,1.17,3.28,1.89,3.97
				c0.2,0.19,0.3,0.47,0.52,0.82c1,0.1,2.13,0.19,3.26,0.35c0.34,0.05,0.69,0.24,0.97,0.45c0.35,0.26,0.66,0.59,0.93,0.93
				c0.32,0.39,0.59,0.83,0.89,1.25c0.1,0.14,1.61-1.24,1.6-1.31c-0.05-0.47,0.22-0.58,0.61-0.61c0.05,0,0.18-0.34,0.37-0.76
				c0-0.05-0.01-0.09-0.01-0.14c-0.04-0.28-0.18-0.48-0.38-0.62c-1.74-0.19-4.02-1.38-4.02-3.35c0-0.32,0.23-0.48,0.48-0.5
				c0.1-0.02,0.21-0.02,0.31,0.01c0.01-0.02,0.01-0.03,0.02-0.02c0.01,0.01,0.01,0.02,0.02,0.03c0.1,0.04,0.18,0.11,0.23,0.21
				c0.54,0.32,1.59,0.27,1.78,0.56c0.04,0.05,0.87,0.34,1.11,0.63c0.31,0.4,4.05,3.24,3.89,3.61c-0.15,0.33-0.05,1.32,0.09,1.49
				c0.47,0.55,1.05,0.83,1.78,0.89c0.94,0.08,1.86,0.23,2.8,0.35c0.09,0.01,1.77,0.97,1.97,1.01c0.77,0.14,1.53,0.32,2.18,0.78
				c0.32,0.22,0.68,0.39,0.98,0.63c0.76,0.61,1.51,1.24,2.24,1.89c0.29,0.26,0.37,0.61,0.19,1c-0.07,0.15-0.35,2.48-0.46,2.91
				c-0.04,0.14-0.24,0.23-0.36,0.35c-0.22,0.23-0.45,0.46-0.63,0.72c-0.14,0.19-0.04,0.37,0.13,0.52c0.37,0.32,0.71,0.68,1.09,0.98
				c0.26,0.2,0.56,0.43,0.86,0.47c0.6,0.07,1.22,0.02,1.82,0.02c0.11,0.34,0.5,0.54,0.9,0.52c0.02,0,0.04-0.01,0.06-0.01
				c-0.02-0.03-0.04-0.07-0.07-0.1c-0.15-0.21-0.32-0.4-0.48-0.59c-0.38-0.45-0.77-0.89-1.1-1.38c-0.15-0.22-0.31-0.48-0.4-0.75
				c-0.08-0.12-0.17-0.22-0.28-0.31c-0.22-0.17-0.18-0.55,0-0.73c0.25-0.24,0.53-0.45,0.85-0.59c0.2-0.09,0.42-0.08,0.58,0.05
				c0.05,0.04,0.11,0.09,0.17,0.12c0.07,0.04,0.12,0.1,0.17,0.17c0.3,0.16,0.57,0.59,0.63,0.61c0.44,0.16,1.78,0.42,1.98,0.47
				c0.06,0.01,0.12,0.15,0.14,0.24c0.01,0.05,0.48,1.73,0.07,2.16c-0.27,0.28-0.27,0.55,0.04,0.81c0.19,0.16,0.41,0.29,0.62,0.42
				c0.07,0.04,0.13,0.08,0.2,0.12c-0.16-0.33-0.27-0.68-0.28-1.06c-0.01-1.08,0.92-1.58,1.7-2.1c0.12-0.08,0.11-0.08,0.13-0.1
				c0,0,0,0,0.01-0.01c0,0,0,0,0,0c0.04-0.08,0.11-0.28,0.11-0.26c0.02-0.21-0.09-0.49-0.16-0.68c-0.33-0.8-0.7-1.56-0.45-2.45
				c0.2-0.71,0.67-1.22,1.23-1.65c-0.25-0.18-0.5-0.35-0.74-0.54H35.02z"/>
		</g>
	</g>
</g>
</svg>
