<svg xmlns="http://www.w3.org/2000/svg" viewBox="0 0 29 57"><defs><style>.afbb7c6e-4490-4754-8176-a537367c8e8f{fill:#1c8499;}.afbb7c6e-4490-4754-8176-a537367c8e8f,.f1826c45-d630-426a-93e8-4795e35220ac{fill-rule:evenodd;}.f1826c45-d630-426a-93e8-4795e35220ac{fill:#a9e5ea;opacity:0.3;}</style></defs><g id="a2ab8488-20fb-4974-831e-dc154abc596c" data-name="Layer 7"><path class="afbb7c6e-4490-4754-8176-a537367c8e8f" d="M24.37,28.05c-.44-.26-.82-.68-1.26-.73-.83-.11-.94-.63-1.1-1.21-.44-1.47-.72-3-1.27-4.46a24,24,0,0,1-1.49-6.41,2.34,2.34,0,0,0-1.59-1.84c-.61-.26-1.21-.47-1.82-.73a1,1,0,0,1-.55-1.37c.17-.47.5-.94.66-1.41a4.14,4.14,0,0,0,.17-3.42A2.14,2.14,0,0,0,14,5.37h0a2.06,2.06,0,0,0-2.09,1.1,4.13,4.13,0,0,0,.16,3.42c.17.47.5.94.66,1.41a1,1,0,0,1-.55,1.37c-.6.26-1.21.52-1.81.73a2.18,2.18,0,0,0-1.6,1.84,23.36,23.36,0,0,1-1.48,6.41,38.41,38.41,0,0,0-1.27,4.46c-.17.58-.28,1.1-1.1,1.21-.44.05-.83.47-1.27.73a.29.29,0,0,0-.05.16c0,.06.11.06.16.06.33-.06.61-.11,1-.16-.33.84-.61,1.63-.88,2.36a.22.22,0,0,0,0,.11.2.2,0,0,0,.17-.06c.16-.21.38-.52.66-.84,0,.58-.17,1.53,0,1.53.33.05.44-1.42.49-1.37s.06,1.26.17,1.26.33-1.31.44-1.21c.16.37.11.95.27,1s.17-.63.17-.94a14.3,14.3,0,0,1,1-3.63,53.62,53.62,0,0,0,2.09-5.25L10.29,19c.11,0,.22.06.33.06a17.14,17.14,0,0,1,.05,3.36,32.56,32.56,0,0,1-1.15,4.41c-.66,2.92-.21,4.81.16,7.51A8.94,8.94,0,0,1,10,39a3.68,3.68,0,0,0-.16,1.31c0-.15-.06.37,0,.21h0v.06c.11,2,.27,4.09.38,6.14.06,1.36.44,2.84-.6,4-.77.9-.72,1,.33,1.53a1.09,1.09,0,0,0,.44.15.52.52,0,0,0,.38-.15,3.83,3.83,0,0,0,1.1-2.79A8.85,8.85,0,0,1,12,47.48c.22-2.36.94-4.72.83-7.14h0l-.06-.52a1.6,1.6,0,0,1,.06-.53c.33-3.25.64-5.9,1-9.16C13.85,29.87,14,29,14,29s.13.81.18,1.07c.33,3.26.65,6,1,9.25,0,.16,0,.37,0,.53l0,.52h0c-.17,2.42.55,4.78.82,7.14a11.8,11.8,0,0,1,.11,2.05,3.83,3.83,0,0,0,1.1,2.79.64.64,0,0,0,.39.15,1.53,1.53,0,0,0,.44-.15c1-.53,1.1-.63.33-1.53-1.05-1.26-.66-2.68-.61-4,.11-2,.33-4.1.39-6.14v-.06h0c0,.16-.06-.36,0-.21A5.35,5.35,0,0,0,17.93,39a9,9,0,0,1,.33-4.67,19,19,0,0,0,.08-7c0-.22-.09-.44-.15-.65a31.81,31.81,0,0,1-.92-4.25,17.14,17.14,0,0,1,.06-3.36c.11,0,.22-.06.33-.06l.82,2.05c.72,1.73,1.32,3.52,2.09,5.25a13.4,13.4,0,0,1,1,3.63c0,.31.11,1.05.27,1s.17-.63.28-1c.11-.11.22,1.2.44,1.2s.05-1.31.16-1.26.22,1.37.5,1.37,0-1,0-1.52c.27.31.49.68.66.84a.2.2,0,0,0,.16.05c.06,0,.11-.05.06-.11-.28-.73-.55-1.52-.88-2.36.44.05.77.11,1,.16a.23.23,0,0,0,.17-.05A.31.31,0,0,0,24.37,28.05Z"/><path class="f1826c45-d630-426a-93e8-4795e35220ac" d="M24.43,28.27a.31.31,0,0,0-.06-.22c-.44-.26-.82-.68-1.26-.73-.83-.11-.94-.63-1.1-1.21-.44-1.47-.72-3-1.27-4.46a24,24,0,0,1-1.49-6.41,2.34,2.34,0,0,0-1.59-1.84c-.32-.14-.65-.26-1-.39-1.26-.2-2.37-.86-1.93-2.36a10.12,10.12,0,0,1,.72-1.57,2.87,2.87,0,0,0,.3-1.63,2.65,2.65,0,0,0-1.33-2.06l-.42,0a2.06,2.06,0,0,0-2.09,1.1,4.13,4.13,0,0,0,.16,3.42c.17.47.5.94.66,1.41a1,1,0,0,1-.55,1.37c-.6.26-1.21.52-1.81.73a2.18,2.18,0,0,0-1.6,1.84,23.36,23.36,0,0,1-1.48,6.41,38.41,38.41,0,0,0-1.27,4.46c-.17.58-.28,1.1-1.1,1.21-.44.05-.83.47-1.27.73a.29.29,0,0,0-.05.16c0,.06.11.06.16.06.33-.06.61-.11,1-.16-.33.84-.61,1.63-.88,2.36a.22.22,0,0,0,0,.11.2.2,0,0,0,.17-.06c.16-.21.38-.52.66-.84,0,.58-.17,1.53,0,1.53.33.05.44-1.42.49-1.37s.06,1.26.17,1.26.32-1.25.43-1.21a36,36,0,0,1,1.65-5.73c.67-1.75,1.77-3.46,2-5.34.07-.5.74-.37.85.06a.38.38,0,0,1,.19.48l0,.07a14.42,14.42,0,0,1,0,3,32.56,32.56,0,0,1-1.15,4.41c-.66,2.92-.21,4.81.16,7.51A8.94,8.94,0,0,1,10,39a3.68,3.68,0,0,0-.16,1.31c0-.15-.06.37,0,.21v.06c.11,2,.27,4.09.38,6.14.06,1.36.44,2.84-.6,4-.77.9-.72,1,.33,1.53l.26.12A14.55,14.55,0,0,0,11.09,51a8.65,8.65,0,0,0,.29-2,.42.42,0,0,1-.07-.26,29.24,29.24,0,0,1,.51-4.75,39.38,39.38,0,0,0,.28-5c.06-1.68.32-3.34.5-5,.08-.73.16-1.45.3-2.17a9.81,9.81,0,0,0,.3-2.34.38.38,0,0,1,.15-.34.45.45,0,0,1,.85.19c0,.33,0,.67,0,1,.32,3.15.63,5.84,1,9,0,.16,0,.37,0,.53l0,.52c-.17,2.42.55,4.78.82,7.14a11.8,11.8,0,0,1,.11,2.05,3.83,3.83,0,0,0,1.1,2.79.64.64,0,0,0,.39.15,1.53,1.53,0,0,0,.44-.15l.45-.24a7.28,7.28,0,0,1-1.37-2.94,6.63,6.63,0,0,1,.07-1.78c.05-.67.11-1.34.16-2,0-.26,0-.53,0-.8s.05-.69.08-1c0-.07,0-.15,0-.22a34.79,34.79,0,0,0-.34-4.44A11.16,11.16,0,0,1,17,37.43a3.76,3.76,0,0,1,0-.75c0-.17,0-.33,0-.5.05-.55.12-1.1.22-1.66.13-.82.28-1.64.39-2.46,0-.39,0-.78,0-1.16A15.08,15.08,0,0,0,17.36,27a24.12,24.12,0,0,1-.91-3.75,18.94,18.94,0,0,1,.18-4,.57.57,0,0,1,1-.24h0l.82,2.05c.72,1.73,1.32,3.52,2.09,5.25a13.4,13.4,0,0,1,1,3.63c0,.31.11,1.05.27,1s.17-.63.28-1c.11-.11.22,1.2.44,1.2s.05-1.31.16-1.26.22,1.37.5,1.37,0-1,0-1.52c.27.31.49.68.66.84a.2.2,0,0,0,.16.05c.06,0,.11-.05.06-.11-.28-.73-.55-1.52-.88-2.36.44.05.77.11,1,.16A.23.23,0,0,0,24.43,28.27Z"/></g></svg>