<?xml version="1.0" encoding="utf-8"?>
<!-- Generator: Adobe Illustrator 24.3.0, SVG Export Plug-In . SVG Version: 6.00 Build 0)  -->
<svg version="1.1" id="Layer_1" xmlns="http://www.w3.org/2000/svg" xmlns:xlink="http://www.w3.org/1999/xlink" x="0px" y="0px"
	 viewBox="0 0 26 30" style="enable-background:new 0 0 26 30;" xml:space="preserve">
<style type="text/css">
	.st0{fill:#0F7385;}
	.st1{fill:#34A0B4;}
	.st2{fill:#268DA0;}
</style>
<g>
	<path class="st0" d="M24.67,0.22c-0.22,0-0.63,0-0.84,0c-0.58,0-1.16,0-1.75,0c-0.85,0-1.69,0-2.54,0c-1.01,0-2.02,0-3.03,0
		c-1.07,0-2.14,0-3.22,0c-1.03,0-2.07,0-3.1,0c-0.89,0-1.79,0-2.68,0c-0.65,0-1.3,0-1.96,0c-0.31,0-0.62,0-0.93,0
		c-0.57,0-1.14,0.06-1.69,0.21c-0.68,0.19-1.37,0.5-1.87,1.01C0.81,1.71,0.61,2.03,0.51,2.4C0.43,2.68,0.43,2.98,0.43,3.28
		c0,0.77,0.38,1.42,0.99,1.88c1.22,0.92,2.85,0.92,4.31,0.92c0.26,0,0.53,0,0.79,0c0.58,0,1.16,0,1.74,0c0.87,0,1.73,0,2.6,0
		c1.03,0,2.06,0,3.09,0c1.07,0,2.14,0,3.21,0c0.98,0,1.97,0,2.95,0c0.78,0,1.55,0,2.33,0c0.44,0,0.89,0,1.33,0c0.06,0,0.12,0,0.18,0
		c0.16,0,0.29-0.13,0.29-0.29c0-0.6,0-1.19,0-1.79c0-0.95,0-1.89,0-2.84c0-0.12,0-0.24,0-0.37c0.03,0,0.06,0,0.09,0
		c0.05,0,0.3,0,0.35,0C25.04,0.8,25.04,0.22,24.67,0.22z"/>
	<path class="st1" d="M25.55,5.61H6.04c-0.01,0-0.02,0.01-0.02,0.02v24.13c0,0.01,0.01,0.02,0.02,0.02h19.51
		c0.01,0,0.02-0.01,0.02-0.02V5.63C25.57,5.62,25.56,5.61,25.55,5.61z"/>
	<path class="st0" d="M19.89,13.9h-4.28v-3.44c0-0.29-0.24-0.53-0.53-0.53c-0.29,0-0.53,0.24-0.53,0.53v3.44h-4.28
		c-0.29,0-0.53,0.24-0.53,0.53c0,0.29,0.24,0.53,0.53,0.53h4.28v10.25c0,0.29,0.24,0.53,0.53,0.53c0.29,0,0.53-0.24,0.53-0.53V14.96
		h4.28c0.29,0,0.53-0.24,0.53-0.53C20.42,14.14,20.19,13.9,19.89,13.9z"/>
	<path class="st2" d="M5.99,5.65H5.17c-0.55,0-1.07-0.03-1.56-0.1C3.28,5.5,3.03,5.45,2.87,5.39c-0.87-0.28-1.91-0.85-1.91-2
		c0-0.14-0.11-0.25-0.25-0.25S0.47,3.26,0.47,3.39v23.62c0,1.14,0.78,2,2.25,2.47c0.19,0.06,0.47,0.12,0.83,0.17
		c0.52,0.07,1.05,0.11,1.63,0.11h0.82c0.14,0,0.25-0.11,0.25-0.25V5.89C6.24,5.76,6.13,5.65,5.99,5.65z"/>
</g>
</svg>
