<?xml version="1.0" encoding="utf-8"?>
<!-- Generator: Adobe Illustrator 24.3.0, SVG Export Plug-In . SVG Version: 6.00 Build 0)  -->
<svg version="1.1" id="Layer_1" xmlns="http://www.w3.org/2000/svg" xmlns:xlink="http://www.w3.org/1999/xlink" x="0px" y="0px"
	 viewBox="0 0 26 30" style="enable-background:new 0 0 26 30;" xml:space="preserve">
<style type="text/css">
	.st0{fill:#138E9F;}
</style>
<g>
	<path class="st0" d="M25.26,5.5h-0.99V0.67h0.38c0.14,0,0.25-0.11,0.25-0.25c0-0.14-0.11-0.25-0.25-0.25H4.62
		c-0.67,0-1.3,0.09-1.88,0.28C1.27,0.93,0.49,1.79,0.49,2.94v0.28v23.83c0,1.15,0.78,2.01,2.26,2.49c0.19,0.06,0.47,0.12,0.83,0.17
		c0.52,0.07,1.05,0.11,1.63,0.11h0.82h19.23c0.14,0,0.25-0.11,0.25-0.25V5.75C25.51,5.61,25.4,5.5,25.26,5.5z M0.98,2.94
		c0-1.16,1.04-1.74,1.92-2.02C3.42,0.75,4,0.67,4.62,0.67h19.16V5.5H6.03h0H5.21c-0.56,0-1.07-0.03-1.56-0.1
		C3.32,5.35,3.07,5.3,2.9,5.24C2.02,4.96,0.98,4.38,0.98,3.22V2.94z M3.64,29.23c-0.33-0.05-0.58-0.1-0.75-0.15
		c-0.87-0.28-1.92-0.86-1.92-2.02V4.62c0.38,0.47,0.97,0.83,1.77,1.09c0.19,0.06,0.47,0.12,0.83,0.17C4.09,5.96,4.63,6,5.21,6h0.58
		v23.34H5.21C4.65,29.33,4.14,29.3,3.64,29.23z M25.02,29.33H6.28V6h18.74L25.02,29.33L25.02,29.33z"/>
	<path class="st0" d="M19.69,14.15h-4.45v-3.63c0-0.16-0.13-0.29-0.29-0.29c-0.16,0-0.29,0.13-0.29,0.29v3.63h-4.45
		c-0.16,0-0.29,0.13-0.29,0.29s0.13,0.29,0.29,0.29h4.45v10.36c0,0.16,0.13,0.29,0.29,0.29c0.16,0,0.29-0.13,0.29-0.29V14.73h4.45
		c0.16,0,0.29-0.13,0.29-0.29C19.98,14.28,19.85,14.15,19.69,14.15z"/>
</g>
</svg>
