<?xml version="1.0" encoding="utf-8"?>
<!-- Generator: Adobe Illustrator 24.3.0, SVG Export Plug-In . SVG Version: 6.00 Build 0)  -->
<svg version="1.1" id="Layer_1" xmlns="http://www.w3.org/2000/svg" xmlns:xlink="http://www.w3.org/1999/xlink" x="0px" y="0px"
	 viewBox="0 0 22 38" style="enable-background:new 0 0 22 38;" xml:space="preserve">
<style type="text/css">
	.st0{fill:#10849A;}
	.st1{opacity:0.3;fill:#A6E4EA;}
</style>
<g>
	<g>
		<path class="st0" d="M13.31,14.91h7.09c0.41,0,0.74-0.33,0.74-0.74c0-0.41-0.33-0.74-0.74-0.74h-7.7
			c-0.16-0.54-0.25-1.04-0.3-1.48v0h7.56c0.41,0,0.74-0.33,0.74-0.74s-0.33-0.74-0.74-0.74h-7.56V8.99h6.82
			c0.41,0,0.74-0.33,0.74-0.74c0-0.41-0.33-0.74-0.74-0.74h-6.82V6.02h5.33c0.41,0,0.74-0.33,0.74-0.74c0-0.41-0.33-0.74-0.74-0.74
			h-5.33V3.06h3.7c0.41,0,0.74-0.33,0.74-0.74s-0.33-0.74-0.74-0.74h-3.7c0-0.82-0.66-1.48-1.48-1.48c-0.82,0-1.48,0.66-1.48,1.48
			H5.59c-0.41,0-0.74,0.33-0.74,0.74s0.33,0.74,0.74,0.74h3.85v1.48H4.11c-0.41,0-0.74,0.33-0.74,0.74c0,0.41,0.33,0.74,0.74,0.74
			h5.33V7.5H2.63c-0.41,0-0.74,0.33-0.74,0.74c0,0.41,0.33,0.74,0.74,0.74h6.82v1.48H9.44l-0.01-0.03c0,0.01,0,0.02,0,0.03H1.89
			c-0.41,0-0.74,0.33-0.74,0.74s0.33,0.74,0.74,0.74h7.48c-0.05,0.44-0.14,0.94-0.3,1.48H1.59c-0.41,0-0.74,0.33-0.74,0.74
			c0,0.41,0.33,0.74,0.74,0.74h6.87c-0.07,0.14-0.15,0.29-0.24,0.43c-0.34,0.36-0.7,0.76-1.07,1.2H1.74C1.33,16.54,1,16.87,1,17.28
			s0.33,0.74,0.74,0.74h4.3c-0.32,0.47-0.63,0.96-0.91,1.48H2.18c-0.41,0-0.74,0.33-0.74,0.74s0.33,0.74,0.74,0.74h2.25
			c-0.19,0.47-0.35,0.96-0.48,1.46c-0.13,0.5,0.18,1.02,0.68,1.14c0.08,0.02,0.16,0.03,0.23,0.03c0.42,0,0.8-0.28,0.91-0.71
			c0.63-2.47,2.3-4.66,3.66-6.11v11.35h2.96V16.88c1.35,1.45,2.98,3.6,3.59,6.03c0.11,0.43,0.49,0.71,0.91,0.71
			c0.08,0,0.15-0.01,0.23-0.03c0.5-0.13,0.81-0.64,0.68-1.14c-0.14-0.55-0.32-1.09-0.54-1.61h2.38c0.41,0,0.74-0.33,0.74-0.74
			c0-0.41-0.33-0.74-0.74-0.74h-3.1c-0.29-0.52-0.6-1.02-0.93-1.48h4.47c0.41,0,0.74-0.33,0.74-0.74s-0.33-0.74-0.74-0.74H14.5
			c-0.32-0.38-0.64-0.73-0.95-1.05C13.47,15.2,13.39,15.05,13.31,14.91z M20.03,29.53c0,0.49-0.15,1.07-0.4,1.59
			c-0.4,0.79-1.55,3.17-1.55,3.17c-0.33,0.68-0.93,1.2-1.65,1.45l-0.48,0.16l-0.19,0.59C15.45,37.37,14.61,38,13.62,38
			c-0.67,0-1.26-0.29-1.68-0.74c0,0-0.01-0.01-0.01-0.01c-0.55-0.59-1.48-0.59-2.02,0c0,0-0.01,0.01-0.01,0.01
			C9.49,37.71,8.89,38,8.23,38c-0.99,0-1.83-0.63-2.13-1.51L5.91,35.9l-0.48-0.16c-0.72-0.24-1.31-0.77-1.65-1.45
			c0,0-1.16-2.38-1.55-3.17c-0.26-0.51-0.4-1.1-0.4-1.59c0-1.73,1.41-3.14,3.14-3.14c1.17,0,1.98,0.7,1.98,0.7
			c0.73,0.58,1.59,0.97,2.5,1.09h2.96c0.91-0.12,1.77-0.51,2.5-1.09c0,0,0.81-0.7,1.98-0.7C18.62,26.39,20.03,27.79,20.03,29.53z
			 M9.12,35.81c0-0.49-0.4-0.89-0.89-0.89s-0.89,0.4-0.89,0.89c0,0.49,0.4,0.89,0.89,0.89S9.12,36.3,9.12,35.81z M9.97,33.38
			c-0.02-0.09-0.06-0.18-0.12-0.24l0,0L7.4,30.4c-0.25-0.27-0.63-0.41-1.02-0.33c-0.55,0.11-0.9,0.5-0.9,1.14
			c0,0.99,1.62,2.79,3.96,2.79c0,0,0.07,0,0.11-0.01C9.84,33.93,10.02,33.66,9.97,33.38z M14.51,35.81c0-0.49-0.4-0.89-0.89-0.89
			c-0.49,0-0.89,0.4-0.89,0.89c0,0.49,0.4,0.89,0.89,0.89C14.11,36.7,14.51,36.3,14.51,35.81z M16.37,31.2
			c0-0.63-0.35-1.03-0.9-1.14c-0.39-0.08-0.77,0.06-1.02,0.33l-2.44,2.74l0,0c-0.06,0.07-0.1,0.15-0.12,0.24
			c-0.05,0.28,0.13,0.55,0.41,0.61c0.03,0.01,0.11,0.01,0.11,0.01C14.75,33.99,16.37,32.2,16.37,31.2z"/>
		<path class="st1" d="M19.46,14.89c0.11,0,0.22,0,0.33-0.01c0.07-0.04,0.14-0.07,0.21-0.11c0.12-0.12,0.21-0.26,0.24-0.45
			c0.04-0.3-0.08-0.7-0.37-0.82c-0.02,0-0.04-0.01-0.06-0.02c-0.01,0-0.02,0-0.02-0.01c-0.04-0.01-0.08-0.02-0.11-0.04h-6.95
			c-0.16-0.54-0.25-1.04-0.3-1.48v0h6.74c0.31-0.18,0.59-0.35,0.65-0.76c-0.01-0.3-0.09-0.6-0.28-0.72h-7.11V8.99h6.32
			c0.2-0.13,0.38-0.21,0.39-0.47c0.02-0.34-0.07-0.82-0.38-1.01c0,0,0,0-0.01-0.01h-6.32V6.02h4.7c0.03-0.02,0.05-0.03,0.08-0.04
			c0.32-0.14,0.43-0.61,0.33-0.91c-0.07-0.2-0.22-0.37-0.38-0.53h-4.73V3.06h3.33c0.01-0.01,0.01-0.01,0.02-0.02
			c0.13-0.15,0.23-0.32,0.25-0.54c0.03-0.25-0.02-0.82-0.32-0.89c-0.03-0.01-0.06-0.02-0.09-0.03h-3.19c0-0.82-0.66-1.48-1.48-1.48
			c-0.82,0-1.48,0.66-1.48,1.48H5.59c-0.41,0-0.74,0.33-0.74,0.74c0,0.41,0.33,0.74,0.74,0.74h3.85v1.48H4.11
			c-0.41,0-0.74,0.33-0.74,0.74c0,0.41,0.33,0.74,0.74,0.74h5.33V7.5H2.63c-0.41,0-0.74,0.33-0.74,0.74s0.33,0.74,0.74,0.74h6.82
			v1.48H9.44l-0.01-0.03v0.03H1.89c-0.41,0-0.74,0.33-0.74,0.74c0,0.41,0.33,0.74,0.74,0.74h7.48c-0.05,0.44-0.14,0.94-0.3,1.48
			H1.59c-0.41,0-0.74,0.33-0.74,0.74c0,0.41,0.33,0.74,0.74,0.74h6.87c-0.07,0.14-0.15,0.29-0.24,0.43c-0.34,0.36-0.7,0.76-1.07,1.2
			H1.74C1.33,16.54,1,16.87,1,17.28c0,0.41,0.33,0.74,0.74,0.74h4.3c-0.32,0.47-0.63,0.96-0.91,1.48H2.18
			c-0.41,0-0.74,0.33-0.74,0.74c0,0.41,0.33,0.74,0.74,0.74h2.25c-0.19,0.47-0.35,0.96-0.48,1.46c-0.13,0.5,0.18,1.02,0.68,1.14
			c0.08,0.02,0.16,0.03,0.23,0.03c0.42,0,0.8-0.28,0.91-0.71c0.63-2.47,2.3-4.66,3.66-6.11v11.35h2.23
			c-0.04-0.05-0.07-0.11-0.08-0.17c-0.06-0.08-0.1-0.19-0.1-0.33c0-3.43,0.06-6.86,0.07-10.29c0-0.49,0.53-0.64,0.85-0.45v-0.04
			c1.35,1.45,2.98,3.6,3.59,6.03c0.11,0.43,0.49,0.71,0.91,0.71c0.08,0,0.15-0.01,0.23-0.03c0.5-0.13,0.81-0.64,0.68-1.14
			c-0.14-0.55-0.32-1.09-0.54-1.61h1.79c0.04-0.01,0.07-0.03,0.11-0.04c0.01,0,0.04-0.02,0.04-0.02c0.03-0.01,0.06-0.03,0.08-0.04
			c0.14-0.16,0.26-0.35,0.29-0.56c0.03-0.22-0.08-0.69-0.31-0.81c0,0-0.01,0-0.01,0c-0.04,0-0.08,0-0.11,0c-0.03,0-0.05,0-0.08-0.01
			h-2.51c-0.29-0.52-0.6-1.02-0.93-1.48h3.39c0.01,0,0.02,0,0.04,0c0.11,0,0.22-0.01,0.33-0.02c0,0,0,0,0.01,0c0.01,0,0.02,0,0.02,0
			c0.03,0,0.05-0.01,0.08-0.01c0.01,0,0.02,0,0.03-0.01c0.21-0.14,0.39-0.33,0.45-0.6c0.04-0.17,0.03-0.63-0.17-0.76
			c-0.03-0.01-0.06-0.02-0.09-0.02c-0.04-0.01-0.07-0.03-0.1-0.05H14.5c-0.32-0.38-0.64-0.73-0.95-1.05
			c-0.09-0.14-0.17-0.29-0.24-0.43h6.05C19.39,14.9,19.42,14.89,19.46,14.89z"/>
	</g>
	<path class="st1" d="M18.13,28.76c0-0.13-0.01-0.26-0.03-0.38c0,0,0,0,0,0c-0.01-0.06-0.02-0.11-0.03-0.17
		c-0.04-0.17-0.08-0.34-0.14-0.51c-0.01-0.01-0.08-0.19-0.1-0.23c-0.05-0.09-0.1-0.18-0.16-0.26c-0.02-0.02-0.04-0.05-0.06-0.07
		c-0.06-0.06-0.12-0.12-0.18-0.17c0,0-0.17-0.13-0.21-0.15c-0.04-0.02-0.32-0.15-0.21-0.11c-0.4-0.16-0.67-0.2-1.02-0.21
		c-0.65,0.21-1.06,0.56-1.06,0.56c-0.64,0.5-1.37,0.86-2.15,1.03c-0.1,0.13-0.26,0.2-0.42,0.21c-0.22,0.08-0.5,0.04-0.65-0.15H9.46
		c-0.91-0.12-1.77-0.51-2.5-1.09c0,0-0.81-0.7-1.98-0.7c-1.73,0-3.14,1.41-3.14,3.14c0,0.49,0.15,1.07,0.4,1.59
		c0.4,0.79,1.55,3.18,1.55,3.18c0.33,0.68,0.93,1.21,1.65,1.45l0.48,0.16l0.19,0.59c0.31,0.88,1.15,1.52,2.13,1.52
		c0.67,0,1.26-0.29,1.68-0.74c0,0,0.01-0.01,0.01-0.01c0.55-0.59,1.48-0.59,2.03,0c0,0,0.01,0.01,0.01,0.01
		c0.05,0.05,0.09,0.1,0.15,0.14c0.78,0.14,1.62,0.13,2.33-0.22c0.51-0.25,1-0.87,0.98-1.43c-0.02-0.47,0.21-0.78,0.53-0.94
		c0.02-0.04,0.05-0.07,0.08-0.1c0.02-0.02,0.12-0.15,0.15-0.18c0.05-0.07,0.11-0.14,0.16-0.22c0.14-0.2,0.26-0.4,0.38-0.61
		c0.13-0.22,0.25-0.44,0.36-0.67c0.06-0.13,0.12-0.25,0.18-0.38c0.03-0.06,0.06-0.13,0.08-0.19c0.21-0.5,0.38-1.01,0.51-1.53
		c0.07-0.26,0.13-0.52,0.17-0.79c0.01-0.03,0.04-0.26,0.05-0.29c0.01-0.1,0.02-0.2,0.03-0.3C18.13,29.27,18.14,29.01,18.13,28.76z
		 M8.24,36.67c-0.49,0-0.89-0.4-0.89-0.89c0-0.49,0.4-0.89,0.89-0.89s0.89,0.4,0.89,0.89S8.73,36.67,8.24,36.67z M9.57,33.95
		c-0.03,0.01-0.11,0.01-0.11,0.01c-2.35,0-3.97-1.8-3.97-2.79c0-0.63,0.35-1.03,0.9-1.14c0.39-0.08,0.77,0.06,1.02,0.33l2.44,2.74
		c0.06,0.07,0.1,0.15,0.12,0.24C10.04,33.63,9.85,33.9,9.57,33.95z M13.64,36.67c-0.49,0-0.89-0.4-0.89-0.89
		c0-0.49,0.4-0.89,0.89-0.89c0.49,0,0.89,0.4,0.89,0.89S14.13,36.67,13.64,36.67z M12.42,33.96c0,0-0.07,0-0.11-0.01
		c-0.28-0.05-0.46-0.33-0.41-0.61c0.02-0.09,0.06-0.18,0.12-0.24l2.44-2.74c0.25-0.27,0.63-0.41,1.02-0.33
		c0.55,0.11,0.9,0.5,0.9,1.14C16.39,32.17,14.77,33.96,12.42,33.96z"/>
</g>
</svg>
