<?xml version="1.0" encoding="utf-8"?>
<!-- Generator: Adobe Illustrator 24.3.0, SVG Export Plug-In . SVG Version: 6.00 Build 0)  -->
<svg version="1.1" id="Layer_1" xmlns="http://www.w3.org/2000/svg" xmlns:xlink="http://www.w3.org/1999/xlink" x="0px" y="0px"
	 viewBox="0 0 27 32" style="enable-background:new 0 0 27 32;" xml:space="preserve">
<style type="text/css">
	.st0{fill:#34A0B4;}
	.st1{fill:none;stroke:#0090A2;stroke-width:5.0865;stroke-miterlimit:10;}
	.st2{fill:#0F7385;}
	.st3{fill:#0090A2;}
</style>
<g>
	<path class="st0" d="M26.76,3.68c0-0.47-0.38-0.85-0.85-0.85c0,0,0,0,0,0L1.08,2.84c-0.47,0-0.85,0.38-0.85,0.85l0.01,27.28
		c0,0.47,0.38,0.85,0.85,0.85c0,0,0,0,0,0l24.83-0.01h0c0.47,0,0.85-0.38,0.85-0.85L26.76,3.68z"/>
	<line class="st1" x1="0.35" y1="8.29" x2="26.6" y2="8.27"/>
	<path class="st2" d="M26.76,3.68c0-0.47-0.38-0.85-0.85-0.85c0,0,0,0,0,0L1.08,2.84c-0.47,0-0.85,0.38-0.85,0.85l0,4.92l26.35-0.07
		l0.2,0L26.76,3.68z"/>
	<path class="st3" d="M6,5.72c-0.26,0-0.48-0.21-0.48-0.48l0-4.59c0-0.26,0.21-0.48,0.48-0.48c0,0,0,0,0,0
		c0.26,0,0.48,0.21,0.48,0.48l0,4.59C6.48,5.51,6.26,5.72,6,5.72C6,5.72,6,5.72,6,5.72z"/>
	<path class="st3" d="M20.99,5.72c-0.26,0-0.48-0.21-0.48-0.48l0-4.59c0-0.26,0.21-0.48,0.48-0.48c0,0,0,0,0,0
		c0.26,0,0.48,0.21,0.48,0.48l0,4.59C21.47,5.5,21.25,5.72,20.99,5.72C20.99,5.72,20.99,5.72,20.99,5.72z"/>
	<path class="st2" d="M13.19,16.41L13.19,16.41c-1.18,0-2.14-0.96-2.14-2.14v0c0-1.18,0.96-2.14,2.14-2.14h0
		c1.18,0,2.14,0.96,2.14,2.14v0C15.33,15.45,14.38,16.41,13.19,16.41z"/>
	<path class="st2" d="M20.54,16.41L20.54,16.41c-1.18,0-2.14-0.96-2.14-2.14v0c0-1.18,0.96-2.14,2.14-2.14h0
		c1.18,0,2.14,0.96,2.14,2.14v0C22.68,15.45,21.72,16.41,20.54,16.41z"/>
	<path class="st2" d="M20.54,22.52L20.54,22.52c-1.18,0-2.14-0.96-2.14-2.14v0c0-1.18,0.96-2.14,2.14-2.14h0
		c1.18,0,2.14,0.96,2.14,2.14v0C22.68,21.56,21.72,22.52,20.54,22.52z"/>
	<path class="st2" d="M20.54,28.95L20.54,28.95c-1.18,0-2.14-0.96-2.14-2.14v0c0-1.18,0.96-2.14,2.14-2.14h0
		c1.18,0,2.14,0.96,2.14,2.14v0C22.68,27.99,21.72,28.95,20.54,28.95z"/>
	<path class="st2" d="M13.2,22.53L13.2,22.53c-1.18,0-2.14-0.96-2.14-2.14v0c0-1.18,0.96-2.14,2.14-2.14h0
		c1.18,0,2.14,0.96,2.14,2.14v0C15.34,21.57,14.38,22.53,13.2,22.53z"/>
	<path class="st2" d="M13.2,28.95L13.2,28.95c-1.18,0-2.14-0.96-2.14-2.14v0c0-1.18,0.96-2.14,2.14-2.14h0
		c1.18,0,2.14,0.96,2.14,2.14v0C15.34,27.99,14.38,28.95,13.2,28.95z"/>
	<path class="st2" d="M5.85,22.53L5.85,22.53c-1.18,0-2.14-0.96-2.14-2.14v0c0-1.18,0.96-2.14,2.14-2.14h0
		c1.18,0,2.14,0.96,2.14,2.14v0C8,21.57,7.04,22.53,5.85,22.53z"/>
	<path class="st2" d="M5.86,28.95L5.86,28.95c-1.18,0-2.14-0.96-2.14-2.14v0c0-1.18,0.96-2.14,2.14-2.14h0
		c1.18,0,2.14,0.96,2.14,2.14v0C8,27.99,7.04,28.95,5.86,28.95z"/>
</g>
</svg>
