<?xml version="1.0" encoding="utf-8"?>
<!-- Generator: Adobe Illustrator 24.3.0, SVG Export Plug-In . SVG Version: 6.00 Build 0)  -->
<svg version="1.1" id="Layer_1" xmlns="http://www.w3.org/2000/svg" xmlns:xlink="http://www.w3.org/1999/xlink" x="0px" y="0px"
	 viewBox="0 0 27 32" style="enable-background:new 0 0 27 32;" xml:space="preserve">
<style type="text/css">
	.st0{fill:#138E9F;}
</style>
<g>
	<path class="st0" d="M25.99,2.64h-4.68V0.45c0-0.15-0.12-0.27-0.27-0.27s-0.27,0.12-0.27,0.27v2.19H6.23V0.45
		c0-0.15-0.12-0.27-0.27-0.27c-0.15,0-0.27,0.12-0.27,0.27v2.19H1.01c-0.47,0-0.86,0.39-0.86,0.86v27.47c0,0.47,0.39,0.86,0.86,0.86
		h24.99c0.47,0,0.86-0.39,0.86-0.86V3.5C26.85,3.02,26.47,2.64,25.99,2.64z M26.31,30.97c0,0.17-0.14,0.32-0.32,0.32H1.01
		c-0.17,0-0.32-0.14-0.32-0.32V8.4h25.62V30.97z M26.31,7.85H0.69V3.5c0-0.17,0.14-0.32,0.32-0.32h4.68v1.88
		c0,0.15,0.12,0.27,0.27,0.27c0.15,0,0.27-0.12,0.27-0.27V3.18h14.54v1.88c0,0.15,0.12,0.27,0.27,0.27s0.27-0.12,0.27-0.27V3.18H26
		c0.17,0,0.32,0.14,0.32,0.32L26.31,7.85L26.31,7.85z"/>
	<path class="st0" d="M11.62,16.58h3.14c0.47,0,0.86-0.39,0.86-0.86v-3.14c0-0.47-0.39-0.86-0.86-0.86h-3.14
		c-0.47,0-0.86,0.39-0.86,0.86v3.14C10.77,16.19,11.15,16.58,11.62,16.58z M11.31,12.58c0-0.17,0.14-0.32,0.32-0.32h3.14
		c0.17,0,0.32,0.14,0.32,0.32v3.14c0,0.17-0.14,0.32-0.32,0.32h-3.14c-0.17,0-0.32-0.14-0.32-0.32V12.58L11.31,12.58z"/>
	<path class="st0" d="M19.01,16.58h3.14c0.47,0,0.86-0.39,0.86-0.86v-3.14c0-0.47-0.39-0.86-0.86-0.86h-3.14
		c-0.47,0-0.86,0.39-0.86,0.86v3.14C18.15,16.19,18.54,16.58,19.01,16.58z M18.7,12.58c0-0.17,0.14-0.32,0.32-0.32h3.14
		c0.17,0,0.32,0.14,0.32,0.32v3.14c0,0.17-0.14,0.32-0.32,0.32h-3.14c-0.17,0-0.32-0.14-0.32-0.32V12.58z"/>
	<path class="st0" d="M19.01,22.74h3.14c0.47,0,0.86-0.39,0.86-0.86v-3.14c0-0.47-0.39-0.86-0.86-0.86h-3.14
		c-0.47,0-0.86,0.39-0.86,0.86v3.14C18.15,22.36,18.54,22.74,19.01,22.74z M18.7,18.74c0-0.17,0.14-0.32,0.32-0.32h3.14
		c0.17,0,0.32,0.14,0.32,0.32v3.14c0,0.17-0.14,0.32-0.32,0.32h-3.14c-0.17,0-0.32-0.14-0.32-0.32V18.74z"/>
	<path class="st0" d="M19.01,29.21h3.14c0.47,0,0.86-0.39,0.86-0.86v-3.14c0-0.47-0.39-0.86-0.86-0.86h-3.14
		c-0.47,0-0.86,0.39-0.86,0.86v3.14C18.15,28.82,18.54,29.21,19.01,29.21z M18.7,25.21c0-0.17,0.14-0.32,0.32-0.32h3.14
		c0.17,0,0.32,0.14,0.32,0.32v3.14c0,0.17-0.14,0.32-0.32,0.32h-3.14c-0.17,0-0.32-0.14-0.32-0.32V25.21z"/>
	<path class="st0" d="M11.62,22.74h3.14c0.47,0,0.86-0.39,0.86-0.86v-3.14c0-0.47-0.39-0.86-0.86-0.86h-3.14
		c-0.47,0-0.86,0.39-0.86,0.86v3.14C10.77,22.36,11.15,22.74,11.62,22.74z M11.31,18.74c0-0.17,0.14-0.32,0.32-0.32h3.14
		c0.17,0,0.32,0.14,0.32,0.32v3.14c0,0.17-0.14,0.32-0.32,0.32h-3.14c-0.17,0-0.32-0.14-0.32-0.32V18.74L11.31,18.74z"/>
	<path class="st0" d="M11.62,29.21h3.14c0.47,0,0.86-0.39,0.86-0.86v-3.14c0-0.47-0.39-0.86-0.86-0.86h-3.14
		c-0.47,0-0.86,0.39-0.86,0.86v3.14C10.77,28.82,11.15,29.21,11.62,29.21z M11.31,25.21c0-0.17,0.14-0.32,0.32-0.32h3.14
		c0.17,0,0.32,0.14,0.32,0.32v3.14c0,0.17-0.14,0.32-0.32,0.32h-3.14c-0.17,0-0.32-0.14-0.32-0.32V25.21L11.31,25.21z"/>
	<path class="st0" d="M4.24,22.74h3.14c0.47,0,0.86-0.39,0.86-0.86v-3.14c0-0.47-0.39-0.86-0.86-0.86H4.24
		c-0.47,0-0.86,0.39-0.86,0.86v3.14C3.38,22.36,3.76,22.74,4.24,22.74z M3.92,18.74c0-0.17,0.14-0.32,0.32-0.32h3.14
		c0.17,0,0.32,0.14,0.32,0.32v3.14c0,0.17-0.14,0.32-0.32,0.32H4.24c-0.17,0-0.32-0.14-0.32-0.32V18.74L3.92,18.74z"/>
	<path class="st0" d="M4.24,29.21h3.14c0.47,0,0.86-0.39,0.86-0.86v-3.14c0-0.47-0.39-0.86-0.86-0.86H4.24
		c-0.47,0-0.86,0.39-0.86,0.86v3.14C3.38,28.82,3.76,29.21,4.24,29.21z M3.92,25.21c0-0.17,0.14-0.32,0.32-0.32h3.14
		c0.17,0,0.32,0.14,0.32,0.32v3.14c0,0.17-0.14,0.32-0.32,0.32H4.24c-0.17,0-0.32-0.14-0.32-0.32V25.21L3.92,25.21z"/>
</g>
</svg>
