<svg width="61" height="52" viewBox="0 0 61 52" fill="none" xmlns="http://www.w3.org/2000/svg">
<path d="M60.7207 34.7627H0.00289917V51.4508H60.7207V34.7627Z" fill="#159BAD"/>
<path d="M30.3589 43.9952C47.1256 43.9952 60.7178 40.1 60.7178 35.2951C60.7178 30.4901 47.1256 26.595 30.3589 26.595C13.5921 26.595 0 30.4901 0 35.2951C0 40.1 13.5921 43.9952 30.3589 43.9952Z" fill="#1ABAC6"/>
<path d="M30.3589 36.6757L49.9974 38.8238C50.8316 38.914 51.4624 38.0855 51.1485 37.3065L49.5555 33.3241C49.4247 32.9986 49.1486 32.7515 48.8085 32.6614C45.6459 31.8271 29.1148 27.9378 11.8918 32.6614C11.5575 32.7544 11.2843 32.9986 11.1564 33.3212L9.56345 37.3036C9.25242 38.0826 9.8832 38.911 10.7145 38.8209L30.3589 36.6757Z" fill="#159BAD"/>
<path d="M30.3589 4.75851C17.8712 -0.656906 9.3251 1.88948 6.70605 2.95337C6.20608 3.15685 5.90667 3.67136 5.98225 4.20912L9.89775 32.1059C9.99076 32.7716 10.6245 33.225 11.2843 33.0971C19.7984 31.4432 24.9348 31.8443 27.6991 32.4402C27.6991 32.446 27.6991 32.4489 27.6991 32.4547C27.6991 33.3384 28.8909 34.0535 30.3618 34.0535C31.7483 34.0535 32.8849 33.4169 33.0128 32.6059C40.0677 31.013 46.765 32.3065 49.4771 32.9896C50.1573 33.1611 50.8346 32.7047 50.9305 32.01L54.7355 4.25563C54.8111 3.71205 54.503 3.18592 53.9885 2.99697C42.46 -1.31966 30.3589 4.75851 30.3589 4.75851Z" fill="#6EC2C4"/>
<path d="M7.10431 1.91858C7.10431 1.91858 15.9817 -3.22941 30.3618 3.34001C30.3618 3.34001 42.4339 -3.05209 53.6193 1.91858L49.7125 31.9228C49.7125 31.9228 39.9485 28.5509 30.3618 31.9228C30.3618 31.9228 25.5714 28.7282 11.1012 31.9228L7.10431 1.91858Z" fill="#A9E5EA"/>
<path d="M30.3589 3.33991C30.3589 3.33991 42.4309 -3.0522 53.6164 1.91847L49.7096 31.9227C49.7096 31.9227 39.9456 28.5508 30.3589 31.9227" fill="#A2DBDD"/>
</svg>
