<svg width="375" height="293" viewBox="0 0 375 293" fill="none" xmlns="http://www.w3.org/2000/svg">
<g clip-path="url(#clip0)">
<path d="M375 -1.00696H0V293H375V-1.00696Z" fill="#0F7386"/>
<path d="M293.451 234.26H81.2954V292.984H293.451V234.26Z" fill="#159BAD"/>
<path d="M187.363 266.747C245.948 266.747 293.441 253.04 293.441 236.132C293.441 219.224 245.948 205.518 187.363 205.518C128.778 205.518 81.2852 219.224 81.2852 236.132C81.2852 253.04 128.778 266.747 187.363 266.747Z" fill="#1ABAC6"/>
<path d="M187.363 240.991L255.983 248.55C258.898 248.867 261.102 245.952 260.005 243.211L254.439 229.197C253.982 228.052 253.017 227.182 251.828 226.865C240.778 223.929 183.016 210.243 122.837 226.865C121.669 227.192 120.714 228.052 120.267 229.187L114.701 243.2C113.614 245.942 115.818 248.857 118.723 248.54L187.363 240.991Z" fill="#159BAD"/>
<path d="M187.363 128.679C143.729 109.623 113.868 118.583 104.717 122.327C102.97 123.043 101.924 124.853 102.188 126.746L115.869 224.911C116.194 227.254 118.408 228.849 120.714 228.399C150.463 222.579 168.41 223.991 178.069 226.088C178.069 226.108 178.069 226.118 178.069 226.139C178.069 229.248 182.234 231.765 187.373 231.765C192.218 231.765 196.189 229.524 196.636 226.671C221.287 221.065 244.688 225.617 254.164 228.021C256.541 228.624 258.908 227.018 259.243 224.574L272.538 126.909C272.802 124.997 271.725 123.145 269.928 122.48C229.646 107.291 187.363 128.679 187.363 128.679Z" fill="#6EC2C4"/>
<path d="M106.108 118.686C106.108 118.686 137.127 100.57 187.373 123.687C187.373 123.687 229.554 101.194 268.638 118.686L254.987 224.267C254.987 224.267 220.87 212.402 187.373 224.267C187.373 224.267 170.635 213.026 120.074 224.267L106.108 118.686Z" fill="#A9E5EA"/>
<path d="M187.363 123.687C187.363 123.687 229.544 101.194 268.628 118.685L254.977 224.266C254.977 224.266 220.86 212.401 187.363 224.266" fill="#A2DBDD"/>
<path opacity="0.5" d="M193 -1.00696L296.4 293H364L198.203 -1.00696" fill="#FFD397"/>
<path opacity="0.5" d="M172 -1.00696L10.3833 293H0L0.213564 217.457L166.803 -1.00696" fill="#F3AB57"/>
<path opacity="0.5" d="M375 273.549V238.771L205.381 -1.60474" fill="#F3AB57"/>
<path opacity="0.5" d="M187 -1.00696L90.4336 293H65L181.801 -1.00696" fill="#F3AB57"/>
<path opacity="0.5" d="M178 -1.00696L55.2336 293H39L173.942 -1.00696" fill="#FFD397"/>
<path d="M374.736 116.838V-1.0072H309.681C344.093 28.3085 367.951 69.7861 374.736 116.838Z" fill="url(#paint0_radial)"/>
<path d="M65.5318 -1.00696H0V120.337C6.08394 71.8423 30.2775 29.0349 65.5318 -1.00696Z" fill="url(#paint1_radial)"/>
</g>
<defs>
<radialGradient id="paint0_radial" cx="0" cy="0" r="1" gradientUnits="userSpaceOnUse" gradientTransform="translate(342.209 57.3006) scale(47.334 47.6693)">
<stop offset="2.39617e-07" stop-color="#6EC2C4"/>
<stop offset="1" stop-color="#6EC2C4"/>
</radialGradient>
<radialGradient id="paint1_radial" cx="0" cy="0" r="1" gradientUnits="userSpaceOnUse" gradientTransform="translate(32.7678 59.6667) scale(48.4945 48.838)">
<stop offset="2.39617e-07" stop-color="#6EC2C4"/>
<stop offset="1" stop-color="#6EC2C4"/>
</radialGradient>
<clipPath id="clip0">
<rect width="375" height="293" fill="white"/>
</clipPath>
</defs>
</svg>
