<?xml version="1.0" encoding="utf-8"?>
<!-- Generator: Adobe Illustrator 24.3.0, SVG Export Plug-In . SVG Version: 6.00 Build 0)  -->
<svg version="1.1" id="Layer_1" xmlns="http://www.w3.org/2000/svg" xmlns:xlink="http://www.w3.org/1999/xlink" x="0px" y="0px"
	 viewBox="0 0 120 95" style="enable-background:new 0 0 120 95;" xml:space="preserve">
<style type="text/css">
	.st0{fill:#0F7385;}
	.st1{fill:#009BAE;stroke:#009BAE;stroke-width:0.6141;stroke-linecap:round;stroke-linejoin:round;stroke-miterlimit:10;}
	.st2{fill:#045D69;}
	.st3{fill:#009AAD;}
	.st4{opacity:0.7;fill:#A6E4EA;}
	.st5{opacity:0.9;fill:#045D69;}
</style>
<g>
	<g>
		<g>
			<path class="st0" d="M18.1,58.25v17.19h-3.24v-9.87l-4.32,9.87h-2.7l-4.3-9.85v9.85H0.29V58.25h3.12l5.8,12.65l5.77-12.65H18.1z"
				/>
			<path class="st0" d="M24.58,58.25v2.82h-3.19v-2.82H24.58z M24.58,62.67v12.77h-3.19V62.67H24.58z"/>
			<path class="st0" d="M49.04,58.25v17.19h-3.07l-7.52-11.57v11.57h-3.24V58.25h3.07l7.52,11.54V58.25H49.04z"/>
			<path class="st0" d="M58.16,62.52c0.7,0,1.42,0.14,2.15,0.42c0.73,0.28,1.41,0.68,2.04,1.19c0.63,0.52,1.15,1.21,1.55,2.08
				c0.4,0.87,0.6,1.83,0.6,2.87c0,0.41-0.02,0.79-0.07,1.15h-9.43c0.16,0.82,0.56,1.47,1.2,1.95c0.64,0.48,1.32,0.72,2.04,0.72
				c1.08,0,1.92-0.32,2.51-0.96l2.58,1.35c-1.33,1.54-3.03,2.31-5.11,2.31c-0.54,0-1.1-0.08-1.68-0.25
				c-0.58-0.16-1.16-0.42-1.73-0.77c-0.57-0.35-1.08-0.78-1.54-1.28c-0.45-0.5-0.81-1.12-1.09-1.85c-0.28-0.74-0.42-1.53-0.42-2.38
				c0-1.39,0.35-2.6,1.04-3.64c0.7-1.03,1.52-1.78,2.47-2.24C56.21,62.75,57.17,62.52,58.16,62.52z M58.16,65.25
				c-0.74,0-1.4,0.23-1.99,0.69c-0.59,0.46-0.97,1.11-1.15,1.94h6.31c-0.18-0.84-0.58-1.48-1.19-1.94
				C59.52,65.48,58.86,65.25,58.16,65.25z"/>
			<path class="st0" d="M75.99,62.67h3.14v12.77c0,0.72-0.14,1.38-0.41,1.96c-0.27,0.59-0.62,1.07-1.04,1.44
				c-0.43,0.37-0.91,0.68-1.46,0.93c-0.55,0.25-1.08,0.43-1.61,0.54c-0.52,0.11-1.03,0.16-1.52,0.16c-1.29,0-2.57-0.33-3.83-0.98
				v-2.73c1.23,0.69,2.51,1.03,3.83,1.03c0.9,0,1.61-0.23,2.12-0.69c0.52-0.46,0.77-1.02,0.77-1.67v-1.89
				c-0.08,0.44-0.46,0.9-1.14,1.36c-0.68,0.47-1.48,0.7-2.39,0.7c-0.69,0-1.38-0.14-2.06-0.41c-0.69-0.27-1.33-0.66-1.93-1.18
				c-0.6-0.52-1.08-1.21-1.45-2.08c-0.37-0.87-0.55-1.83-0.55-2.9c0-1.05,0.18-2,0.55-2.85c0.37-0.85,0.85-1.54,1.44-2.06
				c0.59-0.52,1.23-0.92,1.92-1.2c0.69-0.28,1.38-0.42,2.09-0.42c0.93,0,1.74,0.2,2.41,0.61c0.67,0.41,1.05,0.83,1.13,1.25V62.67z
				 M70.61,71.87c0.67,0.7,1.45,1.04,2.33,1.04c0.88,0,1.64-0.32,2.26-0.97c0.62-0.65,0.93-1.61,0.93-2.89
				c0-1.31-0.31-2.28-0.92-2.9c-0.61-0.62-1.37-0.93-2.27-0.93c-0.88,0-1.66,0.35-2.33,1.04c-0.67,0.7-1.01,1.63-1.01,2.79
				C69.6,70.24,69.94,71.17,70.61,71.87z"/>
			<path class="st0" d="M89.2,62.55c0.46,0,0.84,0.02,1.13,0.07v2.92c-0.26-0.03-0.65-0.05-1.15-0.05c-1.13,0-2.08,0.38-2.86,1.14
				c-0.78,0.76-1.22,1.78-1.34,3.06v5.75h-3.14V62.67h3.14v4.05c0.15-1.24,0.57-2.25,1.26-3.02C86.94,62.93,87.93,62.55,89.2,62.55z
				"/>
			<path class="st0" d="M95.88,58.25v2.82h-3.19v-2.82H95.88z M95.88,62.67v12.77h-3.19V62.67H95.88z"/>
			<path class="st0" d="M105.51,65.23h-2.7v6.44c0,0.82,0.34,1.23,1.03,1.23c0.59,0,1.15-0.11,1.67-0.32v2.58
				c-0.59,0.29-1.4,0.44-2.43,0.44c-1.06,0-1.9-0.27-2.51-0.82c-0.61-0.55-0.91-1.57-0.91-3.06v-6.48h-1.33v-2.55h1.33v-2.21h3.14
				v2.21h2.7V65.23z"/>
			<path class="st0" d="M113.18,62.52c0.93,0,1.74,0.2,2.41,0.61c0.67,0.41,1.05,0.83,1.13,1.25v-1.72h3.14v12.77h-3.14v-1.89
				c-0.08,0.44-0.46,0.9-1.14,1.36c-0.68,0.47-1.48,0.7-2.39,0.7c-0.69,0-1.38-0.14-2.06-0.41c-0.69-0.27-1.33-0.66-1.93-1.18
				c-0.6-0.52-1.08-1.21-1.45-2.08c-0.37-0.87-0.55-1.83-0.55-2.9c0-1.05,0.18-2,0.55-2.85c0.37-0.85,0.85-1.54,1.44-2.06
				c0.59-0.52,1.23-0.92,1.92-1.2C111.78,62.66,112.47,62.52,113.18,62.52z M113.67,65.23c-0.88,0-1.66,0.35-2.33,1.04
				c-0.67,0.7-1.01,1.63-1.01,2.79c0,1.18,0.34,2.12,1.01,2.81c0.67,0.7,1.45,1.04,2.33,1.04c0.88,0,1.64-0.32,2.26-0.97
				c0.62-0.65,0.93-1.61,0.93-2.89c0-1.31-0.31-2.28-0.92-2.9C115.32,65.54,114.57,65.23,113.67,65.23z"/>
		</g>
		<g>
			<g>
				<path class="st0" d="M3.71,88.72c0.53,0.16,0.93,0.41,1.19,0.75c0.26,0.34,0.39,0.74,0.39,1.19c0,0.7-0.23,1.24-0.69,1.61
					c-0.46,0.37-1.13,0.55-2.01,0.55H0.14v-7.47h2.43c0.74,0,1.3,0.17,1.68,0.5c0.38,0.33,0.57,0.78,0.57,1.36
					C4.83,87.98,4.46,88.49,3.71,88.72z M0.85,88.45h1.73c0.54,0,0.94-0.1,1.19-0.3c0.25-0.2,0.37-0.52,0.37-0.95
					c0-0.83-0.52-1.25-1.56-1.25H0.85V88.45z M2.62,92.19c1.32,0,1.98-0.52,1.98-1.56c0-0.47-0.17-0.85-0.5-1.14
					c-0.33-0.29-0.83-0.43-1.47-0.43H0.85v3.13H2.62z"/>
				<path class="st0" d="M9.08,87.19c0.45,0,0.86,0.11,1.22,0.33c0.37,0.22,0.64,0.52,0.81,0.9v-1.16h0.69v5.55h-0.69v-1.16
					c-0.18,0.38-0.45,0.69-0.82,0.91c-0.37,0.22-0.77,0.33-1.21,0.33c-0.66,0-1.27-0.25-1.82-0.76c-0.55-0.51-0.82-1.2-0.82-2.08
					c0-0.46,0.08-0.87,0.25-1.24c0.16-0.37,0.38-0.67,0.64-0.9c0.26-0.23,0.54-0.4,0.84-0.52C8.47,87.25,8.78,87.19,9.08,87.19z
					 M10.53,88.38c-0.4-0.38-0.86-0.58-1.37-0.58S8.18,88,7.76,88.4c-0.42,0.4-0.62,0.95-0.62,1.65c0,0.7,0.21,1.24,0.62,1.63
					c0.42,0.39,0.88,0.59,1.39,0.59s0.97-0.19,1.37-0.57c0.4-0.38,0.6-0.93,0.6-1.65C11.13,89.32,10.93,88.76,10.53,88.38z"/>
				<path class="st0" d="M16.2,88.5c-0.27-0.47-0.67-0.7-1.21-0.7c-0.3,0-0.54,0.08-0.73,0.23c-0.19,0.16-0.28,0.35-0.28,0.57
					c0,0.21,0.06,0.38,0.19,0.52c0.13,0.14,0.36,0.27,0.68,0.38l0.53,0.19c0.56,0.19,0.97,0.4,1.24,0.64c0.27,0.23,0.41,0.56,0.41,1
					c0,0.47-0.2,0.85-0.61,1.14c-0.41,0.29-0.87,0.43-1.38,0.43c-0.48,0-0.91-0.13-1.31-0.4c-0.4-0.26-0.66-0.61-0.77-1.05
					l0.62-0.16c0.09,0.3,0.27,0.54,0.55,0.72c0.28,0.18,0.59,0.27,0.92,0.27c0.33,0,0.62-0.09,0.88-0.26
					c0.26-0.17,0.39-0.41,0.39-0.7c0-0.25-0.09-0.45-0.26-0.61c-0.17-0.16-0.43-0.3-0.77-0.42l-0.62-0.22
					c-0.51-0.17-0.86-0.37-1.08-0.6c-0.21-0.23-0.32-0.51-0.32-0.85c0-0.4,0.17-0.73,0.5-1c0.33-0.27,0.74-0.41,1.22-0.41
					c0.85,0,1.47,0.38,1.85,1.14L16.2,88.5z"/>
				<path class="st0" d="M19.1,87.26v5.55H18.4v-5.55H19.1z M20.19,84.62l-1.14,1.55h-0.61l0.76-1.55H20.19z"/>
				<path class="st0" d="M21.56,85.34v7.47h-0.72v-7.47H21.56z"/>
				<path class="st0" d="M23.96,85.34V86h-0.7v-0.66H23.96z M23.96,87.26v5.55h-0.7v-5.55H23.96z"/>
				<path class="st0" d="M28.06,87.19c0.44,0,0.88,0.12,1.31,0.35c0.43,0.23,0.77,0.57,1.01,1l-0.64,0.21
					c-0.19-0.31-0.43-0.55-0.74-0.72c-0.31-0.16-0.62-0.25-0.94-0.25c-0.51,0-0.96,0.2-1.38,0.59c-0.41,0.4-0.62,0.94-0.62,1.64
					c0,0.7,0.21,1.25,0.62,1.64c0.41,0.39,0.87,0.59,1.38,0.59c0.32,0,0.64-0.08,0.95-0.25c0.31-0.16,0.56-0.4,0.74-0.72l0.63,0.22
					c-0.24,0.43-0.58,0.77-1.01,1c-0.43,0.23-0.87,0.35-1.31,0.35c-0.31,0-0.61-0.06-0.92-0.18c-0.31-0.12-0.6-0.29-0.86-0.52
					c-0.27-0.22-0.48-0.52-0.65-0.9c-0.17-0.38-0.25-0.79-0.25-1.25c0-0.88,0.28-1.58,0.84-2.08
					C26.77,87.45,27.39,87.19,28.06,87.19z"/>
				<path class="st0" d="M33.89,87.19c0.45,0,0.86,0.11,1.22,0.33c0.37,0.22,0.64,0.52,0.81,0.9v-1.16h0.69v5.55h-0.69v-1.16
					c-0.18,0.38-0.45,0.69-0.82,0.91c-0.37,0.22-0.77,0.33-1.21,0.33c-0.66,0-1.27-0.25-1.82-0.76c-0.55-0.51-0.82-1.2-0.82-2.08
					c0-0.46,0.08-0.87,0.25-1.24c0.16-0.37,0.38-0.67,0.64-0.9c0.26-0.23,0.54-0.4,0.84-0.52C33.28,87.25,33.58,87.19,33.89,87.19z
					 M35.33,88.38c-0.4-0.38-0.86-0.58-1.37-0.58c-0.51,0-0.98,0.2-1.39,0.59c-0.42,0.4-0.62,0.95-0.62,1.65
					c0,0.7,0.21,1.24,0.62,1.63c0.42,0.39,0.88,0.59,1.39,0.59c0.51,0,0.97-0.19,1.37-0.57c0.4-0.38,0.6-0.93,0.6-1.65
					C35.94,89.32,35.74,88.76,35.33,88.38z"/>
				<path class="st0" d="M43.8,85.34c1.07,0,1.96,0.36,2.67,1.08c0.7,0.72,1.06,1.61,1.06,2.67c0,1.05-0.35,1.93-1.06,2.65
					c-0.7,0.72-1.59,1.08-2.67,1.08h-2.1v-7.47H43.8z M43.8,92.19c0.92,0,1.65-0.29,2.21-0.88c0.55-0.59,0.83-1.33,0.83-2.23
					c0-0.91-0.28-1.66-0.83-2.25c-0.55-0.59-1.29-0.88-2.21-0.88h-1.39v6.24H43.8z"/>
				<path class="st0" d="M51.41,87.19c0.68,0,1.29,0.25,1.85,0.76c0.56,0.51,0.83,1.2,0.83,2.08c0,0.07-0.01,0.16-0.02,0.28h-4.62
					c0.04,0.62,0.27,1.1,0.67,1.44c0.4,0.34,0.84,0.51,1.32,0.51c0.65,0,1.17-0.23,1.58-0.68l0.56,0.34
					c-0.53,0.64-1.25,0.96-2.14,0.96c-0.31,0-0.62-0.06-0.93-0.18c-0.31-0.12-0.6-0.29-0.87-0.52c-0.27-0.22-0.48-0.52-0.65-0.9
					c-0.17-0.38-0.25-0.79-0.25-1.25c0-0.46,0.08-0.87,0.25-1.24c0.17-0.37,0.38-0.67,0.65-0.9c0.26-0.22,0.55-0.4,0.86-0.52
					C50.8,87.25,51.1,87.19,51.41,87.19z M51.41,87.81c-0.47,0-0.9,0.17-1.29,0.5c-0.39,0.33-0.62,0.82-0.67,1.44h3.95
					c-0.06-0.63-0.28-1.11-0.68-1.44C52.32,87.98,51.89,87.81,51.41,87.81z"/>
				<path class="st0" d="M59.71,92.19h3.94v0.62H59v-7.47h0.7V92.19z"/>
				<path class="st0" d="M66.67,87.38c0.31-0.12,0.62-0.18,0.93-0.18c0.31,0,0.61,0.06,0.92,0.18c0.31,0.12,0.6,0.29,0.86,0.52
					c0.27,0.22,0.48,0.52,0.65,0.9c0.17,0.37,0.25,0.79,0.25,1.24c0,0.46-0.08,0.87-0.25,1.25c-0.17,0.38-0.38,0.68-0.65,0.9
					c-0.27,0.22-0.56,0.4-0.86,0.52c-0.31,0.12-0.62,0.18-0.92,0.18c-0.31,0-0.62-0.06-0.93-0.18c-0.31-0.12-0.6-0.29-0.87-0.52
					c-0.27-0.22-0.48-0.52-0.65-0.9c-0.17-0.38-0.25-0.79-0.25-1.25c0-0.46,0.08-0.87,0.25-1.24c0.17-0.37,0.38-0.67,0.65-0.9
					C66.07,87.67,66.36,87.5,66.67,87.38z M67.6,87.8c-0.51,0-0.98,0.2-1.39,0.59c-0.41,0.39-0.62,0.94-0.62,1.64
					s0.21,1.25,0.62,1.64c0.41,0.39,0.88,0.59,1.39,0.59c0.51,0,0.96-0.2,1.38-0.59c0.41-0.39,0.62-0.94,0.62-1.64
					s-0.21-1.25-0.62-1.64C68.56,88,68.1,87.8,67.6,87.8z"/>
				<path class="st0" d="M74.42,88.5c-0.27-0.47-0.67-0.7-1.21-0.7c-0.3,0-0.54,0.08-0.73,0.23c-0.19,0.16-0.28,0.35-0.28,0.57
					c0,0.21,0.06,0.38,0.19,0.52c0.13,0.14,0.36,0.27,0.68,0.38l0.53,0.19c0.56,0.19,0.97,0.4,1.24,0.64c0.27,0.23,0.41,0.56,0.41,1
					c0,0.47-0.2,0.85-0.61,1.14c-0.41,0.29-0.87,0.43-1.38,0.43c-0.48,0-0.91-0.13-1.31-0.4c-0.4-0.26-0.66-0.61-0.77-1.05
					l0.62-0.16c0.09,0.3,0.27,0.54,0.55,0.72c0.28,0.18,0.59,0.27,0.92,0.27c0.33,0,0.62-0.09,0.88-0.26
					c0.26-0.17,0.39-0.41,0.39-0.7c0-0.25-0.09-0.45-0.26-0.61c-0.17-0.16-0.43-0.3-0.77-0.42l-0.62-0.22
					c-0.51-0.17-0.86-0.37-1.08-0.6c-0.21-0.23-0.32-0.51-0.32-0.85c0-0.4,0.17-0.73,0.5-1c0.33-0.27,0.74-0.41,1.22-0.41
					c0.85,0,1.47,0.38,1.85,1.14L74.42,88.5z"/>
				<path class="st0" d="M85.75,92.81l-1-2.27H81.3l-1,2.27h-0.76l3.4-7.47h0.18l3.41,7.47H85.75z M81.57,89.93h2.92l-1.45-3.29
					L81.57,89.93z M84.48,82.7l-1.14,1.55h-0.61l0.76-1.55H84.48z"/>
				<path class="st0" d="M90.43,87.2c0.59,0,1.09,0.2,1.51,0.59c0.42,0.39,0.62,0.99,0.62,1.78v3.24h-0.69v-3.24
					c0-0.59-0.14-1.03-0.43-1.32c-0.29-0.29-0.66-0.44-1.13-0.44c-0.48,0-0.91,0.18-1.28,0.54c-0.37,0.36-0.59,0.75-0.66,1.17v3.28
					h-0.69v-5.55h0.69v1.4c0.05-0.29,0.27-0.61,0.65-0.95C89.4,87.37,89.87,87.2,90.43,87.2z"/>
				<path class="st0" d="M98.49,87.26h0.69v5.55c0,0.39-0.08,0.74-0.23,1.04c-0.15,0.3-0.36,0.53-0.61,0.69
					c-0.25,0.16-0.51,0.28-0.77,0.35C97.31,94.96,97.05,95,96.78,95c-0.75,0-1.3-0.16-1.67-0.47v-0.62
					c0.38,0.32,0.93,0.48,1.67,0.48c0.48,0,0.89-0.14,1.22-0.41c0.33-0.27,0.49-0.66,0.49-1.17v-1.16
					c-0.18,0.38-0.45,0.69-0.82,0.91c-0.37,0.22-0.77,0.33-1.21,0.33c-0.66,0-1.27-0.25-1.82-0.76c-0.55-0.51-0.82-1.2-0.82-2.08
					c0-0.46,0.08-0.87,0.25-1.24c0.16-0.37,0.38-0.67,0.64-0.9c0.26-0.23,0.54-0.4,0.84-0.52c0.3-0.12,0.61-0.18,0.91-0.18
					c0.45,0,0.86,0.11,1.22,0.33c0.37,0.22,0.64,0.52,0.81,0.9V87.26z M95.14,91.68c0.42,0.39,0.88,0.59,1.39,0.59
					c0.51,0,0.97-0.19,1.37-0.57c0.4-0.38,0.6-0.93,0.6-1.65c0-0.73-0.2-1.28-0.6-1.67c-0.4-0.38-0.86-0.58-1.37-0.58
					c-0.51,0-0.98,0.2-1.39,0.59c-0.42,0.4-0.62,0.95-0.62,1.65C94.52,90.74,94.73,91.29,95.14,91.68z"/>
				<path class="st0" d="M103.13,87.19c0.68,0,1.29,0.25,1.85,0.76c0.56,0.51,0.83,1.2,0.83,2.08c0,0.07-0.01,0.16-0.02,0.28h-4.62
					c0.04,0.62,0.27,1.1,0.67,1.44c0.4,0.34,0.84,0.51,1.32,0.51c0.65,0,1.17-0.23,1.58-0.68l0.56,0.34
					c-0.53,0.64-1.25,0.96-2.14,0.96c-0.31,0-0.62-0.06-0.93-0.18c-0.31-0.12-0.6-0.29-0.87-0.52c-0.27-0.22-0.48-0.52-0.65-0.9
					c-0.17-0.38-0.25-0.79-0.25-1.25c0-0.46,0.08-0.87,0.25-1.24c0.17-0.37,0.38-0.67,0.65-0.9c0.26-0.22,0.55-0.4,0.86-0.52
					C102.51,87.25,102.82,87.19,103.13,87.19z M103.13,87.81c-0.47,0-0.9,0.17-1.29,0.5c-0.39,0.33-0.62,0.82-0.67,1.44h3.95
					c-0.06-0.63-0.28-1.11-0.68-1.44C104.04,87.98,103.6,87.81,103.13,87.81z"/>
				<path class="st0" d="M107.9,85.34v7.47h-0.72v-7.47H107.9z"/>
				<path class="st0" d="M111.96,87.19c0.68,0,1.29,0.25,1.85,0.76c0.56,0.51,0.83,1.2,0.83,2.08c0,0.07-0.01,0.16-0.02,0.28h-4.62
					c0.04,0.62,0.27,1.1,0.67,1.44c0.4,0.34,0.84,0.51,1.32,0.51c0.65,0,1.17-0.23,1.58-0.68l0.56,0.34
					c-0.53,0.64-1.25,0.96-2.14,0.96c-0.31,0-0.62-0.06-0.93-0.18c-0.31-0.12-0.6-0.29-0.87-0.52c-0.27-0.22-0.48-0.52-0.65-0.9
					c-0.17-0.38-0.25-0.79-0.25-1.25c0-0.46,0.08-0.87,0.25-1.24c0.17-0.37,0.38-0.67,0.65-0.9c0.26-0.22,0.55-0.4,0.86-0.52
					C111.34,87.25,111.65,87.19,111.96,87.19z M111.96,87.81c-0.47,0-0.9,0.17-1.29,0.5c-0.39,0.33-0.62,0.82-0.67,1.44h3.95
					c-0.06-0.63-0.28-1.11-0.68-1.44C112.87,87.98,112.43,87.81,111.96,87.81z"/>
				<path class="st0" d="M118.84,88.5c-0.27-0.47-0.67-0.7-1.21-0.7c-0.3,0-0.54,0.08-0.73,0.23c-0.19,0.16-0.28,0.35-0.28,0.57
					c0,0.21,0.06,0.38,0.19,0.52c0.13,0.14,0.36,0.27,0.68,0.38l0.53,0.19c0.56,0.19,0.97,0.4,1.24,0.64c0.27,0.23,0.41,0.56,0.41,1
					c0,0.47-0.2,0.85-0.61,1.14c-0.41,0.29-0.87,0.43-1.38,0.43c-0.48,0-0.91-0.13-1.31-0.4c-0.4-0.26-0.66-0.61-0.77-1.05
					l0.62-0.16c0.09,0.3,0.27,0.54,0.55,0.72c0.28,0.18,0.59,0.27,0.92,0.27c0.33,0,0.62-0.09,0.88-0.26
					c0.26-0.17,0.39-0.41,0.39-0.7c0-0.25-0.09-0.45-0.26-0.61c-0.17-0.16-0.43-0.3-0.77-0.42l-0.62-0.22
					c-0.51-0.17-0.86-0.37-1.08-0.6c-0.21-0.23-0.32-0.51-0.32-0.85c0-0.4,0.17-0.73,0.5-1c0.33-0.27,0.74-0.41,1.22-0.41
					c0.85,0,1.47,0.38,1.85,1.14L118.84,88.5z"/>
			</g>
		</g>
		<line class="st1" x1="81.62" y1="80.32" x2="119.61" y2="80.32"/>
		<line class="st1" x1="0.24" y1="80.32" x2="66" y2="80.32"/>
	</g>
	<g>
		<g>
			<polygon class="st2" points="59.22,0 59.23,0 59.24,0 			"/>
			<path class="st2" d="M76.25,41.59c-0.15-3.29-0.38-6.61-0.72-9.87h-0.01c0,0,0,0,0-0.01c0,0-0.1-1.04-0.15-1.35c0,0,0,0,0,0
				c-0.05-0.48-0.2-1.36-0.23-1.54c-0.03-0.23-0.1-0.57-0.14-0.87C72.85,12.71,68.18,0.01,59.23,0
				c-7.42,0.01-11.74,9.19-13.97,20.98c-0.01-0.01-0.02-0.02-0.02-0.04c0,0-0.05,0.3-0.12,0.8c-0.02,0.1-0.04,0.19-0.05,0.29
				c0,0,0,0.01,0.01,0.01c-0.25,1.75-0.74,5.21-0.96,7.41c0,0,0,0,0,0c0,0,0,0.02,0,0.06c-0.01,0.07-0.01,0.13-0.02,0.19
				c0,0,0,0,0,0c-0.08,1.14-0.43,5.89-0.51,8.41c0,0,0,0,0,0c-0.04,1.26-0.06,2.52-0.07,3.77c-0.04,4.83,3.48,8.77,7.85,8.77l1.54,0
				c2.86-0.93,5.4-2.07,7.65-3.35c-2.25,1.28-4.79,2.43-7.66,3.36l15.53,0C72.9,50.68,76.48,46.54,76.25,41.59z"/>
		</g>
		<path class="st0" d="M75.12,28.81c-1.43-0.87-4.31-2.12-8.72-0.86c-3.64,1.04-3.8,1.25-5.74,1.64c-1.36,0.27-5.93,1.17-9.76-1.09
			c-1.98-1.17-3.34-2.93-4.02-3.82c-0.55-0.71-1.81-2.65-1.81-2.65C47.24,9.73,51.59,0,59.24,0l-0.02,0
			C68.34,0,73.02,13.18,75.12,28.81z"/>
		<circle class="st3" cx="59.73" cy="10.7" r="5.84"/>
		<path class="st4" d="M60.68,28.6c0.01-0.58,0.07-1.06,0.13-1.43c0.46-2.66,2.04-4.5,2.91-5.53c0.25-0.29,0.5-0.56,0.75-0.81
			l4.1,1.18c0.1,0.43,0.18,0.88,0.24,1.35c0.14,1.12,0.14,2.18,0.05,3.15"/>
		<circle class="st3" cx="67.01" cy="19.62" r="2.85"/>
		<path class="st0" d="M75.52,31.72c-0.99,2.03-3.12,5.72-6.88,9.46c-3.6,3.58-8.7,7.21-15.74,9.49l15.53,0
			c4.48,0,8.06-4.14,7.83-9.08c-0.15-3.29-0.38-6.61-0.72-9.87L75.52,31.72z"/>
		<path class="st5" d="M75.53,31.72c-0.99,2.03-3.12,5.72-6.88,9.46c-3.6,3.58-8.7,7.21-15.74,9.49l-1.54,0
			c-4.37,0-7.88-3.94-7.85-8.77c0.01-1.29,0.04-2.6,0.08-3.91l0-0.01c0.47,0.47,0.98,0.94,1.42,1.31c0.17,0.14,2.36,1.93,5.06,2.74
			c5.82,1.75,11.07-1.9,12.19-2.67c1.21-0.84,2.78-2.27,5.91-5.15c1.36-1.25,2.76-2.58,5.01-3.41c0.82-0.3,1.55-0.39,2.18-0.49
			C75.41,30.51,75.53,31.72,75.53,31.72z"/>
		<path class="st3" d="M75.38,30.37c-0.63,0.1-1.38,0.27-2.19,0.57c-2.24,0.83-3.65,2.16-5.01,3.41c-3.13,2.87-4.7,4.31-5.91,5.15
			c-1.12,0.78-6.38,4.42-12.19,2.67c-2.7-0.81-4.89-2.6-5.06-2.74c-0.44-0.37-1.42-1.3-1.42-1.3c0.09-2.88,0.53-8.67,0.53-8.67
			c0.46,0.59,1.19,1.44,1.79,2.01c0.13,0.12,1.79,1.67,4.08,2.59c4.93,1.98,10.26,0.02,11.4-0.39c1.23-0.45,2.88-1.28,6.18-2.94
			c1.43-0.72,2.92-1.5,5.07-1.81c0.98-0.14,1.84-0.15,2.49-0.12C75.14,28.79,75.32,29.83,75.38,30.37z"/>
		<path class="st2" d="M72.63,28.97c-2.16,0.31-3.64,1.09-5.07,1.81c-3.3,1.66-4.95,2.49-6.18,2.94c-1.14,0.42-6.47,2.37-11.4,0.39
			c-2.29-0.92-3.96-2.47-4.08-2.59c-0.6-0.57-1.79-2.01-1.79-2.01c0.28-3,1.14-8.76,1.14-8.76c0.47,0.76,1.25,1.94,1.8,2.65
			c0.68,0.89,2.02,2.65,3.98,3.82c3.8,2.26,8.32,1.36,9.66,1.09c1.92-0.38,2.08-0.6,5.68-1.64c4.36-1.26,7.18-0.04,8.6,0.83
			c0.06,0.43,0.19,1.06,0.2,1.31C75.17,28.83,73.61,28.82,72.63,28.97z"/>
	</g>
</g>
</svg>
