<?xml version="1.0" encoding="utf-8"?>
<!-- Generator: Adobe Illustrator 24.3.0, SVG Export Plug-In . SVG Version: 6.00 Build 0)  -->
<svg version="1.1" id="Layer_1" xmlns="http://www.w3.org/2000/svg" xmlns:xlink="http://www.w3.org/1999/xlink" x="0px" y="0px"
	 viewBox="0 0 174 199" style="enable-background:new 0 0 174 199;" xml:space="preserve">
<style type="text/css">
	.st0{fill:#0F7385;}
	.st1{fill:#009BAE;stroke:#009BAE;stroke-width:0.9268;stroke-linecap:round;stroke-linejoin:round;stroke-miterlimit:10;}
	.st2{fill:#045D69;}
	.st3{fill:#009AAD;}
	.st4{opacity:0.7;fill:#A6E4EA;}
	.st5{opacity:0.9;fill:#045D69;}
</style>
<g>
	<g>
		<g>
			<path class="st0" d="M26.58,145.82v24.79h-4.67v-14.24l-6.23,14.24h-3.9l-6.2-14.2v14.2H0.9v-24.79h4.5l8.36,18.24l8.32-18.24
				H26.58z"/>
			<path class="st0" d="M35.93,145.82v4.07h-4.6v-4.07H35.93z M35.93,152.2v18.42h-4.6V152.2H35.93z"/>
			<path class="st0" d="M71.2,145.82v24.79h-4.43l-10.84-16.68v16.68h-4.67v-24.79h4.43l10.84,16.65v-16.65H71.2z"/>
			<path class="st0" d="M84.34,151.99c1.01,0,2.05,0.2,3.1,0.6c1.05,0.4,2.03,0.97,2.94,1.72c0.91,0.74,1.65,1.74,2.23,2.99
				c0.58,1.25,0.87,2.63,0.87,4.14c0,0.59-0.04,1.15-0.11,1.66h-13.6c0.24,1.18,0.81,2.12,1.74,2.82c0.92,0.7,1.9,1.04,2.94,1.04
				c1.56,0,2.76-0.46,3.61-1.38l3.72,1.95c-1.91,2.22-4.37,3.33-7.37,3.33c-0.78,0-1.59-0.12-2.43-0.35
				c-0.84-0.24-1.67-0.61-2.5-1.12c-0.83-0.51-1.56-1.12-2.21-1.84c-0.65-0.72-1.17-1.61-1.58-2.67s-0.6-2.21-0.6-3.44
				c0-2.01,0.5-3.75,1.5-5.24c1-1.49,2.19-2.56,3.56-3.22C81.53,152.32,82.93,151.99,84.34,151.99z M84.34,155.92
				c-1.06,0-2.02,0.33-2.87,0.99c-0.85,0.66-1.41,1.59-1.67,2.8h9.1c-0.26-1.2-0.83-2.14-1.72-2.8
				C86.31,156.25,85.36,155.92,84.34,155.92z"/>
			<path class="st0" d="M110.06,152.2h4.53v18.42c0,1.04-0.19,1.98-0.58,2.83c-0.39,0.85-0.89,1.54-1.51,2.07s-1.32,0.98-2.11,1.35
				c-0.79,0.37-1.56,0.63-2.32,0.78c-0.76,0.15-1.49,0.23-2.2,0.23c-1.87,0-3.71-0.47-5.53-1.42v-3.93
				c1.77,0.99,3.61,1.49,5.53,1.49c1.3,0,2.32-0.33,3.06-0.99c0.74-0.66,1.12-1.46,1.12-2.41v-2.73c-0.12,0.64-0.67,1.29-1.65,1.97
				c-0.98,0.67-2.13,1.01-3.45,1.01c-0.99,0-1.98-0.19-2.98-0.58c-0.99-0.39-1.92-0.96-2.78-1.7c-0.86-0.74-1.56-1.74-2.09-2.99
				c-0.53-1.25-0.8-2.64-0.8-4.18c0-1.51,0.27-2.88,0.8-4.11c0.53-1.23,1.22-2.22,2.07-2.98c0.85-0.76,1.77-1.33,2.76-1.74
				c0.99-0.4,2-0.6,3.01-0.6c1.35,0,2.5,0.3,3.47,0.89c0.97,0.59,1.51,1.19,1.63,1.81V152.2z M102.3,165.46
				c0.97,1,2.09,1.5,3.36,1.5s2.36-0.47,3.26-1.4c0.9-0.93,1.35-2.32,1.35-4.16c0-1.89-0.44-3.28-1.33-4.18
				c-0.89-0.9-1.98-1.35-3.28-1.35c-1.28,0-2.4,0.5-3.36,1.51c-0.97,1-1.45,2.34-1.45,4.02
				C100.85,163.11,101.33,164.46,102.3,165.46z"/>
			<path class="st0" d="M129.11,152.02c0.66,0,1.2,0.04,1.63,0.11v4.21c-0.38-0.05-0.93-0.07-1.67-0.07c-1.63,0-3,0.55-4.13,1.65
				c-1.12,1.1-1.76,2.57-1.93,4.41v8.29h-4.53V152.2h4.53v5.84c0.21-1.79,0.82-3.25,1.82-4.36
				C125.84,152.58,127.27,152.02,129.11,152.02z"/>
			<path class="st0" d="M138.74,145.82v4.07h-4.6v-4.07H138.74z M138.74,152.2v18.42h-4.6V152.2H138.74z"/>
			<path class="st0" d="M152.62,155.88h-3.9v9.28c0,1.18,0.5,1.77,1.49,1.77c0.85,0,1.65-0.15,2.41-0.46v3.72
				c-0.85,0.42-2.02,0.64-3.51,0.64c-1.54,0-2.74-0.4-3.61-1.19c-0.87-0.79-1.31-2.26-1.31-4.41v-9.35h-1.91v-3.68h1.91v-3.19h4.53
				v3.19h3.9V155.88z"/>
			<path class="st0" d="M163.67,151.99c1.35,0,2.5,0.3,3.47,0.89c0.97,0.59,1.51,1.19,1.63,1.81v-2.48h4.53v18.42h-4.53v-2.73
				c-0.12,0.64-0.67,1.29-1.65,1.97c-0.98,0.67-2.13,1.01-3.45,1.01c-0.99,0-1.98-0.19-2.98-0.58c-0.99-0.39-1.92-0.96-2.78-1.7
				c-0.86-0.74-1.56-1.74-2.09-2.99c-0.53-1.25-0.8-2.64-0.8-4.18c0-1.51,0.27-2.88,0.8-4.11c0.53-1.23,1.22-2.22,2.07-2.98
				c0.85-0.76,1.77-1.33,2.76-1.74C161.65,152.19,162.66,151.99,163.67,151.99z M164.38,155.88c-1.28,0-2.4,0.5-3.36,1.51
				c-0.97,1-1.45,2.34-1.45,4.02c0,1.7,0.48,3.05,1.45,4.06c0.97,1,2.09,1.5,3.36,1.5s2.36-0.47,3.26-1.4
				c0.9-0.93,1.35-2.32,1.35-4.16c0-1.89-0.44-3.28-1.33-4.18C166.77,156.33,165.68,155.88,164.38,155.88z"/>
		</g>
		<g>
			<g>
				<path class="st0" d="M5.84,189.76c0.77,0.23,1.34,0.59,1.72,1.08s0.56,1.06,0.56,1.71c0,1.02-0.33,1.79-0.99,2.32
					s-1.63,0.79-2.9,0.79H0.69v-10.78H4.2c1.07,0,1.88,0.24,2.42,0.72c0.55,0.48,0.82,1.13,0.82,1.96
					C7.45,188.69,6.91,189.42,5.84,189.76z M1.71,189.38H4.2c0.78,0,1.35-0.14,1.71-0.43c0.36-0.29,0.54-0.74,0.54-1.37
					c0-1.2-0.75-1.8-2.25-1.8H1.71V189.38z M4.27,194.77c1.9,0,2.85-0.75,2.85-2.25c0-0.68-0.24-1.22-0.72-1.64
					c-0.48-0.42-1.19-0.62-2.13-0.62H1.71v4.51H4.27z"/>
				<path class="st0" d="M13.58,187.56c0.65,0,1.23,0.16,1.76,0.47c0.53,0.31,0.92,0.75,1.16,1.3v-1.68h1v8.01h-1v-1.68
					c-0.26,0.55-0.65,0.99-1.18,1.31c-0.53,0.32-1.11,0.48-1.75,0.48c-0.95,0-1.83-0.36-2.62-1.09c-0.79-0.73-1.19-1.73-1.19-3
					c0-0.66,0.12-1.25,0.35-1.79s0.54-0.97,0.92-1.3c0.38-0.33,0.78-0.58,1.22-0.75C12.7,187.65,13.14,187.56,13.58,187.56z
					 M15.67,189.27c-0.58-0.55-1.24-0.83-1.98-0.83c-0.74,0-1.41,0.29-2.01,0.85c-0.6,0.57-0.9,1.36-0.9,2.38
					c0,1.01,0.3,1.79,0.9,2.36c0.6,0.56,1.27,0.85,2.01,0.85c0.74,0,1.4-0.27,1.98-0.82c0.58-0.55,0.87-1.34,0.87-2.38
					C16.54,190.62,16.25,189.82,15.67,189.27z"/>
				<path class="st0" d="M23.85,189.44c-0.39-0.68-0.97-1.02-1.74-1.02c-0.43,0-0.78,0.11-1.06,0.34c-0.27,0.23-0.41,0.5-0.41,0.82
					c0,0.3,0.09,0.55,0.28,0.75c0.19,0.2,0.51,0.38,0.99,0.55l0.77,0.28c0.8,0.28,1.4,0.58,1.79,0.92c0.39,0.33,0.58,0.81,0.58,1.44
					c0,0.68-0.29,1.22-0.89,1.64c-0.59,0.42-1.25,0.62-1.99,0.62c-0.69,0-1.32-0.19-1.89-0.57s-0.94-0.88-1.11-1.51l0.89-0.23
					c0.12,0.43,0.39,0.78,0.79,1.04c0.41,0.26,0.85,0.39,1.33,0.39c0.47,0,0.9-0.13,1.27-0.38s0.56-0.59,0.56-1.01
					c0-0.36-0.13-0.65-0.38-0.89c-0.25-0.23-0.62-0.43-1.12-0.61l-0.89-0.32c-0.73-0.25-1.25-0.53-1.56-0.86
					c-0.31-0.33-0.46-0.74-0.46-1.23c0-0.58,0.24-1.06,0.72-1.45c0.48-0.39,1.07-0.58,1.76-0.58c1.23,0,2.12,0.55,2.66,1.65
					L23.85,189.44z"/>
				<path class="st0" d="M28.02,187.65v8.01h-1v-8.01H28.02z M29.59,183.85l-1.65,2.23h-0.88l1.09-2.23H29.59z"/>
				<path class="st0" d="M31.58,184.88v10.78h-1.03v-10.78H31.58z"/>
				<path class="st0" d="M35.03,184.88v0.95h-1.02v-0.95H35.03z M35.03,187.65v8.01h-1.02v-8.01H35.03z"/>
				<path class="st0" d="M40.94,187.56c0.64,0,1.26,0.17,1.89,0.51c0.62,0.34,1.11,0.82,1.46,1.45l-0.92,0.31
					c-0.27-0.45-0.62-0.8-1.06-1.03s-0.89-0.35-1.35-0.35c-0.73,0-1.39,0.29-1.99,0.85c-0.6,0.57-0.89,1.36-0.89,2.36
					c0,1.02,0.3,1.81,0.89,2.37c0.6,0.56,1.26,0.85,1.99,0.85c0.46,0,0.92-0.12,1.36-0.35c0.45-0.24,0.8-0.58,1.07-1.03l0.91,0.32
					c-0.35,0.63-0.83,1.11-1.46,1.45s-1.25,0.51-1.89,0.51c-0.44,0-0.89-0.09-1.33-0.26c-0.45-0.17-0.86-0.42-1.25-0.75
					s-0.7-0.76-0.94-1.3s-0.36-1.14-0.36-1.8c0-1.27,0.41-2.27,1.22-3C39.09,187.92,39.98,187.56,40.94,187.56z"/>
				<path class="st0" d="M49.35,187.56c0.65,0,1.23,0.16,1.76,0.47c0.53,0.31,0.92,0.75,1.16,1.3v-1.68h1v8.01h-1v-1.68
					c-0.26,0.55-0.65,0.99-1.18,1.31c-0.53,0.32-1.11,0.48-1.75,0.48c-0.95,0-1.83-0.36-2.62-1.09c-0.79-0.73-1.19-1.73-1.19-3
					c0-0.66,0.12-1.25,0.35-1.79s0.54-0.97,0.92-1.3c0.38-0.33,0.78-0.58,1.22-0.75C48.47,187.65,48.91,187.56,49.35,187.56z
					 M51.44,189.27c-0.58-0.55-1.24-0.83-1.98-0.83c-0.74,0-1.41,0.29-2.01,0.85c-0.6,0.57-0.9,1.36-0.9,2.38
					c0,1.01,0.3,1.79,0.9,2.36c0.6,0.56,1.27,0.85,2.01,0.85c0.74,0,1.4-0.27,1.98-0.82c0.58-0.55,0.87-1.34,0.87-2.38
					C52.3,190.62,52.01,189.82,51.44,189.27z"/>
				<path class="st0" d="M63.64,184.88c1.55,0,2.83,0.52,3.85,1.56c1.02,1.04,1.52,2.32,1.52,3.85c0,1.51-0.51,2.78-1.52,3.82
					c-1.02,1.04-2.3,1.56-3.85,1.56H60.6v-10.78H63.64z M63.64,194.77c1.32,0,2.38-0.42,3.18-1.27c0.79-0.85,1.19-1.92,1.19-3.21
					c0-1.31-0.4-2.39-1.19-3.24c-0.8-0.85-1.86-1.27-3.18-1.27h-2v8.99H63.64z"/>
				<path class="st0" d="M74.61,187.56c0.98,0,1.86,0.36,2.66,1.09s1.2,1.73,1.2,3c0,0.1-0.01,0.24-0.03,0.4h-6.67
					c0.06,0.89,0.38,1.59,0.96,2.08c0.58,0.49,1.21,0.74,1.9,0.74c0.93,0,1.69-0.33,2.28-0.99l0.8,0.49
					c-0.77,0.92-1.8,1.39-3.08,1.39c-0.44,0-0.89-0.09-1.34-0.26c-0.45-0.17-0.87-0.42-1.25-0.75s-0.7-0.76-0.94-1.3
					s-0.36-1.14-0.36-1.8c0-0.66,0.12-1.25,0.36-1.79c0.24-0.54,0.55-0.97,0.93-1.29c0.38-0.32,0.79-0.57,1.24-0.75
					C73.73,187.65,74.17,187.56,74.61,187.56z M74.61,188.45c-0.68,0-1.3,0.24-1.86,0.72c-0.56,0.48-0.89,1.18-0.97,2.08h5.7
					c-0.08-0.9-0.41-1.6-0.98-2.08C75.93,188.69,75.3,188.45,74.61,188.45z"/>
				<path class="st0" d="M86.58,194.77h5.68v0.89h-6.7v-10.78h1.02V194.77z"/>
				<path class="st0" d="M96.62,187.82c0.45-0.17,0.9-0.26,1.34-0.26s0.88,0.09,1.33,0.26c0.45,0.17,0.86,0.42,1.25,0.75
					c0.38,0.32,0.7,0.75,0.94,1.29c0.24,0.54,0.36,1.14,0.36,1.79c0,0.66-0.12,1.26-0.36,1.8c-0.24,0.54-0.55,0.98-0.94,1.3
					s-0.8,0.57-1.25,0.75c-0.45,0.17-0.89,0.26-1.33,0.26s-0.89-0.09-1.34-0.26c-0.45-0.17-0.87-0.42-1.25-0.75s-0.7-0.76-0.94-1.3
					s-0.36-1.14-0.36-1.8c0-0.66,0.12-1.25,0.36-1.79c0.24-0.54,0.55-0.97,0.94-1.29C95.75,188.24,96.17,188,96.62,187.82z
					 M97.96,188.44c-0.74,0-1.41,0.28-2,0.85s-0.89,1.35-0.89,2.37s0.3,1.81,0.89,2.37c0.6,0.56,1.26,0.85,2,0.85
					c0.73,0,1.39-0.28,1.99-0.85c0.59-0.56,0.89-1.35,0.89-2.37s-0.3-1.81-0.89-2.37C99.35,188.72,98.69,188.44,97.96,188.44z"/>
				<path class="st0" d="M107.8,189.44c-0.39-0.68-0.97-1.02-1.74-1.02c-0.43,0-0.78,0.11-1.06,0.34c-0.27,0.23-0.41,0.5-0.41,0.82
					c0,0.3,0.09,0.55,0.28,0.75c0.19,0.2,0.51,0.38,0.99,0.55l0.77,0.28c0.8,0.28,1.4,0.58,1.79,0.92c0.39,0.33,0.58,0.81,0.58,1.44
					c0,0.68-0.29,1.22-0.89,1.64c-0.59,0.42-1.25,0.62-1.99,0.62c-0.69,0-1.32-0.19-1.89-0.57s-0.94-0.88-1.11-1.51l0.89-0.23
					c0.12,0.43,0.39,0.78,0.79,1.04c0.41,0.26,0.85,0.39,1.33,0.39c0.47,0,0.9-0.13,1.27-0.38s0.56-0.59,0.56-1.01
					c0-0.36-0.13-0.65-0.38-0.89c-0.25-0.23-0.62-0.43-1.12-0.61l-0.89-0.32c-0.73-0.25-1.25-0.53-1.56-0.86
					c-0.31-0.33-0.46-0.74-0.46-1.23c0-0.58,0.24-1.06,0.72-1.45c0.48-0.39,1.07-0.58,1.76-0.58c1.23,0,2.12,0.55,2.66,1.65
					L107.8,189.44z"/>
				<path class="st0" d="M124.13,195.66l-1.45-3.28h-4.97l-1.45,3.28h-1.09l4.9-10.78h0.26l4.91,10.78H124.13z M118.1,191.5h4.2
					l-2.09-4.74L118.1,191.5z M122.3,181.08l-1.65,2.23h-0.88l1.09-2.23H122.3z"/>
				<path class="st0" d="M130.88,187.58c0.85,0,1.58,0.28,2.18,0.85s0.9,1.42,0.9,2.57v4.67h-1v-4.67c0-0.85-0.21-1.49-0.62-1.91
					s-0.96-0.63-1.63-0.63c-0.7,0-1.31,0.26-1.85,0.79c-0.53,0.52-0.85,1.09-0.95,1.69v4.73h-1v-8.01h1v2.02
					c0.07-0.42,0.38-0.88,0.94-1.36C129.4,187.82,130.08,187.58,130.88,187.58z"/>
				<path class="st0" d="M142.5,187.65h1v8.01c0,0.56-0.11,1.06-0.33,1.49s-0.51,0.76-0.88,0.99s-0.74,0.4-1.12,0.51
					c-0.38,0.11-0.76,0.16-1.14,0.16c-1.08,0-1.88-0.23-2.4-0.68v-0.89c0.54,0.46,1.34,0.69,2.4,0.69c0.7,0,1.28-0.2,1.76-0.59
					c0.47-0.4,0.71-0.96,0.71-1.69v-1.68c-0.26,0.55-0.65,0.99-1.18,1.31c-0.53,0.32-1.11,0.48-1.75,0.48
					c-0.95,0-1.83-0.36-2.62-1.09c-0.79-0.73-1.19-1.73-1.19-3c0-0.66,0.12-1.25,0.35-1.79s0.54-0.97,0.92-1.3
					c0.38-0.33,0.78-0.58,1.22-0.75c0.44-0.17,0.88-0.26,1.32-0.26c0.65,0,1.23,0.16,1.76,0.47c0.53,0.31,0.92,0.75,1.16,1.3V187.65
					z M137.67,194.03c0.6,0.56,1.27,0.85,2.01,0.85c0.74,0,1.4-0.27,1.98-0.82c0.58-0.55,0.87-1.34,0.87-2.38
					c0-1.05-0.29-1.85-0.87-2.4c-0.58-0.55-1.24-0.83-1.98-0.83c-0.74,0-1.41,0.29-2.01,0.85c-0.6,0.57-0.9,1.36-0.9,2.38
					C136.77,192.68,137.07,193.46,137.67,194.03z"/>
				<path class="st0" d="M149.18,187.56c0.98,0,1.86,0.36,2.66,1.09s1.2,1.73,1.2,3c0,0.1-0.01,0.24-0.03,0.4h-6.67
					c0.06,0.89,0.38,1.59,0.96,2.08c0.58,0.49,1.21,0.74,1.9,0.74c0.93,0,1.69-0.33,2.28-0.99l0.8,0.49
					c-0.77,0.92-1.8,1.39-3.08,1.39c-0.44,0-0.89-0.09-1.34-0.26c-0.45-0.17-0.87-0.42-1.25-0.75s-0.7-0.76-0.94-1.3
					s-0.36-1.14-0.36-1.8c0-0.66,0.12-1.25,0.36-1.79c0.24-0.54,0.55-0.97,0.93-1.29c0.38-0.32,0.79-0.57,1.24-0.75
					C148.3,187.65,148.74,187.56,149.18,187.56z M149.18,188.45c-0.68,0-1.3,0.24-1.86,0.72c-0.56,0.48-0.89,1.18-0.97,2.08h5.7
					c-0.08-0.9-0.41-1.6-0.98-2.08C150.5,188.69,149.87,188.45,149.18,188.45z"/>
				<path class="st0" d="M156.07,184.88v10.78h-1.03v-10.78H156.07z"/>
				<path class="st0" d="M161.92,187.56c0.98,0,1.86,0.36,2.66,1.09s1.2,1.73,1.2,3c0,0.1-0.01,0.24-0.03,0.4h-6.67
					c0.06,0.89,0.38,1.59,0.96,2.08c0.58,0.49,1.21,0.74,1.9,0.74c0.93,0,1.69-0.33,2.28-0.99l0.8,0.49
					c-0.77,0.92-1.8,1.39-3.08,1.39c-0.44,0-0.89-0.09-1.34-0.26c-0.45-0.17-0.87-0.42-1.25-0.75s-0.7-0.76-0.94-1.3
					s-0.36-1.14-0.36-1.8c0-0.66,0.12-1.25,0.36-1.79c0.24-0.54,0.55-0.97,0.93-1.29c0.38-0.32,0.79-0.57,1.24-0.75
					C161.03,187.65,161.48,187.56,161.92,187.56z M161.92,188.45c-0.68,0-1.3,0.24-1.86,0.72c-0.56,0.48-0.89,1.18-0.97,2.08h5.7
					c-0.08-0.9-0.41-1.6-0.98-2.08C163.23,188.69,162.6,188.45,161.92,188.45z"/>
				<path class="st0" d="M171.85,189.44c-0.39-0.68-0.97-1.02-1.74-1.02c-0.43,0-0.78,0.11-1.06,0.34c-0.27,0.23-0.41,0.5-0.41,0.82
					c0,0.3,0.09,0.55,0.28,0.75c0.19,0.2,0.51,0.38,0.99,0.55l0.77,0.28c0.8,0.28,1.4,0.58,1.79,0.92c0.39,0.33,0.58,0.81,0.58,1.44
					c0,0.68-0.29,1.22-0.89,1.64c-0.59,0.42-1.25,0.62-1.99,0.62c-0.69,0-1.32-0.19-1.89-0.57s-0.94-0.88-1.11-1.51l0.89-0.23
					c0.12,0.43,0.39,0.78,0.79,1.04c0.41,0.26,0.85,0.39,1.33,0.39c0.47,0,0.9-0.13,1.27-0.38s0.56-0.59,0.56-1.01
					c0-0.36-0.13-0.65-0.38-0.89c-0.25-0.23-0.62-0.43-1.12-0.61l-0.89-0.32c-0.73-0.25-1.25-0.53-1.56-0.86
					c-0.31-0.33-0.46-0.74-0.46-1.23c0-0.58,0.24-1.06,0.72-1.45c0.48-0.39,1.07-0.58,1.76-0.58c1.23,0,2.12,0.55,2.66,1.65
					L171.85,189.44z"/>
			</g>
		</g>
		<line class="st1" x1="118.18" y1="177.65" x2="172.95" y2="177.65"/>
		<line class="st1" x1="0.97" y1="177.65" x2="95.65" y2="177.65"/>
	</g>
	<g>
		<g>
			<path class="st2" d="M85.09,0.18c0.01,0,0.02,0,0.03,0c0.01,0,0.02,0,0.03,0H85.09z"/>
			<path class="st2" d="M129.73,109.23c-0.39-8.62-1.01-17.33-1.88-25.87h-0.02c0-0.01,0.01-0.01,0.01-0.02c0,0-0.27-2.73-0.4-3.53
				c0,0,0,0,0,0c-0.14-1.25-0.53-3.56-0.61-4.04c-0.09-0.62-0.25-1.49-0.38-2.27c-5.65-39.98-17.9-73.28-41.35-73.31
				C65.65,0.21,54.33,24.28,48.49,55.2c-0.02-0.03-0.04-0.06-0.06-0.09c0,0-0.12,0.79-0.31,2.09c-0.05,0.25-0.09,0.51-0.14,0.76
				c0,0,0.01,0.01,0.02,0.03c-0.67,4.6-1.95,13.65-2.51,19.43c0,0,0,0,0,0c0,0,0,0.05-0.01,0.15c-0.02,0.17-0.03,0.34-0.05,0.51
				c0,0,0,0,0.01,0.01c-0.22,3-1.13,15.44-1.34,22.06c0,0,0,0,0.01,0.01c-0.1,3.31-0.17,6.61-0.19,9.87c-0.1,12.66,9.12,23,20.57,23
				l4.03,0c7.5-2.43,14.15-5.44,20.05-8.79c-5.9,3.36-12.57,6.37-20.08,8.8l40.71,0.01C120.95,133.05,130.33,122.19,129.73,109.23z"
				/>
		</g>
		<path class="st0" d="M126.77,75.73c-3.76-2.29-11.3-5.55-22.86-2.25c-9.54,2.72-9.97,3.29-15.05,4.29
			c-3.56,0.7-15.54,3.07-25.59-2.86c-5.19-3.07-8.75-7.69-10.53-10.01c-1.43-1.87-4.76-6.94-4.76-6.94
			c5.68-32.25,17.1-57.78,37.15-57.78l-0.05,0C108.99,0.18,121.26,34.75,126.77,75.73z"/>
		<circle class="st3" cx="86.41" cy="28.24" r="15.31"/>
		<path class="st4" d="M88.91,75.16c0.02-1.53,0.18-2.79,0.34-3.74c1.21-6.97,5.36-11.81,7.63-14.5c0.65-0.76,1.3-1.47,1.96-2.14
			l10.76,3.09c0.26,1.11,0.47,2.29,0.63,3.54c0.38,2.94,0.37,5.71,0.13,8.25"/>
		<circle class="st3" cx="105.51" cy="51.62" r="7.47"/>
		<path class="st0" d="M127.81,83.36c-2.61,5.32-8.18,14.99-18.05,24.8c-9.44,9.39-22.81,18.91-41.27,24.88l40.71,0.01
			c11.75,0,21.12-10.85,20.53-23.82c-0.39-8.62-1.01-17.33-1.88-25.87H127.81z"/>
		<path class="st5" d="M127.84,83.34c-2.61,5.32-8.18,14.99-18.05,24.8c-9.44,9.39-22.81,18.91-41.27,24.88l-4.03,0
			c-11.45,0-20.67-10.34-20.57-23c0.03-3.38,0.09-6.8,0.2-10.24l0-0.02c1.24,1.24,2.56,2.47,3.72,3.43
			c0.44,0.37,6.19,5.05,13.28,7.19c15.25,4.59,29.02-4.97,31.97-7.01c3.17-2.2,7.28-5.96,15.49-13.5c3.57-3.27,7.25-6.76,13.13-8.94
			c2.14-0.79,4.06-1.02,5.71-1.28C127.53,80.19,127.84,83.34,127.84,83.34z"/>
		<path class="st3" d="M127.45,79.8c-1.65,0.26-3.62,0.7-5.75,1.49c-5.89,2.17-9.56,5.67-13.13,8.94
			c-8.22,7.53-12.33,11.3-15.49,13.5c-2.94,2.04-16.72,11.6-31.97,7.01c-7.09-2.13-12.83-6.82-13.28-7.19
			c-1.16-0.96-3.72-3.41-3.72-3.41c0.24-7.56,1.39-22.72,1.39-22.72c1.2,1.56,3.12,3.77,4.7,5.27c0.34,0.32,4.7,4.38,10.71,6.79
			c12.92,5.18,26.91,0.06,29.89-1.03c3.22-1.18,7.54-3.36,16.2-7.72c3.76-1.89,7.65-3.93,13.31-4.75c2.58-0.37,4.82-0.39,6.52-0.31
			C126.82,75.67,127.29,78.4,127.45,79.8z"/>
		<path class="st2" d="M120.24,76.13c-5.65,0.82-9.55,2.86-13.31,4.75c-8.65,4.36-12.98,6.54-16.2,7.72
			c-2.99,1.09-16.97,6.21-29.89,1.03c-6-2.41-10.37-6.47-10.71-6.79c-1.58-1.5-4.7-5.27-4.7-5.27c0.73-7.85,3-22.96,3-22.96
			c1.22,2,3.29,5.08,4.71,6.95c1.77,2.32,5.29,6.95,10.44,10.02c9.95,5.93,21.82,3.57,25.34,2.87c5.03-1,5.46-1.57,14.9-4.29
			c11.44-3.29,18.81-0.11,22.54,2.19c0.15,1.11,0.49,2.77,0.53,3.43C126.89,75.76,122.82,75.76,120.24,76.13z"/>
	</g>
</g>
</svg>
