<?xml version="1.0" encoding="utf-8"?>
<!-- Generator: Adobe Illustrator 24.3.0, SVG Export Plug-In . SVG Version: 6.00 Build 0)  -->
<svg version="1.1" id="Layer_1" xmlns="http://www.w3.org/2000/svg" xmlns:xlink="http://www.w3.org/1999/xlink" x="0px" y="0px"
	 viewBox="0 0 38 38" style="enable-background:new 0 0 38 38;" xml:space="preserve">
<style type="text/css">
	.st0{fill:#10849A;}
	.st1{opacity:0.3;}
	.st2{fill:#A6E4EA;}
</style>
<g>
	<g>
		<g id="nWhoa2.tif_6_">
			<g>
				<g>
					<path class="st0" d="M23.29,4.91c-0.33,0.93-0.84,1.75-1.44,2.52c-0.71,0.91-1.53,1.71-2.42,2.45
						c-0.42,0.35-1.03,0.36-1.44,0.01c-0.16-0.13-0.31-0.26-0.46-0.4c-0.93-0.82-1.79-1.72-2.48-2.76
						c-0.48-0.72-0.87-1.47-1.08-2.31c-0.17-0.68-0.18-1.36,0.1-2.02c0.42-1,1.52-1.65,2.59-1.56c0.85,0.07,1.52,0.46,2.01,1.15
						C18.68,2,18.69,2.01,18.7,2.02c0.08-0.1,0.15-0.21,0.24-0.3c0.76-0.81,1.69-1.09,2.75-0.77c1.03,0.31,1.65,1.05,1.83,2.12
						C23.64,3.7,23.5,4.31,23.29,4.91z"/>
				</g>
			</g>
		</g>
		<g>
			<g>
				<path class="st0" d="M30.43,16.55c0.33,0.09,0.65,0.18,0.97,0.28l6.27-3.74l-1.88-3.83l-5.86-2.24l-3.97,1.6l2.23,7.09
					C28.94,15.96,29.69,16.25,30.43,16.55z"/>
			</g>
		</g>
		<g>
			<path class="st0" d="M26.39,36.72c-1.52,0-3.06-0.31-4.54-0.96c-5.72-2.51-8.33-9.21-5.81-14.93c2.51-5.72,9.21-8.33,14.93-5.81
				c5.72,2.51,8.33,9.21,5.81,14.93h0C34.92,34.19,30.75,36.72,26.39,36.72z M26.42,16.73c-3.33,0-6.52,1.93-7.95,5.18
				c-1.92,4.37,0.07,9.5,4.45,11.42c4.37,1.92,9.5-0.07,11.42-4.45h0c1.92-4.37-0.07-9.5-4.45-11.42
				C28.76,16.96,27.58,16.73,26.42,16.73z"/>
		</g>
		<g>
			<path class="st0" d="M11.6,36.73c-1.55,0-3.1-0.32-4.56-0.96c-2.77-1.22-4.9-3.44-6-6.26c-1.1-2.82-1.03-5.9,0.19-8.67
				c1.22-2.77,3.44-4.9,6.26-6c2.82-1.1,5.9-1.03,8.67,0.19c5.72,2.51,8.33,9.21,5.81,14.93l0,0c-1.22,2.77-3.44,4.9-6.26,6
				C14.38,36.47,12.99,36.73,11.6,36.73z M11.6,16.72c-1.06,0-2.13,0.2-3.15,0.6c-2.16,0.84-3.86,2.47-4.79,4.59
				c-1.92,4.37,0.07,9.5,4.45,11.42c4.37,1.92,9.5-0.07,11.42-4.45c1.92-4.37-0.07-9.5-4.45-11.42
				C13.97,16.97,12.79,16.72,11.6,16.72z"/>
		</g>
	</g>
	<g class="st1">
		<g id="nWhoa2.tif_5_">
			<g>
				<g>
					<path class="st2" d="M17.98,9.89c0.01,0.01,0.02,0.01,0.03,0.02c1.28-1.18,2.4-2.48,3.28-4c0.88-1.49,1.14-2.95,1.22-4.55
						c-0.24-0.17-0.51-0.31-0.83-0.41c-1.06-0.32-1.99-0.04-2.75,0.77c-0.09,0.09-0.16,0.2-0.24,0.3C18.69,2.01,18.68,2,18.67,1.98
						c-0.49-0.69-1.16-1.08-2.01-1.15c-1.07-0.09-2.17,0.57-2.59,1.56c-0.28,0.66-0.28,1.34-0.1,2.02c0.21,0.84,0.6,1.6,1.08,2.31
						c0.69,1.04,1.54,1.94,2.48,2.76C17.67,9.63,17.83,9.76,17.98,9.89z"/>
				</g>
			</g>
		</g>
		<g>
			<g>
				<path class="st2" d="M32.17,14.43c0.56-0.47,1.08-1.07,1.75-1.48c1.11-0.67,2.22-0.66,3.29-0.35c0.07,0.01,0.15,0.01,0.22,0.02
					l-1.65-3.36l-5.86-2.24l-3.97,1.6l2.23,7.09c0.56,0.18,1.11,0.39,1.66,0.6C30.6,15.66,31.4,15.08,32.17,14.43z"/>
			</g>
		</g>
		<g>
			<path class="st2" d="M29.65,35.59c0.07-0.04,0.14-0.07,0.22-0.11c0.16-0.08,0.32-0.16,0.48-0.24c1-0.62,1.92-1.38,2.73-2.18
				c1.1-1.1,2.1-2.44,2.78-3.84c0.14-0.38,0.27-0.77,0.38-1.17c0.08-0.29,0.15-0.58,0.21-0.87c0.01-0.07,0.03-0.14,0.04-0.21
				c0.42-2.22,0.21-4.44,0.01-6.69c-1.14-2.26-3.04-4.16-5.54-5.26c-5.72-2.51-12.42,0.1-14.93,5.81
				c-2.51,5.72,0.09,12.42,5.81,14.93c1.33,0.58,2.71,0.89,4.08,0.95C27.13,36.26,28.41,35.99,29.65,35.59z M22.04,32.87
				c-0.42-0.15-0.83-0.33-1.22-0.55c-0.74-0.31-1.43-0.73-2.03-1.31c-1.56-1.53-2.16-3.91-2.07-6.04c0.1-2.25,0.9-4.47,2.55-6.05
				c0.91-0.87,1.97-1.59,3.17-1.99c0.12-0.04,0.25-0.07,0.37-0.1c1.36-0.63,2.97-0.59,4.42-0.1c0.1,0.02,0.2,0.04,0.29,0.08
				c0.8,0.1,1.59,0.32,2.37,0.66c4.37,1.92,6.37,7.05,4.45,11.42h0c-1.92,4.37-7.05,6.37-11.42,4.45
				C22.61,33.19,22.32,33.03,22.04,32.87z"/>
		</g>
		<g>
			<path class="st2" d="M18.23,16.21c-0.64-0.46-1.33-0.86-2.07-1.19c-2.77-1.22-5.85-1.28-8.67-0.19c-2.82,1.1-5.04,3.23-6.26,6
				c-1.22,2.77-1.28,5.85-0.19,8.67c1.1,2.82,3.23,5.04,6,6.26c1.46,0.64,3.01,0.96,4.56,0.96c1.39,0,2.78-0.26,4.11-0.78
				c0.5-0.2,0.99-0.43,1.45-0.69c0.45-0.4,0.87-0.81,1.25-1.22c1.63-1.74,2.77-3.72,3.27-6.07C22.6,23.64,21,19.45,18.23,16.21z
				 M19.53,28.88c-1.36,3.09-4.32,4.99-7.48,5.16c-1.18,0.19-2.39,0.09-3.53-0.24c-0.9-0.19-1.77-0.51-2.54-0.91
				c-2.26-1.17-3.49-3.45-3.78-5.91c-0.02-0.18-0.04-0.36-0.05-0.53c-0.06-0.51-0.08-1.04-0.04-1.58c0.09-1.2,0.4-2.29,0.87-3.25
				c0.2-0.42,0.43-0.83,0.7-1.22c1.14-1.64,2.83-2.96,4.79-3.3c0.46-0.14,0.93-0.26,1.41-0.34c0.69-0.13,1.41-0.2,2.14-0.2
				c0.2,0,0.37,0.04,0.53,0.09c0.2,0.03,0.37,0.1,0.52,0.19c0.68,0.12,1.36,0.32,2.01,0.6C19.46,19.38,21.46,24.51,19.53,28.88z"/>
		</g>
	</g>
</g>
</svg>
