<svg width="375" height="294" viewBox="0 0 375 294" fill="none" xmlns="http://www.w3.org/2000/svg">
<g clip-path="url(#clip0)">
<path d="M374.999 0H0.0500488V293.089H374.999V0Z" fill="#AAE5EB"/>
<path opacity="0.5" d="M147.5 148L96.2723 0H3L143.5 157.5" fill="#FFD397" fill-opacity="0.6"/>
<path opacity="0.5" d="M201 169.78L370 0H375V92L204.1 172" fill="#F3AB57" fill-opacity="0.6"/>
<path opacity="0.5" d="M0 53V112.017L108.5 141.5" fill="#F3AB57" fill-opacity="0.6"/>
<path opacity="0.5" d="M169 158L180 0H240L176 158" fill="#F3AB57" fill-opacity="0.6"/>
<path opacity="0.5" d="M191 167.261L303.5 0H344.5L193.092 169" fill="#FFD397" fill-opacity="0.6"/>
<path d="M189 262C251.96 262 303 210.96 303 148C303 85.0395 251.96 34 189 34C126.04 34 75 85.0395 75 148C75 210.96 126.04 262 189 262Z" fill="#FFD397"/>
<path d="M50.9045 185.976C50.9045 185.976 99.5936 150.407 126.016 102.643C152.439 54.8785 211.382 34.5533 211.382 34.5533C211.382 34.5533 222.561 22.3582 229.675 31.5046C236.789 40.6509 272.358 125 282.52 127.033C292.683 129.066 303.862 160.377 303.862 160.377V185.976" fill="#0F7386"/>
<path d="M303.862 185.976H319.106C319.106 185.976 292.683 129.066 282.52 127.033C272.358 125 236.789 40.6509 229.675 31.5046C222.561 22.3582 211.382 34.5533 211.382 34.5533C211.382 34.5533 179.878 69.1062 189.024 82.3176C198.171 95.5289 233.74 115.854 236.789 130.082C239.838 144.309 277.053 185.651 281.311 186.322" fill="#0C555B"/>
<path d="M375 185.976H0V292.683H375V185.976Z" fill="#AAE5EB"/>
<path d="M81.7541 186.492C80.3682 190.548 85.6614 191.754 83.6911 196.397C82.6224 198.928 80.3348 200.688 78.4646 202.699C76.6111 204.71 75.0582 207.526 75.9599 210.124C76.3272 211.18 82.9657 213.028 83.5 214C85.5038 217.62 78.7818 221.253 76.8115 224.907C75.5424 227.27 73.8058 229.432 73.1713 232.03C72.1527 236.119 74.4404 244.732 76.8115 248C79.8505 252.19 97.0334 251.011 97 258C96.9833 262.006 85.3943 267.361 87.181 270.931C88.2329 273.026 90.4705 274.166 92.3907 275.506C94.311 276.847 111.901 279.187 111.5 281.5C111.199 283.193 94.0772 284.138 92.9418 285.429C91.8063 286.719 90.8712 288.58 91.6894 290.088C92.1069 290.859 92.875 291.328 93.6431 291.747C96.2647 293.189 99.3538 293.742 101.675 295.619C104.196 297.664 105.515 299.675 108.22 301.519C111.093 303.48 114.015 304.921 115.3 308.441C115.818 309.849 115.968 311.374 116.603 312.731C118.891 317.642 125.419 317.961 129.911 319.419C131.965 320.089 135.655 321.262 136.407 323.642C137.425 326.844 132.015 329.626 134.971 332.861C135.405 333.33 135.973 333.648 136.557 333.9C139.095 334.989 141.934 335.023 144.706 335.04C147.895 335.056 151.084 335.006 154.274 334.889C157.246 334.771 161.587 333.565 164.443 334.269C167.064 334.905 168.884 336.699 171.873 336.933C174.812 337.168 177.801 336.732 180.723 336.397C194.332 334.855 208.075 336.565 221.767 336.615C234.959 336.665 247.799 333.313 259.488 327.313C266.919 323.492 261.776 317.642 262.11 311.122C262.36 306.195 267.253 302.977 271.678 300.815C276.102 298.653 281.162 296.105 282.331 291.295C283.032 288.395 274.249 282.4 275 279.5C276.753 272.762 294.353 273.462 295.89 266.674C296.507 263.958 285.316 255.282 285.5 252.5C285.784 248.058 305.612 249.754 308 246C312.876 238.357 294 231.88 294 223.5C294 210.041 300.448 196.984 296.174 185" fill="url(#paint0_linear)"/>
<path d="M50.4961 184.959C53.6873 187.263 55.8589 187.661 59.8555 188.293C60.9566 188.467 62.2004 188.732 62.7816 189.69C63.3627 190.648 62.3839 192.269 61.395 191.739C61.3848 193.095 62.4349 194.258 63.6482 194.869C64.8512 195.481 66.2174 195.675 67.5326 195.991C70.3058 196.664 72.9362 197.958 75.169 199.753C74.2004 200.64 73.2318 201.517 72.2633 202.404C71.9778 202.659 71.6821 202.954 71.6312 203.331C71.5802 203.709 71.7943 204.076 72.0288 204.371C74.9243 208.123 80.8886 207.348 84.8852 209.887C85.6091 210.346 86.3431 211.131 86.1086 211.957C85.6906 213.435 82.9685 213.017 82.4995 214.475C82.163 215.525 83.3151 216.402 84.3143 216.861C86.6694 217.952 89.1163 218.828 91.6244 219.501C95.5496 220.541 93.2964 222.988 94.8971 225.527C96.2531 227.688 100.698 227.046 102.9 228.728C104.674 230.084 105.806 232.5 105.042 234.591C104.817 235.212 104.43 235.783 104.287 236.436C103.808 238.648 106.173 240.432 108.365 241.003C110.547 241.585 113.055 241.707 114.625 243.318C115.043 243.746 115.39 244.327 115.288 244.918C115.064 246.183 113.208 246.366 112.556 247.467C111.74 248.854 113.279 250.424 114.686 251.209C116.348 252.137 118.092 252.922 119.886 253.544C122.037 254.298 124.77 255.501 124.586 257.775C124.443 259.539 122.476 260.701 122.241 262.455C122.037 263.994 123.271 265.36 124.596 266.186C125.911 267.012 127.441 267.573 128.481 268.725C129.827 270.203 128.623 271.212 128.623 272.823C128.634 274.638 130 276.31 131.59 277.044C132.426 277.432 133.354 277.605 134.19 277.992C135.026 278.38 135.811 279.083 135.923 279.991C136.036 280.959 135.363 281.846 135.24 282.805C134.843 286.128 137.962 285.639 139.9 286.506C141.062 287.025 142.163 287.739 142.968 288.728C143.774 289.717 144.233 291.022 144.039 292.286C143.998 292.521 143.947 292.766 143.917 293H237.979C238.744 290.502 240.569 288.412 242.312 286.363C250.632 276.585 254.72 263.963 261.612 253.126C268.199 242.757 277.232 234.193 284.409 224.222C289.354 217.35 293.371 209.846 298.632 203.199C301.385 199.722 304.076 198.183 304.311 193.727C304.464 190.811 304.311 187.855 304.311 184.929" fill="url(#paint1_linear)"/>
<path d="M281.285 184.614C279.874 184.838 278.117 186.178 277.295 187.315C276.29 188.696 277.62 190.056 276.797 191.417C276.503 191.894 275.955 192.138 275.427 192.351C274.279 192.818 273.132 193.285 271.985 193.762C270.736 194.27 269.274 195.113 269.355 196.453C269.396 197.214 269.964 197.854 270.035 198.616C270.106 199.387 269.65 200.139 269.03 200.606C268.411 201.083 267.66 201.326 266.928 201.57C265.365 202.088 263.253 202.382 261.943 203.357C261.121 203.966 259.131 206.312 259.77 207.459C260.055 207.977 260.705 208.17 261.111 208.606C261.842 209.398 261.466 210.759 260.664 211.48C259.862 212.201 258.765 212.475 257.75 212.83C256.318 213.338 254.968 214.069 253.739 214.972C253.394 215.226 253.029 215.632 253.201 216.028C253.293 216.231 253.506 216.353 253.699 216.465C254.511 216.932 255.212 217.582 255.729 218.353C255.892 218.587 256.034 218.841 256.024 219.125C256.014 219.552 255.658 219.887 255.293 220.13C252.805 221.806 249.14 221.115 246.815 222.851C244.632 224.476 245.038 227.705 245.282 229.979C245.444 231.461 244.48 232.852 243.282 233.736C242.084 234.609 240.652 235.096 239.312 235.736C236.276 237.188 233.382 240.315 234.347 243.533C234.733 244.803 235.687 245.94 235.616 247.26C235.525 248.894 233.951 249.981 232.509 250.752C229.565 252.316 226.478 253.605 223.3 254.611C220.975 255.342 218.031 256.733 218.406 259.139C218.528 259.921 219.015 260.601 219.147 261.373C219.513 263.454 217.391 265.028 215.543 266.053C211.451 268.328 207.359 270.612 203.268 272.886C202.344 273.404 201.288 274.105 201.268 275.171C201.257 275.76 201.582 276.308 201.765 276.867C202.567 279.344 200.465 281.892 198.11 283.03C195.754 284.157 193.054 284.471 190.789 285.771C188.271 287.223 187.368 289.995 187.276 293H252.765C252.927 292.736 253.1 292.502 253.293 292.33C254.064 291.619 255.557 291.528 256.471 290.797C258.43 289.223 259.527 286.421 258.765 283.974C258.329 282.562 257.395 281.171 257.76 279.74C258.024 278.704 258.907 277.963 259.74 277.303C261.892 275.587 264.055 273.881 266.208 272.166C266.705 271.77 267.223 271.353 267.507 270.785C268.563 268.673 265.944 266.531 265.7 264.195C265.426 261.484 268.289 259.586 270.848 258.652C273.406 257.718 276.422 256.743 277.325 254.174C278.067 252.052 277 249.768 275.955 247.788C278.859 245.016 283.326 245.036 287.296 244.457C289.103 244.193 290.951 243.747 292.372 242.599C293.794 241.452 294.667 239.462 294.027 237.746C293.601 236.619 292.606 235.756 292.271 234.599C291.641 232.406 293.601 230.365 295.51 229.116C297.419 227.877 299.683 226.598 300.15 224.364C300.475 222.841 299.835 221.298 299.591 219.755C299.185 217.094 300.718 216.891 301.927 215.186C304.353 211.754 303.734 209.774 301.612 206.647C301.429 206.373 301.226 206.068 301.236 205.733C301.246 205.439 301.409 205.175 301.581 204.941C303.033 202.921 305.216 201.448 307.633 200.849C309.217 200.453 311.004 200.382 312.202 199.276C313.603 197.976 313.522 195.427 312.029 194.229C311.521 193.823 310.811 193.437 310.821 192.777C310.821 192.371 311.136 192.026 311.471 191.782C312.425 191.092 313.664 190.96 314.77 190.554C316.578 189.894 318.091 188.462 318.842 186.696C318.964 186.411 318.994 186.239 319.045 185.934C318.974 185.772 318.893 185.721 318.923 185.548" fill="url(#paint2_linear)"/>
<path d="M375 185.976H0V292.683H375V185.976Z" fill="#6EC2C4" fill-opacity="0.67"/>
</g>
<defs>
<linearGradient id="paint0_linear" x1="188.505" y1="295" x2="188.505" y2="185.001" gradientUnits="userSpaceOnUse">
<stop stop-color="#F8A957" stop-opacity="0"/>
<stop offset="0.1875" stop-color="#F8A957" stop-opacity="0.309323"/>
<stop offset="1" stop-color="#F8A957"/>
</linearGradient>
<linearGradient id="paint1_linear" x1="177.415" y1="293.03" x2="177.415" y2="184.959" gradientUnits="userSpaceOnUse">
<stop offset="2.66389e-07" stop-color="#207780" stop-opacity="0"/>
<stop offset="1" stop-color="#0E6570"/>
</linearGradient>
<linearGradient id="paint2_linear" x1="253.211" y1="292.991" x2="253.211" y2="184.614" gradientUnits="userSpaceOnUse">
<stop offset="1.33195e-07" stop-color="#1D5F60" stop-opacity="0"/>
<stop offset="0.1943" stop-color="#165657" stop-opacity="0.47"/>
<stop offset="0.5714" stop-color="#0D4B4C"/>
<stop offset="1" stop-color="#0A4849"/>
</linearGradient>
<clipPath id="clip0">
<rect width="375" height="293.089" fill="white"/>
</clipPath>
</defs>
</svg>
