<svg width="116" height="104" viewBox="0 0 116 104" fill="none" xmlns="http://www.w3.org/2000/svg">
<rect width="116" height="104" rx="5" fill="#69C7CE"/>
<path d="M60 52L6 0H25.1688L60 52Z" fill="#F5C987" fill-opacity="0.8"/>
<path d="M60 52L0 25.5133V13L60 52Z" fill="#F5C987" fill-opacity="0.85"/>
<path d="M59 52L116 24.7115V9L59 52Z" fill="#F5C987" fill-opacity="0.86"/>
<path d="M60.0851 52L54 0H65L60.0851 52Z" fill="#F5C987" fill-opacity="0.66"/>
<path d="M91 0H88.2174L59 52L91 0Z" fill="#F5C987" fill-opacity="0.66"/>
<path d="M83 0H70.1471L60 52L83 0Z" fill="#F5C987" fill-opacity="0.8"/>
<path d="M60 52L33 0H35.5603L60 52Z" fill="#F5C987" fill-opacity="0.66"/>
<path d="M60 52L0 8.55078V5L60 52Z" fill="#F5C987" fill-opacity="0.6"/>
<path d="M60 52L45 0H49.2188L60 52Z" fill="#F5C987" fill-opacity="0.8"/>
<path d="M60 52L110 0H95.4839L60 52Z" fill="#F5C987" fill-opacity="0.8"/>
<path d="M0 101H116C116 102.657 114.657 104 113 104H3C1.34315 104 0 102.657 0 101Z" fill="#A1DBDB"/>
<rect y="85" width="116" height="16" fill="#A9E5EA"/>
<path d="M59.8161 92.9082C52.3139 92.9082 46.018 90.9856 44.4346 88.3843C44.1707 89.2891 44.0576 90.1939 44.0576 90.9856C44.0576 94.19 51.1075 96.7913 59.8161 96.7913C68.5248 96.7913 75.5746 94.19 75.5746 90.9856C75.5746 90.1562 75.4238 89.2891 75.1976 88.3843C73.6142 90.9479 67.3561 92.9082 59.8161 92.9082Z" fill="#0D5D68"/>
<path d="M44.4727 88.3842C46.056 90.9855 52.3519 92.9082 59.8542 92.9082C67.3564 92.9082 73.6523 90.9855 75.2357 88.3842C72.8229 79.4494 59.8542 66.3298 59.8542 66.3298C59.8542 66.3298 46.8854 79.4494 44.4727 88.3842Z" fill="#159BAD"/>
<path d="M64.3024 68.6673C64.3024 69.5344 62.3043 70.213 59.8538 70.213C57.4034 70.213 55.4053 69.5344 55.4053 68.6673C55.4053 67.8002 57.4034 67.1216 59.8538 67.1216C62.342 67.1216 64.3024 67.8379 64.3024 68.6673Z" fill="#0D5D68"/>
<path d="M64.3024 67.8378C64.3024 68.7049 62.3043 69.3835 59.8538 69.3835C57.4034 69.3835 55.4053 68.7049 55.4053 67.8378C55.4053 66.9707 57.4034 66.2921 59.8538 66.2921C62.342 66.3298 64.3024 67.0084 64.3024 67.8378Z" fill="#159BAD"/>
<path d="M64.227 63.0126C64.227 65.4253 62.2666 67.4234 59.8161 67.4234C57.4034 67.4234 55.4053 65.463 55.4053 63.0126C55.4053 60.5998 57.3657 58.6017 59.8161 58.6017C62.2666 58.6394 64.227 60.5998 64.227 63.0126Z" fill="#0D5D68"/>
<path d="M59.8166 37.1881C47.9412 37.1881 38.29 38.0929 38.29 39.2239V39.2616C38.5916 40.3549 48.092 41.2597 59.8166 41.2597C71.5035 41.2597 81.0416 40.3549 81.3432 39.2616V39.2239C81.3432 38.0929 71.7297 37.1881 59.8166 37.1881Z" fill="#0D5D68"/>
<path d="M74.7076 36.6979C74.7076 44.9165 68.0725 51.5893 59.8162 51.5893C51.5977 51.5893 44.9248 44.9165 44.9248 36.6979C44.9248 28.4794 51.5977 21.8065 59.8162 21.8065C68.0725 21.8065 74.7076 28.4794 74.7076 36.6979Z" fill="#A9E5EA"/>
<path d="M59.8164 21.8064C68.035 21.8064 74.7078 28.4793 74.7078 36.6978C74.7078 44.9164 68.0727 51.5892 59.8164 51.5892" fill="#A4DDDD"/>
<path d="M65.2075 33.0786C65.2075 32.8147 64.9813 32.5885 64.7174 32.5885H62.3423C62.0784 32.5885 61.8522 32.3623 61.8522 32.0984V29.0824C61.8522 28.8185 61.6261 28.5923 61.3622 28.5923H58.2331C57.9692 28.5923 57.743 28.8185 57.743 29.0824V32.0984C57.743 32.3623 57.5168 32.5885 57.2529 32.5885H54.8778C54.6139 32.5885 54.3877 32.8147 54.3877 33.0786V36.2076C54.3877 36.4715 54.6139 36.6977 54.8778 36.6977H57.2529C57.5168 36.6977 57.743 36.9239 57.743 37.1878V44.2754C57.743 44.5393 57.9692 44.7655 58.2331 44.7655H61.3622C61.6261 44.7655 61.8522 44.5393 61.8522 44.2754V37.1878C61.8522 36.9239 62.0784 36.6977 62.3423 36.6977H64.7174C64.9813 36.6977 65.2075 36.4715 65.2075 36.2076V33.0786Z" fill="#0F7386"/>
<path d="M59.8166 41.2594C48.1297 41.2594 41.1225 40.5965 38.29 39.2614C38.29 51.1368 47.9412 60.7879 59.8166 60.7879C71.692 60.7879 81.3432 51.1368 81.3432 39.2614C79.8945 40.1403 71.5412 41.2594 59.8166 41.2594Z" fill="#159BAD"/>
</svg>
