<?xml version="1.0" encoding="utf-8"?>
<!-- Generator: Adobe Illustrator 24.3.0, SVG Export Plug-In . SVG Version: 6.00 Build 0)  -->
<svg version="1.1" id="Layer_1" xmlns="http://www.w3.org/2000/svg" xmlns:xlink="http://www.w3.org/1999/xlink" x="0px" y="0px"
	 viewBox="0 0 40 23" style="enable-background:new 0 0 40 23;" xml:space="preserve">
<style type="text/css">
	.st0{fill:#10849A;}
	.st1{opacity:0.3;}
	.st2{fill:#A6E4EA;}
</style>
<g>
	<g>
		<path class="st0" d="M20,21.6c8.63,0,16.07-4.21,19.55-10.3C36.07,5.21,28.63,1,20,1C11.37,1,3.93,5.21,0.45,11.3
			C3.93,17.39,11.37,21.6,20,21.6z M20,4.11c3.97,0,7.18,3.22,7.18,7.18s-3.22,7.18-7.18,7.18s-7.18-3.22-7.18-7.18
			S16.03,4.11,20,4.11z"/>
		<circle class="st0" cx="17.73" cy="9.03" r="2.23"/>
	</g>
	<g class="st1">
		<path class="st2" d="M20.79,20.68c3.97-0.87,7.3-2.29,10.62-4.69c0.64-0.46,1.26-0.98,1.98-1.57c0.74-0.6,1.47-1.21,2.17-1.87
			c0.36-0.34,0.71-0.69,1.04-1.05c0.14-0.16,0.28-0.32,0.42-0.48c0.01-0.02,0.09-0.11,0.14-0.17c0.04-0.06,0.11-0.15,0.12-0.17
			c0.26-0.37,0.49-0.76,0.69-1.17c0.03-0.08,0.06-0.16,0.09-0.25c0.01-0.04,0.02-0.08,0.03-0.12C34.23,4.24,27.57,1,20,1
			C11.37,1,3.93,5.21,0.45,11.3c2.99,5.23,8.9,9.07,15.97,10.05C17.88,21.22,19.25,21.02,20.79,20.68z M20,4.11
			c3.97,0,7.18,3.22,7.18,7.18c0,3.97-3.22,7.18-7.18,7.18s-7.18-3.22-7.18-7.18C12.82,7.33,16.03,4.11,20,4.11z"/>
		<circle class="st2" cx="17.73" cy="9.03" r="2.23"/>
	</g>
</g>
</svg>
