<svg width="375" height="292" viewBox="0 0 375 292" fill="none" xmlns="http://www.w3.org/2000/svg">
<g clip-path="url(#clip0)">
<path d="M375 0H0V293H375V0Z" fill="#0F7386"/>
<path d="M340.087 292.479L241.994 0H130.709L32.6162 292.479" fill="url(#paint0_radial)"/>
<path d="M199.814 114.781C202.62 114.781 204.896 112.511 204.896 109.71C204.896 106.91 202.62 104.639 199.814 104.639C197.007 104.639 194.732 106.91 194.732 109.71C194.732 112.511 197.007 114.781 199.814 114.781Z" fill="#F8A957"/>
<path d="M208.971 153.338C211.778 153.338 214.053 151.068 214.053 148.268C214.053 145.467 211.778 143.197 208.971 143.197C206.165 143.197 203.889 145.467 203.889 148.268C203.889 151.068 206.165 153.338 208.971 153.338Z" fill="#F8A957"/>
<path d="M230.733 292.946C230.733 292.946 218.515 244.652 210.405 232.097C202.294 219.542 194.315 210.212 189.223 202.494C188.267 201.054 187.231 199.198 187.149 197.454C187.058 195.395 187.149 193.306 187.149 191.247C187.149 187.708 187.038 184.189 187.038 180.65C187.038 176.826 187.038 173.003 187.038 169.18C187.038 163.531 187.038 157.892 187.038 152.243C187.038 145.794 187.038 139.344 187.038 132.883C187.038 126.646 187.038 120.399 187.038 114.162C187.038 109.142 187.038 104.133 187.038 99.1125C187.038 96.3439 187.038 93.5651 187.038 90.7965C187.038 81.8721 194.589 83.2614 194.589 83.2614C194.589 83.2614 201.166 127.488 205.353 138.37C209.419 148.917 212.173 159.981 213.982 171.117C214.867 176.583 216.411 182.029 219.532 186.663C222.733 191.43 225.955 204.472 229.716 208.772C240.5 221.094 275.21 281.222 286.634 292.946" fill="#A4DDDD"/>
<path d="M230.733 292.945C230.733 292.945 221.92 258.12 214.297 239.926L241.557 225.474C256.407 248.13 278.066 284.153 286.634 292.945" fill="#0C555B"/>
<path d="M230.733 292.945C230.733 292.945 221.92 258.12 214.297 239.926L241.557 225.474C256.407 248.13 278.066 284.153 286.634 292.945" stroke="#0C555B" stroke-width="2" stroke-miterlimit="10"/>
<path d="M189.65 213.183C192.456 213.183 194.732 210.913 194.732 208.112C194.732 205.312 192.456 203.042 189.65 203.042C186.843 203.042 184.568 205.312 184.568 208.112C184.568 210.913 186.843 213.183 189.65 213.183Z" fill="#F8A957"/>
<path d="M184.984 232.239C187.791 232.239 190.066 229.969 190.066 227.168C190.066 224.368 187.791 222.097 184.984 222.097C182.178 222.097 179.902 224.368 179.902 227.168C179.902 229.969 182.178 232.239 184.984 232.239Z" fill="#F8A957"/>
<path d="M192.699 183.763C195.506 183.763 197.781 181.492 197.781 178.692C197.781 175.891 195.506 173.621 192.699 173.621C189.892 173.621 187.617 175.891 187.617 178.692C187.617 181.492 189.892 183.763 192.699 183.763Z" fill="#F8A957"/>
<path d="M200.83 177.678C203.637 177.678 205.912 175.408 205.912 172.607C205.912 169.807 203.637 167.537 200.83 167.537C198.023 167.537 195.748 169.807 195.748 172.607C195.748 175.408 198.023 177.678 200.83 177.678Z" fill="#F3A34F"/>
<path d="M208.961 171.593C211.768 171.593 214.043 169.323 214.043 166.523C214.043 163.722 211.768 161.452 208.961 161.452C206.154 161.452 203.879 163.722 203.879 166.523C203.879 169.323 206.154 171.593 208.961 171.593Z" fill="#F8A957"/>
<path d="M213.037 162.466C215.844 162.466 218.119 160.195 218.119 157.395C218.119 154.594 215.844 152.324 213.037 152.324C210.23 152.324 207.955 154.594 207.955 157.395C207.955 160.195 210.23 162.466 213.037 162.466Z" fill="#FFD397"/>
<path d="M188.634 98.5545C191.44 98.5545 193.715 96.2843 193.715 93.4838C193.715 90.6833 191.44 88.4131 188.634 88.4131C185.827 88.4131 183.552 90.6833 183.552 93.4838C183.552 96.2843 185.827 98.5545 188.634 98.5545Z" fill="#F8A957"/>
<path d="M195.748 105.654C198.555 105.654 200.83 103.383 200.83 100.583C200.83 97.7824 198.555 95.5122 195.748 95.5122C192.941 95.5122 190.666 97.7824 190.666 100.583C190.666 103.383 192.941 105.654 195.748 105.654Z" fill="#FFD397"/>
<path d="M143.322 292.946C143.322 292.946 155.55 244.652 163.661 232.097C171.771 219.542 179.75 210.212 184.842 202.494C185.798 201.054 186.834 199.198 186.916 197.454C187.007 195.395 186.916 193.306 186.916 191.247C186.916 187.708 187.027 184.189 187.027 180.65C187.027 176.826 187.027 173.003 187.027 169.18C187.027 163.531 187.027 157.892 187.027 152.243C187.027 145.794 187.027 139.344 187.027 132.883C187.027 126.646 187.027 120.399 187.027 114.162C187.027 109.142 187.027 104.133 187.027 99.1125C187.027 96.3439 187.027 93.5651 187.027 90.7965C187.027 81.8721 179.476 83.2614 179.476 83.2614C179.476 83.2614 172.9 127.488 168.712 138.37C164.646 148.917 161.892 159.981 160.083 171.117C159.199 176.583 157.654 182.029 154.533 186.663C151.332 191.43 148.11 204.472 144.349 208.772C133.565 221.094 98.855 281.222 87.4307 292.946" fill="#A9E5EA"/>
<path d="M143.149 292.945C143.149 292.945 151.962 258.12 159.585 239.926L132.325 225.474C117.475 248.13 95.8158 284.153 87.2476 292.945" fill="#0C555B"/>
<path d="M143.149 292.945C143.149 292.945 151.962 258.12 159.585 239.926L132.325 225.474C117.475 248.13 95.8158 284.153 87.2476 292.945" stroke="#0C555B" stroke-width="2" stroke-miterlimit="10"/>
<path d="M168.732 139.81C171.539 139.81 173.814 137.539 173.814 134.739C173.814 131.938 171.539 129.668 168.732 129.668C165.925 129.668 163.65 131.938 163.65 134.739C163.65 137.539 165.925 139.81 168.732 139.81Z" fill="#F8A957"/>
<path d="M174.83 147.923C177.637 147.923 179.912 145.653 179.912 142.853C179.912 140.052 177.637 137.782 174.83 137.782C172.024 137.782 169.748 140.052 169.748 142.853C169.748 145.653 172.024 147.923 174.83 147.923Z" fill="#FFD397"/>
<path d="M178.896 157.05C181.703 157.05 183.978 154.78 183.978 151.98C183.978 149.179 181.703 146.909 178.896 146.909C176.089 146.909 173.814 149.179 173.814 151.98C173.814 154.78 176.089 157.05 178.896 157.05Z" fill="#F8A957"/>
<path d="M176.863 167.191C179.67 167.191 181.945 164.921 181.945 162.121C181.945 159.32 179.67 157.05 176.863 157.05C174.057 157.05 171.781 159.32 171.781 162.121C171.781 164.921 174.057 167.191 176.863 167.191Z" fill="#F3A34F"/>
<path d="M180.929 176.319C183.736 176.319 186.011 174.049 186.011 171.248C186.011 168.448 183.736 166.177 180.929 166.177C178.122 166.177 175.847 168.448 175.847 171.248C175.847 174.049 178.122 176.319 180.929 176.319Z" fill="#F8A957"/>
<path d="M182.962 186.46C185.768 186.46 188.044 184.19 188.044 181.39C188.044 178.589 185.768 176.319 182.962 176.319C180.155 176.319 177.88 178.589 177.88 181.39C177.88 184.19 180.155 186.46 182.962 186.46Z" fill="#FFD397"/>
<path d="M179.486 195.942C182.293 195.942 184.568 193.672 184.568 190.872C184.568 188.071 182.293 185.801 179.486 185.801C176.679 185.801 174.404 188.071 174.404 190.872C174.404 193.672 176.679 195.942 179.486 195.942Z" fill="#F8A957"/>
<path d="M183.551 205.07C186.358 205.07 188.633 202.8 188.633 199.999C188.633 197.199 186.358 194.928 183.551 194.928C180.744 194.928 178.469 197.199 178.469 199.999C178.469 202.8 180.744 205.07 183.551 205.07Z" fill="#F3A34F"/>
<path d="M185.584 222.31C188.391 222.31 190.666 220.04 190.666 217.239C190.666 214.439 188.391 212.169 185.584 212.169C182.777 212.169 180.502 214.439 180.502 217.239C180.502 220.04 182.777 222.31 185.584 222.31Z" fill="#F5C987"/>
<path d="M192.74 238.719H186.966V232.239H182.637V238.719H176.853V243.049H182.637V259.62H186.966V243.049H192.74V238.719Z" fill="#F5C987"/>
</g>
<defs>
<radialGradient id="paint0_radial" cx="0" cy="0" r="1" gradientUnits="userSpaceOnUse" gradientTransform="translate(186.354 146.24) scale(150.193 149.86)">
<stop offset="2.39617e-07" stop-color="#6EC2C4"/>
<stop offset="1" stop-color="#6EC2C4"/>
</radialGradient>
<clipPath id="clip0">
<rect width="375" height="292" fill="white"/>
</clipPath>
</defs>
</svg>
