<svg width="320" height="399" viewBox="0 0 320 399" fill="none" xmlns="http://www.w3.org/2000/svg">
<path d="M320 397L217.91 0H102.09L0 397" fill="url(#paint0_radial)"/>
<path d="M174.218 211.874C177.143 211.874 179.514 209.503 179.514 206.579C179.514 203.654 177.143 201.283 174.218 201.283C171.293 201.283 168.922 203.654 168.922 206.579C168.922 209.503 171.293 211.874 174.218 211.874Z" fill="#F8A957"/>
<path d="M183.761 252.143C186.686 252.143 189.057 249.772 189.057 246.847C189.057 243.923 186.686 241.552 183.761 241.552C180.836 241.552 178.465 243.923 178.465 246.847C178.465 249.772 180.836 252.143 183.761 252.143Z" fill="#F8A957"/>
<path d="M206.437 397.945C206.437 397.945 193.706 347.509 185.254 334.397C176.802 321.284 168.488 311.54 163.182 303.48C162.186 301.976 161.106 300.038 161.021 298.216C160.926 296.066 161.021 293.884 161.021 291.734C161.021 288.038 160.905 284.362 160.905 280.666C160.905 276.673 160.905 272.68 160.905 268.687C160.905 262.788 160.905 256.899 160.905 250.999C160.905 244.263 160.905 237.527 160.905 230.78C160.905 224.266 160.905 217.742 160.905 211.228C160.905 205.986 160.905 200.753 160.905 195.511C160.905 192.619 160.905 189.717 160.905 186.826C160.905 177.505 168.774 178.956 168.774 178.956C168.774 178.956 175.627 225.146 179.99 236.51C184.227 247.525 187.097 259.081 188.983 270.71C189.904 276.419 191.514 282.106 194.765 286.947C198.102 291.925 201.459 305.545 205.378 310.036C216.616 322.905 252.786 385.702 264.69 397.945" fill="#A4DDDD"/>
<path d="M206.437 397.945C206.437 397.945 197.254 361.574 189.311 342.573L217.717 327.48C233.191 351.141 255.762 388.762 264.69 397.945" fill="#0C555B"/>
<path d="M206.437 397.945C206.437 397.945 197.254 361.574 189.311 342.573L217.717 327.48C233.191 351.141 255.762 388.762 264.69 397.945" stroke="#0C555B" stroke-width="2" stroke-miterlimit="10"/>
<path d="M163.626 314.644C166.551 314.644 168.922 312.273 168.922 309.348C168.922 306.423 166.551 304.052 163.626 304.052C160.702 304.052 158.331 306.423 158.331 309.348C158.331 312.273 160.702 314.644 163.626 314.644Z" fill="#F8A957"/>
<path d="M158.765 334.545C161.689 334.545 164.06 332.174 164.06 329.249C164.06 326.325 161.689 323.954 158.765 323.954C155.84 323.954 153.469 326.325 153.469 329.249C153.469 332.174 155.84 334.545 158.765 334.545Z" fill="#F8A957"/>
<path d="M166.804 283.918C169.729 283.918 172.1 281.547 172.1 278.622C172.1 275.697 169.729 273.326 166.804 273.326C163.879 273.326 161.508 275.697 161.508 278.622C161.508 281.547 163.879 283.918 166.804 283.918Z" fill="#F8A957"/>
<path d="M175.277 277.562C178.202 277.562 180.573 275.191 180.573 272.267C180.573 269.342 178.202 266.971 175.277 266.971C172.352 266.971 169.981 269.342 169.981 272.267C169.981 275.191 172.352 277.562 175.277 277.562Z" fill="#F3A34F"/>
<path d="M183.75 271.208C186.675 271.208 189.046 268.837 189.046 265.912C189.046 262.988 186.675 260.617 183.75 260.617C180.825 260.617 178.454 262.988 178.454 265.912C178.454 268.837 180.825 271.208 183.75 271.208Z" fill="#F8A957"/>
<path d="M187.998 261.675C190.922 261.675 193.293 259.304 193.293 256.38C193.293 253.455 190.922 251.084 187.998 251.084C185.073 251.084 182.702 253.455 182.702 256.38C182.702 259.304 185.073 261.675 187.998 261.675Z" fill="#FFD397"/>
<path d="M162.567 194.928C165.492 194.928 167.863 192.557 167.863 189.633C167.863 186.708 165.492 184.337 162.567 184.337C159.642 184.337 157.271 186.708 157.271 189.633C157.271 192.557 159.642 194.928 162.567 194.928Z" fill="#F8A957"/>
<path d="M169.981 202.342C172.906 202.342 175.277 199.971 175.277 197.046C175.277 194.122 172.906 191.751 169.981 191.751C167.057 191.751 164.686 194.122 164.686 197.046C164.686 199.971 167.057 202.342 169.981 202.342Z" fill="#FFD397"/>
<path d="M115.351 397.945C115.351 397.945 128.092 347.509 136.544 334.397C144.996 321.284 153.311 311.54 158.617 303.48C159.612 301.976 160.693 300.038 160.778 298.216C160.873 296.066 160.778 293.884 160.778 291.734C160.778 288.038 160.894 284.362 160.894 280.666C160.894 276.673 160.894 272.68 160.894 268.687C160.894 262.788 160.894 256.899 160.894 250.999C160.894 244.263 160.894 237.527 160.894 230.78C160.894 224.266 160.894 217.742 160.894 211.228C160.894 205.986 160.894 200.753 160.894 195.511C160.894 192.619 160.894 189.717 160.894 186.826C160.894 177.505 153.025 178.956 153.025 178.956C153.025 178.956 146.172 225.146 141.808 236.51C137.572 247.525 134.701 259.081 132.816 270.71C131.895 276.419 130.285 282.106 127.033 286.947C123.697 291.925 120.339 305.545 116.42 310.036C105.183 322.905 69.013 385.702 57.1082 397.945" fill="#A9E5EA"/>
<path d="M115.171 397.945C115.171 397.945 124.353 361.574 132.297 342.573L103.891 327.48C88.4165 351.141 65.8461 388.762 56.9175 397.945" fill="#0C555B"/>
<path d="M115.171 397.945C115.171 397.945 124.353 361.574 132.297 342.573L103.891 327.48C88.4165 351.141 65.8461 388.762 56.9175 397.945" stroke="#0C555B" stroke-width="2" stroke-miterlimit="10"/>
<path d="M141.829 238.014C144.754 238.014 147.125 235.643 147.125 232.718C147.125 229.793 144.754 227.422 141.829 227.422C138.904 227.422 136.533 229.793 136.533 232.718C136.533 235.643 138.904 238.014 141.829 238.014Z" fill="#F8A957"/>
<path d="M148.184 246.488C151.109 246.488 153.48 244.117 153.48 241.192C153.48 238.267 151.109 235.896 148.184 235.896C145.259 235.896 142.888 238.267 142.888 241.192C142.888 244.117 145.259 246.488 148.184 246.488Z" fill="#FFD397"/>
<path d="M152.421 256.02C155.345 256.02 157.716 253.649 157.716 250.724C157.716 247.799 155.345 245.428 152.421 245.428C149.496 245.428 147.125 247.799 147.125 250.724C147.125 253.649 149.496 256.02 152.421 256.02Z" fill="#F8A957"/>
<path d="M150.302 266.611C153.227 266.611 155.598 264.24 155.598 261.315C155.598 258.39 153.227 256.019 150.302 256.019C147.378 256.019 145.007 258.39 145.007 261.315C145.007 264.24 147.378 266.611 150.302 266.611Z" fill="#F3A34F"/>
<path d="M154.539 276.144C157.464 276.144 159.835 273.773 159.835 270.848C159.835 267.923 157.464 265.552 154.539 265.552C151.614 265.552 149.243 267.923 149.243 270.848C149.243 273.773 151.614 276.144 154.539 276.144Z" fill="#F8A957"/>
<path d="M156.657 286.734C159.582 286.734 161.953 284.363 161.953 281.439C161.953 278.514 159.582 276.143 156.657 276.143C153.733 276.143 151.362 278.514 151.362 281.439C151.362 284.363 153.733 286.734 156.657 286.734Z" fill="#FFD397"/>
<path d="M153.035 296.638C155.96 296.638 158.33 294.267 158.33 291.342C158.33 288.418 155.96 286.047 153.035 286.047C150.11 286.047 147.739 288.418 147.739 291.342C147.739 294.267 150.11 296.638 153.035 296.638Z" fill="#F8A957"/>
<path d="M157.271 306.17C160.196 306.17 162.567 303.799 162.567 300.875C162.567 297.95 160.196 295.579 157.271 295.579C154.347 295.579 151.976 297.95 151.976 300.875C151.976 303.799 154.347 306.17 157.271 306.17Z" fill="#F3A34F"/>
<path d="M159.39 324.176C162.314 324.176 164.685 321.805 164.685 318.88C164.685 315.955 162.314 313.584 159.39 313.584C156.465 313.584 154.094 315.955 154.094 318.88C154.094 321.805 156.465 324.176 159.39 324.176Z" fill="#F5C987"/>
<path d="M166.846 341.313H160.83V334.545H156.318V341.313H150.292V345.835H156.318V363.142H160.83V345.835H166.846V341.313Z" fill="#F5C987"/>
<defs>
<radialGradient id="paint0_radial" cx="0" cy="0" r="1" gradientUnits="userSpaceOnUse" gradientTransform="translate(160.002 198.501) scale(156.314 203.414)">
<stop offset="2.39617e-07" stop-color="#6EC2C4"/>
<stop offset="1" stop-color="#6EC2C4"/>
</radialGradient>
</defs>
</svg>
