<svg width="58" height="57" viewBox="0 0 58 57" fill="none" xmlns="http://www.w3.org/2000/svg">
<path d="M32.3571 9.04212C33.0891 9.04212 33.6825 8.44872 33.6825 7.71674C33.6825 6.98475 33.0891 6.39136 32.3571 6.39136C31.6251 6.39136 31.0317 6.98475 31.0317 7.71674C31.0317 8.44872 31.6251 9.04212 32.3571 9.04212Z" fill="#F8A957"/>
<path d="M34.7457 19.1201C35.4777 19.1201 36.0711 18.5267 36.0711 17.7947C36.0711 17.0628 35.4777 16.4694 34.7457 16.4694C34.0137 16.4694 33.4203 17.0628 33.4203 17.7947C33.4203 18.5267 34.0137 19.1201 34.7457 19.1201Z" fill="#F8A957"/>
<path d="M40.4208 55.6103C40.4208 55.6103 37.2346 42.9874 35.1193 39.7057C33.004 36.4241 30.9232 33.9854 29.5951 31.9682C29.346 31.5918 29.0756 31.1067 29.0544 30.6507C29.0305 30.1126 29.0544 29.5666 29.0544 29.0285C29.0544 28.1034 29.0252 27.1835 29.0252 26.2584C29.0252 25.2591 29.0252 24.2598 29.0252 23.2604C29.0252 21.7839 29.0252 20.3101 29.0252 18.8336C29.0252 17.1478 29.0252 15.4619 29.0252 13.7734C29.0252 12.1431 29.0252 10.5103 29.0252 8.88005C29.0252 7.56792 29.0252 6.25845 29.0252 4.94633C29.0252 4.22267 29.0252 3.49636 29.0252 2.7727C29.0252 0.440034 30.9948 0.803188 30.9948 0.803188C30.9948 0.803188 32.7098 12.3631 33.8019 15.2074C34.8622 17.9642 35.5806 20.8562 36.0524 23.7667C36.283 25.1955 36.6859 26.6189 37.4997 27.8303C38.3347 29.0762 39.175 32.4851 40.1558 33.609C42.9682 36.8297 52.0206 52.546 55 55.6103" fill="#A4DDDD"/>
<path d="M40.4209 55.6101C40.4209 55.6101 38.1227 46.5074 36.1346 41.7519L43.2439 37.9746C47.1167 43.8964 52.7654 53.3119 55 55.6101" fill="#0C555B"/>
<path d="M40.4209 55.6101C40.4209 55.6101 38.1227 46.5074 36.1346 41.7519L43.2439 37.9746C47.1167 43.8964 52.7654 53.3119 55 55.6101H40.4209Z" stroke="#0C555B" stroke-width="2" stroke-miterlimit="10"/>
<path d="M29.7065 34.7618C30.4384 34.7618 31.0318 34.1685 31.0318 33.4365C31.0318 32.7045 30.4384 32.1111 29.7065 32.1111C28.9745 32.1111 28.3811 32.7045 28.3811 33.4365C28.3811 34.1685 28.9745 34.7618 29.7065 34.7618Z" fill="#F8A957"/>
<path d="M28.4897 39.7426C29.2217 39.7426 29.8151 39.1492 29.8151 38.4172C29.8151 37.6852 29.2217 37.0918 28.4897 37.0918C27.7577 37.0918 27.1643 37.6852 27.1643 38.4172C27.1643 39.1492 27.7577 39.7426 28.4897 39.7426Z" fill="#F8A957"/>
<path d="M30.5016 27.0721C31.2336 27.0721 31.827 26.4788 31.827 25.7468C31.827 25.0148 31.2336 24.4214 30.5016 24.4214C29.7696 24.4214 29.1762 25.0148 29.1762 25.7468C29.1762 26.4788 29.7696 27.0721 30.5016 27.0721Z" fill="#F8A957"/>
<path d="M32.6223 25.4816C33.3542 25.4816 33.9476 24.8882 33.9476 24.1562C33.9476 23.4242 33.3542 22.8308 32.6223 22.8308C31.8903 22.8308 31.2969 23.4242 31.2969 24.1562C31.2969 24.8882 31.8903 25.4816 32.6223 25.4816Z" fill="#F3A34F"/>
<path d="M34.7429 23.8915C35.4749 23.8915 36.0683 23.2981 36.0683 22.5661C36.0683 21.8341 35.4749 21.2407 34.7429 21.2407C34.0109 21.2407 33.4175 21.8341 33.4175 22.5661C33.4175 23.2981 34.0109 23.8915 34.7429 23.8915Z" fill="#F8A957"/>
<path d="M35.8059 21.5053C36.5379 21.5053 37.1313 20.9119 37.1313 20.1799C37.1313 19.4479 36.5379 18.8545 35.8059 18.8545C35.0739 18.8545 34.4805 19.4479 34.4805 20.1799C34.4805 20.9119 35.0739 21.5053 35.8059 21.5053Z" fill="#FFD397"/>
<path d="M29.4414 4.80042C30.1734 4.80042 30.7668 4.20702 30.7668 3.47504C30.7668 2.74305 30.1734 2.14966 29.4414 2.14966C28.7095 2.14966 28.1161 2.74305 28.1161 3.47504C28.1161 4.20702 28.7095 4.80042 29.4414 4.80042Z" fill="#F8A957"/>
<path d="M31.2969 6.65589C32.0289 6.65589 32.6223 6.06249 32.6223 5.33051C32.6223 4.59852 32.0289 4.00513 31.2969 4.00513C30.565 4.00513 29.9716 4.59852 29.9716 5.33051C29.9716 6.06249 30.565 6.65589 31.2969 6.65589Z" fill="#FFD397"/>
<path d="M17.6243 55.611C17.6243 55.611 20.8131 42.9881 22.9284 39.7065C25.0437 36.4248 27.1246 33.9861 28.4526 31.9689C28.7018 31.5925 28.9722 31.1074 28.9934 30.6515C29.0172 30.1134 28.9934 29.5673 28.9934 29.0292C28.9934 28.1041 29.0225 27.1843 29.0225 26.2592C29.0225 25.2598 29.0225 24.2605 29.0225 23.2612C29.0225 21.7847 29.0225 20.3109 29.0225 18.8344C29.0225 17.1485 29.0225 15.4626 29.0225 13.7741C29.0225 12.1439 29.0225 10.511 29.0225 8.88078C29.0225 7.56866 29.0225 6.25918 29.0225 4.94706C29.0225 4.2234 29.0225 3.49709 29.0225 2.77343C29.0225 0.440766 27.053 0.80392 27.053 0.80392C27.053 0.80392 25.338 12.3639 24.2459 15.2081C23.1855 17.9649 22.4672 20.8569 21.9954 23.7674C21.7647 25.1962 21.3618 26.6197 20.548 27.8311C19.7131 29.0769 18.8728 32.4858 17.892 33.6097C15.0795 36.8304 6.02718 52.5467 3.04773 55.611" fill="#A9E5EA"/>
<path d="M24.2512 15.5839C24.9831 15.5839 25.5765 14.9905 25.5765 14.2585C25.5765 13.5265 24.9831 12.9331 24.2512 12.9331C23.5192 12.9331 22.9258 13.5265 22.9258 14.2585C22.9258 14.9905 23.5192 15.5839 24.2512 15.5839Z" fill="#F8A957"/>
<path d="M25.8416 17.7046C26.5736 17.7046 27.167 17.1112 27.167 16.3792C27.167 15.6472 26.5736 15.0538 25.8416 15.0538C25.1097 15.0538 24.5163 15.6472 24.5163 16.3792C24.5163 17.1112 25.1097 17.7046 25.8416 17.7046Z" fill="#FFD397"/>
<path d="M26.902 20.0902C27.634 20.0902 28.2274 19.4968 28.2274 18.7648C28.2274 18.0328 27.634 17.4395 26.902 17.4395C26.17 17.4395 25.5766 18.0328 25.5766 18.7648C25.5766 19.4968 26.17 20.0902 26.902 20.0902Z" fill="#F8A957"/>
<path d="M26.3718 22.7415C27.1038 22.7415 27.6972 22.1481 27.6972 21.4161C27.6972 20.6841 27.1038 20.0907 26.3718 20.0907C25.6398 20.0907 25.0464 20.6841 25.0464 21.4161C25.0464 22.1481 25.6398 22.7415 26.3718 22.7415Z" fill="#F3A34F"/>
<path d="M27.4321 25.1261C28.1641 25.1261 28.7575 24.5327 28.7575 23.8007C28.7575 23.0687 28.1641 22.4753 27.4321 22.4753C26.7001 22.4753 26.1068 23.0687 26.1068 23.8007C26.1068 24.5327 26.7001 25.1261 27.4321 25.1261Z" fill="#F8A957"/>
<path d="M27.9623 27.7772C28.6943 27.7772 29.2877 27.1838 29.2877 26.4518C29.2877 25.7199 28.6943 25.1265 27.9623 25.1265C27.2303 25.1265 26.6369 25.7199 26.6369 26.4518C26.6369 27.1838 27.2303 27.7772 27.9623 27.7772Z" fill="#FFD397"/>
<path d="M27.0556 30.256C27.7876 30.256 28.381 29.6626 28.381 28.9306C28.381 28.1986 27.7876 27.6052 27.0556 27.6052C26.3236 27.6052 25.7303 28.1986 25.7303 28.9306C25.7303 29.6626 26.3236 30.256 27.0556 30.256Z" fill="#F8A957"/>
<path d="M28.116 32.6411C28.848 32.6411 29.4413 32.0477 29.4413 31.3157C29.4413 30.5837 28.848 29.9904 28.116 29.9904C27.384 29.9904 26.7906 30.5837 26.7906 31.3157C26.7906 32.0477 27.384 32.6411 28.116 32.6411Z" fill="#F3A34F"/>
<path d="M28.6461 37.1473C29.3781 37.1473 29.9715 36.5539 29.9715 35.822C29.9715 35.09 29.3781 34.4966 28.6461 34.4966C27.9141 34.4966 27.3207 35.09 27.3207 35.822C27.3207 36.5539 27.9141 37.1473 28.6461 37.1473Z" fill="#F5C987"/>
<path d="M30.5123 41.4368H29.0066V39.7429H27.8774V41.4368H26.3691V42.5686H27.8774V46.9H29.0066V42.5686H30.5123V41.4368Z" fill="#F5C987"/>
<path d="M17.5792 55.0547C17.5792 55.0547 19.8774 45.952 21.8654 41.1965L14.7561 37.4192C10.8834 43.341 5.23458 52.7565 3 55.0547" fill="#0C555B"/>
<path d="M17.5792 55.0547C17.5792 55.0547 19.8774 45.952 21.8654 41.1965L14.7561 37.4192C10.8834 43.341 5.23459 52.7565 3 55.0547H17.5792Z" stroke="#0C555B" stroke-width="2" stroke-miterlimit="10"/>
</svg>
