<?xml version="1.0" encoding="utf-8"?>
<!-- Generator: Adobe Illustrator 24.3.0, SVG Export Plug-In . SVG Version: 6.00 Build 0)  -->
<svg version="1.1" id="Layer_1" xmlns="http://www.w3.org/2000/svg" xmlns:xlink="http://www.w3.org/1999/xlink" x="0px" y="0px"
	 viewBox="0 0 26 35" style="enable-background:new 0 0 26 35;" xml:space="preserve">
<style type="text/css">
	.st0{fill:#10849A;}
	.st1{opacity:0.3;fill:#A6E4EA;}
</style>
<g>
	<path class="st0" d="M20.6,2.56c-0.82-0.63-1.71-1.15-2.66-1.55C17.93,1,17.92,0.99,17.91,0.99c-0.12-0.05-0.24-0.1-0.36-0.15
		c-0.14-0.05-0.27-0.1-0.41-0.15c-0.14-0.05-0.28-0.09-0.42-0.14c-0.07-0.02-0.14-0.04-0.21-0.06c-0.06-0.02-0.12-0.03-0.18-0.05
		c-0.57-0.16-1.15-0.28-1.75-0.35c-6-0.69-11.92,2.84-13.81,8.27C0.73,8.48,0.7,8.62,0.7,8.75L0.5,26.25c0,0,0,0.03,0,0.05
		c0,0.09,0.01,0.18,0.01,0.26c0,0.05,0,0.1,0.01,0.15c0.01,0.17,0.03,0.34,0.05,0.5c0,0.04,0.01,0.09,0.02,0.14
		c0.01,0.07,0.02,0.13,0.03,0.2c0,0.02,0,0.04,0.01,0.05c0.01,0.06,0.02,0.12,0.03,0.19c0.01,0.07,0.03,0.14,0.04,0.2
		c0.02,0.08,0.03,0.16,0.05,0.24c0.03,0.14,0.07,0.28,0.11,0.41c0.02,0.08,0.05,0.16,0.07,0.24c0.02,0.05,0.03,0.1,0.05,0.15
		c0.03,0.1,0.07,0.2,0.11,0.29c0.02,0.06,0.04,0.11,0.07,0.17c0.01,0.04,0.03,0.08,0.05,0.11c0.03,0.08,0.07,0.17,0.11,0.25
		c0.04,0.09,0.08,0.18,0.13,0.27c0.01,0.02,0.02,0.05,0.04,0.07c0.04,0.07,0.08,0.15,0.12,0.22c0.05,0.09,0.11,0.19,0.16,0.28
		c0.04,0.07,0.09,0.15,0.14,0.22c0.02,0.03,0.04,0.06,0.06,0.09c0.05,0.08,0.1,0.15,0.16,0.23c0.06,0.09,0.12,0.17,0.19,0.26
		c0.13,0.17,0.26,0.34,0.4,0.49c0,0,0,0.01,0.01,0.01c0.07,0.07,0.13,0.15,0.2,0.22c0,0.01,0.01,0.01,0.01,0.01
		C3,32.32,3.07,32.4,3.15,32.47c0.08,0.07,0.15,0.15,0.23,0.22c0.07,0.06,0.14,0.13,0.22,0.19c0.02,0.02,0.04,0.04,0.06,0.06
		C3.73,33,3.8,33.05,3.87,33.11c0.08,0.06,0.15,0.12,0.23,0.18c0.01,0.01,0.03,0.02,0.05,0.03c0.08,0.06,0.16,0.11,0.24,0.16
		c0,0,0,0,0.01,0.01c0.18,0.12,0.36,0.23,0.54,0.34c0.09,0.05,0.19,0.11,0.28,0.16c0.1,0.05,0.19,0.1,0.29,0.15
		c0.1,0.05,0.2,0.09,0.3,0.14c0.1,0.04,0.2,0.08,0.3,0.12c0,0,0,0,0.01,0C7.04,34.76,8.04,34.97,9.1,35h0.14
		c3.52,0,6.7-2.11,8.07-5.36c0.52-1.3,1.15-2.55,1.87-3.75l2.5-3.94c0.41-0.62,0.82-1.29,1.25-1.87C27.12,14.6,26.08,6.76,20.6,2.56
		z M5.67,23.84v-2.79c0-0.43,0.35-0.78,0.78-0.78c0.97,0,1.75-0.79,1.75-1.75c0-0.96-0.79-1.75-1.75-1.75
		c-0.43,0-0.78-0.35-0.78-0.78l0-1.84c0.17-3.1,2.74-5.52,5.84-5.52c0.26,0,0.51,0.02,0.76,0.05c2.56,0.34,4.58,2.28,5.02,4.82
		c0.03,0.21-0.02,0.42-0.14,0.59c-0.13,0.17-0.31,0.28-0.52,0.32c-0.43,0.07-0.84-0.23-0.91-0.66c-0.16-0.91-0.59-1.72-1.25-2.36
		c-0.66-0.64-1.5-1.04-2.41-1.16c-0.17-0.02-0.35-0.03-0.53-0.03h-0.01c-2.27,0-4.15,1.78-4.28,4.06v1.05l0.17,0.05
		c0.85,0.25,1.55,0.82,1.97,1.6c0.42,0.78,0.52,1.67,0.26,2.52c-0.32,1.08-1.16,1.91-2.23,2.23l-0.17,0.05v2.09
		c0,0.43-0.35,0.78-0.78,0.78S5.67,24.27,5.67,23.84z"/>
	<path class="st1" d="M22.58,8.53c-0.41-2.81-1.89-5.32-4.15-7.04c-0.19-0.14-0.35-0.3-0.48-0.48C17.93,1,17.92,0.99,17.91,0.99
		c-0.12-0.05-0.24-0.1-0.36-0.15c-0.14-0.05-0.27-0.1-0.41-0.15c-0.14-0.05-0.28-0.09-0.42-0.14c-0.07-0.02-0.14-0.04-0.21-0.06
		c-0.06-0.02-0.12-0.03-0.18-0.05c-0.57-0.16-1.15-0.28-1.75-0.35c-6-0.69-11.92,2.84-13.81,8.27C0.73,8.48,0.7,8.62,0.7,8.75
		L0.5,26.25c0,0,0,0.03,0,0.05c0,0.09,0.01,0.18,0.01,0.26c0,0.05,0,0.1,0.01,0.15c0.01,0.17,0.03,0.34,0.05,0.5
		c0,0.04,0.01,0.09,0.02,0.14c0.01,0.07,0.02,0.13,0.03,0.2c0,0.02,0,0.04,0.01,0.05c0.01,0.06,0.02,0.12,0.03,0.19
		c0.01,0.07,0.03,0.14,0.04,0.2c0.02,0.08,0.03,0.16,0.05,0.24c0.03,0.14,0.07,0.28,0.11,0.41c0.02,0.08,0.05,0.16,0.07,0.24
		c0.02,0.05,0.03,0.1,0.05,0.15c0.03,0.1,0.07,0.2,0.11,0.29c0.02,0.06,0.04,0.11,0.07,0.17c0.01,0.04,0.03,0.08,0.05,0.11
		c0.03,0.08,0.07,0.17,0.11,0.25c0.04,0.09,0.08,0.18,0.13,0.27c0.01,0.02,0.02,0.05,0.04,0.07c0.04,0.07,0.08,0.15,0.12,0.22
		c0.05,0.09,0.11,0.19,0.16,0.28c0.04,0.07,0.09,0.15,0.14,0.22c0.02,0.03,0.04,0.06,0.06,0.09c0.05,0.08,0.1,0.15,0.16,0.23
		c0.06,0.09,0.12,0.17,0.19,0.26c0.13,0.17,0.26,0.34,0.4,0.49c0,0,0,0.01,0.01,0.01c0.07,0.07,0.13,0.15,0.2,0.22
		c0,0.01,0.01,0.01,0.01,0.01C3,32.32,3.07,32.4,3.15,32.47c0.08,0.07,0.15,0.15,0.23,0.22c0.07,0.06,0.14,0.13,0.22,0.19
		c0.02,0.02,0.04,0.04,0.06,0.06C3.73,33,3.8,33.05,3.87,33.11c0.08,0.06,0.15,0.12,0.23,0.18c0.01,0.01,0.03,0.02,0.05,0.03
		c0.08,0.06,0.16,0.11,0.24,0.16c0,0,0,0,0.01,0.01c0.18,0.12,0.36,0.23,0.54,0.34c0.09,0.05,0.19,0.11,0.28,0.16
		c0.1,0.05,0.19,0.1,0.29,0.15c0.1,0.05,0.2,0.09,0.3,0.14c0.1,0.04,0.2,0.08,0.3,0.12c0,0,0,0,0.01,0c0.72,0,1.43-0.02,2.15-0.07
		c1.01-0.26,1.97-0.66,2.85-1.25c1.36-0.92,2.44-2.39,3.34-4.01c1.25-2.26,2.06-4.73,3.29-7c1.43-2.65,3.37-5.2,4.3-8.08
		c0.36-1.09,0.56-2.21,0.67-3.34C22.72,9.93,22.68,9.23,22.58,8.53z M17.14,14.09c-0.13,0.17-0.31,0.28-0.52,0.32
		c-0.43,0.07-0.84-0.23-0.91-0.66c-0.16-0.91-0.59-1.72-1.25-2.36c-0.66-0.64-1.5-1.04-2.41-1.16c-0.17-0.02-0.35-0.03-0.53-0.03
		h-0.01c-2.27,0-4.15,1.78-4.28,4.06v1.05l0.17,0.05c0.85,0.25,1.55,0.82,1.97,1.6c0.42,0.78,0.52,1.67,0.26,2.52
		c-0.32,1.08-1.16,1.91-2.23,2.23l-0.17,0.05v2.09c0,0.43-0.35,0.78-0.78,0.78s-0.78-0.35-0.78-0.78v-2.79
		c0-0.43,0.35-0.78,0.78-0.78c0.97,0,1.75-0.79,1.75-1.75c0-0.96-0.79-1.75-1.75-1.75c-0.43,0-0.78-0.35-0.78-0.78l0-1.84
		c0.17-3.1,2.74-5.52,5.84-5.52c0.26,0,0.51,0.02,0.76,0.05c2.56,0.34,4.58,2.28,5.02,4.82C17.32,13.71,17.27,13.92,17.14,14.09z"/>
</g>
</svg>
