<?xml version="1.0" encoding="utf-8"?>
<!-- Generator: Adobe Illustrator 24.3.0, SVG Export Plug-In . SVG Version: 6.00 Build 0)  -->
<svg version="1.1" id="Layer_1" xmlns="http://www.w3.org/2000/svg" xmlns:xlink="http://www.w3.org/1999/xlink" x="0px" y="0px"
	 viewBox="0 0 36 27" style="enable-background:new 0 0 36 27;" xml:space="preserve">
<style type="text/css">
	.st0{fill:#10849A;}
	.st1{opacity:0.3;}
	.st2{fill:#A6E4EA;}
</style>
<g>
	<g>
		<path class="st0" d="M32.3,10.28c-1.1-0.87-1.93-2.05-2.32-3.39l-1.42-5c0,0,0,0,0-0.04c0-0.75-4.73-1.34-10.55-1.34
			S7.45,1.1,7.45,1.85c0,0,0,0,0,0.04l-1.42,5C5.63,8.23,4.81,9.41,3.7,10.28c-3.23,2.56-4.41,7.17-2.4,11.15s6.73,5.91,10.95,4.49
			c2.87-0.98,4.92-3.23,5.75-5.91c0.83,2.68,2.87,4.92,5.75,5.91c4.21,1.42,8.94-0.51,10.95-4.49
			C36.71,17.45,35.53,12.84,32.3,10.28z M9.22,22.17c-0.79,0-1.42-0.63-1.42-1.42s0.63-1.42,1.42-1.42s1.42,0.63,1.42,1.42
			S10.01,22.17,9.22,22.17z M26.78,22.17c-0.79,0-1.42-0.63-1.42-1.42s0.63-1.42,1.42-1.42s1.42,0.63,1.42,1.42
			S27.57,22.17,26.78,22.17z"/>
	</g>
	<g class="st1">
		<path class="st2" d="M28.77,9.48C27.9,8.35,27.44,6.95,27,5.6c-0.35-1.09-0.63-2.2-0.8-3.33c-0.01-0.02-0.01-0.03-0.02-0.05
			c-0.18-0.38-0.22-0.8-0.11-1.18c0-0.02,0-0.04-0.01-0.06c0,0,0-0.01,0-0.01c-1.94-0.29-4.84-0.47-8.09-0.46
			C12.15,0.52,7.42,1.12,7.42,1.87c0,0,0,0,0,0.04l-1.41,5C5.62,8.25,4.8,9.43,3.7,10.3c-3.22,2.57-4.4,7.18-2.38,11.15
			c2.02,3.97,6.74,5.9,10.96,4.47c2.87-0.99,4.92-3.24,5.74-5.92c0.83,2.68,2.88,4.92,5.76,5.9c0.64,0.21,1.29,0.35,1.94,0.41
			c1.44-0.21,2.84-0.71,4.11-1.47c3.68-2.2,5.41-6.79,3.28-10.69C32.51,13.09,29.36,10.25,28.77,9.48z M9.91,22
			c-0.09,0.06-0.19,0.12-0.29,0.15c-0.17,0.09-0.36,0.13-0.55,0.12c-0.02,0-0.04,0-0.05,0c-0.04,0-0.08,0.01-0.11,0.01
			c-0.02,0-0.04,0-0.06,0c-0.14-0.01-0.29-0.02-0.43-0.06c-0.01,0-0.01,0-0.02-0.01c0,0-0.01,0-0.01-0.01
			c-0.02-0.01-0.32-0.13-0.35-0.15C8,22.06,7.99,22.06,7.98,22.05c-0.01-0.01-0.28-0.22-0.29-0.23c0,0,0,0-0.01-0.01
			c0,0-0.01-0.01-0.01-0.01c-0.19-0.2-0.32-0.41-0.39-0.68c-0.02-0.05-0.06-0.46-0.03-0.2c-0.01-0.06-0.02-0.13-0.03-0.19
			c0,0,0,0,0,0c0,0,0-0.01,0-0.01c0-0.03,0.04-0.37,0.05-0.39c0,0,0-0.01,0-0.01c0.01-0.02,0.14-0.33,0.15-0.35c0,0,0,0,0-0.01
			c0,0,0-0.01,0.01-0.01c0,0,0.22-0.29,0.23-0.29c0,0,0,0,0,0c0,0,0.01-0.01,0.01-0.01c0.01-0.01,0.28-0.22,0.3-0.23c0,0,0,0,0,0
			c0,0,0.01,0,0.01-0.01c0.01,0,0.34-0.14,0.35-0.15c0,0,0,0,0.01,0c0.01,0,0.01,0,0.02,0c0.04-0.01,0.14-0.02,0.19-0.03
			c0.06-0.01,0.17-0.02,0.21-0.03c0.01,0,0.01,0,0.02,0c0.01,0,0.01,0,0.02,0c0.06,0.01,0.23,0.03,0.2,0.03
			c0.01,0,0.14,0.01,0.2,0.03c0.01,0,0.03,0.01,0.04,0.01c0.01,0,0.02,0,0.03,0c0.06,0.01,0.14,0.02,0.21,0.03
			c0.02,0,0.03,0.01,0.04,0.01c0.2,0.06,0.38,0.15,0.54,0.29c0.36,0.26,0.59,0.67,0.59,1.15C10.64,21.29,10.34,21.76,9.91,22z
			 M27.64,21.88c-0.04,0.04-0.09,0.08-0.14,0.11c-0.14,0.13-0.3,0.21-0.49,0.26c-0.18,0.06-0.36,0.07-0.53,0.03
			c-0.2,0.03-0.4,0.02-0.61-0.03c-0.03-0.01-0.06-0.02-0.1-0.03c-0.79-0.22-1.1-1.05-0.94-1.76c0.09-0.63,0.55-1.21,1.37-1.21
			c0.06,0,0.11,0,0.16,0.01h0.16c0.17,0,0.33,0.03,0.48,0.09c0.68,0.11,1.19,0.69,1.19,1.4C28.2,21.22,27.98,21.63,27.64,21.88z"/>
	</g>
</g>
</svg>
