<svg width="61" height="58" viewBox="0 0 61 58" fill="none" xmlns="http://www.w3.org/2000/svg">
<path d="M56.9975 13.8802H0.00390625L3.1523 10.0356H53.4291L56.9975 13.8802Z" fill="#1ABAC6"/>
<path d="M3.51755 37.4593H53.2385L57 13.8848H0L3.51755 37.4593Z" fill="#159BAD"/>
<path d="M55.129 40.743H1.51709L3.51772 37.4585H53.2386L55.129 40.743Z" fill="#1AB6BA"/>
<path d="M54.0618 46.2974H2.69456L1.51709 40.7432H55.129L54.0618 46.2974Z" fill="#159BAD"/>
<path d="M6.88202 57.164L5.1084 46.2979H51.6109L49.9625 57.164" fill="#15949E"/>
<path d="M52.8355 42.4277H3.9144L3.78711 40.7432H52.9204L52.8355 42.4277Z" fill="#A2DBDD"/>
<path d="M5.92777 37.4546H50.3957L52.9204 40.7437H3.78711L5.92777 37.4546Z" fill="#A9E5EA"/>
<path d="M7.70972 37.4546H6.79745L5.60938 39.2123H6.52165L7.70972 37.4546Z" fill="#0C555B"/>
<path d="M10.5928 37.4546H9.68051L8.64307 39.2123H9.55322L10.5928 37.4546Z" fill="#0C555B"/>
<path d="M12.0355 37.4546H11.1233L10.2534 39.2123H11.1657L12.0355 37.4546Z" fill="#0C555B"/>
<path d="M14.8974 37.4546H13.9851L13.2871 39.2123H14.1973L14.8974 37.4546Z" fill="#0C555B"/>
<path d="M16.3188 37.4546H15.4065L14.77 39.2123H15.6823L16.3188 37.4546Z" fill="#0C555B"/>
<path d="M17.7829 37.4546H16.8707L16.2979 39.2123H17.2101L17.7829 37.4546Z" fill="#0C555B"/>
<path d="M20.6877 37.4546H19.7754L19.3511 39.2123H20.2633L20.6877 37.4546Z" fill="#0C555B"/>
<path d="M22.1509 37.4546H21.2386L20.9204 39.2123H21.8327L22.1509 37.4546Z" fill="#0C555B"/>
<path d="M24.9708 37.4546H24.0585L23.9736 39.2123H24.8859L24.9708 37.4546Z" fill="#0C555B"/>
<path d="M26.4342 37.4546H25.522V39.2146H26.4342V37.4546Z" fill="#0C555B"/>
<path d="M27.8986 37.4546H26.9863V39.2146H27.8986V37.4546Z" fill="#0C555B"/>
<path d="M30.7604 37.4546H29.8481L30.1239 39.2123H31.0362L30.7604 37.4546Z" fill="#0C555B"/>
<path d="M32.2646 37.4546H31.3545L31.6303 39.2123H32.5404L32.2646 37.4546Z" fill="#0C555B"/>
<path d="M35.1291 37.4546H34.2168L34.7048 39.2123H35.617L35.1291 37.4546Z" fill="#0C555B"/>
<path d="M36.5693 37.4546H35.6592L36.2299 39.2123H37.1422L36.5693 37.4546Z" fill="#0C555B"/>
<path d="M37.9694 37.4546H37.0571L37.736 39.2123H38.6483L37.9694 37.4546Z" fill="#0C555B"/>
<path d="M40.853 37.4546H39.9429L40.7682 39.2123H41.6804L40.853 37.4546Z" fill="#0C555B"/>
<path d="M42.359 37.4546H41.4468L42.3378 39.2123H43.2501L42.359 37.4546Z" fill="#0C555B"/>
<path d="M45.2422 37.4546H44.332L45.3695 39.2123H46.2817L45.2422 37.4546Z" fill="#0C555B"/>
<path d="M46.6422 37.4546H45.73L46.8756 39.2123H47.7879L46.6422 37.4546Z" fill="#0C555B"/>
<path d="M48.0641 37.4546H47.1519L48.4248 39.2123H49.3371L48.0641 37.4546Z" fill="#0C555B"/>
<path d="M53.1015 10.7699L59.3487 11.8502C59.5938 11.8923 59.7622 12.13 59.7208 12.3798L58.9854 17.1252C58.9854 17.1252 58.5837 19.4512 56.9709 19.1774C55.3582 18.9036 55.0923 18.0821 55.3582 17.2636C55.627 16.4421 56.7021 15.8944 58.0431 16.7159L58.5069 13.8783C58.5482 13.6286 58.3887 13.3908 58.1465 13.3397L53.7986 12.4069C53.6243 12.3707 53.456 12.4911 53.4294 12.6687L52.9391 16.1683C52.9391 16.1683 52.4015 18.3559 50.5229 17.8112C48.6443 17.2636 49.1583 15.6447 49.5836 15.2114C50.1212 14.6637 51.4622 14.3899 52.1356 15.3468L52.623 11.134C52.6496 10.8963 52.8682 10.7278 53.1015 10.7699Z" fill="#F8A957"/>
<path d="M49.9939 1.25027L54.2623 3.45485C54.4316 3.54249 54.5006 3.75823 54.4222 3.94026L52.9325 7.37522C52.9325 7.37522 52.1704 9.04719 51.0696 8.48425C49.9688 7.91794 49.9406 7.23701 50.3012 6.67407C50.6619 6.11113 51.5432 5.93584 52.3429 6.8561L53.2524 4.80996C53.3308 4.6313 53.2649 4.41556 53.1019 4.32117L50.1695 2.6492C50.0535 2.58178 49.9061 2.63572 49.8528 2.76718L48.7896 5.30885C48.7896 5.30885 47.9585 6.84936 46.7197 6.01674C45.4809 5.18413 46.1802 4.07173 46.5723 3.83913C47.0678 3.54249 48.0902 3.63351 48.3787 4.50995L49.583 1.42556C49.6458 1.2469 49.8371 1.16937 49.9939 1.25027Z" fill="#F8A957"/>
<path d="M52.296 21.1431C52.0502 20.8896 51.6441 21.0471 51.6402 21.4003L51.5936 25.4018C51.5936 25.4018 51.5445 26.6053 50.7265 26.3833C49.9085 26.1612 48.5738 26.9175 49.1834 28.5203C49.7929 30.1232 52.3235 29.1589 52.4038 27.5386C52.4841 25.9183 52.4833 22.8596 52.4833 22.8596C52.4833 22.8596 53.8033 24.1277 54.8786 23.1995C55.0543 23.0467 54.9967 22.7429 54.7715 22.6731C54.2049 22.5036 53.213 22.0857 52.296 21.1431Z" fill="#FFD397"/>
<path d="M41.1772 2.27226C41.1134 1.98337 40.7185 1.90041 40.5363 2.14068L38.4768 4.85802C38.4768 4.85802 37.8298 5.65892 37.3104 5.12404C36.7909 4.58915 35.3724 4.47473 35.0322 5.85915C34.692 7.24356 37.1433 7.77559 38.0242 6.70295C38.9051 5.63032 40.4512 3.53654 40.4512 3.53654C40.4512 3.53654 40.834 5.02678 42.1371 4.89807C42.3497 4.87804 42.4591 4.64064 42.3193 4.48618C41.97 4.10289 41.4141 3.35062 41.1772 2.27226Z" fill="#F5C987"/>
<path d="M58.4567 0.0205422C58.2923 -0.0636198 58.1223 0.124904 58.1836 0.330259L58.8776 2.63966C58.8776 2.63966 59.0699 3.34326 58.6323 3.41732C58.1947 3.49138 57.6763 4.2522 58.2616 5.02313C58.8442 5.79405 59.9088 4.61915 59.658 3.6698C59.4071 2.72046 58.8609 0.966523 58.8609 0.966523C58.8609 0.966523 59.7332 1.3705 60.09 0.572644C60.1485 0.441352 60.0649 0.283127 59.9423 0.296593C59.6329 0.333624 59.0755 0.336991 58.4567 0.0205422Z" fill="#F5C987"/>
<path d="M31.4698 23.3177H26.0024L26.3042 23.2217H31.1269L31.4698 23.3177Z" fill="#1ABAC6"/>
<path d="M31.4696 23.315H29.6022L29.6342 21.0864H27.8354L27.8651 23.315H26L26.3383 24.643H27.8834L27.9474 29.2326H29.5154L29.5817 24.643H31.1085L31.4696 23.315Z" fill="#18A7B2"/>
<path d="M29.6387 21.0823H27.833L27.9336 21H29.5244L29.6387 21.0823Z" fill="#1ABAC6"/>
</svg>
