<?xml version="1.0" encoding="utf-8"?>
<!-- Generator: Adobe Illustrator 24.3.0, SVG Export Plug-In . SVG Version: 6.00 Build 0)  -->
<svg version="1.1" id="Layer_1" xmlns="http://www.w3.org/2000/svg" xmlns:xlink="http://www.w3.org/1999/xlink" x="0px" y="0px"
	 viewBox="0 0 30 39" style="enable-background:new 0 0 30 39;" xml:space="preserve">
<style type="text/css">
	.st0{fill:#10849A;}
	.st1{opacity:0.3;}
	.st2{fill:#A6E4EA;}
</style>
<g>
	<g transform="translate(0,-284.29998)">
		<path class="st0" d="M1.22,321.62c-0.42,0.05-0.71,0.44-0.66,0.85c0.05,0.38,0.37,0.66,0.75,0.67H12.4c0.99,0,1.89-0.56,2.33-1.45
			c0.84-1.7,0.14-3.76-1.55-4.6c0,0,0,0-0.01,0c-0.05-3.07,0.26-6.14,0.91-9.14c2.54-2.79,3.33-6.76,2.05-10.31
			c-0.08-0.23,0.04-0.47,0.26-0.56c0.08-0.03,0.16-0.03,0.24-0.02c4.22,0.89,8.61,0.35,12.49-1.54c0.54-4.08-1.38-8.09-4.9-10.21
			c-5.27-0.02-10.45,1.4-14.97,4.12c-1.22,0.74-2.01,2.02-2.09,3.45c-0.48,7.8-0.1,15.63,1.15,23.35c0.09,0.54-0.05,1.09-0.38,1.52
			C6.29,319.88,3.88,321.27,1.22,321.62L1.22,321.62z"/>
	</g>
	<g transform="translate(0,-284.29998)" class="st1">
		<path class="st2" d="M24.19,285.34c-5.27-0.02-10.45,1.4-14.97,4.12c-1.22,0.74-2.01,2.02-2.09,3.45
			c-0.48,7.8-0.1,15.63,1.15,23.35c0.09,0.54-0.05,1.09-0.38,1.52c-1.62,2.14-4.03,3.54-6.69,3.88h0c-0.42,0.05-0.71,0.44-0.66,0.85
			c0.05,0.38,0.37,0.66,0.75,0.67h11.08c0.13,0,0.27-0.01,0.4-0.03c0.4-0.31,0.71-0.71,0.87-1.24c0.35-1.18,0.15-2.52-0.45-3.61
			c-0.19-0.25-0.4-0.48-0.65-0.71c-0.29-0.12-0.52-0.38-0.51-0.79c0.01-2.91,0.42-5.8,0.88-8.67c0.03-0.16,0.11-0.3,0.23-0.41
			c0.02-0.06,0.05-0.13,0.09-0.19c0.99-1.62,1.67-3.43,2.01-5.3c0.33-1.76,0.33-3.72-0.54-5.33c-0.46-0.85,0.55-1.62,1.21-1.24
			c0.08-0.02,0.16-0.02,0.26-0.02c2.43,0.14,4.91,0.39,7.32-0.02c2.07-0.35,3.79-1.38,5.53-2.49c0.03-0.02,0.06-0.04,0.1-0.05
			C28.79,289.92,27,287.04,24.19,285.34z"/>
		<path class="st2" d="M26.36,296.64c0.93-0.29,1.85-0.65,2.73-1.09c0.02-0.13,0.03-0.26,0.04-0.39
			C28.24,295.73,27.33,296.24,26.36,296.64z"/>
	</g>
</g>
</svg>
