<?xml version="1.0" encoding="utf-8"?>
<!-- Generator: Adobe Illustrator 24.3.0, SVG Export Plug-In . SVG Version: 6.00 Build 0)  -->
<svg version="1.1" id="Layer_1" xmlns="http://www.w3.org/2000/svg" xmlns:xlink="http://www.w3.org/1999/xlink" x="0px" y="0px"
	 viewBox="0 0 38 39" style="enable-background:new 0 0 38 39;" xml:space="preserve">
<style type="text/css">
	.st0{fill:#10849A;}
	.st1{opacity:0.3;}
	.st2{fill:#A6E4EA;}
</style>
<g>
	<g>
		<g transform="translate(-408.000000, -264.000000)">
			<g transform="translate(408.000000, 264.000000)">
				<path class="st0" d="M18.18,1.19v13.09c0,0.45,0.37,0.82,0.82,0.82s0.82-0.37,0.82-0.82V1.19c0-0.45-0.37-0.82-0.82-0.82
					S18.18,0.73,18.18,1.19z"/>
				<path class="st0" d="M16.31,16.49c0.95-0.95,1.84-1.4,2.69-1.4s1.75,0.45,2.69,1.4c0.32,0.32,0.84,0.32,1.16,0
					c0.32-0.32,0.32-0.84,0-1.16c-1.23-1.23-2.52-1.88-3.85-1.88s-2.62,0.64-3.85,1.88c-0.32,0.32-0.32,0.84,0,1.16
					C15.47,16.81,15.99,16.81,16.31,16.49z"/>
				<path class="st0" d="M16.54,10.34v18.67c0,4.97-4.03,9-9,9H1c-0.45,0-0.82-0.37-0.82-0.82v-7.94c0-9.51,4.28-16.57,12.76-21.08
					c1.2-0.64,2.68-0.18,3.32,1.01C16.45,9.54,16.54,9.93,16.54,10.34z"/>
				<path class="st0" d="M21.46,10.34c0-0.4,0.1-0.8,0.29-1.15c0.64-1.2,2.12-1.65,3.32-1.01c8.48,4.51,12.76,11.58,12.76,21.08
					v7.94c0,0.45-0.37,0.82-0.82,0.82h-6.55c-4.97,0-9-4.03-9-9V10.34z"/>
			</g>
		</g>
	</g>
	<g class="st1">
		<g transform="translate(-408.000000, -264.000000)">
			<g transform="translate(408.000000, 264.000000)">
				<path class="st2" d="M18.18,1.19v13.05c0,0.43,0.32,0.82,0.75,0.86c0.48,0.04,0.89-0.34,0.89-0.82V1.23
					c0-0.43-0.32-0.82-0.75-0.86C18.59,0.33,18.18,0.71,18.18,1.19z"/>
				<path class="st2" d="M16.34,16.46c0.94-0.93,1.82-1.37,2.66-1.37s1.73,0.44,2.66,1.37c0.31,0.3,0.8,0.36,1.13,0.08
					c0.38-0.31,0.4-0.87,0.06-1.21c-1.23-1.23-2.52-1.88-3.85-1.88s-2.62,0.64-3.85,1.88c-0.34,0.34-0.32,0.9,0.06,1.21
					C15.54,16.82,16.03,16.77,16.34,16.46z"/>
				<path class="st2" d="M14.19,30.45c0.01-0.02,0.02-0.04,0.03-0.07c1.43-4.06,2.3-8.32,2.31-12.64c0-0.05,0-0.11,0.01-0.16v-7.21
					c0-0.29-0.04-0.58-0.14-0.85c-0.52-1.45-2.17-2.05-3.47-1.36C4.45,12.68,0.18,19.75,0.18,29.25v7.94c0,0.14,0.04,0.28,0.1,0.4
					c0,0,0.01,0,0.01,0c2.12-0.35,4.29-0.45,6.39-0.95C10.13,35.82,12.61,33.56,14.19,30.45z"/>
				<path class="st2" d="M26.23,36.96c1.6-0.02,3.21-0.08,4.78-0.37c1.13-0.21,2.29-0.51,3.31-1.04c0.28-3.31,0.52-6.62,0.26-9.93
					c-0.19-2.32-0.64-4.65-1.16-6.92c-0.25-1.07-0.52-2.16-0.9-3.19c-0.3-0.82-0.61-1.58-0.78-2.4c-1.82-1.89-4.04-3.53-6.67-4.93
					c-1.43-0.76-3.27,0.03-3.59,1.78c-0.02,0.1-0.02,0.2-0.02,0.29v18.76C21.46,32.46,23.39,35.45,26.23,36.96z"/>
			</g>
		</g>
	</g>
</g>
</svg>
