<?xml version="1.0" encoding="utf-8"?>
<!-- Generator: Adobe Illustrator 24.3.0, SVG Export Plug-In . SVG Version: 6.00 Build 0)  -->
<svg version="1.1" id="Layer_1" xmlns="http://www.w3.org/2000/svg" xmlns:xlink="http://www.w3.org/1999/xlink" x="0px" y="0px"
	 viewBox="0 0 29 32" style="enable-background:new 0 0 29 32;" xml:space="preserve">
<style type="text/css">
	.st0{clip-path:url(#SVGID_2_);}
	.st1{fill:#3B9EB0;}
	.st2{fill:#187383;}
	.st3{fill:none;stroke:#3B9EB0;stroke-width:0.4795;stroke-linecap:round;stroke-linejoin:round;stroke-miterlimit:10;}
	.st4{fill:none;stroke:#187383;stroke-width:0.4795;stroke-linecap:round;stroke-linejoin:round;stroke-miterlimit:10;}
	.st5{fill:none;stroke:#187383;stroke-width:0.1885;stroke-linecap:round;stroke-linejoin:round;stroke-miterlimit:10;}
	.st6{fill:none;stroke:#187383;stroke-width:0.0707;stroke-linecap:round;stroke-linejoin:round;stroke-miterlimit:10;}
	.st7{opacity:0.2;fill:#187383;enable-background:new    ;}
</style>
<g>
	<defs>
		<rect id="SVGID_1_" x="0.08" y="0.22" width="28.84" height="31.56"/>
	</defs>
	<clipPath id="SVGID_2_">
		<use xlink:href="#SVGID_1_"  style="overflow:visible;"/>
	</clipPath>
	<g class="st0">
		<path class="st1" d="M28.69,14.3V31.5l-0.04,0.02l-1.97,0v-0.04l-0.03-17.18L28.69,14.3z"/>
		<path class="st1" d="M28.68,11.56v2.74l-2.04,0l0-2.75c0-0.28,0.11-0.54,0.3-0.72c0.19-0.19,0.44-0.3,0.72-0.3
			C28.23,10.54,28.68,11,28.68,11.56z"/>
		<path class="st1" d="M20.09,20v-5.67h0.03l6.52-0.02l0.03,17.18v0.04l-1.91,0v-5.61c0-0.64-0.52-1.15-1.17-1.15h-0.05
			c-0.57,0-1.03,0.46-1.03,1.02v5.75l-2.42,0v-0.05V20L20.09,20z M24.76,19.68c0-0.31-0.13-0.59-0.33-0.79
			c-0.2-0.2-0.49-0.33-0.8-0.33s-0.59,0.13-0.8,0.33c-0.2,0.2-0.33,0.49-0.33,0.79c0,0.31,0.13,0.59,0.33,0.8
			c0.2,0.2,0.49,0.33,0.8,0.33C24.26,20.81,24.76,20.3,24.76,19.68z"/>
		<path class="st2" d="M24.76,31.53L24.76,31.53l-2.25,0.01v0L24.76,31.53z"/>
		<path class="st2" d="M24.76,25.91v5.61l-2.25,0v-5.75c0-0.56,0.46-1.02,1.03-1.02h0.05C24.24,24.77,24.76,25.28,24.76,25.91z"/>
		<path class="st2" d="M24.43,18.89c0.2,0.2,0.33,0.49,0.33,0.8c0,0.62-0.51,1.13-1.13,1.13c-0.31,0-0.59-0.13-0.8-0.33
			c-0.2-0.2-0.33-0.49-0.33-0.79s0.13-0.59,0.33-0.8c0.2-0.2,0.49-0.33,0.8-0.33S24.23,18.68,24.43,18.89z"/>
		<path class="st1" d="M11.62,24.32c-0.06,0.22-0.08,0.46-0.08,0.7l-0.02,6.46h5.95l0-6.46c0-0.24-0.03-0.48-0.08-0.7
			c-0.13-0.53-0.4-1.01-0.78-1.39c-0.53-0.53-1.27-0.87-2.09-0.87h-0.02C13.1,22.07,11.94,23.03,11.62,24.32z M20.09,31.49v0.05
			l-5.58,0.01h-0.01l-5.58-0.01v-0.05V20h1.6h3.48H15h3.48h1.6V31.49L20.09,31.49z"/>
		<path class="st1" d="M20.09,14.33V20h-1.6v-0.11v-3.82c0-0.96-0.78-1.74-1.74-1.74c-0.48,0-0.91,0.19-1.23,0.51
			C15.2,15.15,15,15.59,15,16.07v3.82V20h-1.01v-0.15v-3.78c0-0.48-0.2-0.92-0.51-1.23c-0.31-0.32-0.75-0.51-1.23-0.51
			c-0.96,0-1.74,0.78-1.74,1.74v3.82V20h-1.6v-5.67v-3.04h1.36h4.29h0.82h3.34h1.37V14.33L20.09,14.33z"/>
		<path class="st1" d="M14.5,6.45c0.37,0,0.68-0.31,0.68-0.68c0-0.19-0.08-0.36-0.2-0.48c-0.12-0.12-0.29-0.2-0.47-0.2
			c-0.19,0-0.35,0.08-0.48,0.2c-0.12,0.12-0.2,0.29-0.2,0.48C13.82,6.14,14.13,6.44,14.5,6.45z M18.72,11.09v0.2h-3.34h-0.82h-4.29
			v-0.2v-6h1.64l0.82-0.55V3.44h1.76h0.01h1.76v1.09l0.82,0.55h1.64V11.09L18.72,11.09z M16.74,9.86V8.42c0-0.37-0.3-0.68-0.68-0.68
			h-0.14c-0.37,0-0.68,0.3-0.68,0.68v1.44H16.74z M15.23,9.86V8.42c0-0.37-0.3-0.68-0.68-0.68h-0.05h-0.01h-0.05
			c-0.37,0-0.68,0.3-0.68,0.68v1.44h0.72h0.01H15.23z M13.74,9.86V8.42c0-0.37-0.3-0.68-0.68-0.68h-0.14c-0.37,0-0.68,0.3-0.68,0.68
			v1.44H13.74z"/>
		<path class="st2" d="M18.48,19.89V20H15v-0.11v-3.82c0-0.48,0.19-0.92,0.51-1.23c0.31-0.32,0.75-0.51,1.23-0.51
			c0.96,0,1.74,0.78,1.74,1.74V19.89z"/>
		<path class="st2" d="M17.46,25.03l0,6.46h-5.95l0.02-6.46c0-0.24,0.03-0.48,0.08-0.7h2.82h0.12h2.82
			C17.43,24.55,17.46,24.78,17.46,25.03z"/>
		<path class="st2" d="M17.38,24.32h-2.82h-0.12h-2.82c0.31-1.29,1.48-2.25,2.87-2.25h0.02c0.82,0,1.55,0.33,2.09,0.87
			C16.97,23.31,17.25,23.79,17.38,24.32z"/>
		<path class="st2" d="M16.74,8.42v1.44h-1.49V8.42c0-0.37,0.3-0.68,0.68-0.68h0.14C16.44,7.74,16.74,8.04,16.74,8.42z"/>
		<path class="st2" d="M15.23,8.42v1.44h-0.73h-0.01h-0.72V8.42c0-0.37,0.3-0.68,0.68-0.68h0.05h0.01h0.05
			C14.93,7.74,15.23,8.04,15.23,8.42z"/>
		<path class="st2" d="M14.97,5.28c0.13,0.12,0.2,0.29,0.2,0.48c0,0.37-0.3,0.68-0.68,0.68c-0.37,0-0.68-0.31-0.68-0.68
			c0-0.19,0.08-0.36,0.2-0.48c0.12-0.12,0.29-0.2,0.48-0.2C14.68,5.08,14.85,5.16,14.97,5.28z"/>
		<path class="st2" d="M13.99,19.85V20h-3.48v-0.11v-3.82c0-0.96,0.78-1.74,1.74-1.74c0.48,0,0.92,0.19,1.23,0.51
			c0.31,0.31,0.51,0.75,0.51,1.23V19.85z"/>
		<path class="st2" d="M13.74,8.42v1.44h-1.49V8.42c0-0.37,0.3-0.68,0.68-0.68h0.14C13.44,7.74,13.74,8.04,13.74,8.42z"/>
		<path class="st1" d="M8.91,20v11.49v0.05l-2.42,0v-5.75c0-0.56-0.46-1.02-1.03-1.02H5.4c-0.64,0-1.17,0.51-1.17,1.15v5.61l-1.88,0
			v-0.18V14.31l6.52,0.02h0.03V20z M6.49,19.68c0-0.31-0.13-0.59-0.33-0.79c-0.21-0.2-0.49-0.33-0.8-0.33s-0.59,0.13-0.8,0.33
			c-0.21,0.2-0.33,0.49-0.33,0.79c0,0.62,0.51,1.13,1.13,1.13c0.31,0,0.59-0.13,0.8-0.33C6.36,20.27,6.49,19.99,6.49,19.68z"/>
		<path class="st2" d="M6.49,25.78v5.75l-2.25,0v-5.61c0-0.64,0.52-1.15,1.17-1.15h0.05C6.03,24.77,6.49,25.22,6.49,25.78z"/>
		<path class="st2" d="M6.16,18.89c0.2,0.2,0.33,0.49,0.33,0.8s-0.13,0.59-0.33,0.79c-0.21,0.2-0.49,0.33-0.8,0.33
			c-0.62,0-1.13-0.51-1.13-1.13c0-0.31,0.13-0.59,0.33-0.8c0.2-0.2,0.49-0.33,0.8-0.33S5.95,18.68,6.16,18.89z"/>
		<path class="st1" d="M2.36,31.34v0.18l-2.01,0l-0.04-0.21V14.3l2.05,0V31.34z"/>
		<path class="st1" d="M2.36,11.56v2.75l-2.05,0v-2.74c0-0.57,0.46-1.02,1.02-1.02c0.28,0,0.54,0.11,0.72,0.3
			C2.25,11.02,2.36,11.28,2.36,11.56z"/>
		<path class="st3" d="M0.31,31.31V14.3v-2.74c0-0.57,0.46-1.02,1.02-1.02c0.28,0,0.54,0.11,0.72,0.3c0.19,0.19,0.3,0.44,0.3,0.72
			v2.75v17.03"/>
		<path class="st3" d="M0.31,14.3l2.05,0l6.52,0.02"/>
		<path class="st4" d="M5.36,20.81c-0.62,0-1.13-0.51-1.13-1.13c0-0.31,0.13-0.59,0.33-0.8c0.2-0.2,0.49-0.33,0.8-0.33
			s0.59,0.13,0.8,0.33c0.2,0.2,0.33,0.49,0.33,0.8s-0.13,0.59-0.33,0.79C5.95,20.68,5.67,20.81,5.36,20.81z"/>
		<path class="st4" d="M14.51,6.45C14.5,6.45,14.5,6.45,14.51,6.45c-0.38,0-0.68-0.31-0.68-0.68c0-0.19,0.08-0.36,0.2-0.48
			c0.12-0.12,0.29-0.2,0.48-0.2c0,0,0,0,0.01,0"/>
		<path class="st5" d="M10.51,19.89v-3.82c0-0.96,0.78-1.74,1.74-1.74c0.48,0,0.92,0.19,1.23,0.51c0.31,0.31,0.51,0.75,0.51,1.23
			v3.78"/>
		<path class="st6" d="M13.74,9.86h-1.49V8.42c0-0.37,0.3-0.68,0.68-0.68h0.14c0.37,0,0.68,0.3,0.68,0.68V9.86L13.74,9.86z"/>
		<path class="st6" d="M14.49,9.86h-0.72V8.42c0-0.37,0.3-0.68,0.68-0.68h0.05"/>
		<path class="st3" d="M14.56,11.29h-4.29H8.91v3.04V20v11.49"/>
		<path class="st3" d="M10.27,11.09v-6h1.64l0.82-0.55V3.44h1.76"/>
		<path class="st3" d="M0.35,31.52l2.01,0l1.88,0l2.25,0l2.42,0l5.58,0.01"/>
		<path class="st3" d="M28.68,31.5V14.3v-2.74c0-0.57-0.46-1.02-1.02-1.02c-0.28,0-0.54,0.11-0.72,0.3c-0.18,0.19-0.3,0.44-0.3,0.72
			l0,2.75l0.03,17.18"/>
		<path class="st3" d="M28.68,14.3l-2.04,0l-6.52,0.02"/>
		<path class="st4" d="M23.64,20.81c0.62,0,1.13-0.51,1.13-1.13c0-0.31-0.13-0.59-0.33-0.8c-0.2-0.2-0.49-0.33-0.8-0.33
			s-0.59,0.13-0.8,0.33c-0.2,0.2-0.33,0.49-0.33,0.8s0.13,0.59,0.33,0.79C23.05,20.68,23.33,20.81,23.64,20.81z"/>
		<path class="st4" d="M14.49,6.45C14.49,6.45,14.5,6.45,14.49,6.45c0.38,0,0.68-0.31,0.68-0.68c0-0.19-0.08-0.36-0.2-0.48
			c-0.12-0.12-0.29-0.2-0.48-0.2c0,0,0,0-0.01,0"/>
		<path class="st5" d="M18.48,19.89v-3.82c0-0.96-0.78-1.74-1.74-1.74c-0.48,0-0.92,0.19-1.23,0.51C15.2,15.15,15,15.59,15,16.07
			v3.82"/>
		<path class="st6" d="M15.26,9.86h1.49V8.42c0-0.37-0.3-0.68-0.68-0.68h-0.14c-0.37,0-0.68,0.3-0.68,0.68V9.86L15.26,9.86z"/>
		<path class="st6" d="M14.49,9.86h0.01h0.73V8.42c0-0.37-0.3-0.68-0.68-0.68h-0.05h-0.01"/>
		<path class="st3" d="M17.5,24.32h-0.12h-2.82h-0.12h-2.82H11.5"/>
		<path class="st3" d="M14.56,11.29h0.82h3.34h1.37v3.04V20v11.49"/>
		<path class="st3" d="M18.72,11.09v-6h-1.64l-0.82-0.55V3.44h-1.76h-0.01"/>
		<path class="st3" d="M28.65,31.52l-1.97,0l-1.91,0l-2.25,0l-2.42,0l-5.58,0.01h-0.01"/>
		<path class="st3" d="M8.83,20h0.08h1.6h3.48h1.01h3.48h1.6h0.24"/>
		<path class="st4" d="M4.24,31.53L4.24,31.53l2.25,0.01v0v-5.75c0-0.56-0.46-1.02-1.03-1.02H5.4c-0.64,0-1.17,0.51-1.17,1.15V31.53
			z"/>
		<path class="st4" d="M22.51,31.53L22.51,31.53l2.25,0v-0.01v-5.61c0-0.64-0.52-1.15-1.17-1.15h-0.05c-0.57,0-1.03,0.46-1.03,1.02
			V31.53L22.51,31.53z"/>
		<path class="st4" d="M17.38,24.32c0.06,0.22,0.08,0.46,0.08,0.7l0,6.46h-5.95l0.02-6.46c0-0.24,0.03-0.48,0.08-0.7
			c0.31-1.29,1.48-2.25,2.87-2.25h0.02c0.82,0,1.55,0.33,2.09,0.87C16.97,23.31,17.25,23.79,17.38,24.32z"/>
		<path class="st2" d="M8.68,12.01l11.72,0.04c0,0,0,0,0,0c0.28,0,0.51-0.23,0.51-0.51c0-0.28-0.23-0.51-0.51-0.51L8.68,10.99
			c0,0,0,0,0,0c-0.28,0-0.51,0.23-0.51,0.51C8.17,11.78,8.4,12.01,8.68,12.01z"/>
		<path class="st2" d="M8.31,13.77l-5.3-0.04c0,0,0,0,0,0c-0.23,0-0.42,0.19-0.42,0.42c0,0.23,0.18,0.42,0.42,0.42l5.3,0.04
			c0,0,0,0,0,0c0.23,0,0.42-0.19,0.42-0.42C8.73,13.96,8.54,13.77,8.31,13.77z"/>
		<path class="st2" d="M25.98,13.81l-5.3-0.04c0,0,0,0,0,0c-0.23,0-0.42,0.19-0.42,0.42c0,0.23,0.18,0.42,0.42,0.42l5.3,0.04
			c0,0,0,0,0,0c0.23,0,0.42-0.19,0.42-0.42C26.39,14,26.21,13.82,25.98,13.81z"/>
		<path class="st2" d="M13.31,1.67h0.95v1.41c0,0.14,0.12,0.26,0.26,0.26c0.14,0,0.26-0.12,0.26-0.26V1.67h0.95
			c0.14,0,0.26-0.12,0.26-0.26s-0.12-0.26-0.26-0.26h-0.95V0.48c0-0.14-0.12-0.26-0.26-0.26c-0.14,0-0.26,0.12-0.26,0.26v0.67h-0.95
			c-0.14,0-0.26,0.12-0.26,0.26S13.16,1.67,13.31,1.67z"/>
		<path class="st2" d="M27.62,9.61c-0.14,0-0.26,0.12-0.26,0.26v0.46c0,0.14,0.12,0.26,0.26,0.26c0.14,0,0.26-0.12,0.26-0.26V9.87
			C27.88,9.73,27.77,9.61,27.62,9.61z"/>
		<path class="st2" d="M1.33,9.61c-0.14,0-0.26,0.12-0.26,0.26v0.46c0,0.14,0.12,0.26,0.26,0.26c0.14,0,0.26-0.12,0.26-0.26V9.87
			C1.6,9.73,1.48,9.61,1.33,9.61z"/>
		<path class="st7" d="M8.73,14.1h-0.6v17.67h0.6V14.1z"/>
		<path class="st7" d="M2.59,14.1h-0.6v17.67h0.6V14.1z"/>
		<path class="st7" d="M27.01,14.04h-0.6v17.67h0.6V14.04z"/>
		<path class="st7" d="M20.87,14.04h-0.6v17.67h0.6V14.04z"/>
		<path class="st2" d="M12.31,14.24h-0.09c-0.98,0-1.77,0.79-1.77,1.77v3.72h3.63v-3.72C14.07,15.03,13.28,14.24,12.31,14.24z"/>
		<path class="st2" d="M16.77,14.24h-0.09c-0.98,0-1.77,0.79-1.77,1.77v3.72h3.63v-3.72C18.53,15.03,17.74,14.24,16.77,14.24z"/>
	</g>
</g>
</svg>
