<svg width="20" height="20" viewBox="0 0 20 20" fill="none" xmlns="http://www.w3.org/2000/svg">
<path d="M19.9896 9.2C19.9896 8.94244 19.8887 8.70067 19.7053 8.51911C19.5362 8.35133 19.316 8.25422 19.0807 8.24244L17.2176 7.91111C17.1147 7.556 16.9849 7.20689 16.8296 6.86867C16.8442 6.85222 16.8578 6.83489 16.8702 6.81667L18.0151 5.14911C18.1722 4.97244 18.2573 4.74689 18.256 4.508C18.2547 4.24978 18.1522 4.00844 17.9711 3.832L16.4945 2.36489C16.1305 2.00889 15.5518 2 15.1789 2.33511L13.626 3.41844C13.3018 3.23956 12.9631 3.084 12.614 2.95422C12.6127 2.93311 12.61 2.91178 12.6062 2.89089L12.238 0.897555C12.2047 0.397555 11.7844 0 11.2758 0C11.2753 0 11.2747 0 11.2742 0L9.99756 0.00555558L9.19223 0.00777774C8.68534 0.0142222 8.26934 0.416222 8.24067 0.915556L7.91134 2.78156C7.55556 2.88467 7.20645 3.014 6.86845 3.168C6.85201 3.15311 6.83423 3.13933 6.81601 3.12689L5.14578 1.98133C4.76801 1.65156 4.18978 1.66711 3.83112 2.02689L2.36801 3.50222C2.18712 3.68333 2.08801 3.92422 2.08867 4.18067C2.08934 4.41911 2.17623 4.64422 2.33445 4.82022L3.41778 6.37133C3.23845 6.69644 3.08289 7.03556 2.95356 7.38422C2.93178 7.38556 2.91023 7.38822 2.88889 7.39222L0.902228 7.76222C0.66645 7.776 0.447117 7.87422 0.279561 8.04245C0.0984503 8.22422 -0.000882975 8.46578 5.9144e-06 8.72333L0.00778366 10.8049C0.0124503 11.3127 0.41445 11.7293 0.914895 11.758L2.78001 12.0878C2.88178 12.4396 3.01178 12.7893 3.16845 13.1322C3.15423 13.1482 3.14112 13.1651 3.12889 13.1827L1.98223 14.8511C1.82601 15.0264 1.74134 15.2507 1.74223 15.4889C1.74334 15.748 1.84534 15.99 2.02689 16.168L3.50223 17.634C3.68356 17.8124 3.92312 17.9104 4.17756 17.9104C4.17889 17.9104 4.18023 17.9104 4.18178 17.9104C4.42023 17.9093 4.64467 17.8224 4.81978 17.6642L6.37201 16.5811C6.69756 16.7611 7.03645 16.9162 7.38401 17.044C7.38534 17.0658 7.38801 17.0873 7.39201 17.1087L7.76089 19.1C7.79267 19.6013 8.21245 20 8.72289 20L10.0022 19.9944L10.8025 19.992C11.312 19.9882 11.7287 19.5858 11.756 19.0838L12.0869 17.218C12.4511 17.1133 12.8011 16.9838 13.1322 16.8313C13.1487 16.8458 13.1658 16.8591 13.1836 16.8716L14.8507 18.0158C15.0253 18.1716 15.2484 18.2571 15.4849 18.2573C15.4853 18.2573 15.4858 18.2573 15.4862 18.2573C15.7429 18.2573 15.9845 18.1571 16.1682 17.9736L17.6298 16.4984C17.8111 16.3173 17.9104 16.0762 17.91 15.8198C17.9096 15.5811 17.8229 15.3562 17.6647 15.1802L16.5798 13.6282C16.7584 13.3044 16.9144 12.9653 17.0453 12.6158C17.0665 12.6144 17.0878 12.6118 17.1087 12.6078L19.0971 12.2373C19.3342 12.2236 19.5544 12.1242 19.7225 11.9542C19.9031 11.7718 20.0011 11.53 19.9982 11.2771L19.9896 9.2ZM18.9429 11.1951L16.952 11.566C16.644 11.586 16.3551 11.7451 16.1711 11.9984C16.1413 12.0396 16.1178 12.0844 16.1009 12.132C15.9467 12.5673 15.7482 12.9844 15.5109 13.3718C15.424 13.5136 15.4093 13.688 15.4711 13.8424C15.5162 13.9553 15.582 14.0618 15.6622 14.1531L16.8233 15.8144C16.8236 15.8149 16.824 15.8153 16.8242 15.8156L15.4807 17.1713C15.4802 17.1711 15.4796 17.1707 15.4791 17.1702L13.8091 16.0238C13.5747 15.8184 13.2658 15.7282 12.954 15.7753C12.9013 15.7833 12.8505 15.7991 12.8027 15.8224C12.4045 16.016 11.9702 16.1704 11.5116 16.2813C11.3464 16.3213 11.2107 16.4387 11.1471 16.5962C11.0993 16.7149 11.0729 16.8296 11.0665 16.9449L10.7133 18.9371C10.7131 18.9378 10.7131 18.9384 10.7129 18.9393L9.99867 18.9416C9.99845 18.9416 9.99823 18.9416 9.99801 18.9416L8.80289 18.9469C8.80289 18.9464 8.80267 18.9458 8.80267 18.9451L8.43401 16.9544C8.41534 16.6453 8.26223 16.3631 8.00823 16.1738C7.96467 16.1413 7.91645 16.116 7.86534 16.0982C7.43489 15.9498 7.01845 15.7524 6.62801 15.512C6.48534 15.424 6.30934 15.4096 6.15445 15.4724C6.03823 15.5193 5.93401 15.5844 5.84401 15.6662L4.18534 16.8238C4.18423 16.8244 4.18334 16.8251 4.18245 16.8258L2.82801 15.4798L3.97645 13.8087C4.18045 13.5756 4.27245 13.2589 4.22356 12.9511C4.21556 12.9009 4.20045 12.8522 4.17845 12.8067C3.97645 12.384 3.82134 11.9498 3.71778 11.516C3.67978 11.3567 3.56978 11.2244 3.42045 11.1576C3.30156 11.1044 3.17867 11.074 3.05512 11.0671L1.06112 10.7149C1.06067 10.7149 1.06001 10.7147 1.05956 10.7147L1.05245 8.80511C1.05356 8.80489 1.05467 8.80467 1.05578 8.80444L3.04467 8.434C3.35423 8.414 3.64378 8.25511 3.82756 8.00178C3.85778 7.96044 3.88156 7.91467 3.89845 7.86622C4.04978 7.43333 4.24756 7.01622 4.48667 6.62667C4.57334 6.48533 4.58845 6.31133 4.52734 6.15733C4.48067 6.03978 4.41534 5.93467 4.33289 5.84356L3.17556 4.18622C3.17512 4.18556 3.17467 4.18489 3.17423 4.18444L4.51912 2.82822C4.51934 2.82844 4.51956 2.82844 4.52001 2.82867L6.18801 3.97267C6.42001 4.17956 6.7369 4.27222 7.04778 4.22356C7.09801 4.21556 7.14667 4.20022 7.19245 4.17844C7.60689 3.98 8.04223 3.82511 8.48601 3.71778C8.64267 3.68 8.77312 3.57244 8.84045 3.42622C8.89356 3.31089 8.92467 3.18378 8.93178 3.05556L9.28356 1.062C9.28356 1.06133 9.28378 1.06089 9.28378 1.06022L10.0011 1.05822C10.0013 1.05822 10.0013 1.05822 10.0016 1.05822C10.0018 1.05822 10.0018 1.05822 10.002 1.05822L11.1965 1.05289L11.5647 3.046C11.5849 3.35733 11.7445 3.64733 11.9987 3.82978C12.0396 3.85911 12.0842 3.88244 12.1318 3.89911C12.5662 4.05111 12.9833 4.24933 13.3716 4.488C13.5167 4.57711 13.6956 4.59067 13.8522 4.52422C13.9633 4.47733 14.0642 4.41333 14.1529 4.33422L15.8129 3.17622C15.8138 3.17556 15.8147 3.17489 15.8156 3.17422L17.17 4.52C17.17 4.52022 17.1698 4.52067 17.1696 4.52089L16.024 6.18933C15.8196 6.41933 15.7282 6.72644 15.7727 7.04044C15.7802 7.09422 15.7962 7.14667 15.8198 7.19578C16.0196 7.60978 16.1747 8.04378 16.2807 8.48578C16.3184 8.64267 16.426 8.77378 16.5729 8.84133C16.6896 8.89489 16.8142 8.92533 16.944 8.932L18.9349 9.286C18.9356 9.286 18.9362 9.28622 18.9369 9.28622L18.9449 11.1947C18.9445 11.1947 18.9438 11.1949 18.9429 11.1951Z" fill="#0F7386"/>
<path d="M9.99979 6.48804C9.05623 6.48804 8.17001 6.85715 7.50379 7.52782C6.14201 8.90315 6.15112 11.1311 7.52579 12.4958C8.1909 13.1516 9.06956 13.5127 10 13.5127C10.9456 13.5127 11.8311 13.1429 12.492 12.4727C13.8556 11.1 13.8471 8.87204 12.4731 7.50559C11.812 6.84937 10.9338 6.48804 9.99979 6.48804ZM11.7438 11.7323C11.2809 12.2016 10.6613 12.4603 9.99979 12.4603C9.34779 12.4603 8.73156 12.2067 8.26601 11.7476C7.30423 10.7927 7.29779 9.23204 8.25112 8.26915C8.71779 7.79937 9.3389 7.5407 9.99979 7.5407C10.654 7.5407 11.2689 7.79337 11.7309 8.25226C12.6933 9.20937 12.6996 10.7698 11.7438 11.7323Z" fill="#0F7386"/>
</svg>
