<svg width="15" height="12" viewBox="0 0 15 12" fill="none" xmlns="http://www.w3.org/2000/svg">
<path d="M5.5 1H2.5C1.39543 1 0.5 1.89543 0.5 3V9C0.5 10.1046 1.39543 11 2.5 11H5" stroke="#1390A1" stroke-linecap="round" stroke-linejoin="bevel"/>
<path d="M8.97195 0.714954C8.97195 0.438186 9.30982 0.294177 9.50996 0.492374C9.51009 0.492502 9.51022 0.49263 9.51035 0.492758L14.5081 5.49055C14.5083 5.49074 14.5085 5.49094 14.5087 5.49113C14.6306 5.6149 14.6306 5.8155 14.5087 5.93927C14.5085 5.93947 14.5083 5.93966 14.5081 5.93985L9.50941 10.9386C9.31177 11.1362 8.97195 10.9945 8.97195 10.7154V7.85817V7.45817H8.57195H4.52414C4.3492 7.45817 4.20981 7.31878 4.20981 7.14384V4.28656C4.20981 4.11162 4.3492 3.97224 4.52414 3.97224H8.57195H8.97195V3.57224V0.714954Z" stroke="#1390A1" stroke-width="0.8"/>
</svg>
