<?xml version="1.0" encoding="utf-8"?>
<!-- Generator: Adobe Illustrator 24.3.0, SVG Export Plug-In . SVG Version: 6.00 Build 0)  -->
<svg version="1.1" id="Layer_1" xmlns="http://www.w3.org/2000/svg" xmlns:xlink="http://www.w3.org/1999/xlink" x="0px" y="0px"
	 viewBox="0 0 28 38" style="enable-background:new 0 0 28 38;" xml:space="preserve">
<style type="text/css">
	.st0{fill:#10849A;}
	.st1{opacity:0.3;}
	.st2{fill:#A6E4EA;}
</style>
<g>
	<g>
		<path class="st0" d="M17.97,6.57l0,0.01c0-3.1,2.05-5.17,4.67-5.17c2.62,0,4.67,2.07,4.67,5.17c0,7.41-2.72,10.03-7.62,9.51
			c-0.67-0.07-1.3-0.18-2.27-0.38c-1.86-0.38-2.31-0.45-2.82-0.4c-0.38,0.04-0.45,0.12-0.45,0.67c0,4.07-5.64,4.07-5.64,0
			c0-3.9,3.58-6.65,7.74-5.61c1.11,0.28,1.51,0.2,1.63-0.01c0.17-0.29,0.19-0.8,0.13-2.27C17.98,7.39,17.97,7.01,17.97,6.57z"/>
		<path class="st0" d="M3.65,3.77l0.01,0c2.92-0.47,5.17-0.47,8.16,0c1.62,0.26,2.91,1.59,2.86,3.16c-0.06,1.75-1.68,3.19-4.62,4.04
			c-0.31,0.09-0.59,0.4-1.06,1.21c-0.03,0.05-0.29,0.51-0.38,0.66c-0.46,0.79-0.85,1.32-1.38,1.78c-0.74,0.65-1.91,1.29-2.94,1.51
			c-1.61,0.35-2.93-0.29-3.3-2.03c-0.44-2.06-0.44-6.14,0.02-7.8C1.42,5.06,2.43,3.99,3.65,3.77z"/>
		<path class="st0" d="M19.15,4.75c-2.2-0.73-3.1-2.23-3.1-4.75h-1.88c0,3.28,1.36,5.52,4.39,6.53L19.15,4.75z"/>
		<path class="st0" d="M6.63,31.01c0,1.14-0.57,1.89-2.15,3.48c-0.37,0.37-0.96,0.37-1.33,0C1.55,32.89,1,32.15,1,31.01
			c0-2.73,0-2.73,0-5.03v-6.25c0-2.08,1.32-3.17,2.98-2.81c8.35,1.44,10,1.44,18.49,0c1.7-0.26,2.96,0.76,2.96,2.81v9.4
			c0,4.28-2.3,6.58-6.58,6.58c-0.82,0-0.82,0-1.88,0h-1.13c-0.36,0.9-1.21,1.7-2.21,2.2c-0.26,0.13-0.57,0.13-0.84,0
			c-1.34-0.67-2.4-1.87-2.4-3.14v-0.94c0-1.93,1.83-3.76,4.7-3.76h3.76c1.36,0,0.94,0.42,0.94-0.94c0-3.32,0-3.71,0-6.35
			c-4.2,0.84-8.97,0.84-13.15,0C6.63,26.35,6.63,26.74,6.63,31.01z"/>
		<polygon class="st0" points="10.49,9.82 11.43,11.7 13.11,10.86 12.17,8.98 		"/>
		<polygon class="st0" points="7.28,13.11 10.1,14.05 10.69,12.26 7.87,11.32 		"/>
		<path class="st0" d="M4.76,31.01c0,1.63,1.29,2.82,2.82,2.82c1.46,0,2.82-1.36,2.82-2.82c0-0.95-0.01-0.94,0.94-0.94
			c1.46,0,2.82-1.36,2.82-2.82c0-1.46-1.36-2.82-2.82-2.82c-0.32,0-0.32,0-1.02,0H9.45c-0.52,0-0.94,0.42-0.94,0.94
			s0.42,0.94,0.94,0.94h1.88c0.42,0,0.94,0.52,0.94,0.94c0,0.42-0.52,0.94-0.94,0.94c-1.87,0-2.82,0.63-2.82,2.82
			c0,0.42-0.52,0.94-0.94,0.94c-0.52,0-0.94-0.39-0.94-0.94c0-0.52-0.42-0.94-0.94-0.94S4.76,30.49,4.76,31.01z"/>
		<path class="st0" d="M6.65,28.99c0.1-0.42,0.31-0.73,0.64-0.87c0.81-0.32,0.78-1.48-0.05-1.76c-0.23-0.08-0.41-0.15-0.53-0.21
			c-0.17-0.09-0.12,0.05-0.09-0.35c0.01-0.18,0.01-0.29,0.01-0.43v-0.39l-1.88,0v0.07c1.88,0,1.88,0,1.88,0v-0.02
			c0-0.09,0-0.09,0-0.38c0-0.62,1.06-1.52,1.88-1.52c0.52,0,0.94-0.42,0.94-0.94c0-0.52-0.42-0.94-0.94-0.94
			c-1.8,0-3.76,1.67-3.76,3.4c0,0.22,0,0.27,0,0.32v0.07l1.88,0v-0.07c-1.88,0-1.88,0-1.88,0c0,0.02,0,0.03,0,0.06v0.34
			c0,0.09,0,0.17-0.01,0.32c-0.05,0.81,0.06,1.33,0.54,1.75c-0.22,0.34-0.37,0.72-0.47,1.13c-0.07,0.3-0.1,0.6-0.09,0.81
			c-0.01,0.08-0.01,0.08,0.14,0.47c0.94,0.61,0.94,0.61,1.63-0.02c0.1-0.23,0.1-0.23,0.11-0.3c0.02-0.11,0.03-0.23,0.03-0.39
			c0-0.02,0-0.04,0-0.06C6.64,29.04,6.64,29.01,6.65,28.99z"/>
		<path class="st0" d="M16.86,28.19l0,1.88h0.17c0.05,0,0.1,0,0.16-0.01l0-1.87h-0.22c-1.62,0-2.82,1.19-2.82,2.82
			c0,0.52,0.42,0.94,0.94,0.94s0.94-0.42,0.94-0.94c0-0.59,0.35-0.94,0.94-0.94h0.22c1.4-0.1,2.66-1.41,2.66-2.82
			c0-1.46-1.21-2.82-2.67-2.82c-0.22,0-0.22,0-0.42,0c-0.01,0-0.01,0-0.01,0c-0.05-0.08-0.12-0.19-0.24-0.38
			c-0.75-1.2-1.45-1.82-2.98-2.38c-0.49-0.18-1.03,0.07-1.2,0.56c-0.18,0.49,0.07,1.03,0.56,1.2c1.1,0.4,1.49,0.74,2.02,1.61
			c0.12,0.19,0.19,0.31,0.25,0.41c0.11,0.17,0.21,0.32,0.31,0.47c0.18,0.25,0.46,0.39,0.77,0.39c0.25,0,0.25,0,0.52,0
			c0.21,0,0.21,0,0.42,0c0.37,0,0.79,0.47,0.79,0.94c0,0.42-0.52,0.94-0.94,0.94H16.86c0,1.88,0,1.88,0,1.88h0.32
			c-0.03-1.88-0.03-1.88-0.13-1.88H16.86z"/>
		<path class="st0" d="M8.51,31.01c0,1.64,1.57,2.82,3.76,2.82v-1.88c-1.25,0-1.88-0.47-1.88-0.94H8.51z"/>
		<path class="st0" d="M17.68,21.7c0,1.01,0.43,1.53,1.3,2.04c0.11,0.06,0.11,0.06,0.21,0.12c0.47,0.28,0.6,0.47,0.6,1.15h1.88
			c0-1.4-0.51-2.17-1.52-2.77c-0.12-0.07-0.12-0.07-0.23-0.13c-0.36-0.21-0.37-0.22-0.37-0.42H17.68z"/>
	</g>
	<g class="st1">
		<path class="st2" d="M17.4,15.37c1.61,0.07,2.96-0.19,4.26-1.02c0.46-0.3,0.84-0.61,1.32-1.14c0.36-0.4,0.67-0.84,1.01-1.45
			c0.6-1.09,0.99-2.36,1.2-3.75c0.01-0.04,0.02-0.13,0.04-0.32c0.02-0.18,0.03-0.36,0.05-0.54c0.02-0.34,0.04-0.68,0.04-1.01
			c0-0.39-0.01-0.79-0.04-1.18c-0.01-0.11-0.02-0.22-0.03-0.33c-0.06-0.37-0.15-0.74-0.26-1.1c-0.19-0.61-0.44-1.2-0.65-1.8
			c-0.52-0.21-1.1-0.32-1.7-0.32c-2.62,0-4.67,2.07-4.67,5.17l0-0.01c0,0.44,0.01,0.82,0.04,1.51c0.07,1.47,0.04,1.98-0.13,2.27
			c-0.12,0.21-0.51,0.29-1.63,0.01c-4.17-1.04-7.74,1.71-7.74,5.61c0,4.07,5.64,4.07,5.64,0c0-0.55,0.07-0.63,0.45-0.67
			c0.43-0.05,0.82,0,2.05,0.24C16.85,15.43,17.1,15.36,17.4,15.37z"/>
		<path class="st2" d="M7.89,13.66c0.26-0.71,0.7-1.2,1.21-1.64c0.41-0.69,0.67-0.97,0.97-1.05c0.2-0.06,0.4-0.12,0.59-0.19
			c0.07-0.07,0.15-0.13,0.22-0.2c0.99-0.95,2.43-2.61,2.23-4.1c-0.18-1.37-1.12-1.91-2.29-2.3c-0.64-0.22-1.3-0.49-1.97-0.74
			c-1.7-0.09-3.3,0.02-5.18,0.32l-0.01,0C2.43,3.99,1.42,5.06,1.04,6.3c-0.46,1.66-0.46,5.74-0.02,7.8c0.37,1.73,1.68,2.38,3.3,2.03
			c1.02-0.23,2.2-0.87,2.94-1.51c0.21-0.18,0.4-0.38,0.57-0.59C7.83,13.9,7.85,13.78,7.89,13.66z"/>
		<path class="st2" d="M19.15,4.75c-2.2-0.73-3.1-2.23-3.1-4.75h-1.88c0,3.28,1.36,5.52,4.39,6.53L19.15,4.75z"/>
		<path class="st2" d="M17.61,35.7c0.79-0.35,1.6-0.58,2.4-0.89c0.64-0.25,1.14-0.65,1.64-1.11c0.21-0.19,0.45-0.41,0.68-0.64
			c0.21-0.37,0.39-0.77,0.54-1.18c0.12-1.22,0.24-2.44,0.32-3.67c0.14-2.45,0.03-4.91-0.01-7.36c-0.09-0.71-0.23-1.39-0.52-2.18
			c-0.14-0.39-0.45-0.88-0.79-1.19c-0.02-0.02-0.03-0.03-0.03-0.03c-0.01-0.01-0.03-0.02-0.05-0.03c-0.06-0.03-0.11-0.07-0.17-0.1
			c-0.24-0.15-0.02-0.04-0.22-0.1c-0.11-0.03-0.19-0.06-0.25-0.07c-7.38,1.22-9.28,1.15-17.18-0.22C2.32,16.56,1,17.66,1,19.73v6.25
			c0,2.29,0,2.29,0,5.03c0,1.14,0.55,1.88,2.15,3.48c0.37,0.37,0.96,0.37,1.33,0c1.59-1.59,2.15-2.35,2.15-3.48v-8.22
			c4.19,0.84,8.95,0.84,13.15,0v6.35c0,1.36,0.42,0.94-0.94,0.94h-3.76c-2.87,0-4.7,1.83-4.7,3.76v0.94c0,1.26,1.06,2.47,2.4,3.14
			c0.26,0.13,0.57,0.13,0.84,0c1-0.5,1.85-1.3,2.21-2.2H17.61z"/>
		<polygon class="st2" points="10.49,9.82 11.43,11.7 13.11,10.86 12.17,8.98 		"/>
		<polygon class="st2" points="7.28,13.11 10.1,14.05 10.69,12.26 7.87,11.32 		"/>
		<path class="st2" d="M4.76,31.01c0,1.63,1.29,2.82,2.82,2.82c1.46,0,2.82-1.36,2.82-2.82c0-0.95-0.01-0.94,0.94-0.94
			c1.46,0,2.82-1.36,2.82-2.82c0-1.46-1.36-2.82-2.82-2.82c-0.32,0-0.32,0-1.02,0H9.45c-0.52,0-0.94,0.42-0.94,0.94
			s0.42,0.94,0.94,0.94h1.88c0.42,0,0.94,0.52,0.94,0.94c0,0.42-0.52,0.94-0.94,0.94c-1.87,0-2.82,0.63-2.82,2.82
			c0,0.42-0.52,0.94-0.94,0.94c-0.52,0-0.94-0.39-0.94-0.94c0-0.52-0.42-0.94-0.94-0.94S4.76,30.49,4.76,31.01z"/>
		<path class="st2" d="M6.65,28.99c0.1-0.42,0.31-0.73,0.64-0.87c0.81-0.32,0.78-1.48-0.05-1.76c-0.23-0.08-0.41-0.15-0.53-0.21
			c-0.17-0.09-0.12,0.05-0.09-0.35c0.01-0.18,0.01-0.29,0.01-0.43v-0.39l-1.88,0v0.07c1.88,0,1.88,0,1.88,0v-0.02
			c0-0.09,0-0.09,0-0.38c0-0.62,1.06-1.52,1.88-1.52c0.52,0,0.94-0.42,0.94-0.94c0-0.52-0.42-0.94-0.94-0.94
			c-1.8,0-3.76,1.67-3.76,3.4c0,0.22,0,0.27,0,0.32v0.07l1.88,0v-0.07c-1.88,0-1.88,0-1.88,0c0,0.02,0,0.03,0,0.06v0.34
			c0,0.09,0,0.17-0.01,0.32c-0.05,0.81,0.06,1.33,0.54,1.75c-0.22,0.34-0.37,0.72-0.47,1.13c-0.07,0.3-0.1,0.6-0.09,0.81
			c-0.01,0.08-0.01,0.08,0.14,0.47c0.94,0.61,0.94,0.61,1.63-0.02c0.1-0.23,0.1-0.23,0.11-0.3c0.02-0.11,0.03-0.23,0.03-0.39
			c0-0.02,0-0.04,0-0.06C6.64,29.04,6.64,29.01,6.65,28.99z"/>
		<path class="st2" d="M16.86,28.19l0,1.88h0.17c0.05,0,0.1,0,0.16-0.01l0-1.87h-0.22c-1.62,0-2.82,1.19-2.82,2.82
			c0,0.52,0.42,0.94,0.94,0.94s0.94-0.42,0.94-0.94c0-0.59,0.35-0.94,0.94-0.94h0.22c1.4-0.1,2.66-1.41,2.66-2.82
			c0-1.46-1.21-2.82-2.67-2.82c-0.22,0-0.22,0-0.42,0c-0.01,0-0.01,0-0.01,0c-0.05-0.08-0.12-0.19-0.24-0.38
			c-0.75-1.2-1.45-1.82-2.98-2.38c-0.49-0.18-1.03,0.07-1.2,0.56c-0.18,0.49,0.07,1.03,0.56,1.2c1.1,0.4,1.49,0.74,2.02,1.61
			c0.12,0.19,0.19,0.31,0.25,0.41c0.11,0.17,0.21,0.32,0.31,0.47c0.18,0.25,0.46,0.39,0.77,0.39c0.25,0,0.25,0,0.52,0
			c0.21,0,0.21,0,0.42,0c0.37,0,0.79,0.47,0.79,0.94c0,0.42-0.52,0.94-0.94,0.94H16.86c0,1.88,0,1.88,0,1.88h0.32
			c-0.03-1.88-0.03-1.88-0.13-1.88H16.86z"/>
		<path class="st2" d="M8.51,31.01c0,1.64,1.57,2.82,3.76,2.82v-1.88c-1.25,0-1.88-0.47-1.88-0.94H8.51z"/>
		<path class="st2" d="M17.68,21.7c0,1.01,0.43,1.53,1.3,2.04c0.11,0.06,0.11,0.06,0.21,0.12c0.47,0.28,0.6,0.47,0.6,1.15h1.88
			c0-1.4-0.51-2.17-1.52-2.77c-0.12-0.07-0.12-0.07-0.23-0.13c-0.36-0.21-0.37-0.22-0.37-0.42H17.68z"/>
	</g>
</g>
</svg>
