<svg width="210" height="195" viewBox="0 0 210 195" fill="none" xmlns="http://www.w3.org/2000/svg">
<g filter="url(#filter0_d)">
<g clip-path="url(#clip0)">
<path d="M202 4H4V187H202V4Z" fill="#0F7386"/>
<path d="M215.513 133.154C202.005 77.6589 157.663 36.9517 105.048 36.9517C51.6702 36.9517 6.81156 78.8452 -5.98203 135.568H-5.98804V187H215.513V133.154Z" fill="url(#paint0_radial)"/>
<path d="M189.785 66.6078H19.6609L29.0588 55.9399H179.133L189.785 66.6078Z" fill="#1ABAC6"/>
<path d="M30.1472 132.035H178.563L189.791 66.6196H19.6475L30.1472 132.035Z" fill="#159BAD"/>
<path d="M184.205 141.15H24.1753L30.1471 132.036H178.563L184.205 141.15Z" fill="#1AB6BA"/>
<path d="M181.02 156.563H27.69L24.1753 141.151H184.205L181.02 156.563Z" fill="#159BAD"/>
<path d="M40.1912 186.713L34.897 156.562H173.706L168.785 186.713" fill="#15949E"/>
<path d="M177.36 145.825H31.3316L30.9517 141.151H177.613L177.36 145.825Z" fill="#A2DBDD"/>
<path d="M37.3415 132.023H170.077L177.613 141.15H30.9517L37.3415 132.023Z" fill="#A9E5EA"/>
<path d="M42.6608 132.023H39.9377L36.3914 136.901H39.1145L42.6608 132.023Z" fill="#0C555B"/>
<path d="M51.2671 132.023H48.544L45.4473 136.901H48.164L51.2671 132.023Z" fill="#0C555B"/>
<path d="M55.5735 132.023H52.8504L50.2539 136.901H52.977L55.5735 132.023Z" fill="#0C555B"/>
<path d="M64.1162 132.023H61.3931L59.3096 136.901H62.0263L64.1162 132.023Z" fill="#0C555B"/>
<path d="M68.3595 132.023H65.6364L63.7366 136.901H66.4597L68.3595 132.023Z" fill="#0C555B"/>
<path d="M72.7291 132.023H70.006L68.2961 136.901H71.0192L72.7291 132.023Z" fill="#0C555B"/>
<path d="M81.3986 132.023H78.6755L77.4089 136.901H80.132L81.3986 132.023Z" fill="#0C555B"/>
<path d="M85.7682 132.023H83.0451L82.0952 136.901H84.8183L85.7682 132.023Z" fill="#0C555B"/>
<path d="M94.1844 132.023H91.4613L91.208 136.901H93.9311L94.1844 132.023Z" fill="#0C555B"/>
<path d="M98.5542 132.023H95.8311V136.907H98.5542V132.023Z" fill="#0C555B"/>
<path d="M102.924 132.023H100.201V136.907H102.924V132.023Z" fill="#0C555B"/>
<path d="M111.467 132.023H108.744L109.567 136.901H112.29L111.467 132.023Z" fill="#0C555B"/>
<path d="M115.957 132.023H113.24L114.063 136.901H116.78L115.957 132.023Z" fill="#0C555B"/>
<path d="M124.506 132.023H121.783L123.24 136.901H125.963L124.506 132.023Z" fill="#0C555B"/>
<path d="M128.806 132.023H126.089L127.793 136.901H130.516L128.806 132.023Z" fill="#0C555B"/>
<path d="M132.986 132.023H130.262L132.289 136.901H135.012L132.986 132.023Z" fill="#0C555B"/>
<path d="M141.592 132.023H138.875L141.338 136.901H144.062L141.592 132.023Z" fill="#0C555B"/>
<path d="M146.088 132.023H143.365L146.025 136.901H148.748L146.088 132.023Z" fill="#0C555B"/>
<path d="M154.694 132.023H151.978L155.074 136.901H157.797L154.694 132.023Z" fill="#0C555B"/>
<path d="M158.874 132.023H156.151L159.571 136.901H162.294L158.874 132.023Z" fill="#0C555B"/>
<path d="M163.117 132.023H160.394L164.194 136.901H166.917L163.117 132.023Z" fill="#0C555B"/>
<path d="M112.296 86.3269H97.1484L97.9844 86.0605H111.347L112.296 86.3269Z" fill="#1ABAC6"/>
<path d="M112.296 86.3208H107.122L107.211 80.137H102.227L102.309 86.3208H97.1418L98.0791 90.0057H102.36L102.537 102.741H106.882L107.065 90.0057H111.296L112.296 86.3208Z" fill="#18A7B2"/>
<path d="M107.224 80.1236H102.221L102.499 79.8953H106.907L107.224 80.1236Z" fill="#1ABAC6"/>
<path d="M179.378 68.7401L192.952 71.0005C193.485 71.0887 193.851 71.5861 193.761 72.1087L192.163 82.0382C192.163 82.0382 191.29 86.9054 187.786 86.3324C184.281 85.7594 183.704 84.0405 184.281 82.3279C184.865 80.6089 187.202 79.463 190.115 81.1819L191.123 75.2443C191.213 74.7217 190.866 74.2243 190.34 74.1173L180.893 72.1654C180.514 72.0898 180.148 72.3417 180.09 72.7132L179.025 80.0359C179.025 80.0359 177.857 84.6135 173.775 83.4738C169.693 82.3279 170.81 78.9404 171.734 78.0337C172.902 76.8877 175.816 76.3147 177.279 78.317L178.338 69.502C178.396 69.0045 178.871 68.6519 179.378 68.7401Z" fill="#F8A957"/>
<path d="M148.694 25.7817L160.177 27.6674C160.63 27.7424 160.933 28.1545 160.862 28.5915L159.512 36.8649C159.512 36.8649 158.768 40.9236 155.809 40.4428C152.849 39.962 152.351 38.5321 152.849 37.1022C153.34 35.6723 155.318 34.717 157.786 36.1469L158.639 31.2016C158.717 30.7645 158.42 30.3524 157.974 30.2587L149.98 28.6353C149.656 28.5728 149.346 28.7789 149.301 29.0911L148.396 35.1915C148.396 35.1915 147.408 39.0066 143.95 38.0513C140.493 37.096 141.443 34.2736 142.225 33.5181C143.213 32.5628 145.682 32.0882 146.916 33.7554L147.808 26.4124C147.866 26.0065 148.267 25.713 148.694 25.7817Z" fill="#FFD397"/>
<path d="M171.84 47.0138L180.461 51.0556C180.803 51.2163 180.942 51.6118 180.784 51.9456L177.775 58.2432C177.775 58.2432 176.236 61.3086 174.012 60.2765C171.789 59.2382 171.732 57.9898 172.461 56.9577C173.189 55.9256 174.969 55.6042 176.584 57.2914L178.421 53.5401C178.579 53.2125 178.446 52.817 178.117 52.6439L172.195 49.5786C171.96 49.4549 171.662 49.5538 171.555 49.7949L169.408 54.4547C169.408 54.4547 167.729 57.2791 165.227 55.7526C162.725 54.2261 164.138 52.1866 164.929 51.7602C165.93 51.2163 167.995 51.3832 168.578 52.99L171.01 47.3351C171.137 47.0076 171.523 46.8654 171.84 47.0138Z" fill="#F8A957"/>
<path d="M11.9846 59.3897L23.453 54.1001C23.9016 53.8903 24.4387 54.0874 24.6535 54.5388L28.6659 63.0836C28.6659 63.0836 30.5615 67.3179 27.6044 68.6912C24.6472 70.0644 23.3076 69.0345 22.8464 67.3942C22.3851 65.7539 23.5541 63.6558 26.6629 63.4778L24.306 58.3407C24.0975 57.8893 23.573 57.6795 23.1181 57.8702L14.9417 61.2589C14.6131 61.3924 14.4678 61.7803 14.6258 62.1045L17.6651 68.3478C17.6651 68.3478 19.1879 72.5122 15.4914 73.7456C11.795 74.979 10.8598 71.762 11.081 70.5794C11.3653 69.0854 13.2736 67.1272 15.4346 67.9219L11.5991 60.5214C11.3843 60.1018 11.5612 59.5868 11.9846 59.3897Z" fill="#FFD397"/>
<path d="M45.8945 36.9887L54.6755 40.1837C55.0242 40.3077 55.2017 40.6862 55.0749 41.0212L52.7228 47.4422C52.7228 47.4422 51.5055 50.5751 49.2421 49.7624C46.9787 48.9497 46.8075 47.7275 47.4225 46.6543C48.0374 45.581 49.7429 45.1095 51.4738 46.617L52.913 42.7831C53.0398 42.4481 52.8749 42.0696 52.5325 41.9331L46.4715 39.4578C46.2305 39.3585 45.9516 39.4826 45.8628 39.7246L44.2017 44.4705C44.2017 44.4705 42.8259 47.3801 40.2455 46.1083C37.6651 44.8365 38.8507 42.7148 39.5861 42.2309C40.5118 41.6105 42.5406 41.5919 43.257 43.1119L45.102 37.3671C45.2034 37.0445 45.5648 36.8708 45.8945 36.9887Z" fill="#F8A957"/>
<path d="M19.3804 82.9143L28.2749 87.3324C28.6229 87.5076 28.7747 87.9358 28.6102 88.2991L25.4788 95.1306C25.4788 95.1306 23.8783 98.4587 21.5819 97.3234C19.2856 96.1881 19.2349 94.8321 19.9878 93.7163C20.7406 92.6004 22.5814 92.2501 24.2452 94.0925L26.1494 90.0183C26.3202 89.6615 26.181 89.2333 25.8394 89.0452L19.7284 85.6975C19.4817 85.5613 19.178 85.6716 19.0641 85.9311L16.831 90.9914C16.831 90.9914 15.0914 94.0536 12.5103 92.3863C9.92926 90.719 11.3906 88.5067 12.213 88.0461C13.2505 87.4622 15.3824 87.6503 15.977 89.389L18.5074 83.2517C18.6466 82.9014 19.0452 82.7521 19.3804 82.9143Z" fill="#F8A957"/>
<path d="M79.2161 30.2953C78.9408 29.7254 78.1701 29.7647 77.9621 30.3673L75.6254 37.1926C75.6254 37.1926 74.8669 39.2232 73.613 38.3848C72.3651 37.5463 69.6859 38.0769 69.8083 41.1686C69.9306 44.2603 74.7385 44.0441 75.7845 41.3127C76.8305 38.5813 78.5554 33.3477 78.5554 33.3477C78.5554 33.3477 80.0663 36.269 82.3969 35.2865C82.7822 35.1228 82.8495 34.5725 82.5131 34.3236C81.669 33.7014 80.2315 32.4241 79.2161 30.2953Z" fill="#FFD397"/>
<path d="M13.7227 28.6239C13.0001 28.5662 12.5403 29.3933 12.9935 29.964L18.0847 36.4467C18.0847 36.4467 19.5562 38.4409 17.9533 39.2424C16.3504 40.0376 15.1548 43.1346 18.2095 44.8467C21.2643 46.5587 24.1153 41.4418 22.1577 38.7295C20.2 36.0171 16.2519 31.1182 16.2519 31.1182C16.2519 31.1182 20.0292 31.2913 20.5679 28.284C20.6599 27.7903 20.1672 27.3863 19.7139 27.5915C18.5709 28.1109 16.4227 28.8355 13.7227 28.6239Z" fill="#FFD397"/>
<path d="M39.1958 70.8224C39.0259 70.4096 38.425 70.3727 38.216 70.7731L35.871 75.277C35.871 75.277 35.1198 76.614 34.2119 75.9363C33.304 75.2647 31.1746 75.4188 31.0309 77.5506C30.8872 79.6824 34.6495 79.9042 35.6816 78.1174C36.7071 76.3245 38.4511 72.868 38.4511 72.868C38.4511 72.868 39.4048 74.9936 41.299 74.5007C41.6126 74.4206 41.7105 74.0448 41.4623 73.8476C40.8418 73.3547 39.8228 72.3689 39.1958 70.8224Z" fill="#F8A957"/>
<path d="M178.531 93.8573C178.27 93.2911 177.473 93.3037 177.242 93.8825L174.626 100.438C174.626 100.438 173.779 102.388 172.515 101.526C171.251 100.664 168.48 101.098 168.511 104.105C168.542 107.113 173.499 107.062 174.664 104.445C175.828 101.828 177.765 96.7952 177.765 96.7952C177.765 96.7952 179.229 99.6828 181.664 98.8084C182.062 98.6637 182.156 98.129 181.813 97.8773C180.948 97.2545 179.509 95.9648 178.531 93.8573Z" fill="#FFD397"/>
<path d="M201.27 41.6785C201.138 41.0337 200.321 40.8485 199.944 41.3848L195.682 47.4498C195.682 47.4498 194.343 49.2373 193.268 48.0435C192.193 46.8497 189.257 46.5943 188.553 49.6842C187.849 52.7742 192.922 53.9616 194.745 51.5676C196.568 49.1735 199.768 44.5003 199.768 44.5003C199.768 44.5003 200.56 47.8264 203.256 47.5392C203.696 47.4945 203.923 46.9646 203.633 46.6198C202.911 45.7644 201.76 44.0853 201.27 41.6785Z" fill="#F8A957"/>
<path d="M130.076 31.272C129.681 30.8495 129.006 31.1225 128.982 31.7206L128.757 38.4941C128.757 38.4941 128.629 40.5288 127.298 40.1778C125.96 39.8203 123.728 41.1269 124.671 43.8246C125.613 46.5223 129.827 44.8387 130.015 42.0955C130.204 39.3522 130.313 34.1778 130.313 34.1778C130.313 34.1778 132.448 36.297 134.253 34.7043C134.551 34.4443 134.466 33.9308 134.095 33.8137C133.177 33.5342 131.56 32.8452 130.076 31.272Z" fill="#F8A957"/>
<path d="M179.516 31.1043C179.15 30.954 178.771 31.2907 178.908 31.6573L180.454 35.7809C180.454 35.7809 180.883 37.0372 179.908 37.1695C178.933 37.3017 177.777 38.6602 179.082 40.0367C180.38 41.4133 182.753 39.3154 182.193 37.6203C181.634 35.9252 180.417 32.7934 180.417 32.7934C180.417 32.7934 182.361 33.5147 183.156 32.0901C183.287 31.8557 183.1 31.5732 182.827 31.5972C182.138 31.6633 180.895 31.6693 179.516 31.1043Z" fill="#FFD397"/>
</g>
</g>
<defs>
<filter id="filter0_d" x="0" y="0" width="210" height="195" filterUnits="userSpaceOnUse" color-interpolation-filters="sRGB">
<feFlood flood-opacity="0" result="BackgroundImageFix"/>
<feColorMatrix in="SourceAlpha" type="matrix" values="0 0 0 0 0 0 0 0 0 0 0 0 0 0 0 0 0 0 127 0"/>
<feOffset dx="2" dy="2"/>
<feGaussianBlur stdDeviation="3"/>
<feColorMatrix type="matrix" values="0 0 0 0 0 0 0 0 0 0 0 0 0 0 0 0 0 0 0.08 0"/>
<feBlend mode="normal" in2="BackgroundImageFix" result="effect1_dropShadow"/>
<feBlend mode="normal" in="SourceGraphic" in2="effect1_dropShadow" result="shape"/>
</filter>
<radialGradient id="paint0_radial" cx="0" cy="0" r="1" gradientUnits="userSpaceOnUse" gradientTransform="translate(104.763 111.977) scale(90.9127 104.445)">
<stop offset="2.39617e-07" stop-color="#6EC2C4"/>
<stop offset="1" stop-color="#6EC2C4"/>
</radialGradient>
<clipPath id="clip0">
<rect x="4" y="4" width="198" height="183" rx="24" fill="white"/>
</clipPath>
</defs>
</svg>
