<svg width="15" height="15" viewBox="0 0 15 15" fill="none" xmlns="http://www.w3.org/2000/svg">
<g clip-path="url(#clip0)">
<path d="M11.3672 15C11.1535 15 10.9826 14.9554 10.8116 14.8661L7.64926 13.125C7.56379 13.0804 7.43558 13.0804 7.30737 13.125L4.14498 14.8661C3.71763 15.0893 3.24755 15.0446 2.86293 14.7768C2.47831 14.5089 2.30737 14.0179 2.39284 13.5268L2.99114 9.86607C2.99114 9.73214 2.99114 9.59822 2.90567 9.50893L0.384298 6.91964C0.0424172 6.5625 -0.0857879 6.07143 0.0851523 5.625C0.256092 5.17857 0.597973 4.82143 1.06806 4.77679L4.57233 4.24107C4.70054 4.24107 4.78601 4.15179 4.82874 4.01786L6.40994 0.714286C6.62361 0.267857 7.05096 0 7.52105 0C7.99114 0 8.41849 0.267857 8.63216 0.714286L10.1706 4.01786C10.2134 4.15179 10.3416 4.19643 10.427 4.24107L13.9313 4.77679C14.4014 4.86607 14.786 5.17857 14.9142 5.625C15.0424 6.07143 14.9569 6.60714 14.6151 6.91964L12.0937 9.50893C12.0082 9.59822 11.9655 9.73214 12.0082 9.86607L12.6065 13.5268C12.692 14.0179 12.521 14.4643 12.1364 14.7768C11.88 14.9107 11.6236 15 11.3672 15Z" fill="#F8A957"/>
</g>
<defs>
<clipPath id="clip0">
<rect width="15" height="15" fill="white"/>
</clipPath>
</defs>
</svg>
