<?xml version="1.0" encoding="utf-8"?>
<!-- Generator: Adobe Illustrator 24.3.0, SVG Export Plug-In . SVG Version: 6.00 Build 0)  -->
<svg version="1.1" id="Layer_1" xmlns="http://www.w3.org/2000/svg" xmlns:xlink="http://www.w3.org/1999/xlink" x="0px" y="0px"
	 viewBox="0 0 376 109" style="enable-background:new 0 0 376 109;" xml:space="preserve">
<style type="text/css">
	.st0{fill:url(#SVGID_1_);}
	.st1{fill:#F1C588;}
	.st2{fill:#C7EBF4;}
	.st3{fill:#FFFFFF;}
</style>
<g>
	
		<linearGradient id="SVGID_1_" gradientUnits="userSpaceOnUse" x1="-1404.4817" y1="1579.0565" x2="-1404.2427" y2="1514.0555" gradientTransform="matrix(1 0 0 -1 1592.3622 1579.0552)">
		<stop  offset="0" style="stop-color:#FFFFFF;stop-opacity:0"/>
		<stop  offset="0.2801" style="stop-color:#FFFFFF"/>
	</linearGradient>
	<path class="st0" d="M157.86,0H23.76C10.97,0,0.5,5.48,0.5,12.19v40.63C0.5,59.52,10.97,65,23.76,65h328.49
		c12.79,0,23.26-5.48,23.26-12.19V12.19C375.5,5.48,365.04,0,352.24,0H219.69"/>
	<path class="st1" d="M215.1,23.53c0-8.2-6.7-14.9-14.9-14.9c-4.5,0-8.8,2.1-11.7,5.6c-5.1-6.4-14.5-7.5-21-2.4
		c-3.6,2.8-5.6,7.1-5.6,11.7c0,0-1.3,15.6,26.6,31.8C216.4,39.13,215.1,23.53,215.1,23.53z"/>
	<path class="st2" d="M229.6,24h127.9c10,0,18,8.1,18,18v67H0.5V42c0-9.9,8.1-18,18-18h128.9c3.8,0,7.3,2.2,9,5.6
		c8.8,17.2,25,28.3,30.5,30.7c1,0.5,2.2,0.5,3.2,0c5.5-2.4,21.7-13.5,30.5-30.7C222.4,26.2,225.8,24,229.6,24z"/>
	<path class="st3" d="M196.1,30.53v1c0,0.5-0.4,0.9-0.9,0.9H190v5c0,0.5-0.4,0.9-0.9,0.9h-1c-0.5,0-0.9-0.4-0.9-0.9v-5h-5
		c-0.5,0-0.9-0.4-0.9-0.9v-1c0-0.5,0.4-0.9,0.9-0.9h5v-5.2c0-0.5,0.4-0.9,0.9-0.9h1c0.5,0,0.9,0.4,0.9,0.9v5.2h5.2
		C195.7,29.63,196.1,30.03,196.1,30.53z"/>
</g>
</svg>
