<?xml version="1.0" encoding="utf-8"?>
<!-- Generator: Adobe Illustrator 24.3.0, SVG Export Plug-In . SVG Version: 6.00 Build 0)  -->
<svg version="1.1" id="Layer_1" xmlns="http://www.w3.org/2000/svg" xmlns:xlink="http://www.w3.org/1999/xlink" x="0px" y="0px"
	 viewBox="0 0 29 31" style="enable-background:new 0 0 29 31;" xml:space="preserve">
<style type="text/css">
	.st0{fill:#138E9F;}
</style>
<g>
	<path class="st0" d="M14.5,16.41c-3.92,0-7.1-3.24-7.1-7.22V7.72c0-3.98,3.19-7.22,7.1-7.22c3.92,0,7.11,3.24,7.11,7.22V9.2
		C21.6,13.18,18.42,16.41,14.5,16.41z M14.5,1.06c-3.62,0-6.56,2.99-6.56,6.66V9.2c0,3.67,2.94,6.66,6.56,6.66
		c3.62,0,6.56-2.99,6.56-6.66V7.72C21.06,4.04,18.12,1.06,14.5,1.06z"/>
	<path class="st0" d="M27.15,30.5H1.86C1.38,30.5,1,30.11,1,29.63c0-6.67,5.34-12.09,11.9-12.09h3.2c6.56,0,11.9,5.42,11.9,12.09
		C28,30.11,27.62,30.5,27.15,30.5z M12.9,18.1c-6.26,0-11.36,5.18-11.36,11.54c0,0.17,0.14,0.31,0.31,0.31h25.29
		c0.17,0,0.31-0.14,0.31-0.31c0-6.36-5.09-11.54-11.36-11.54H12.9L12.9,18.1z"/>
</g>
</svg>
