<svg width="9" height="12" viewBox="0 0 9 12" fill="none" xmlns="http://www.w3.org/2000/svg">
<path d="M4.28448 11.5875C3.66969 10.6963 3.14731 9.95214 2.7035 9.31993C1.91093 8.1909 1.36895 7.41885 0.998821 6.8034C0.71391 6.32966 0.542148 5.96623 0.439628 5.62005C0.337791 5.27617 0.3 4.93484 0.3 4.5C0.3 2.1804 2.1804 0.3 4.5 0.3C6.8196 0.3 8.7 2.1804 8.7 4.5C8.7 4.93484 8.66221 5.27617 8.56037 5.62005C8.45785 5.96623 8.28609 6.32966 8.00118 6.8034C7.63105 7.41885 7.08907 8.1909 6.2965 9.31993C5.85273 9.95209 5.3304 10.6962 4.71568 11.5873C4.61145 11.7376 4.38832 11.7376 4.2842 11.5871L4.03753 11.7579L4.28448 11.5875Z" stroke="#1390A1" stroke-width="0.6"/>
<circle cx="4.5" cy="4.5" r="1.8" stroke="#1390A1" stroke-width="0.6"/>
</svg>
