<svg width="15" height="12" viewBox="0 0 15 12" fill="none" xmlns="http://www.w3.org/2000/svg">
<path d="M14.3745 5.41826L14.3745 5.41828C14.4549 5.58911 14.5 5.79034 14.5 6C14.5 6.20966 14.4549 6.41089 14.3745 6.58172L14.3745 6.58173C12.9677 9.57115 10.3815 11.5 7.5 11.5C4.61973 11.5 2.033 9.57252 0.625488 6.58176L0.173995 6.79425L0.625487 6.58176C0.545086 6.41092 0.5 6.20968 0.5 6.00002C0.5 5.79035 0.545085 5.58911 0.625487 5.41827L0.62549 5.41827C2.03235 2.42885 4.61852 0.5 7.5 0.5C10.3803 0.5 12.967 2.42749 14.3745 5.41826Z" stroke="#1390A1"/>
<path d="M10.5 5.95898C10.5 7.61584 9.15685 8.95898 7.5 8.95898C5.84315 8.95898 4.5 7.61584 4.5 5.95898C4.5 4.30213 5.84315 2.95898 7.5 2.95898C9.15685 2.95898 10.5 4.30213 10.5 5.95898Z" fill="#1390A1"/>
<path d="M9 5C9 5.55228 8.55228 6 8 6C7.44772 6 7 5.55228 7 5C7 4.44772 7.44772 4 8 4C8.55228 4 9 4.44772 9 5Z" fill="#FAFDFE"/>
</svg>
